<svg width="800" height="800" viewBox="0 0 800 800" fill="none" xmlns="http://www.w3.org/2000/svg">
<path d="M718.328 179.592C718.327 175.344 716.709 171.169 713.587 168.047L550.322 4.78204C547.2 1.66041 543.024 0.042449 538.777 0.0408163V0H97.9593C88.9422 0 81.6328 7.30939 81.6328 16.3265V783.673C81.6328 792.691 88.9422 800 97.9593 800H702.041C711.056 800 718.367 792.691 718.367 783.673V179.592H718.328ZM555.102 55.742L662.624 163.265H555.102V55.742ZM685.714 767.347H114.286V32.6531H522.449V179.592C522.449 188.609 529.76 195.918 538.776 195.918H685.714V767.347Z" fill="black"/>
<path d="M619.505 554.27C607.004 534.064 585.26 522.474 559.856 522.474C547.593 522.474 535.043 525.151 522.449 530.444C509.855 525.151 497.304 522.474 485.041 522.474C459.637 522.474 437.899 534.064 425.396 554.271C412.276 575.478 411.451 602.735 422.864 630.031C411.448 657.277 412.268 684.51 425.381 705.727C437.897 725.977 459.663 737.59 485.099 737.589C497.345 737.589 509.879 734.916 522.449 729.634C535.02 734.916 547.551 737.589 559.794 737.589H559.801C585.236 737.587 607.002 725.971 619.517 705.719C632.628 684.501 633.448 657.274 622.034 630.033C633.45 602.73 632.625 575.474 619.505 554.27ZM591.74 688.554C585.213 699.115 573.869 704.934 559.799 704.936C550.302 704.936 540.191 702.289 529.752 697.07C527.455 695.92 524.952 695.345 522.45 695.345C519.949 695.345 517.446 695.92 515.149 697.07C504.712 702.287 494.601 704.934 485.099 704.936C471.028 704.936 459.685 699.12 453.157 688.56C444.957 675.29 445.779 656.621 455.42 637.341C457.716 632.75 457.717 627.345 455.428 622.753C445.783 603.412 444.958 584.715 453.164 571.452C459.677 560.924 470.999 555.127 485.041 555.127C494.558 555.127 504.687 557.78 515.148 563.009C519.744 565.306 525.154 565.306 529.748 563.009C540.209 557.778 550.338 555.127 559.855 555.127C573.9 555.127 585.223 560.924 591.735 571.45C599.941 584.712 599.115 603.411 589.468 622.753C587.18 627.345 587.182 632.75 589.479 637.341C599.117 656.616 599.941 675.282 591.74 688.554Z" fill="black"/>
<path d="M538.776 589.221H506.123V621.874H538.776V589.221Z" fill="black"/>
<path d="M555.102 638.201H489.796V670.854H555.102V638.201Z" fill="black"/>
<path d="M351.02 644.898H155.102V677.551H351.02V644.898Z" fill="black"/>
<path d="M351.02 702.041H318.367V734.694H351.02V702.041Z" fill="black"/>
<path d="M302.041 702.041H269.388V734.694H302.041V702.041Z" fill="black"/>
<path d="M187.755 702.041H155.102V734.694H187.755V702.041Z" fill="black"/>
<path d="M253.061 65.3062H155.102V97.9592H253.061V65.3062Z" fill="black"/>
<path d="M351.02 114.286H155.102V146.939H351.02V114.286Z" fill="black"/>
<path d="M530.612 244.898H269.388V277.551H530.612V244.898Z" fill="black"/>
<path d="M644.898 310.204H155.102V342.857H644.898V310.204Z" fill="black"/>
<path d="M644.898 375.51H155.102V408.163H644.898V375.51Z" fill="black"/>
<path d="M546.939 440.816H155.102V473.469H546.939V440.816Z" fill="black"/>
<path d="M644.898 440.816H612.245V473.469H644.898V440.816Z" fill="black"/>
<path d="M595.918 440.816H563.265V473.469H595.918V440.816Z" fill="black"/>
</svg>
