<svg width="600" height="600" viewBox="0 0 600 600" fill="none" xmlns="http://www.w3.org/2000/svg">
<path d="M537.5 412.5H62.5C55.8696 412.5 49.5107 415.134 44.8223 419.822C40.1339 424.511 37.5 430.87 37.5 437.5V537.5C37.5 544.13 40.1339 550.489 44.8223 555.178C49.5107 559.866 55.8696 562.5 62.5 562.5H537.5C544.13 562.5 550.489 559.866 555.178 555.178C559.866 550.489 562.5 544.13 562.5 537.5V437.5C562.5 430.87 559.866 424.511 555.178 419.822C550.489 415.134 544.13 412.5 537.5 412.5Z" fill="#444444"/>
<path d="M400 137.5C398.358 137.5 396.733 137.177 395.216 136.548C393.7 135.92 392.322 135 391.161 133.839C390 132.678 389.08 131.3 388.451 129.784C387.823 128.267 387.5 126.642 387.5 125V62.5H212.5V125C212.5 126.642 212.177 128.267 211.548 129.784C210.92 131.3 210 132.678 208.839 133.839C207.678 135 206.3 135.92 204.784 136.548C203.267 137.177 201.642 137.5 200 137.5C198.358 137.5 196.733 137.177 195.216 136.548C193.7 135.92 192.322 135 191.161 133.839C190 132.678 189.08 131.3 188.452 129.784C187.823 128.267 187.5 126.642 187.5 125V50C187.5 46.6848 188.817 43.5054 191.161 41.1612C193.505 38.817 196.685 37.5 200 37.5H400C403.315 37.5 406.495 38.817 408.839 41.1612C411.183 43.5054 412.5 46.6848 412.5 50V125C412.5 126.642 412.177 128.267 411.548 129.784C410.92 131.3 410 132.678 408.839 133.839C407.678 135 406.3 135.92 404.784 136.548C403.267 137.177 401.642 137.5 400 137.5Z" fill="#B3B3B3"/>
<path d="M562.5 112.5H37.5C30.8696 112.5 24.5107 115.134 19.8223 119.822C15.1339 124.511 12.5 130.87 12.5 137.5V412.5C12.5 419.13 15.1339 425.489 19.8223 430.178C24.5107 434.866 30.8696 437.5 37.5 437.5H562.5C569.13 437.5 575.489 434.866 580.178 430.178C584.866 425.489 587.5 419.13 587.5 412.5V137.5C587.5 130.87 584.866 124.511 580.178 119.822C575.489 115.134 569.13 112.5 562.5 112.5Z" fill="#636363"/>
<path d="M350 487.5H250C248.358 487.5 246.733 487.177 245.216 486.549C243.7 485.92 242.322 485 241.161 483.839C240 482.678 239.08 481.3 238.452 479.784C237.823 478.267 237.5 476.642 237.5 475V400C237.5 398.359 237.823 396.733 238.452 395.216C239.08 393.7 240 392.322 241.161 391.161C242.322 390 243.7 389.08 245.216 388.452C246.733 387.823 248.358 387.5 250 387.5H350C351.642 387.5 353.267 387.823 354.784 388.452C356.3 389.08 357.678 390 358.839 391.161C360 392.322 360.92 393.7 361.549 395.216C362.177 396.733 362.5 398.359 362.5 400V475C362.5 476.642 362.177 478.267 361.549 479.784C360.92 481.3 360 482.678 358.839 483.839C357.678 485 356.3 485.92 354.784 486.549C353.267 487.177 351.642 487.5 350 487.5Z" fill="#EFD358"/>
</svg>
