<svg width="200" height="200" viewBox="0 0 200 200" fill="none" xmlns="http://www.w3.org/2000/svg">
<path d="M190.188 26.7224H9.81211C4.40156 26.7224 0 31.124 0 36.5345V163.466C0 168.876 4.40156 173.278 9.81211 173.278H46.6945C48.4242 173.278 49.8262 171.876 49.8262 170.146C49.8262 168.417 48.4246 167.015 46.6945 167.015H9.81211C7.85508 167.015 6.26289 165.422 6.26289 163.465V36.5345C6.26289 34.5775 7.85508 32.9853 9.81211 32.9853H190.188C192.145 32.9853 193.737 34.5775 193.737 36.5345V163.466C193.737 165.423 192.145 167.015 190.188 167.015H60.1707C58.441 167.015 57.0391 168.417 57.0391 170.147C57.0391 171.876 58.4406 173.278 60.1707 173.278H190.188C195.598 173.278 200 168.877 200 163.466V36.5345C200 31.124 195.598 26.7224 190.188 26.7224Z" fill="black"/>
<path d="M176.827 43.4238H153.445C151.715 43.4238 150.313 44.8254 150.313 46.5555C150.313 48.2855 151.714 49.6871 153.445 49.6871H176.827C176.941 49.6871 177.035 49.7813 177.035 49.8957V150.104C177.035 150.219 176.941 150.313 176.827 150.313H23.1734C23.0586 150.313 22.9648 150.219 22.9648 150.104V49.8957C22.9648 49.7809 23.059 49.6871 23.1734 49.6871H139.945C141.674 49.6871 143.076 48.2855 143.076 46.5555C143.076 44.8254 141.675 43.4238 139.945 43.4238H23.1734C19.6047 43.4238 16.7015 46.327 16.7015 49.8957V150.104C16.7015 153.673 19.6047 156.576 23.1734 156.576H176.827C180.396 156.576 183.299 153.673 183.299 150.104V49.8957C183.298 46.327 180.395 43.4238 176.827 43.4238Z" fill="black"/>
<path d="M81.0317 106.294C86.395 101.439 89.7704 94.4258 89.7704 86.6387C89.7704 72.0191 77.8766 60.125 63.2567 60.125C48.6368 60.125 36.743 72.0188 36.743 86.6387C36.743 94.4258 40.1184 101.439 45.4821 106.294L36.9106 131.417C36.4657 132.723 36.927 134.167 38.0481 134.972C39.1692 135.777 40.684 135.754 41.7801 134.914L47.6106 130.445L49.4942 137.546C49.8477 138.88 51.0332 139.825 52.4118 139.873C52.4485 139.874 52.4852 139.875 52.5215 139.875C53.8563 139.875 55.0508 139.026 55.4848 137.754L63.2571 114.973L71.0293 137.754C71.4633 139.026 72.6571 139.875 73.9926 139.875C74.0289 139.875 74.0657 139.874 74.1024 139.873C75.4817 139.825 76.6668 138.88 77.02 137.546L78.9036 130.445L84.734 134.914C85.8352 135.757 87.4055 135.766 88.5157 134.934C89.5895 134.13 90.036 132.687 89.6028 131.417L81.0317 106.294ZM52.8965 125.944C52.5004 124.45 52.2297 122.86 50.6133 122.202C49.5555 121.771 48.3969 121.973 47.4926 122.644C47.0497 122.973 46.6161 123.316 46.1782 123.652L50.8204 110.046C52.8922 111.151 55.1274 111.986 57.4793 112.511L52.8965 125.944ZM63.2567 106.889C52.0907 106.889 43.0063 97.8051 43.0063 86.6391C43.0063 75.473 52.0907 66.3887 63.2567 66.3887C74.4227 66.3887 83.5071 75.473 83.5071 86.6391C83.5071 97.8051 74.4231 106.889 63.2567 106.889ZM79.0207 122.644C78.1164 121.973 76.9579 121.771 75.9 122.202C74.284 122.86 74.0133 124.45 73.6168 125.944L69.034 112.511C71.3856 111.986 73.6211 111.151 75.693 110.046L80.3352 123.652C79.8973 123.316 79.4641 122.973 79.0207 122.644Z" fill="black"/>
<path d="M63.2566 70.1462C54.1625 70.1462 46.764 77.5451 46.764 86.6388C46.764 95.7326 54.1629 103.131 63.2566 103.131C72.3504 103.131 79.7492 95.7326 79.7492 86.6388C79.7492 77.5451 72.3508 70.1462 63.2566 70.1462ZM63.2566 96.8685C57.6156 96.8685 53.0269 92.2798 53.0269 86.6388C53.0269 80.9978 57.6156 76.4091 63.2566 76.4091C68.8976 76.4091 73.4863 80.9978 73.4863 86.6388C73.4863 92.2798 68.8976 96.8685 63.2566 96.8685Z" fill="black"/>
<path d="M160.125 90.1877H153.445C151.715 90.1877 150.313 91.5893 150.313 93.3194C150.313 95.0495 151.715 96.451 153.445 96.451H160.125C161.855 96.451 163.257 95.0495 163.257 93.3194C163.257 91.5893 161.855 90.1877 160.125 90.1877Z" fill="black"/>
<path d="M116.702 110.23H106.681C104.951 110.23 103.549 111.631 103.549 113.361C103.549 115.091 104.951 116.493 106.681 116.493H116.702C118.431 116.493 119.833 115.091 119.833 113.361C119.833 111.631 118.431 110.23 116.702 110.23Z" fill="black"/>
<path d="M143.424 90.1877H133.403C131.673 90.1877 130.271 91.5893 130.271 93.3194C130.271 95.0495 131.673 96.451 133.403 96.451H143.424C145.154 96.451 146.555 95.0495 146.555 93.3194C146.555 91.5893 145.154 90.1877 143.424 90.1877Z" fill="black"/>
<path d="M123.382 90.1877H106.68C104.951 90.1877 103.549 91.5893 103.549 93.3194C103.549 95.0495 104.95 96.451 106.68 96.451H123.382C125.112 96.451 126.514 95.0495 126.514 93.3194C126.514 91.5893 125.112 90.1877 123.382 90.1877Z" fill="black"/>
<path d="M160.125 110.23H126.723C124.993 110.23 123.591 111.631 123.591 113.361C123.591 115.091 124.993 116.493 126.723 116.493H160.125C161.855 116.493 163.257 115.091 163.257 113.361C163.257 111.631 161.855 110.23 160.125 110.23Z" fill="black"/>
<path d="M155.115 60.1252H111.691C107.202 60.1252 103.549 63.778 103.549 68.267C103.549 72.7561 107.202 76.4088 111.691 76.4088H155.115C159.604 76.4088 163.257 72.7561 163.257 68.267C163.257 63.778 159.604 60.1252 155.115 60.1252ZM155.115 70.1459H111.691C110.655 70.1459 109.812 69.303 109.812 68.267C109.812 67.2311 110.655 66.3881 111.691 66.3881H155.115C156.151 66.3881 156.994 67.2311 156.994 68.267C156.994 69.303 156.151 70.1459 155.115 70.1459Z" fill="black"/>
<path d="M133.403 130.271H106.68C104.951 130.271 103.549 131.673 103.549 133.403C103.549 135.133 104.95 136.535 106.68 136.535H133.403C135.132 136.535 136.534 135.133 136.534 133.403C136.534 131.673 135.133 130.271 133.403 130.271Z" fill="black"/>
<path d="M160.125 130.271H143.424C141.694 130.271 140.292 131.673 140.292 133.403C140.292 135.133 141.694 136.535 143.424 136.535H160.125C161.855 136.535 163.257 135.133 163.257 133.403C163.257 131.673 161.855 130.271 160.125 130.271Z" fill="black"/>
</svg>
