<svg width="800" height="800" viewBox="0 0 800 800" fill="none" xmlns="http://www.w3.org/2000/svg">
<path d="M700.518 87.0054C697.666 87.0054 694.848 87.196 692.062 87.4365C691.366 87.2458 690.686 87.0054 689.94 87.0054H281.865C227.009 87.0054 182.383 131.631 182.383 186.487V605.223H8.29016C3.7057 605.223 0 608.92 0 613.513C0 668.361 44.6259 712.995 99.4819 712.995C101.521 712.995 103.328 712.166 104.771 710.956C106.213 712.166 108.021 712.995 110.06 712.995H518.135C572.991 712.995 617.617 668.361 617.617 613.513C617.617 612.767 617.376 612.087 617.194 611.407C617.368 610.711 617.617 610.048 617.617 609.293V582.35V194.786H791.71C796.294 194.786 800 191.08 800 186.496C800 131.631 755.374 87.0054 700.518 87.0054ZM782.997 178.197H618.039C622.218 136.365 657.608 103.586 700.518 103.586C743.428 103.586 778.819 136.365 782.997 178.197ZM110.06 696.415C108.021 696.415 106.213 697.26 104.771 698.454C103.328 697.244 101.521 696.415 99.4819 696.415C56.572 696.415 21.1731 663.627 17.0031 621.803H419.076C421.662 652.924 438.591 680.008 463.262 696.415H110.06ZM518.135 696.415C472.423 696.415 435.233 659.242 435.233 613.513C435.233 608.92 431.527 605.223 426.943 605.223H198.964V186.487C198.964 140.775 236.153 103.586 281.865 103.586H645.646C618.802 121.418 601.036 151.901 601.036 186.487V582.342V609.285C601.036 610.031 601.277 610.711 601.459 611.391C601.285 612.087 601.036 612.75 601.036 613.497C601.036 659.225 563.847 696.415 518.135 696.415Z" fill="black"/>
<path d="M528.498 532.601H296.373C291.789 532.601 288.083 536.29 288.083 540.891C288.083 545.476 291.789 549.181 296.373 549.181H528.498C533.082 549.181 536.788 545.476 536.788 540.891C536.788 536.29 533.082 532.601 528.498 532.601Z" fill="black"/>
<path d="M528.498 449.7H296.373C291.789 449.7 288.083 453.389 288.083 457.99C288.083 462.574 291.789 466.28 296.373 466.28H528.498C533.082 466.28 536.788 462.574 536.788 457.99C536.788 453.389 533.082 449.7 528.498 449.7Z" fill="black"/>
<path d="M528.498 366.798H296.373C291.789 366.798 288.083 370.504 288.083 375.088C288.083 379.672 291.789 383.378 296.373 383.378H528.498C533.082 383.378 536.788 379.672 536.788 375.088C536.788 370.504 533.082 366.798 528.498 366.798Z" fill="black"/>
<path d="M528.498 283.896H296.373C291.789 283.896 288.083 287.602 288.083 292.187C288.083 296.771 291.789 300.477 296.373 300.477H528.498C533.082 300.477 536.788 296.771 536.788 292.187C536.788 287.602 533.082 283.896 528.498 283.896Z" fill="black"/>
<path d="M528.498 200.995H296.373C291.789 200.995 288.083 204.701 288.083 209.285C288.083 213.87 291.789 217.575 296.373 217.575H528.498C533.082 217.575 536.788 213.87 536.788 209.285C536.788 204.701 533.082 200.995 528.498 200.995Z" fill="black"/>
</svg>
