<svg width="800" height="800" viewBox="0 0 800 800" fill="none" xmlns="http://www.w3.org/2000/svg">
<g clip-path="url(#clip0_488_7)">
<path d="M400 475C371.123 475.024 342.691 467.893 317.243 454.244C291.796 440.595 270.128 420.853 254.175 396.783L295.825 369.098C307.229 386.287 322.71 400.387 340.887 410.141C359.063 419.895 379.371 425 400 425C420.628 425 440.936 419.895 459.113 410.141C477.29 400.387 492.77 386.287 504.175 369.098L545.825 396.783C529.872 420.853 508.203 440.595 482.756 454.244C457.309 467.893 428.876 475.024 400 475Z" fill="white"/>
<path d="M500 200C490.111 200 480.444 202.932 472.221 208.426C463.999 213.921 457.59 221.729 453.806 230.866C450.022 240.002 449.031 250.055 450.961 259.754C452.89 269.454 457.652 278.363 464.645 285.355C471.637 292.348 480.546 297.11 490.246 299.039C499.945 300.968 509.998 299.978 519.134 296.194C528.271 292.41 536.079 286.001 541.574 277.778C547.068 269.556 550 259.889 550 250C550.065 243.416 548.816 236.885 546.326 230.789C543.836 224.694 540.156 219.156 535.5 214.5C530.844 209.844 525.306 206.164 519.211 203.674C513.115 201.184 506.584 199.935 500 200Z" fill="white"/>
<path d="M300 200C290.111 200 280.444 202.932 272.222 208.426C263.999 213.921 257.59 221.729 253.806 230.866C250.022 240.002 249.031 250.055 250.961 259.754C252.89 269.454 257.652 278.363 264.645 285.355C271.637 292.348 280.546 297.11 290.246 299.039C299.945 300.968 309.998 299.978 319.134 296.194C328.27 292.41 336.079 286.001 341.574 277.778C347.068 269.556 350 259.889 350 250C350.065 243.416 348.816 236.885 346.326 230.789C343.836 224.694 340.156 219.156 335.5 214.5C330.844 209.844 325.306 206.164 319.211 203.674C313.115 201.184 306.584 199.935 300 200Z" fill="white"/>
<path d="M443.395 750L400 725L500 550H650C656.569 550.011 663.076 548.726 669.147 546.217C675.219 543.708 680.735 540.025 685.38 535.38C690.025 530.735 693.708 525.219 696.217 519.147C698.726 513.076 700.011 506.569 700 500V150C700.011 143.431 698.726 136.924 696.217 130.853C693.708 124.781 690.025 119.265 685.38 114.62C680.735 109.975 675.219 106.292 669.147 103.783C663.076 101.274 656.569 99.9888 650 100H150C143.431 99.9888 136.924 101.274 130.853 103.783C124.781 106.292 119.265 109.975 114.62 114.62C109.975 119.265 106.292 124.781 103.783 130.853C101.274 136.924 99.9888 143.431 100 150V500C99.9888 506.569 101.274 513.076 103.783 519.147C106.292 525.219 109.975 530.735 114.62 535.38C119.265 540.025 124.781 543.708 130.853 546.217C136.924 548.726 143.431 550.011 150 550H375V600H150C136.867 600.002 123.863 597.417 111.729 592.393C99.5954 587.368 88.5705 580.002 79.2842 570.716C69.9979 561.429 62.632 550.405 57.6074 538.271C52.5827 526.137 49.9977 513.133 50 500V150C49.9961 136.867 52.58 123.861 57.604 111.727C62.6281 99.5927 69.9939 88.5672 79.2805 79.2805C88.5672 69.9939 99.5927 62.6281 111.727 57.604C123.861 52.58 136.867 49.9961 150 50H650C663.133 49.9961 676.139 52.58 688.273 57.604C700.407 62.6281 711.433 69.9939 720.719 79.2805C730.006 88.5672 737.372 99.5927 742.396 111.727C747.42 123.861 750.004 136.867 750 150V500C750.002 513.133 747.417 526.137 742.393 538.271C737.368 550.405 730.002 561.429 720.716 570.716C711.429 580.002 700.405 587.368 688.271 592.393C676.137 597.417 663.133 600.002 650 600H529.115L443.395 750Z" fill="white"/>
</g>
<defs>
<clipPath id="clip0_488_7">
<rect width="800" height="800" fill="white"/>
</clipPath>
</defs>
</svg>
