<svg width="800" height="800" viewBox="0 0 800 800" fill="none" xmlns="http://www.w3.org/2000/svg">
<g clip-path="url(#clip0_860_82)">
<path d="M355.839 326.114H344.798V290.445H372.823C379.859 290.445 385.562 284.742 385.562 277.706C385.562 270.67 379.859 264.967 372.823 264.967H344.798V250.53C344.798 243.494 339.095 237.791 332.059 237.791C325.023 237.791 319.32 243.494 319.32 250.53V264.967H308.281C291.892 264.967 278.558 278.301 278.558 294.691V321.867C278.558 338.256 291.892 351.591 308.281 351.591H319.322V387.259H291.297C284.261 387.259 278.558 392.962 278.558 399.998C278.558 407.034 284.261 412.737 291.297 412.737H319.322V427.175C319.322 434.211 325.025 439.914 332.061 439.914C339.097 439.914 344.8 434.211 344.8 427.175V412.737H355.84C372.23 412.737 385.564 399.403 385.564 383.014V355.837C385.562 339.45 372.228 326.114 355.839 326.114ZM319.32 326.114H308.281C305.94 326.114 304.034 324.208 304.034 321.867V294.691C304.034 292.35 305.94 290.444 308.281 290.444H319.322L319.32 326.114ZM360.084 383.016C360.084 385.356 358.178 387.262 355.837 387.262H344.797V351.594H355.837C358.178 351.594 360.084 353.5 360.084 355.841V383.016Z" fill="black"/>
<path d="M796.269 338.405L738.619 280.755C733.645 275.778 725.58 275.78 720.605 280.755L664.119 337.241V12.7391C664.119 5.70313 658.416 0 651.38 0H12.7391C5.70313 0 0 5.70313 0 12.7391V630.998C0 638.034 5.70313 643.738 12.7391 643.738C19.775 643.738 25.4781 638.034 25.4781 630.998V25.4781H638.642V362.719L546.159 455.202H514.65V222.505H556.264C563.3 222.505 569.003 216.802 569.003 209.766V169.002C569.003 161.966 563.3 156.263 556.264 156.263H505.638L338.927 49.5672C334.739 46.8891 329.38 46.8891 325.192 49.5672L158.481 156.263H107.856C100.82 156.263 95.1172 161.966 95.1172 169.002V209.766C95.1172 216.802 100.82 222.505 107.856 222.505H149.469V455.202H107.856C100.82 455.202 95.1172 460.905 95.1172 467.941V508.705C95.1172 515.741 100.82 521.444 107.856 521.444H479.917L384.717 616.644C384.689 616.672 384.663 616.705 384.634 616.736C383.127 618.141 381.937 619.931 381.239 622.025L352.416 708.5C349.161 718.261 358.759 727.869 368.53 724.614L455.005 695.789C457.108 695.087 458.905 693.891 460.311 692.372C460.362 692.32 460.42 692.277 460.469 692.225L538.441 612.745C543.366 607.723 543.291 599.656 538.267 594.731C533.245 589.806 525.18 589.884 520.253 594.905L451.289 665.205L411.741 625.656L681.172 356.225L720.806 395.859L576.2 540.466C571.225 545.441 571.225 553.506 576.2 558.48C581.175 563.455 589.241 563.455 594.214 558.48L638.642 514.05V652.231H529.087C522.052 652.231 516.348 657.934 516.348 664.97V774.525H25.4781V698.941C25.4781 691.905 19.775 686.202 12.7391 686.202C5.70313 686.202 0 691.905 0 698.941V787.264C0 794.297 5.70313 800 12.7391 800H529.087C532.425 800 535.736 798.63 538.095 796.269L660.389 673.975C662.75 671.616 664.12 668.305 664.12 664.967V488.57L747.828 404.862L796.27 356.42C801.244 351.447 801.244 343.38 796.269 338.405ZM427.991 677.934L384.641 692.386L399.089 649.034L427.991 677.934ZM332.059 75.4203L458.375 156.263H205.745L332.059 75.4203ZM120.595 197.028V181.742H543.525V197.028H120.595ZM489.172 222.505V455.202H446.709V222.505H489.172ZM421.231 222.505V455.202H242.887V222.505H421.231ZM217.409 222.505V455.202H174.947V222.505H217.409ZM505.395 495.966H120.595V480.68H520.681L505.395 495.966ZM541.827 756.508V677.706H620.628L541.827 756.508ZM738.82 377.839L699.186 338.205L729.612 307.78L769.245 347.412L738.82 377.839Z" fill="black"/>
<path d="M325.266 631.847H162.208C155.172 631.847 149.469 637.55 149.469 644.586C149.469 651.622 155.172 657.325 162.208 657.325H325.266C332.302 657.325 338.005 651.622 338.005 644.586C338.005 637.55 332.302 631.847 325.266 631.847Z" fill="black"/>
<path d="M338.853 699.788H162.208C155.172 699.788 149.469 705.491 149.469 712.527C149.469 719.563 155.172 725.266 162.208 725.266H338.853C345.889 725.266 351.592 719.563 351.592 712.527C351.592 705.491 345.889 699.788 338.853 699.788Z" fill="black"/>
<path d="M325.266 563.906H162.208C155.172 563.906 149.469 569.609 149.469 576.645C149.469 583.681 155.172 589.384 162.208 589.384H325.266C332.302 589.384 338.005 583.681 338.005 576.645C338.005 569.609 332.302 563.906 325.266 563.906Z" fill="black"/>
</g>
<defs>
<clipPath id="clip0_860_82">
<rect width="800" height="800" fill="white"/>
</clipPath>
</defs>
</svg>
