<svg width="800" height="800" viewBox="0 0 800 800" fill="none" xmlns="http://www.w3.org/2000/svg">
<path fill-rule="evenodd" clip-rule="evenodd" d="M337.512 473.925C256.15 472.675 176.825 468.888 95.8 462.538C95.05 462.475 92.325 462.5 91.7 462.5C79.0625 462.5 66.4375 470.7 56.95 486.738C46.0125 505.25 38.575 535.063 38.575 568.75C38.575 602.438 46.0125 632.25 56.95 650.763C66.4375 666.8 79.0625 675 91.7 675C92.325 675 95.7375 675.013 96.85 674.838C177.65 661.575 256.6 653.35 337.5 650.488V750C337.5 754.738 340.175 759.063 344.412 761.175C348.65 763.3 353.712 762.838 357.5 760L400 728.125L442.5 760C446.288 762.838 451.35 763.3 455.587 761.175C459.825 759.063 462.5 754.738 462.5 750V650.525C543.213 653.425 623.788 661.638 704.225 674.838C705.338 675.013 708.75 675 709.375 675C722.025 675 734.638 666.8 744.125 650.763C755.063 632.25 762.5 602.438 762.5 568.75C762.5 535.063 755.063 505.25 744.125 486.738C734.638 470.7 722.025 462.5 709.375 462.5C708.75 462.5 706.025 462.475 705.275 462.538C624.6 468.863 543.663 472.65 462.488 473.913C461.913 453.7 445.35 437.5 425 437.5H375C354.65 437.5 338.087 453.713 337.512 473.925ZM437.5 626.938C426.575 633.638 413.737 637.5 400 637.5C386.262 637.5 373.425 633.638 362.5 626.938V725L392.5 702.5C396.95 699.163 403.05 699.163 407.5 702.5L437.5 725V626.938ZM709.375 487.5C714.7 487.5 718.613 492.713 722.6 499.463C731.825 515.075 737.5 540.338 737.5 568.75C737.5 597.163 731.825 622.425 722.6 638.038C718.613 644.788 714.7 650 709.375 650C704.05 650 700.138 644.788 696.15 638.038C686.925 622.425 681.25 597.163 681.25 568.75C681.25 540.338 686.925 515.075 696.15 499.463C700.138 492.713 704.05 487.5 709.375 487.5ZM91.7 487.5C97.025 487.5 100.937 492.713 104.925 499.463C114.15 515.075 119.825 540.338 119.825 568.75C119.825 597.163 114.15 622.425 104.925 638.038C100.937 644.788 97.025 650 91.7 650C86.375 650 82.4625 644.788 78.475 638.038C69.25 622.425 63.575 597.163 63.575 568.75C63.575 540.338 69.25 515.075 78.475 499.463C82.4625 492.713 86.375 487.5 91.7 487.5ZM672.8 490.013C602.888 494.863 532.788 497.825 462.5 498.913V530.125C468.463 540.6 471.875 552.725 471.875 565.625C471.875 578.525 468.463 590.65 462.5 601.125V625.513C532.188 627.988 601.763 634.35 671.238 644.438C662.175 625.825 656.25 598.825 656.25 568.75C656.25 536.988 662.863 508.663 672.8 490.013ZM128.287 490.013C138.212 508.663 144.825 536.988 144.825 568.75C144.825 598.825 138.9 625.8 129.85 644.425C199.212 634.288 267.637 627.913 337.5 625.475V601.125C331.537 590.65 328.125 578.525 328.125 565.625C328.125 552.725 331.537 540.6 337.5 530.125V498.925C267.037 497.85 198.087 494.888 128.287 490.013ZM400 518.75C425.875 518.75 446.875 539.75 446.875 565.625C446.875 591.5 425.875 612.5 400 612.5C374.125 612.5 353.125 591.5 353.125 565.625C353.125 539.75 374.125 518.75 400 518.75ZM437.5 504.313V475C437.5 468.1 431.9 462.5 425 462.5H375C368.1 462.5 362.5 468.1 362.5 475V504.313C373.425 497.613 386.262 493.75 400 493.75C413.737 493.75 426.575 497.613 437.5 504.313ZM175 195.088V324.488C175 324.663 175 324.825 175.012 325H162.5C155.6 325 150 330.6 150 337.5V418.75C150 425.65 155.6 431.25 162.5 431.25H212.5C219.4 431.25 225 425.65 225 418.75V337.5C225 330.6 219.4 325 212.5 325H199.987C200 324.825 200 324.663 200 324.488V208.725L237.512 229.188C237.5 229.388 237.5 229.588 237.5 229.788V349.938C237.5 367.225 249.312 382.275 266.1 386.375L397.25 418.388C399.2 418.875 401.237 418.875 403.187 418.388C403.187 418.388 493.575 396.263 533.925 386.375C550.7 382.275 562.5 367.225 562.5 349.95C562.5 311.475 562.5 229.788 562.5 229.788C562.5 229.5 562.488 229.213 562.475 228.925L637.238 188.15C641.25 185.95 643.75 181.75 643.75 177.175C643.75 172.6 641.25 168.388 637.238 166.2L405.737 39.9251C402 37.8876 397.5 37.8876 393.762 39.9251L162.262 166.2C158.25 168.388 155.75 172.6 155.75 177.175C155.75 181.75 158.25 185.95 162.262 188.15L175 195.088ZM200 350V406.25H175V350H200ZM217.275 164.675H336.612C343.512 164.675 349.112 170.275 349.112 177.175C349.112 184.075 343.512 189.675 336.612 189.675H217.275L399.75 289.213L432.825 271.163C438.887 267.863 446.488 270.1 449.788 276.15C453.088 282.213 450.85 289.813 444.8 293.113L405.737 314.413C402 316.45 397.5 316.45 393.762 314.413L262.5 242.825V349.938C262.5 355.7 266.437 360.713 272.037 362.088L400.2 393.388L527.975 362.1C533.562 360.725 537.5 355.713 537.5 349.95V242.55L482.4 272.6C476.337 275.913 468.738 273.675 465.438 267.613C462.138 261.563 464.362 253.963 470.425 250.663L605.15 177.175L399.75 65.1376L217.275 164.675Z" fill="black"/>
</svg>
