<svg width="200" height="200" viewBox="0 0 200 200" fill="none" xmlns="http://www.w3.org/2000/svg">
<g clip-path="url(#clip0_631_124)">
<path d="M76.7333 85.375C76.3751 89.8668 74.0665 94.525 70.7165 97.5332C69.5747 98.5582 69.0833 100.141 69.4583 101.641L71.1583 108.45C71.5333 109.941 72.6915 111.108 74.1915 111.483L89.1165 115.208C91.1747 115.716 93.0915 116.708 94.8165 118.158C96.5833 119.633 99.2083 119.408 100.691 117.633C102.158 115.866 101.925 113.241 100.167 111.758C97.4665 109.5 94.4333 107.941 91.1415 107.108L78.6333 103.991L78.1083 101.891C81.3501 98.3078 83.6583 93.7328 84.6083 88.9828C86.8333 87.8328 88.4583 85.641 88.7833 83.016L89.6833 75.7828C89.9583 73.591 89.2833 71.366 87.8251 69.7078C87.3751 69.191 86.8583 68.741 86.3001 68.366L86.5169 63.941L87.2751 63.1742C89.4251 60.8992 92.3333 56.016 87.7333 48.991C85.5501 45.6578 81.0583 41.666 72.0333 41.666C69.3751 41.666 63.3833 41.666 57.5665 45.3242C40.4165 45.9242 38.3997 55.166 38.3997 62.141C38.3997 63.516 38.6497 66.091 38.8829 68.241C38.2661 68.6328 37.7079 69.116 37.2079 69.6742C35.7247 71.3492 35.0411 73.5824 35.3247 75.7824L36.2247 83.0324C36.5665 85.7492 38.2915 87.9992 40.8329 89.1074C41.7661 93.6574 43.9497 98.0492 46.9911 101.549L46.3829 103.999L33.8747 107.116C23.7497 109.649 16.6665 118.716 16.6665 129.166C16.6665 131.466 18.5333 133.333 20.8333 133.333H79.6415C81.9415 133.333 83.8083 131.466 83.8083 129.166C83.8083 126.866 81.9419 125 79.6419 125L25.6251 124.992C27.0501 120.234 30.8919 116.45 35.9083 115.2L50.8415 111.475C52.3333 111.1 53.4997 109.942 53.8747 108.442L55.6497 101.334C56.0165 99.8754 55.5579 98.3254 54.4497 97.2918C51.2079 94.2336 49.0665 89.775 48.7079 85.3586C48.5329 83.1918 46.6829 82.0004 44.5079 82.0004L43.4329 75.3586C44.6329 75.3586 45.7661 74.8418 46.5579 73.9504C47.3497 73.0422 47.7161 71.8586 47.5661 70.6672C47.2493 68.1504 46.7411 63.609 46.7411 62.134C46.7411 57.8258 46.7411 53.7508 58.9243 53.6258C59.7743 53.6176 60.6075 53.3508 61.3075 52.8426C65.2751 50 69.8419 50 72.0333 50C78.4333 50 80.1751 52.6668 80.7833 53.5582C82.4751 56.1582 81.7833 56.8914 81.3165 57.3914L79.5083 59.1996C78.7751 59.9328 78.3415 60.9078 78.2915 61.9414L77.8415 71.0164C77.7915 72.1496 77.9247 72.9332 78.7083 73.7664C79.4833 74.5914 80.2915 74.7496 81.4251 74.7664L80.8833 81.5332C78.7083 81.5332 76.9083 83.2 76.7333 85.375Z" fill="black"/>
<path d="M120.833 66.6669H145.833C148.133 66.6669 150 64.8001 150 62.5001C150 60.2001 148.133 58.3333 145.833 58.3333H120.833C118.533 58.3333 116.667 60.2001 116.667 62.5001C116.667 64.8001 118.533 66.6669 120.833 66.6669Z" fill="black"/>
<path d="M179.167 0H20.8332C9.3418 0 0 9.3418 0 20.8332V129.166C0 140.658 9.3418 150 20.8332 150H82.4832C84.7914 150 86.65 148.133 86.65 145.833C86.65 143.533 84.7832 141.666 82.4832 141.666H20.8332C13.9414 141.666 8.3332 136.058 8.3332 129.166V33.3332H191.666V115.083C191.666 117.383 193.533 119.25 195.833 119.25C198.133 119.25 200 117.383 200 115.083V20.8332C200 9.3418 190.658 0 179.167 0ZM191.667 25H8.3332V20.8332C8.3332 13.9414 13.9414 8.3332 20.8332 8.3332H179.166C186.058 8.3332 191.666 13.9414 191.666 20.8332V25H191.667Z" fill="black"/>
<path d="M179.167 66.6669C181.467 66.6669 183.334 64.8001 183.334 62.5001C183.334 60.2001 181.467 58.3333 179.167 58.3333H162.5C160.2 58.3333 158.333 60.2001 158.333 62.5001C158.333 64.8001 160.2 66.6669 162.5 66.6669H179.167Z" fill="black"/>
<path d="M200 133.333C200 129.85 197.408 127.416 193.7 127.416C191.608 127.416 188.025 128.491 184.942 130.266C180.867 121.666 174.2 114.041 169.425 111.666C166.267 110.091 155.508 108.333 145.833 108.333C136.158 108.333 125.4 110.091 122.233 111.666C117.475 114.041 110.808 121.666 106.725 130.266C103.633 128.491 100.05 127.416 97.9581 127.416C96.3749 127.416 95.0164 127.825 93.9249 128.65C92.4749 129.741 91.6667 131.408 91.6667 133.333C91.6667 139.833 96.7085 144.341 97.2917 144.833C97.7417 145.216 98.2585 145.458 98.7917 145.625C96.7999 151.15 95.8335 157.283 95.8335 162.5C95.8335 168.725 96.4085 179.341 100 184.766V191.666C100 196.341 103.659 200 108.334 200H116.667C121.342 200 125 196.341 125 191.666V188.841C130.033 190.1 137.883 191.666 145.833 191.666C153.783 191.666 161.633 190.1 166.666 188.841V191.666C166.666 196.341 170.325 200 175 200H183.333C188.008 200 191.666 196.341 191.666 191.666V184.766C195.258 179.341 195.833 168.725 195.833 162.5C195.833 157.283 194.866 151.15 192.875 145.625C193.408 145.466 193.925 145.225 194.375 144.833C194.958 144.342 200 139.833 200 133.333ZM125.942 119.133C127.5 118.416 136.392 116.666 145.834 116.666C155.275 116.666 164.167 118.416 165.7 119.116C168.859 120.7 176.192 129.008 179.109 138.066C171.275 139.166 152.759 141.666 145.834 141.666C138.909 141.666 120.384 139.166 112.55 138.066C115.467 129.008 122.8 120.7 125.942 119.133ZM102.408 138.208C102.141 137.941 101.733 137.508 101.25 136.8C101.8 137.058 102.325 137.35 102.817 137.642C102.683 137.833 102.542 138.008 102.408 138.208ZM116.667 191.667H108.334V187.5H116.667V191.667ZM183.333 191.667H175V187.5H183.333V191.667ZM185.25 179.167H170.833C170.391 179.167 169.95 179.242 169.516 179.375C169.4 179.417 157.466 183.333 145.833 183.333C134.2 183.333 122.266 179.416 122.15 179.383C122.008 179.341 121.867 179.375 121.725 179.35C121.433 179.283 121.15 179.167 120.833 179.167H106.4C105.308 176.675 104.158 170.934 104.158 162.509C104.158 161.184 104.258 159.775 104.408 158.35C110.008 158.509 116.666 160.4 116.666 162.5C116.666 164.8 118.533 166.667 120.833 166.667C123.133 166.667 125 164.8 125 162.5C125 152.317 111.25 150.442 106.042 150.092C106.509 148.567 107.067 147.134 107.7 145.784C107.708 145.784 107.717 145.792 107.725 145.792C108.892 145.967 136.4 150 145.833 150C155.266 150 182.775 145.967 183.941 145.792C183.95 145.792 183.95 145.784 183.958 145.784C184.591 147.134 185.15 148.567 185.616 150.092C180.408 150.442 166.666 152.325 166.666 162.5C166.666 164.8 168.533 166.667 170.833 166.667C173.133 166.667 175 164.8 175 162.5C175 160.358 181.617 158.525 187.25 158.35C187.4 159.775 187.5 161.183 187.5 162.5C187.5 170.933 186.342 176.675 185.25 179.167ZM189.25 138.2C189.117 138.008 188.983 137.825 188.842 137.642C189.334 137.35 189.867 137.05 190.409 136.792C190 137.408 189.583 137.867 189.25 138.2Z" fill="black"/>
<path d="M120.833 91.6669H179.167C181.467 91.6669 183.333 89.8001 183.333 87.5001C183.333 85.2001 181.467 83.3333 179.167 83.3333H120.833C118.533 83.3333 116.667 85.2001 116.667 87.5001C116.667 89.8001 118.533 91.6669 120.833 91.6669Z" fill="black"/>
<path d="M154.167 158.333H137.5C135.2 158.333 133.333 160.2 133.333 162.5C133.333 164.8 135.2 166.667 137.5 166.667H154.167C156.467 166.667 158.334 164.8 158.334 162.5C158.333 160.2 156.467 158.333 154.167 158.333Z" fill="black"/>
</g>
<defs>
<clipPath id="clip0_631_124">
<rect width="200" height="200" fill="white"/>
</clipPath>
</defs>
</svg>
