<svg width="512" height="512" viewBox="0 0 512 512" fill="none" xmlns="http://www.w3.org/2000/svg">
<path d="M232.991 17.275V207.104H158.21V143.597C113.456 170.863 83.4295 219.874 83.4295 276.133C83.4295 354.711 141.643 419.368 217.345 429.838L156.37 490.813C69.9665 457.68 8.64648 374.156 8.64648 276.134C8.64648 200.662 45.1165 133.934 101.145 92.056H54.6655V17.276L232.991 17.275Z" fill="#00B4D7"/>
<path d="M60.418 305.852C60.418 382.725 116.183 446.135 189.481 458.658L217.344 430.795C141.643 420.326 83.428 355.668 83.428 277.09C83.428 247.126 92.01 219.263 106.734 195.6C78.202 223.695 60.418 262.61 60.418 305.852Z" fill="#0093C4"/>
<path d="M158.512 500.897L153.271 498.888C108.645 481.773 70.522 451.995 43.026 412.77C14.878 372.616 0 325.368 0 276.134C0 237.882 8.814 201.347 26.196 167.544C39.035 142.576 56.448 119.817 77.218 100.703H46.018V8.62903H241.636V215.751H149.562V159.964C113.298 187.657 92.073 230.033 92.073 276.134C92.073 311.792 105.005 346.127 128.488 372.815C151.748 399.251 183.725 416.46 218.527 421.274L235.752 423.656L158.512 500.897ZM63.311 83.411H127.153L106.321 98.982C79.304 119.176 56.915 145.619 41.574 175.451C25.461 206.785 17.292 240.66 17.292 276.134C17.292 321.797 31.088 365.613 57.186 402.844C81.626 437.707 115.112 464.528 154.277 480.678L199.695 435.26C167.235 427.316 137.789 409.565 115.505 384.239C89.243 354.391 74.78 315.999 74.78 276.134C74.78 247.506 82.307 219.336 96.546 194.671C110.313 170.824 130.079 150.611 153.708 136.214L166.852 128.205V198.458H224.341V25.921H63.311V83.411Z" fill="black"/>
<path d="M207.122 132.323H189.829V60.435H123.694V43.143H207.122V132.323Z" fill="white"/>
<path d="M207.125 149.577H189.833V172.587H207.125V149.577Z" fill="white"/>
<path d="M279.009 494.726V304.896H353.791V368.403C398.545 341.137 428.573 292.126 428.573 235.867C428.573 157.289 370.359 92.632 294.657 82.162L355.632 21.187C442.034 54.321 503.354 137.847 503.354 235.867C503.354 311.339 466.884 378.067 410.855 419.945H457.335V494.727L279.009 494.726Z" fill="#00B4D7"/>
<path d="M451.582 206.149C451.582 129.276 395.817 65.866 322.519 53.343L294.656 81.206C370.359 91.675 428.573 156.333 428.573 234.911C428.573 264.875 419.992 292.738 405.267 316.401C433.798 288.306 451.582 249.392 451.582 206.149Z" fill="#0093C4"/>
<path d="M465.981 503.372H270.363V296.25H362.437V352.037C398.701 324.344 419.926 281.968 419.926 235.867C419.926 200.209 406.994 165.874 383.511 139.186C360.252 112.75 328.274 95.54 293.472 90.727L276.247 88.345L353.487 11.105L358.728 13.114C403.356 30.229 441.477 60.007 468.974 99.232C497.122 139.387 512 186.634 512 235.867C512 274.119 503.186 310.654 485.804 344.457C472.965 369.424 455.552 392.184 434.781 411.298H465.981V503.372ZM287.656 486.08H448.689V428.59H384.844L405.678 413.019C432.696 392.825 455.085 366.382 470.425 336.55C486.538 305.217 494.707 271.343 494.707 235.867C494.707 190.204 480.911 146.388 454.813 109.157C430.375 74.294 396.888 47.473 357.721 31.323L312.304 76.741C344.762 84.685 374.21 102.436 396.492 127.762C422.754 157.609 437.217 196.001 437.217 235.867C437.217 264.495 429.69 292.665 415.451 317.33C401.684 341.177 381.917 361.39 358.288 375.787L345.144 383.796V313.544H287.655V486.08H287.656Z" fill="black"/>
<path d="M376.801 468.858H304.878V379.678H322.171V451.566H376.801V468.858Z" fill="white"/>
<path d="M322.175 339.41H304.883V362.42H322.175V339.41Z" fill="white"/>
</svg>
