<svg width="800" height="800" viewBox="0 0 800 800" fill="none" xmlns="http://www.w3.org/2000/svg">
<g clip-path="url(#clip0_645_48)">
<path d="M713.169 292.085C714.565 290.873 716.207 289.977 717.981 289.458C719.756 288.938 721.622 288.809 723.451 289.077C725.246 289.33 726.962 289.983 728.471 290.987C729.981 291.99 731.246 293.32 732.175 294.877C733.251 297.026 733.863 299.377 733.97 301.778C734.755 311.171 732.941 320.599 728.728 329.031C726.744 333.291 723.865 337.074 720.286 340.12C717.376 342.475 713.905 344.036 710.212 344.65L708.495 344.915C707.659 348.016 706.73 350.619 706.275 352.002C703.238 360.238 685.764 389.464 664.086 398.555C664.191 404.77 664.795 410.967 665.893 417.085C666.923 422.951 666.6 428.203 674.747 431.139C675.288 431.333 700.972 442.338 701.797 442.669C701.797 442.669 694.385 489.136 628.499 489.136C562.613 489.136 554.157 441.094 554.157 441.094C555.728 440.559 579.107 431.325 579.647 431.131C587.802 428.185 587.481 422.943 588.5 417.077C589.592 410.994 590.195 404.833 590.306 398.654C579.893 393.821 570.748 386.631 563.595 377.652C555.811 368.104 550.132 357.018 546.932 345.121L543.638 344.617C539.945 344.003 536.473 342.443 533.563 340.087C529.985 337.04 527.106 333.258 525.122 328.998C520.911 320.565 519.097 311.138 519.88 301.746C519.988 299.344 520.601 296.993 521.677 294.844C522.605 293.287 523.871 291.957 525.381 290.954C526.89 289.95 528.606 289.297 530.401 289.044C532.23 288.776 534.096 288.906 535.871 289.425C537.645 289.944 539.287 290.84 540.683 292.052C540.683 292.052 539.73 214.671 624.828 215.521C716.356 216.471 713.169 292.085 713.169 292.085Z" fill="white"/>
<path d="M527.577 355.274C527.216 349.055 528.163 342.829 530.356 336.999C531.344 338.129 532.427 339.174 533.593 340.12C536.503 342.476 539.974 344.036 543.667 344.65L546.962 345.156C550.157 357.054 555.834 368.14 563.618 377.687C569.793 385.33 577.366 391.727 585.933 396.537C590.24 423.795 525.891 422.107 529.44 413.05C536.667 408.952 538.314 398.967 536.358 390.896C534.402 382.825 530.758 374.836 529.07 366.703C528.269 362.939 527.769 359.117 527.577 355.274Z" fill="#B5886A"/>
<path d="M727.41 242.244C726.793 237.645 726.068 233.498 725.382 230.148C716.447 186.319 672.309 151.527 626.022 154.07C579.737 151.527 535.6 186.319 526.662 230.148C524.241 241.97 524.531 262.195 526.732 271.631L530.063 289.151C530.181 289.117 530.3 289.092 530.422 289.077C533.624 288.613 536.883 289.37 539.553 291.198C556.255 275.644 589.947 251.242 606.094 235.468C604.772 244.785 600.077 260.633 605.993 259.004C630.7 252.506 654.361 239.405 668.675 218.964C671.693 231.037 676.678 247.338 680.341 254.462C685.67 264.831 701.184 288.846 714.725 290.936C717.318 289.298 720.412 288.64 723.447 289.083C723.879 289.146 724.307 289.236 724.728 289.351C730.208 276.534 729.387 257.04 727.41 242.244Z" fill="#B5886A"/>
<path d="M463.136 723.62C464.968 669.812 463.885 597.695 467.21 541.404C467.547 530.09 468.959 518.834 471.427 507.788C473.611 501.209 476.386 494.842 479.72 488.765C486.223 478.015 496.635 470.272 507.143 463.387C520.089 455.037 533.747 447.849 547.96 441.908C549.308 441.317 550.782 441.073 552.249 441.199C553.715 441.325 555.127 441.816 556.354 442.628C593.252 467.218 656.855 472.17 700.49 443.578C701.747 442.779 703.183 442.307 704.669 442.204C706.154 442.101 707.642 442.37 708.998 442.987C722.351 448.675 735.192 455.499 747.378 463.385C757.879 470.27 768.301 478.003 774.801 488.763C778.135 494.84 780.911 501.207 783.095 507.785C785.562 518.832 786.974 530.088 787.311 541.402C790.595 596.993 789.576 670.46 791.318 724.054" fill="#F4B3B3"/>
<path d="M585.384 398.876C585.131 405.512 584.438 412.124 583.308 418.668C583.161 419.731 582.96 420.785 582.707 421.827C582.596 422.257 582.466 422.681 582.322 423.101C582.005 424.013 582.219 423.307 582.308 423.136C582.172 423.4 582.028 423.655 581.881 423.913C581.803 424.048 581.352 424.654 581.857 424.02C581.706 424.204 581.546 424.379 581.377 424.547C580.772 425.164 581.171 424.849 580.58 425.241C579.852 425.709 579.079 426.106 578.274 426.424C572.486 428.798 566.621 431.008 560.794 433.289C558.156 434.318 555.531 435.428 552.854 436.363C551.608 436.738 550.555 437.579 549.912 438.711C549.27 439.843 549.087 441.178 549.404 442.441C549.762 443.698 550.6 444.764 551.737 445.409C552.874 446.055 554.218 446.228 555.482 445.892C561.887 443.66 568.161 440.963 574.473 438.479C576.637 437.627 578.803 436.777 580.971 435.928C587.012 433.557 591.266 429.686 592.53 423.13C594.132 415.138 595.047 407.024 595.267 398.876C595.394 392.514 585.511 392.514 585.384 398.876Z" fill="#211715"/>
<path d="M659.141 398.876C659.424 406.746 660.291 414.585 661.735 422.327C662.085 424.89 662.999 427.344 664.411 429.511C666.617 432.429 669.646 434.619 673.108 435.799C673.382 435.91 673.666 436.036 673.946 436.135C672.621 435.661 673.553 435.97 674.399 436.33C675.985 437.003 677.569 437.678 679.153 438.356L691.301 443.549C694.365 444.858 697.418 446.19 700.492 447.461C701.756 447.801 703.103 447.63 704.241 446.983C705.379 446.337 706.216 445.268 706.57 444.008C706.886 442.745 706.703 441.41 706.061 440.279C705.418 439.147 704.365 438.306 703.12 437.93C705.504 438.92 702.784 437.784 702.166 437.518L697.77 435.638L686.413 430.783C683.422 429.505 680.429 428.231 677.434 426.96C676.15 426.493 674.917 425.895 673.755 425.177C673.209 424.806 672.757 424.312 672.435 423.736C672.289 423.489 671.871 422.521 672.161 423.279C671.95 422.707 671.774 422.124 671.636 421.53C669.961 414.09 669.087 406.491 669.03 398.864C668.902 392.512 659.017 392.491 659.147 398.864L659.141 398.876Z" fill="#211715"/>
<path d="M655.607 488.102C639.913 490.511 623.976 490.916 608.179 489.308C594.273 487.867 579.9 484.641 567.861 477.272C562.422 473.943 557.451 482.487 562.875 485.806C576.216 493.972 591.976 497.437 607.348 499.103C624.299 500.82 641.402 500.326 658.226 497.633C659.485 497.276 660.552 496.438 661.198 495.3C661.844 494.163 662.016 492.816 661.677 491.553C661.301 490.307 660.46 489.253 659.328 488.611C658.197 487.968 656.861 487.786 655.599 488.102H655.607Z" fill="#211715"/>
<path d="M693.922 474.2C691.159 476.054 688.293 477.749 685.336 479.275C683.887 480.022 682.417 480.73 680.928 481.398C680.58 481.554 680.232 481.707 679.882 481.859L679.283 482.117C679.962 481.831 680.055 481.791 679.561 481.997C678.754 482.325 677.949 482.65 677.135 482.961C675.912 483.338 674.865 484.142 674.183 485.226C673.686 486.074 673.454 487.051 673.516 488.032C673.577 489.014 673.93 489.954 674.529 490.733C675.128 491.513 675.946 492.096 676.879 492.408C677.811 492.72 678.815 492.747 679.763 492.485C686.491 489.961 692.914 486.687 698.911 482.726C699.471 482.398 699.961 481.964 700.353 481.447C700.746 480.93 701.032 480.34 701.197 479.713C701.361 479.085 701.401 478.431 701.312 477.788C701.224 477.145 701.01 476.526 700.683 475.965C700.355 475.405 699.92 474.915 699.403 474.523C698.886 474.131 698.297 473.844 697.669 473.68C697.041 473.515 696.387 473.476 695.744 473.564C695.101 473.652 694.482 473.866 693.922 474.194V474.2Z" fill="#211715"/>
<path d="M468.077 718.048C469.895 664.162 468.946 610.213 471.371 556.341C471.989 542.497 472.271 528.36 474.925 514.724C477.269 501.724 483.538 489.754 492.889 480.424C502.338 471.404 514 464.422 525.421 458.21C531.391 454.959 537.511 451.978 543.704 449.165C545.995 447.798 548.473 446.772 551.06 446.118C553.426 445.853 555.833 448.204 557.748 449.353C576.394 460.551 598.22 466.209 619.8 467.69C642.969 469.446 666.217 465.521 687.525 456.254C692.643 453.939 697.592 451.267 702.337 448.26C704.684 446.789 706.15 447.088 708.656 448.206C711.914 449.662 715.152 451.165 718.37 452.713C730.79 458.609 742.627 465.66 753.726 473.774C758.828 477.457 763.423 481.795 767.393 486.677C771.225 491.895 774.24 497.666 776.335 503.791C781.276 516.83 781.773 530.887 782.557 544.686C785.621 598.618 786.288 652.654 789.018 706.601C789.347 713.127 789.711 719.647 790.109 726.16C790.494 732.479 800.381 732.525 799.992 726.16C796.58 670.485 795.897 614.688 793.198 558.975C792.524 545.089 792.069 531.093 790.021 517.329C788.124 503.054 782.342 489.575 773.306 478.363C764.469 467.98 752.35 460.245 740.701 453.401C734.654 449.847 728.44 446.59 722.115 443.563C716.113 440.681 709.055 436.075 702.153 437.58C699.262 438.52 696.542 439.921 694.099 441.731C691.468 443.295 688.773 444.748 686.016 446.089C680.877 448.57 675.555 450.65 670.096 452.312C659.105 455.671 647.725 457.592 636.241 458.027C614.027 459.162 591.869 454.897 571.664 445.597C567.075 443.398 562.887 440.685 558.506 438.136C551.606 434.121 545.193 437.681 538.723 440.619C525.865 446.368 513.512 453.186 501.794 461.002C490.624 468.542 479.885 477.35 473.624 489.552C470.287 495.782 467.728 502.399 466.006 509.254C464.443 516.655 463.411 524.159 462.917 531.708C460.753 559.459 460.313 587.376 459.891 615.196C459.462 643.253 459.353 671.317 458.721 699.37C458.584 705.592 458.411 711.813 458.202 718.034C457.996 724.396 467.879 724.388 468.085 718.034L468.077 718.048Z" fill="#211715"/>
<path d="M525.886 539.94C523.682 554.116 522.786 568.465 523.209 582.805C523.306 599.375 524.132 615.954 525.474 632.466C526.106 640.29 526.864 648.114 527.836 655.893C527.875 657.191 528.408 658.425 529.326 659.344C530.245 660.262 531.479 660.795 532.777 660.834C534.085 660.826 535.337 660.303 536.262 659.378C537.187 658.453 537.71 657.201 537.719 655.893C533.721 625.272 532.281 594.371 533.413 563.51C533.578 559.687 533.813 555.868 534.167 552.059C534.515 548.326 534.785 546.073 535.421 542.567C535.733 541.304 535.549 539.97 534.906 538.84C534.264 537.709 533.212 536.867 531.968 536.489C530.705 536.152 529.359 536.324 528.222 536.97C527.085 537.616 526.248 538.682 525.89 539.94H525.886Z" fill="#211715"/>
<path d="M718.846 540.345C721.913 566.633 722.656 593.14 721.066 619.559C720.46 631.668 719.528 643.753 718.27 655.815C717.345 664.783 715.799 673.521 716.622 682.542C717.874 696.425 720.283 710.199 721.947 724.035C721.986 725.334 722.519 726.568 723.437 727.487C724.356 728.405 725.59 728.938 726.888 728.977C728.196 728.969 729.449 728.446 730.374 727.521C731.299 726.596 731.822 725.344 731.83 724.035C730.325 711.511 728.311 699.046 726.909 686.509C726.341 682.384 726.087 678.221 726.147 674.057C726.332 669.527 727.176 664.954 727.669 660.437C730.492 635.605 731.827 610.627 731.667 585.636C731.566 570.493 730.587 555.369 728.737 540.339C728.697 539.041 728.163 537.808 727.245 536.89C726.327 535.971 725.094 535.438 723.796 535.398C722.487 535.405 721.235 535.928 720.309 536.853C719.384 537.778 718.861 539.031 718.854 540.339L718.846 540.345Z" fill="#211715"/>
<path d="M531.497 270.318C529.1 259.69 529.407 247.357 530.655 236.321C532.124 225.079 535.986 214.284 541.979 204.66C554.27 184.566 573.475 169.651 595.987 162.716C607.62 159.187 619.185 158.83 631.238 158.89C642.92 158.993 654.467 161.41 665.21 166C687.015 175.237 704.667 192.163 714.81 213.561C719.885 224.496 722.029 236.586 723.208 248.51C724.489 261.471 725.088 275.716 719.997 287.986C719.657 289.249 719.828 290.596 720.475 291.734C721.121 292.871 722.19 293.709 723.449 294.064C724.712 294.379 726.047 294.196 727.179 293.554C728.31 292.911 729.151 291.858 729.527 290.613C734.454 278.739 734.389 264.837 733.419 252.226C732.802 240.388 730.634 228.682 726.972 217.407C718.028 193.107 700.388 172.989 677.465 160.945C665.863 154.772 653.184 150.884 640.116 149.491C633.697 148.975 627.254 148.811 620.818 149.001C614.218 149.054 607.642 149.78 601.19 151.167C575.779 156.863 553.329 171.656 538.069 192.758C530.542 203.014 525.174 214.69 522.289 227.08C519.714 239.497 519.181 252.251 520.712 264.839C520.979 267.566 521.4 270.276 521.974 272.955C523.374 279.157 532.903 276.534 531.503 270.328L531.497 270.318Z" fill="#211715"/>
<path d="M664.278 221.739C667.428 233.965 670.71 246.943 676.697 258.143C681.926 268.196 688.628 277.411 696.581 285.482C700.86 290.125 706.277 293.571 712.297 295.48C718.459 297.066 721.088 287.537 714.924 285.951C709.618 284.586 704.629 279.845 700.678 275.474C696.159 270.383 692.124 264.884 688.625 259.045C681.149 246.85 677.365 232.915 673.801 219.112C672.215 212.958 662.682 215.567 664.272 221.739H664.278Z" fill="#211715"/>
<path d="M664.658 216.11C656.693 227.076 646.345 236.092 634.392 242.481C628.366 245.824 622.065 248.644 615.559 250.913C613.892 251.496 612.216 252.045 610.531 252.56C608.678 252.974 606.852 253.498 605.062 254.131C604.239 254.501 605.019 254.098 605.324 254.172C605.702 254.223 606.073 254.317 606.429 254.454C607.041 254.802 607.577 255.268 608.007 255.825C607.632 255.391 608.151 255.825 608.007 255.875C607.492 256.064 608.657 256.169 608.052 255.833C607.941 255.774 608.023 255.068 608.019 255.726C608.019 256.268 608.019 254.612 608.019 254.353C608.161 248.67 609.985 242.677 610.852 236.778C611.104 235.728 611.022 234.625 610.616 233.624C610.209 232.622 609.5 231.774 608.587 231.196C607.638 230.663 606.543 230.451 605.464 230.59C604.385 230.73 603.38 231.214 602.598 231.97C581.92 252.082 557.476 267.909 536.3 287.471C531.618 291.795 538.62 298.77 543.288 294.459C564.462 274.899 588.904 259.072 609.586 238.958L601.329 234.161C600.366 240.719 598.482 247.211 598.163 253.853C597.823 256.559 598.488 259.296 600.03 261.545C602.639 264.718 606.114 264.135 609.656 263.139C625.764 258.787 640.869 251.339 654.129 241.211C661.451 235.499 667.878 228.724 673.195 221.109C673.845 219.975 674.024 218.631 673.692 217.366C673.36 216.101 672.545 215.017 671.422 214.348C670.284 213.713 668.945 213.543 667.685 213.873C666.425 214.204 665.342 215.009 664.662 216.121L664.658 216.11Z" fill="#211715"/>
<path d="M525.596 335.681C520.158 350.232 523 365.857 527.861 380.131C530.068 386.621 533.243 393.79 531.898 400.797C531.532 403.44 530.301 405.888 528.398 407.758C526.938 409.047 525.31 409.706 524.678 411.738C524.455 412.446 524.351 413.185 524.369 413.927C524.589 421.555 535.059 422.924 540.741 423.556C549.657 424.493 558.668 423.866 567.368 421.703C576.816 419.369 586.697 414.569 590.191 404.849C590.527 403.586 590.353 402.241 589.708 401.104C589.063 399.967 587.997 399.128 586.74 398.769C585.477 398.447 584.139 398.627 583.005 399.27C581.872 399.914 581.031 400.971 580.66 402.22C580.37 403.031 581.049 401.639 580.495 402.632C580.279 403.021 580.084 403.418 579.849 403.799C579.711 404.019 578.756 405.271 579.503 404.363C579.169 404.775 578.824 405.158 578.457 405.533C578.13 405.868 577.784 406.181 577.428 406.496C577.185 406.702 576.221 407.439 576.987 406.881C576.122 407.512 575.221 408.091 574.288 408.615C573.308 409.165 572.302 409.665 571.271 410.112C572.045 409.774 570.736 410.318 570.512 410.402C569.917 410.626 569.319 410.836 568.716 411.036C566.454 411.776 564.147 412.374 561.81 412.827C559.616 413.29 557.393 413.603 555.156 413.764C552.722 413.974 550.283 414.074 547.839 414.063C545.673 414.063 543.515 413.954 541.353 413.737C540.873 413.69 540.398 413.637 539.912 413.577C541.129 413.727 539.763 413.55 539.481 413.501C538.542 413.336 537.606 413.165 536.679 412.934C535.88 412.729 535.116 412.444 534.324 412.228C533.344 411.961 535.18 412.799 534.18 412.164C533.926 411.996 533.659 411.848 533.383 411.72C532.448 411.322 533.926 412.206 533.589 411.895C532.868 411.211 534.077 412.679 533.83 412.255C533.992 412.572 534.096 412.916 534.138 413.27C534.161 413.455 533.9 415.162 534.18 414.367L531.915 417.32C534.736 415.508 537.098 413.066 538.815 410.186C540.533 407.307 541.558 404.068 541.812 400.725C542.708 393.333 540.346 386.267 537.999 379.359C533.449 365.958 529.969 352.064 535.116 338.31C535.454 337.047 535.281 335.701 534.636 334.564C533.99 333.427 532.923 332.588 531.666 332.23C530.403 331.911 529.065 332.091 527.932 332.734C526.8 333.377 525.959 334.433 525.586 335.681H525.596Z" fill="#211715"/>
<path d="M716.663 295.579C717.497 294.902 718.465 294.409 719.502 294.131C720.54 293.853 721.625 293.797 722.686 293.966C723.746 294.135 724.76 294.525 725.66 295.112C726.56 295.698 727.326 296.468 727.909 297.37C728.966 299.903 729.412 302.649 729.21 305.386C729.271 308.408 729.022 311.428 728.467 314.4C726.408 325.106 720.789 337.787 708.89 339.896C707.633 340.254 706.567 341.092 705.921 342.228C705.276 343.365 705.103 344.71 705.44 345.974C705.813 347.222 706.654 348.278 707.786 348.921C708.919 349.564 710.257 349.745 711.52 349.426C728.879 346.338 737.222 326.947 738.832 311.243C739.645 303.302 739.402 293.454 732.688 288.002C729.394 285.38 725.282 284.002 721.073 284.11C716.865 284.217 712.828 285.804 709.673 288.591C708.756 289.523 708.243 290.778 708.243 292.085C708.243 293.392 708.756 294.647 709.673 295.579C710.613 296.484 711.868 296.989 713.173 296.989C714.478 296.989 715.733 296.484 716.673 295.579H716.663Z" fill="#211715"/>
<path d="M705.131 335.094C704.91 338.765 704.218 342.392 703.072 345.887C702.687 347.161 702.269 348.424 701.837 349.686C701.699 350.098 701.547 350.509 701.425 350.921C701.119 351.872 701.532 350.715 701.458 350.872C699.783 354.496 697.867 358.004 695.722 361.372C689.762 371.23 682.17 380.002 673.269 387.315C668.405 391.335 662.709 394.226 656.592 395.779C650.399 397.22 653.02 406.747 659.219 405.308C672.145 402.31 683.006 393.107 691.575 383.366C698.915 375.319 705.034 366.238 709.737 356.414C712.835 349.705 714.626 342.466 715.012 335.086C715.245 328.726 705.362 328.734 705.129 335.086L705.131 335.094Z" fill="#211715"/>
<path d="M544.198 288.591C541.043 285.804 537.007 284.218 532.799 284.11C528.591 284.003 524.479 285.381 521.186 288.002C514.473 293.452 514.226 303.304 515.042 311.243C516.652 326.949 524.995 346.348 542.354 349.426C543.616 349.738 544.95 349.553 546.081 348.911C547.212 348.269 548.054 347.218 548.434 345.973C548.77 344.71 548.596 343.365 547.95 342.228C547.305 341.091 546.238 340.254 544.981 339.895C533.084 337.787 527.48 325.11 525.406 314.4C524.88 311.576 524.629 308.708 524.659 305.837C524.411 302.951 524.859 300.047 525.964 297.37C526.547 296.468 527.314 295.699 528.214 295.112C529.114 294.526 530.127 294.136 531.188 293.967C532.249 293.798 533.333 293.854 534.371 294.132C535.408 294.41 536.376 294.903 537.21 295.579C538.153 296.474 539.404 296.973 540.704 296.973C542.005 296.973 543.255 296.474 544.198 295.579C545.115 294.647 545.63 293.392 545.63 292.085C545.63 290.778 545.115 289.523 544.198 288.591Z" fill="#211715"/>
<path d="M539.419 334.145C544.155 361.352 558.936 387.988 584.111 401.163C591.076 404.803 598.672 407.08 606.491 407.871C607.8 407.863 609.052 407.34 609.977 406.415C610.902 405.49 611.425 404.238 611.433 402.93C611.404 401.629 610.874 400.389 609.953 399.468C609.033 398.548 607.793 398.018 606.491 397.988C590.514 396.306 577.114 386.207 567.108 374.195C557.007 362.072 551.623 346.892 548.95 331.518C548.593 330.26 547.755 329.193 546.617 328.547C545.48 327.901 544.134 327.729 542.87 328.067C541.623 328.44 540.567 329.281 539.924 330.413C539.281 331.545 539.101 332.882 539.419 334.145Z" fill="#211715"/>
<path d="M610.917 362.011C616.137 364.714 621.953 366.065 627.831 365.939C633.972 366.189 640.022 364.386 645.025 360.814C645.952 359.888 646.472 358.631 646.472 357.32C646.472 356.01 645.952 354.753 645.025 353.826C644.08 352.935 642.83 352.439 641.531 352.439C640.232 352.439 638.982 352.935 638.037 353.826C639.569 352.632 638.515 353.452 638.121 353.703C637.788 353.917 637.445 354.115 637.092 354.298C636.629 354.541 635.49 354.806 636.867 354.452C636.39 354.574 635.922 354.815 635.451 354.967C634.155 355.369 632.831 355.671 631.489 355.871C632.227 355.754 631.741 355.836 631.284 355.881C630.894 355.918 630.505 355.951 630.116 355.976C629.179 356.038 628.24 356.06 627.299 356.056C626.459 356.056 625.619 356.026 624.779 355.966C624.394 355.939 624.009 355.908 623.624 355.869C623.453 355.852 622.043 355.605 623.235 355.832C621.986 355.622 620.749 355.347 619.529 355.008C619.01 354.852 618.5 354.666 617.993 354.491C616.789 354.08 618.872 354.928 617.787 354.413C617.153 354.115 616.526 353.802 615.905 353.474C614.774 352.813 613.425 352.628 612.158 352.961C610.89 353.294 609.806 354.116 609.145 355.248C608.483 356.38 608.299 357.728 608.632 358.996C608.964 360.264 609.787 361.347 610.919 362.009L610.917 362.011Z" fill="#211715"/>
<path d="M625.032 322.533C625.797 325.293 626.408 328.093 626.865 330.921L626.69 329.607C626.743 329.99 626.754 330.379 626.721 330.764L626.898 329.451C626.87 329.628 626.828 329.802 626.77 329.971L627.268 328.79C627.217 328.907 627.155 329.019 627.083 329.125L627.857 328.125C627.776 328.224 627.684 328.315 627.583 328.394L628.582 327.622C628.369 327.755 628.148 327.873 627.919 327.974L629.099 327.476C628.74 327.629 628.364 327.739 627.979 327.803L629.292 327.626C628.943 327.668 628.591 327.668 628.242 327.626L629.556 327.803C629.16 327.748 628.771 327.651 628.374 327.598C627.737 327.393 627.056 327.362 626.404 327.509C625.75 327.539 625.116 327.741 624.567 328.096C624.006 328.423 623.516 328.858 623.124 329.375C622.731 329.892 622.444 330.481 622.28 331.109C622.115 331.737 622.076 332.391 622.164 333.034C622.252 333.678 622.467 334.297 622.794 334.857C623.108 335.415 623.531 335.903 624.039 336.292C624.546 336.681 625.127 336.964 625.747 337.122C626.706 337.25 627.637 337.493 628.613 337.534C630.106 337.542 631.579 337.189 632.906 336.504C633.756 336.111 634.509 335.533 635.11 334.813C635.711 334.093 636.144 333.249 636.379 332.341C636.687 330.886 636.673 329.381 636.338 327.931C635.881 325.23 635.257 322.553 634.563 319.901C634.391 319.275 634.097 318.689 633.698 318.177C633.299 317.665 632.803 317.236 632.238 316.916C631.674 316.595 631.051 316.389 630.407 316.31C629.763 316.23 629.109 316.278 628.483 316.45C627.233 316.82 626.175 317.66 625.532 318.793C624.888 319.927 624.709 321.266 625.032 322.528V322.533Z" fill="#211715"/>
<path d="M581.308 298.606C579.906 303.156 580.82 313.636 589.441 314.517C600.837 314.449 601.445 301.791 597.607 295.839C594.467 290.975 585.231 288.947 581.308 298.606Z" fill="#211715"/>
<path d="M672.565 298.606C673.967 303.156 673.053 313.636 664.432 314.517C653.036 314.447 652.429 301.791 656.265 295.839C659.406 290.975 668.641 288.947 672.565 298.606Z" fill="#211715"/>
<path d="M653.884 349.19C655.036 350.09 656.073 351.127 656.973 352.278L656.201 351.28C657.153 352.518 657.943 353.874 658.552 355.313L658.054 354.133C658.412 355.002 658.703 355.896 658.923 356.81C659.271 358.073 660.107 359.147 661.247 359.794C662.387 360.441 663.737 360.609 665.001 360.261C666.264 359.912 667.338 359.076 667.985 357.936C668.632 356.796 668.8 355.446 668.451 354.183C667.293 349.478 664.636 345.276 660.883 342.212C659.923 341.333 658.683 340.822 657.383 340.771C656.073 340.778 654.817 341.295 653.882 342.212C652.96 343.143 652.442 344.401 652.441 345.712C652.43 346.363 652.552 347.009 652.8 347.611C653.048 348.213 653.416 348.758 653.882 349.212L653.884 349.19Z" fill="#211715"/>
<path d="M267.617 381.614C266.071 380.932 260.333 378.668 259.649 378.42C249.32 374.69 249.727 368.05 248.426 360.621C246.943 352.385 246.173 344.035 246.126 335.667C266.572 323.686 282.473 296.833 285.452 288.764C285.94 287.284 286.934 284.492 287.82 281.179L289.673 280.893C293.628 280.232 297.345 278.557 300.46 276.032C304.294 272.77 307.381 268.72 309.509 264.158C314.018 255.129 315.96 245.034 315.121 234.976C315.004 232.406 314.349 229.888 313.198 227.587C312.204 225.919 310.848 224.496 309.231 223.421C307.614 222.347 305.777 221.648 303.855 221.377C301.896 221.09 299.898 221.229 297.998 221.785C296.099 222.341 294.341 223.3 292.846 224.597C292.846 224.597 311.891 130.452 196.59 130.452C91.356 130.452 108.163 224.589 108.163 224.589C106.668 223.292 104.91 222.332 103.01 221.777C101.11 221.221 99.1126 221.082 97.1539 221.369C95.2323 221.639 93.3958 222.337 91.7792 223.411C90.1627 224.484 88.8072 225.906 87.8125 227.572C86.6597 229.873 86.0045 232.391 85.8895 234.962C85.0488 245.02 86.9905 255.115 91.5021 264.143C93.6284 268.706 96.7143 272.756 100.549 276.017C103.664 278.543 107.381 280.217 111.336 280.878L114.853 281.42C118.28 294.156 124.361 306.023 132.695 316.245C138.641 323.554 145.76 329.826 153.76 334.804C153.764 343.459 152.993 352.097 151.456 360.615C150.155 368.043 150.563 374.683 140.235 378.414C138.111 379.16 136.03 380.022 134.001 380.996C130.706 383.01 132.535 427.847 193.846 427.847C255.157 427.847 267.617 381.614 267.617 381.614Z" fill="white"/>
<path d="M108.162 224.589C106.667 223.292 104.909 222.332 103.009 221.777C101.109 221.221 99.1119 221.082 97.1532 221.369C96.5845 221.454 96.0219 221.575 95.469 221.733C86.6609 182.933 90.9126 149.096 108.329 119.565C119.653 100.351 139.969 84.1612 159.243 81.9293C164.369 81.1628 169.426 79.9882 174.365 78.4168C197.22 67.7638 234.908 72.9215 253.488 91.6537L253.367 91.4807C255.993 93.9475 258.958 96.0273 262.171 97.6575C264.212 98.6454 266.302 99.5305 268.432 100.309C287.039 107.927 298.528 125.562 304.367 148.944C310.28 172.621 309.662 202.184 304.449 219.582C304.449 219.582 304.171 220.296 303.757 221.352C301.811 221.079 299.828 221.226 297.943 221.784C296.059 222.342 294.315 223.297 292.83 224.585L280.969 211.408C273.001 204.24 278.035 178.99 272.116 168.436C265.043 155.841 259.28 153.774 244.182 149.961C239.582 148.799 206.168 143.99 187.254 144.9C172.636 145.606 159.385 149.351 145.159 154.723C124.737 162.446 117.741 195.622 117.586 210.827L108.162 224.589Z" fill="#BDBDBD"/>
<path d="M4.94824 723.119C9.06612 638.421 13.2005 548.657 17.3225 466.662C18.2778 447.644 23.1101 431.697 41.935 416.671C46.3743 413.181 51.1116 410.088 56.0922 407.427C82.0275 393.128 109.191 381.181 137.258 371.729C140.829 364.378 145.683 357.722 151.59 352.074C163.103 363.587 176.565 372.969 191.352 379.783C192.176 380.156 193.092 380.607 193.357 381.476C193.488 382.256 193.324 383.056 192.898 383.722H207.381C206.954 383.056 206.79 382.256 206.922 381.476C207.187 380.613 208.104 380.156 208.927 379.783C223.713 372.968 237.175 363.587 248.687 352.074C254.351 357.476 259.041 363.814 262.55 370.811C291.571 380.421 319.647 392.68 346.423 407.433C351.403 410.094 356.141 413.188 360.58 416.677C379.405 431.708 384.237 447.65 385.193 466.669C389.331 549.026 393.478 638.437 397.62 723.463" fill="white"/>
<path d="M148.802 337.519C148.709 343.161 148.268 348.791 147.48 354.378C146.997 358.538 146.305 362.672 145.407 366.763C145.314 367.135 145.215 367.508 145.1 367.874C145.067 367.981 144.672 369.124 144.894 368.572C145.116 368.021 144.63 369.122 144.575 369.227C144.359 369.636 144.119 370.032 143.856 370.413C144.245 369.849 143.778 370.514 143.58 370.722C143.294 371.032 142.992 371.327 142.676 371.607C142.029 372.113 141.33 372.55 140.591 372.911C137.708 374.412 134.5 375.453 131.513 376.728C130.388 377.395 129.571 378.478 129.239 379.744C128.907 381.009 129.087 382.354 129.74 383.487C130.425 384.593 131.508 385.394 132.767 385.724C134.025 386.054 135.362 385.888 136.502 385.26C136.936 385.077 137.263 384.939 136.629 385.204L137.957 384.649C138.824 384.286 139.691 383.924 140.562 383.572C142.567 382.86 144.517 382.002 146.397 381.004C150.439 378.636 153.415 374.802 154.705 370.298C155.756 366.067 156.509 361.768 156.959 357.431C157.958 350.843 158.538 344.198 158.695 337.536C158.818 331.174 148.936 331.174 148.812 337.536L148.802 337.519Z" fill="#211715"/>
<path d="M241.197 337.519C241.364 344.554 241.999 351.57 243.1 358.521C243.502 362.87 244.321 367.171 245.546 371.364C246.371 373.669 247.65 375.786 249.305 377.589C250.961 379.392 252.961 380.846 255.188 381.865C256.94 382.688 258.783 383.329 260.584 384.039C261.545 384.421 262.506 384.804 263.467 385.188C263.92 385.369 264.371 385.557 264.824 385.738C266.036 386.224 264.537 385.606 265.126 385.861C266.267 386.481 267.602 386.643 268.858 386.313C270.114 385.984 271.197 385.188 271.888 384.088C272.54 382.955 272.719 381.61 272.388 380.344C272.056 379.079 271.24 377.995 270.115 377.327C267.097 376.019 264.023 374.856 260.967 373.635C259.286 373.068 257.754 372.131 256.483 370.893C256.403 370.81 255.632 369.863 255.935 370.275C256.172 370.598 255.523 369.563 255.433 369.41C255.245 369.076 255.074 368.733 254.922 368.381C255.317 369.303 254.809 367.922 254.786 367.85C253.779 363.915 253.06 359.912 252.635 355.873C251.71 349.788 251.192 343.648 251.084 337.495C250.961 331.143 241.076 331.122 241.201 337.495L241.197 337.519Z" fill="#211715"/>
<path d="M67.484 724.227C67.7723 714.379 67.8464 704.025 67.8464 691.581C67.8464 677.504 66.8849 550.83 64.3236 537.061C53.5039 478.927 45.1961 456.901 41.9512 416.671C46.3908 413.182 51.128 410.088 56.1084 407.427C82.0396 393.131 109.198 381.186 137.259 371.733C140.833 364.381 145.687 357.724 151.596 352.074C163.109 363.587 176.571 372.969 191.358 379.783C192.182 380.156 193.098 380.607 193.363 381.476C193.494 382.256 193.33 383.056 192.904 383.722H207.387C206.96 383.056 206.796 382.256 206.928 381.476C207.193 380.613 208.109 380.156 208.933 379.783C223.719 372.968 237.181 363.587 248.693 352.074C254.355 357.472 259.044 363.806 262.552 370.798C291.578 380.411 319.658 392.672 346.439 407.427C351.508 410.134 356.324 413.29 360.829 416.859C357.57 456.969 349.27 479.016 338.467 537.061C335.906 550.83 334.944 677.504 334.944 691.581C334.944 704.288 335.022 714.816 335.325 724.851L67.484 724.227Z" fill="#3F88C9"/>
<path d="M355.888 416.671C354.091 438.72 349.652 460.245 344.838 481.962C341.795 495.693 338.803 509.433 336.087 523.232C334.505 530.378 333.392 537.622 332.758 544.914C331.766 560.48 331.523 576.107 331.204 591.695C330.792 611.316 330.495 630.937 330.312 650.558C330.17 663.602 330.036 676.645 329.997 689.678C329.997 690.308 329.997 690.939 329.997 691.57C329.997 697.928 339.88 697.938 339.88 691.57C339.88 680.063 340.016 668.555 340.131 657.05C340.326 637.663 340.601 618.278 340.955 598.895C341.272 582.236 341.572 565.561 342.425 548.921C342.555 546.423 342.697 543.926 342.905 541.435C342.977 540.564 343.069 539.695 343.158 538.826C343.29 537.508 342.966 539.738 343.131 538.984C343.323 538.12 343.446 537.234 343.609 536.363C346.388 521.564 349.468 506.826 352.711 492.123C357.583 470.022 362.594 447.986 364.968 425.444C365.277 422.521 365.551 419.593 365.792 416.661C365.781 415.354 365.258 414.103 364.333 413.178C363.409 412.254 362.158 411.73 360.85 411.719C359.548 411.745 358.306 412.274 357.385 413.195C356.464 414.117 355.935 415.358 355.909 416.661L355.888 416.671Z" fill="#211715"/>
<path d="M140.48 365.42C115.153 373.848 90.4875 384.148 66.6878 396.234C54.2827 402.605 41.8694 409.078 31.8753 419.006C23.59 427.123 17.6972 437.362 14.8417 448.603C11.7883 460.906 12.021 473.941 11.3971 486.523C10.6669 501.306 9.94283 516.091 9.22495 530.876C7.75899 561.137 6.31018 591.396 4.87853 621.653C3.27119 655.477 1.64737 689.299 0.00708798 723.119C-0.301753 729.477 9.58321 729.461 9.88999 723.119C12.7725 663.929 15.607 604.736 18.3934 545.54C19.0948 530.97 19.8031 516.399 20.5182 501.829C21.1853 488.223 21.3212 474.459 22.6925 460.905C23.5261 450.771 27.069 441.047 32.9501 432.752C40.702 422.16 51.8923 415.251 63.27 409.173C88.8961 395.592 115.598 384.145 143.103 374.949C149.097 372.923 146.525 363.374 140.476 365.42H140.48Z" fill="#211715"/>
<path d="M259.42 374.949C283.401 382.919 306.77 392.626 329.34 403.994C340.701 409.786 352.4 415.487 361.83 424.234C369.65 431.263 375.262 440.41 377.986 450.565C381.007 462.198 380.663 474.618 381.254 486.539C381.972 500.853 382.687 515.167 383.399 529.48C384.873 559.043 386.338 588.605 387.793 618.169C389.432 651.462 391.062 684.755 392.685 718.048C392.994 724.379 402.877 724.416 402.568 718.048C399.619 657.529 396.641 597.012 393.632 536.497C392.887 521.504 392.138 506.511 391.386 491.518C390.741 478.627 390.918 465.369 388.559 452.647C386.546 441.752 381.697 431.579 374.5 423.155C365.709 412.815 354.172 405.889 342.321 399.615C316.525 386.079 289.68 374.644 262.047 365.42C256.008 363.378 253.418 372.919 259.42 374.949Z" fill="#211715"/>
<path d="M36.9998 416.671C38.9702 440.819 43.924 464.358 49.1475 487.968C52.5674 503.41 55.8555 518.867 58.7977 534.401C59.0675 535.824 59.3248 537.249 59.5966 538.672C59.8581 540.039 59.5204 537.79 59.5966 538.583C59.679 539.499 59.7922 540.413 59.8704 541.33C60.0969 544.027 60.2472 546.732 60.3852 549.436C61.3014 567.501 61.5917 585.605 61.917 603.691C62.2808 623.982 62.5471 644.274 62.7159 664.567C62.8621 680.627 63.0021 696.687 62.7756 712.746C62.7221 716.576 62.6411 720.404 62.5326 724.229C62.3515 730.591 72.2344 730.587 72.4155 724.229C72.9262 706.362 72.8006 688.482 72.6503 670.61C72.4883 650.953 72.2501 631.297 71.9358 611.642C71.6229 592.595 71.3037 573.538 70.4946 554.503C70.2722 549.203 70.1116 543.858 69.4651 538.585C68.7115 532.363 67.2641 526.199 66.039 520.055C64.4866 512.276 62.8655 504.51 61.1758 496.758C56.0902 473.333 50.2964 449.763 47.7536 426.112C47.4159 422.97 47.1208 419.824 46.8683 416.673C46.8359 415.373 46.3049 414.135 45.3851 413.215C44.4653 412.295 43.2272 411.764 41.9268 411.732C40.6194 411.742 39.3685 412.266 38.444 413.191C37.5195 414.115 36.9956 415.366 36.9854 416.673L36.9998 416.671Z" fill="#211715"/>
<path d="M230.754 416.692C244.034 403.494 252.731 387.511 262.54 371.544C258.89 364.274 254.015 357.688 248.127 352.074C236.155 364.051 222.155 373.81 206.776 380.899C205.919 381.286 204.964 381.762 204.688 382.66C204.552 383.47 204.723 384.302 205.166 384.995C207.823 388.823 210.679 392.51 213.721 396.041C219.541 403.154 226.848 411.88 230.754 416.692Z" fill="white"/>
<path d="M169.272 416.198C156.095 403.103 147.464 387.239 137.729 371.395C141.35 364.18 146.188 357.643 152.031 352.072C163.912 363.956 177.806 373.639 193.068 380.673C193.916 381.058 194.863 381.529 195.137 382.421C195.273 383.225 195.104 384.051 194.663 384.737C192.028 388.537 189.195 392.196 186.176 395.699C180.401 402.765 173.149 411.423 169.272 416.198Z" fill="white"/>
<path d="M234.248 420.186C244.491 409.912 252.429 397.743 259.923 385.39C261.743 382.394 263.545 379.388 265.367 376.394C266.526 374.49 267.955 372.594 267.304 370.23C266.666 368.509 265.819 366.874 264.78 365.361C261.234 359.157 256.801 353.503 251.624 348.578C250.686 347.673 249.433 347.167 248.13 347.167C246.826 347.167 245.573 347.673 244.636 348.578C238.144 355.105 231.003 360.952 223.324 366.028C219.387 368.636 215.33 371.045 211.153 373.254C207.542 375.159 201.754 376.582 200.175 380.749C198.75 384.513 200.908 387.731 203.094 390.585C205.831 394.157 208.68 397.645 211.536 401.122C216.762 407.491 222.066 413.795 227.262 420.186C228.193 421.104 229.449 421.619 230.756 421.619C232.064 421.619 233.317 421.104 234.248 420.186C235.148 419.245 235.652 417.994 235.652 416.692C235.652 415.39 235.15 414.139 234.25 413.198C229.768 407.686 225.203 402.242 220.684 396.761C218.154 393.692 215.627 390.618 213.146 387.496C212.279 386.411 211.408 385.33 210.591 384.202C210.325 383.866 210.077 383.516 209.848 383.154C209.574 382.686 209.642 382.464 209.642 382.637L208.969 385.13C208.433 385.581 208.538 385.585 209.282 385.143C209.79 384.912 210.299 384.677 210.803 384.441C211.828 383.959 212.846 383.463 213.857 382.954C215.664 382.045 217.449 381.096 219.21 380.105C223.1 377.923 226.883 375.566 230.559 373.032C238.108 367.869 245.162 362.018 251.63 355.552H244.642C250.2 360.893 254.811 367.139 258.28 374.022V369.034C248.863 384.389 240.089 400.33 227.266 413.181C222.766 417.707 229.749 424.697 234.248 420.186Z" fill="#211715"/>
<path d="M172.766 412.704C160.044 399.938 151.341 384.138 141.995 368.902V373.889C145.439 367.061 150.013 360.865 155.525 355.564H148.537C154.958 361.988 161.962 367.803 169.457 372.933C173.044 375.404 176.737 377.709 180.537 379.849C182.321 380.851 184.125 381.812 185.947 382.732C186.969 383.246 187.998 383.747 189.036 384.235C189.546 384.475 190.059 384.712 190.574 384.945C191.316 385.387 191.415 385.379 190.87 384.92L190.195 382.427C190.423 382.187 190.458 382.187 190.3 382.427C190.203 382.596 190.094 382.758 189.991 382.919C189.785 383.281 189.501 383.619 189.252 383.949C188.441 385.058 187.58 386.129 186.724 387.204C184.317 390.22 181.867 393.199 179.414 396.177C174.872 401.688 170.283 407.159 165.778 412.697C164.886 413.642 164.389 414.892 164.389 416.191C164.389 417.491 164.886 418.741 165.778 419.686C166.709 420.604 167.964 421.118 169.272 421.118C170.58 421.118 171.835 420.604 172.766 419.686C178.002 413.249 183.345 406.904 188.606 400.488C191.36 397.126 194.109 393.755 196.755 390.304C198.931 387.461 201.079 384.257 199.654 380.51C198.07 376.335 192.242 374.904 188.62 372.989C184.671 370.9 180.828 368.625 177.09 366.163C169.311 361.062 162.083 355.167 155.523 348.572C154.584 347.667 153.332 347.162 152.029 347.162C150.725 347.162 149.473 347.667 148.535 348.572C143.327 353.528 138.878 359.224 135.333 365.478C134.2 367.065 133.367 368.846 132.874 370.732C132.86 372.745 133.576 374.696 134.89 376.221C136.776 379.32 138.641 382.433 140.525 385.534C147.894 397.653 155.718 409.599 165.778 419.686C170.283 424.201 177.265 417.215 172.766 412.704Z" fill="#211715"/>
<path d="M296.325 228.083C297.235 227.344 298.286 226.798 299.415 226.481C300.543 226.164 301.724 226.081 302.886 226.237C304.048 226.394 305.165 226.787 306.169 227.392C307.173 227.997 308.043 228.801 308.724 229.755C310.32 232.226 310.303 235.757 310.355 238.596C310.432 241.789 310.191 244.983 309.636 248.129C307.491 259.828 301.347 273.837 288.345 276.13C287.087 276.488 286.021 277.326 285.376 278.463C284.73 279.6 284.557 280.945 284.894 282.208C285.267 283.456 286.107 284.512 287.239 285.155C288.372 285.799 289.709 285.98 290.972 285.661C309.449 282.416 318.319 261.648 319.98 244.954C320.804 236.759 320.627 226.384 313.746 220.677C310.289 217.839 305.935 216.323 301.463 216.401C296.99 216.48 292.692 218.147 289.337 221.105C288.42 222.037 287.907 223.292 287.907 224.599C287.907 225.906 288.42 227.161 289.337 228.093C290.277 228.995 291.529 229.498 292.831 229.498C294.133 229.498 295.385 228.995 296.325 228.093V228.083Z" fill="#211715"/>
<path d="M284.574 270.641C284.344 274.543 283.615 278.4 282.406 282.118C281.994 283.497 281.544 284.864 281.086 286.236C280.938 286.678 280.792 287.123 280.636 287.562C280.576 287.737 280.102 288.867 280.43 288.082C280.757 287.298 280.265 288.437 280.178 288.62C279.973 289.032 279.783 289.46 279.577 289.878C279.137 290.78 278.673 291.669 278.196 292.554C277.078 294.628 275.881 296.66 274.634 298.659C268.187 309.402 259.938 318.955 250.25 326.9C245.02 331.208 238.904 334.308 232.337 335.977C226.144 337.419 228.765 346.941 234.964 345.506C248.811 342.303 260.429 332.399 269.585 321.954C277.362 313.394 283.85 303.747 288.847 293.316C292.144 286.188 294.045 278.495 294.449 270.651C294.673 264.291 284.79 264.3 284.566 270.651L284.574 270.641Z" fill="#211715"/>
<path d="M111.659 221.095C108.304 218.136 104.006 216.468 99.5334 216.39C95.061 216.311 90.7067 217.828 87.2502 220.667C80.3672 226.384 80.1983 236.739 81.0157 244.944C82.6773 261.638 91.5451 282.416 110.022 285.651C111.285 285.962 112.619 285.778 113.75 285.136C114.881 284.494 115.723 283.442 116.102 282.198C116.439 280.935 116.265 279.589 115.62 278.452C114.974 277.315 113.907 276.478 112.649 276.12C99.6368 273.835 93.5217 259.83 91.3598 248.129C90.801 244.983 90.5596 241.79 90.6392 238.596C90.4474 235.681 90.941 232.762 92.0805 230.072C92.7321 229.06 93.5901 228.198 94.5982 227.541C95.6063 226.884 96.7419 226.447 97.9305 226.259C99.1191 226.071 100.334 226.137 101.495 226.451C102.657 226.765 103.739 227.322 104.671 228.083C105.615 228.982 106.868 229.483 108.171 229.483C109.474 229.483 110.728 228.982 111.671 228.083C112.587 227.151 113.101 225.896 113.101 224.589C113.101 223.282 112.587 222.027 111.671 221.095H111.659Z" fill="#211715"/>
<path d="M107.125 269.531C112.173 298.612 127.982 327.099 154.919 341.137C162.291 344.978 170.326 347.382 178.597 348.22C179.905 348.211 181.156 347.688 182.081 346.763C183.006 345.838 183.529 344.586 183.538 343.278C183.51 341.977 182.98 340.736 182.059 339.816C181.139 338.895 179.898 338.365 178.597 338.337C151.419 335.489 130.191 311.011 121.636 286.538C119.44 280.139 117.774 273.57 116.656 266.898C116.296 265.641 115.456 264.575 114.318 263.931C113.18 263.287 111.835 263.115 110.571 263.453C109.324 263.827 108.269 264.667 107.626 265.8C106.983 266.932 106.802 268.269 107.121 269.531H107.125Z" fill="#211715"/>
<path d="M249.873 94.9768C251.468 96.4594 253.163 97.8291 254.948 99.0761C256.275 100.049 257.675 100.917 259.136 101.672C260.213 102.212 261.339 102.669 262.447 103.138C263.921 103.831 265.441 104.423 266.995 104.909C268.259 105.257 269.609 105.09 270.749 104.442C271.313 104.122 271.809 103.694 272.208 103.182C272.607 102.67 272.901 102.084 273.073 101.458C273.246 100.833 273.293 100.179 273.213 99.5351C273.133 98.891 272.927 98.269 272.607 97.7046C272.286 97.1402 271.858 96.6445 271.346 96.2457C270.834 95.8469 270.248 95.5528 269.622 95.3803C268.473 95.0315 267.348 94.6057 266.256 94.1058L267.436 94.6041C266.126 94.0503 264.792 93.5129 263.542 92.8334C261.796 91.8612 260.13 90.7528 258.558 89.5185L259.556 90.2906C258.624 89.5638 257.72 88.8041 256.861 87.9887C255.932 87.0745 254.679 86.5645 253.375 86.5698C252.072 86.5751 250.823 87.0953 249.901 88.0171C248.98 88.9389 248.459 90.1875 248.454 91.4911C248.449 92.7947 248.959 94.0475 249.873 94.9768Z" fill="#211715"/>
<path d="M122.038 211.15C122.361 201.235 124.414 191.452 128.103 182.243C130.007 177.055 132.663 172.175 135.987 167.76C138.703 164.144 142.315 161.297 146.465 159.5C147.71 159.122 148.762 158.281 149.404 157.15C150.046 156.019 150.229 154.684 149.916 153.422C149.559 152.164 148.721 151.097 147.584 150.451C146.447 149.806 145.101 149.633 143.838 149.971C131.39 154.54 124.072 166.107 119.264 177.865C114.874 188.431 112.464 199.713 112.155 211.15C112.064 217.512 121.947 217.516 122.038 211.15Z" fill="#211715"/>
<path d="M170.244 146.942C170.923 144.308 171.745 141.712 172.705 139.166C173.116 138.118 172.464 139.689 172.655 139.26C172.77 139.001 172.884 138.744 173.003 138.486C173.209 138.037 173.435 137.593 173.672 137.156C173.909 136.72 174.181 136.258 174.463 135.826C174.599 135.62 174.739 135.414 174.875 135.208C175.14 134.838 175.643 134.49 174.696 135.427C175.348 134.78 175.904 134.07 176.604 133.462C176.792 133.3 176.987 133.143 177.179 132.985C177.774 132.486 177.212 133.001 176.93 133.168C177.43 132.869 177.891 132.453 178.371 132.12C179.387 131.41 180.428 130.74 181.496 130.108C181.988 129.82 182.487 129.54 182.995 129.285C183.407 129.079 185.068 128.387 183.341 129.079C184.563 128.698 185.609 127.895 186.294 126.814C186.79 125.966 187.021 124.989 186.959 124.008C186.897 123.027 186.544 122.087 185.945 121.308C185.346 120.529 184.529 119.946 183.597 119.634C182.665 119.322 181.661 119.295 180.714 119.556C178.17 120.597 175.752 121.923 173.508 123.509C171.353 124.878 169.4 126.541 167.705 128.451C164.289 133.197 161.904 138.606 160.705 144.329C160.357 145.593 160.525 146.944 161.172 148.084C161.819 149.224 162.893 150.06 164.157 150.408C165.421 150.757 166.771 150.589 167.911 149.942C169.051 149.294 169.888 148.221 170.236 146.957L170.244 146.942Z" fill="#211715"/>
<path d="M191.514 147.406C192.725 145.789 194.041 144.254 195.455 142.812C196.176 142.079 196.921 141.371 197.695 140.696C198.033 140.399 198.379 140.109 198.725 139.827C198.875 139.694 199.035 139.572 199.202 139.462C202.387 137.288 205.74 135.373 209.229 133.734C210.024 133.322 208.56 133.973 209.19 133.753C209.509 133.642 209.824 133.512 210.144 133.397C210.875 133.135 211.612 132.894 212.353 132.666C214.159 132.108 215.991 131.636 217.834 131.206C218.848 130.973 219.867 130.76 220.889 130.57C221.348 130.485 221.805 130.405 222.265 130.331C222.47 130.296 223.49 130.141 222.829 130.232C224.524 129.986 226.24 129.9 227.951 129.975C229.262 129.975 230.519 129.454 231.446 128.527C232.372 127.601 232.893 126.344 232.893 125.033C232.893 123.723 232.372 122.466 231.446 121.539C230.519 120.612 229.262 120.092 227.951 120.092C223.746 120.033 219.552 120.544 215.485 121.613C211.625 122.411 207.86 123.614 204.253 125.202C200.406 126.921 196.76 129.056 193.378 131.568C189.422 134.679 185.925 138.331 182.988 142.417C182.335 143.551 182.155 144.896 182.487 146.161C182.819 147.427 183.636 148.511 184.761 149.178C185.9 149.809 187.238 149.977 188.497 149.647C189.756 149.317 190.84 148.514 191.523 147.406H191.514Z" fill="#211715"/>
<path d="M242.861 154.739C248.271 155.693 253.481 157.559 258.266 160.257C262.491 163.08 265.9 166.965 268.149 171.522C268.406 172.01 268.149 171.46 268.116 171.376C268.211 171.581 268.293 171.818 268.369 172.041C268.53 172.508 268.686 172.975 268.824 173.451C269.141 174.571 269.401 175.706 269.6 176.852C269.988 179.22 270.256 181.606 270.403 184.001C270.815 189.297 270.994 194.609 271.686 199.877C272.378 205.146 273.436 211.072 277.48 214.908C282.09 219.289 289.09 212.311 284.468 207.92C284.183 207.657 283.917 207.376 283.669 207.078C284.274 207.821 283.589 206.845 283.416 206.53C283.313 206.343 282.86 205.354 283.004 205.706C283.109 205.962 282.699 204.78 282.609 204.481C282.002 202.391 281.581 200.252 281.351 198.088C280.733 192.566 280.595 187.005 280.078 181.473C279.883 176.252 278.699 171.116 276.588 166.337C273.699 160.747 269.472 155.958 264.284 152.396C258.529 148.84 252.155 146.402 245.496 145.211C239.301 143.817 236.657 153.343 242.869 154.741L242.861 154.739Z" fill="#211715"/>
<path d="M256.983 88.1576C244.741 75.9893 227.411 70.111 210.534 68.433C202.085 67.5709 193.554 67.9978 185.233 69.6992C181.232 70.5425 177.324 71.7841 173.57 73.4053C173.114 73.6009 170.965 74.3853 172.517 73.8768C171.999 74.0477 171.488 74.2227 170.959 74.3751C169.211 74.8857 167.434 75.2975 165.657 75.6948C164.02 76.0613 162.377 76.4072 160.728 76.7243C160.125 76.8375 159.515 76.9302 158.912 77.0434C157.631 77.2967 160.147 76.9014 158.889 77.0434C158.097 77.1381 157.306 77.2493 156.517 77.3646C151.965 78.1226 147.527 79.4536 143.309 81.326C134.324 85.3253 126.148 90.9366 119.185 97.8819C104.999 111.699 95.612 130.207 90.5388 149.224C84.4237 172.137 85.1629 196.12 89.8737 219.211C90.2221 220.475 91.0582 221.548 92.198 222.195C93.3379 222.842 94.6881 223.01 95.9517 222.662C97.2153 222.313 98.2887 221.477 98.9359 220.337C99.583 219.198 99.7509 217.847 99.4025 216.584C95.178 197.532 94.8586 177.822 98.4636 158.643C102.104 141.031 109.565 123.273 121.573 109.698C127.395 102.992 134.312 97.3218 142.031 92.9302C145.644 90.8821 149.486 89.2658 153.476 88.1143C156.732 87.1961 160.044 86.8522 163.359 86.2366C166.633 85.6189 169.909 84.9271 173.117 84.0315C175.972 83.2326 178.447 81.9128 181.231 80.9945C188.277 78.7562 195.646 77.7062 203.037 77.8876C219.7 78.1058 237.911 83.1317 249.995 95.1435C254.51 99.632 261.503 92.6461 256.983 88.1535V88.1576Z" fill="#211715"/>
<path d="M267.119 105.08C280.723 110.763 290.029 123.287 295.298 136.672C302.092 153.914 304.166 172.856 303.55 191.275C303.404 200.401 302.106 209.472 299.685 218.272C297.886 224.387 307.419 226.998 309.214 220.899C314.541 202.805 314.549 182.624 312.134 164.058C309.719 145.493 304.258 126.639 292.162 111.951C286.148 104.727 278.448 99.094 269.742 95.5492C268.479 95.2084 267.132 95.3796 265.993 96.0256C264.855 96.6716 264.018 97.7403 263.662 98.9999C263.348 100.263 263.53 101.598 264.173 102.73C264.816 103.862 265.869 104.703 267.115 105.08H267.119Z" fill="#211715"/>
<path d="M183.52 299.159C189.056 302.026 195.223 303.456 201.456 303.318C207.94 303.59 214.33 301.695 219.62 297.934C220.546 297.008 221.067 295.751 221.067 294.44C221.067 293.13 220.546 291.873 219.62 290.946C218.674 290.055 217.425 289.559 216.126 289.559C214.827 289.559 213.577 290.055 212.632 290.946C214.147 289.764 213.043 290.619 212.65 290.87C212.294 291.099 211.925 291.309 211.551 291.506C211.357 291.607 211.157 291.698 210.962 291.799C210.494 292.04 210.305 291.813 211.225 291.706C210.705 291.846 210.198 292.03 209.71 292.258C208.323 292.692 206.904 293.016 205.467 293.226C206.216 293.11 205.524 293.211 205.149 293.248C204.738 293.289 204.321 293.324 203.9 293.351C202.897 293.417 201.89 293.442 200.885 293.436C199.984 293.436 199.084 293.401 198.184 293.339C197.772 293.31 197.36 293.277 196.949 293.236C196.833 293.223 195.334 292.983 196.438 293.182C195.102 292.964 193.778 292.67 192.475 292.303C191.919 292.136 191.379 291.937 190.827 291.751C189.592 291.329 191.635 292.163 190.519 291.632C189.837 291.311 189.168 290.977 188.503 290.627C187.372 289.977 186.03 289.8 184.769 290.136C183.509 290.471 182.432 291.292 181.774 292.418C181.116 293.544 180.929 294.885 181.256 296.148C181.582 297.411 182.395 298.493 183.516 299.159H183.52Z" fill="#211715"/>
<path d="M198.795 257.1C199.614 260.053 200.267 263.049 200.753 266.075L200.578 264.761C200.635 265.17 200.646 265.585 200.611 265.996L200.788 264.683C200.761 264.873 200.715 265.059 200.652 265.241L201.151 264.061C201.092 264.186 201.023 264.306 200.945 264.419L201.717 263.419C201.63 263.525 201.532 263.621 201.425 263.707L202.423 262.935C202.195 263.077 201.958 263.203 201.713 263.311L202.893 262.813C202.509 262.978 202.106 263.095 201.694 263.163L203.018 262.986C202.645 263.031 202.267 263.031 201.894 262.986L203.208 263.163C202.783 263.104 202.365 263.001 201.941 262.943C201.304 262.738 200.624 262.708 199.971 262.854C199.318 262.884 198.684 263.086 198.134 263.441C197.574 263.769 197.083 264.203 196.691 264.72C196.298 265.237 196.012 265.827 195.847 266.455C195.682 267.083 195.643 267.737 195.731 268.38C195.82 269.023 196.034 269.642 196.362 270.203C196.675 270.76 197.099 271.248 197.606 271.637C198.114 272.027 198.695 272.309 199.314 272.468C200.311 272.601 201.276 272.855 202.289 272.898C203.827 272.907 205.344 272.545 206.712 271.842C207.583 271.442 208.353 270.853 208.968 270.119C209.583 269.384 210.027 268.522 210.268 267.594C210.583 266.099 210.568 264.553 210.224 263.064C209.736 260.17 209.067 257.299 208.324 254.466C207.969 253.232 207.16 252.177 206.059 251.514C205.211 251.017 204.234 250.785 203.252 250.846C202.271 250.908 201.331 251.261 200.551 251.86C199.772 252.459 199.189 253.277 198.877 254.209C198.565 255.142 198.538 256.146 198.799 257.093L198.795 257.1Z" fill="#211715"/>
<path d="M151.64 231.579C150.141 236.453 151.119 247.663 160.351 248.617C172.552 248.543 173.201 234.991 169.093 228.618C165.731 223.401 155.842 221.231 151.64 231.579Z" fill="#211715"/>
<path d="M249.354 231.579C250.855 236.452 249.877 247.663 240.645 248.617C228.443 248.542 227.793 234.991 231.9 228.616C235.263 223.399 245.152 221.231 249.354 231.579Z" fill="#211715"/>
<path d="M229.599 285.488C230.826 286.449 231.932 287.555 232.893 288.782L232.121 287.782C233.142 289.109 233.988 290.563 234.639 292.105L234.141 290.924C234.524 291.851 234.834 292.806 235.07 293.781C235.242 294.407 235.536 294.993 235.935 295.505C236.334 296.017 236.83 296.446 237.394 296.766C237.959 297.087 238.581 297.293 239.225 297.373C239.869 297.453 240.523 297.406 241.149 297.233C241.774 297.061 242.36 296.767 242.872 296.368C243.384 295.969 243.813 295.473 244.133 294.909C244.454 294.344 244.66 293.722 244.74 293.078C244.82 292.434 244.773 291.78 244.6 291.154C243.376 286.174 240.562 281.729 236.585 278.492C235.625 277.612 234.385 277.102 233.085 277.051C231.775 277.057 230.519 277.574 229.585 278.492C228.662 279.423 228.144 280.681 228.143 281.992C228.132 282.643 228.255 283.289 228.502 283.891C228.75 284.493 229.118 285.038 229.585 285.492L229.599 285.488Z" fill="#211715"/>
<path d="M498.078 439.546C499.399 438.401 500.951 437.554 502.628 437.063C504.306 436.572 506.069 436.45 507.799 436.703C509.496 436.943 511.118 437.559 512.545 438.508C513.972 439.457 515.169 440.714 516.047 442.186C517.064 444.218 517.643 446.441 517.745 448.711C518.486 457.59 516.772 466.503 512.79 474.474C510.912 478.503 508.187 482.079 504.801 484.958C502.051 487.187 498.77 488.666 495.278 489.251L493.648 489.5C492.865 492.426 491.988 494.89 491.556 496.2C488.838 503.577 473.874 528.752 454.888 538.694C455.088 544.081 455.664 549.447 456.612 554.754C457.641 560.601 457.312 565.852 465.465 568.796C465.93 568.969 475.76 573.416 479.439 575.061L476.379 577.789C467.114 586.081 445.174 601.953 417.395 601.953C405.707 602.176 394.108 599.867 383.396 595.186C372.684 590.505 363.111 583.561 355.334 574.833C359.59 573.243 369.747 569.039 370.383 568.796C378.537 565.852 378.207 560.601 379.237 554.754C380.116 549.832 380.68 544.859 380.923 539.866C371.511 535.278 363.236 528.657 356.695 520.481C349.337 511.457 343.97 500.979 340.945 489.735L337.838 489.257C334.346 488.672 331.065 487.194 328.315 484.964C324.929 482.085 322.204 478.509 320.326 474.48C316.344 466.509 314.63 457.596 315.37 448.717C315.473 446.447 316.052 444.224 317.069 442.192C317.947 440.719 319.143 439.461 320.571 438.511C321.999 437.561 323.621 436.943 325.319 436.703C327.049 436.45 328.812 436.572 330.49 437.063C332.167 437.554 333.719 438.401 335.04 439.546C335.04 439.546 336.295 369.289 416.823 369.289C497.35 369.289 498.078 439.546 498.078 439.546Z" fill="white"/>
<path d="M356.296 579.815C361.091 578.152 365.752 576 370.445 574.069C373.701 573.046 376.695 571.326 379.218 569.029C381.715 566.111 383.244 562.49 383.593 558.666C384.667 552.44 385.423 546.164 385.858 539.862C385.858 538.551 385.337 537.294 384.411 536.368C383.484 535.441 382.227 534.92 380.916 534.92C379.606 534.92 378.349 535.441 377.422 536.368C376.496 537.294 375.975 538.551 375.975 539.862C375.618 545.744 374.905 551.599 373.842 557.396C373.701 558.269 373.511 559.134 373.272 559.986C373.183 560.282 372.534 561.69 373.129 560.531C372.901 560.976 372.658 561.398 372.409 561.828C372.096 562.273 372.121 562.24 372.485 561.746C372.312 561.952 372.129 562.143 371.937 562.331C371.832 562.434 370.826 563.198 371.614 562.652C370.805 563.209 369.936 563.675 369.024 564.04C363.893 566.07 358.875 568.475 353.66 570.284C352.414 570.66 351.359 571.501 350.716 572.633C350.073 573.765 349.891 575.102 350.207 576.365C350.566 577.622 351.405 578.688 352.542 579.333C353.679 579.978 355.024 580.152 356.287 579.815H356.296Z" fill="#211715"/>
<path d="M449.94 538.678C450.238 544.725 450.91 550.748 451.953 556.712C452.59 560.624 453.069 564.466 455.559 567.721C456.962 569.566 458.758 571.076 460.817 572.142C461.616 572.553 462.464 572.895 463.288 573.233C463.543 573.336 464.912 573.904 463.658 573.358C462.503 572.856 463.658 573.371 463.947 573.494C466.492 574.625 469.028 575.776 471.565 576.918C474.19 578.1 476.801 579.327 479.463 580.418C480.726 580.758 482.072 580.586 483.21 579.94C484.348 579.295 485.185 578.227 485.541 576.968C485.857 575.705 485.674 574.369 485.032 573.237C484.389 572.105 483.336 571.264 482.09 570.888C484.303 571.8 482.708 571.141 482.191 570.914L480.26 570.05C478.613 569.313 476.972 568.574 475.337 567.834C472.522 566.566 469.726 565.23 466.864 564.071C466.034 563.724 465.232 563.31 464.468 562.835C463.644 562.343 464.674 563.185 464.031 562.475C463.838 562.269 462.884 560.943 463.469 561.911C463.199 561.462 462.942 561.021 462.705 560.552C463.267 561.67 462.617 560.192 462.538 559.92C462.291 559.023 462.096 558.113 461.954 557.194C460.849 551.074 460.135 544.89 459.816 538.68C459.816 537.369 459.296 536.112 458.369 535.186C457.442 534.259 456.186 533.738 454.875 533.738C453.564 533.738 452.308 534.259 451.381 535.186C450.454 536.112 449.934 537.369 449.934 538.68L449.94 538.678Z" fill="#211715"/>
<path d="M261.743 726.727C263.777 692.797 265.861 656.395 279.143 626.695C282.674 618.801 291.738 608.908 304.903 599.709C318.508 590.42 332.954 582.428 348.052 575.837C349.705 575.095 351.544 574.873 353.326 575.2C355.108 575.528 356.749 576.39 358.029 577.672C365.748 585.55 374.995 591.768 385.204 595.942C395.413 600.117 406.367 602.16 417.395 601.947C445.174 601.947 467.104 586.074 476.379 577.783C477.674 576.624 479.278 575.865 480.995 575.598C482.712 575.332 484.47 575.568 486.056 576.28C500.798 582.778 514.91 590.621 528.213 599.709C541.378 608.908 550.449 618.801 553.972 626.695C567.256 656.395 569.338 692.797 571.372 726.727" fill="white"/>
<path d="M266.685 726.727C267.817 707.822 268.857 688.842 271.962 670.126C273.447 660.836 275.591 651.662 278.376 642.675C280.671 635.417 283.198 627.943 287.884 621.838C298.88 607.518 315.723 597.775 331.393 589.422C335.731 587.109 340.123 584.91 344.57 582.823C347.422 581.487 351.492 578.5 354.441 581.047C358.118 584.213 361.456 587.596 365.392 590.499C376.955 598.886 390.446 604.224 404.617 606.017C422.1 608.327 439.874 605.382 455.679 597.559C461.658 594.646 467.341 591.161 472.649 587.153C474.862 585.486 476.999 583.744 479.114 581.955C482.165 579.377 484.65 581.005 487.914 582.525C505.33 590.637 523.301 600.191 537.421 613.409C542.921 618.221 547.347 624.137 550.411 630.772C553.848 639.056 556.545 647.627 558.469 656.387C562.704 674.852 564.333 693.78 565.571 712.646C565.877 717.338 566.157 722.032 566.439 726.725C566.818 733.046 576.703 733.089 576.322 726.725C575.479 706.746 573.574 686.825 570.617 667.048C569.101 657.621 566.899 648.316 564.028 639.209C561.44 631.19 558.521 623.049 553.369 616.296C541.576 600.837 524.075 590.168 507.169 581.119C502.483 578.609 497.729 576.233 492.909 573.989C488.243 571.814 483.8 569.615 478.547 571.087C475.047 572.068 472.609 574.635 469.9 576.853C467.82 578.555 465.988 579.916 463.449 581.633C450.12 590.678 434.556 596.802 418.301 596.995C402.781 597.321 387.512 593.054 374.408 584.732C370.325 582.133 366.529 579.107 363.084 575.706C360.547 572.789 357.067 570.855 353.251 570.239C348.173 569.667 343.609 572.391 339.164 574.485C321.092 582.996 302.659 593.126 288.102 606.999C282.252 612.264 277.52 618.65 274.186 625.779C270.435 634.533 267.472 643.603 265.332 652.883C260.782 672.313 259.015 692.314 257.714 712.18C257.393 717.025 257.096 721.872 256.814 726.716C256.435 733.068 266.318 733.048 266.697 726.716L266.685 726.727Z" fill="#211715"/>
<path d="M307.664 689.911C307.87 691.109 307.604 689.124 307.647 689.678C307.674 690.041 307.728 690.401 307.763 690.761C307.853 691.698 307.923 692.637 307.987 693.574C308.178 696.407 308.306 699.244 308.421 702.081C308.757 710.292 308.957 718.509 309.14 726.727C309.28 733.076 319.165 733.109 319.023 726.727C318.838 718.334 318.632 709.94 318.282 701.554C318.239 696.778 317.876 692.011 317.195 687.284C316.836 686.025 315.998 684.958 314.86 684.313C313.722 683.667 312.376 683.495 311.112 683.833C309.865 684.206 308.81 685.047 308.167 686.179C307.524 687.311 307.343 688.648 307.662 689.911H307.664Z" fill="#211715"/>
<path d="M516.445 689.029C515.788 693.561 515.433 698.132 515.383 702.711C515.041 710.712 514.839 718.719 514.656 726.727C514.656 728.037 515.177 729.294 516.104 730.221C517.03 731.147 518.287 731.668 519.598 731.668C520.908 731.668 522.165 731.147 523.092 730.221C524.019 729.294 524.539 728.037 524.539 726.727C524.718 718.886 524.916 711.044 525.243 703.207C525.354 700.59 525.476 697.976 525.655 695.363C525.719 694.412 525.789 693.46 525.882 692.513C525.973 692.139 526.014 691.755 526.005 691.37C526.211 691.618 525.772 692.812 525.98 691.657C526.292 690.394 526.108 689.061 525.466 687.93C524.824 686.8 523.773 685.958 522.53 685.579C521.266 685.242 519.921 685.415 518.784 686.06C517.646 686.706 516.808 687.772 516.45 689.029H516.445Z" fill="#211715"/>
<path d="M507.177 399.494C505.426 388.232 501.463 377.428 495.515 367.706C492.156 362.307 488.2 357.303 483.721 352.789C481.928 350.973 479.192 348.321 477.339 346.707C472.478 342.827 467.286 339.382 461.823 336.412C457.477 334.023 452.945 331.991 448.271 330.336C437.94 326.774 427.079 324.993 416.151 325.067C396.692 324.736 377.632 330.602 361.725 341.817C344.743 353.999 325.511 375.696 323.973 410.816C323.92 419.297 324.577 427.768 325.935 436.141L325.992 436.639C327.594 436.496 329.207 436.678 330.737 437.173C332.266 437.669 333.68 438.467 334.893 439.521C336.082 439.604 337.275 439.615 338.465 439.552C342.485 439.404 346.279 436.981 348.6 431.879C359.603 409.025 377.458 391.007 407.102 383.593C409.906 382.89 413.234 382.388 415.579 383.784C419.044 385.843 417.858 390.449 420.772 392.985C423.846 395.662 429.419 394.593 433.623 393.15C439.998 390.969 446.221 388.366 452.251 385.359C453.074 385.608 453.562 385.761 453.562 385.761C458.092 387.154 463.682 392.425 466.89 396.14C475.485 406.497 481.233 418.916 483.567 432.171C483.618 433.691 484 435.181 484.689 436.536C485.377 437.892 486.354 439.08 487.551 440.018C489.195 440.954 491.072 441.405 492.962 441.318C494.852 441.232 496.679 440.611 498.231 439.528C500.566 437.497 503.594 436.445 506.685 436.592L506.761 436.13C508.185 427.769 508.712 419.279 508.334 410.805C508.168 407.016 507.782 403.239 507.177 399.494Z" fill="#7A7473"/>
<path d="M511.525 437.44C515.554 412.829 513.156 386.767 499.789 365.202C486.803 344.708 466.585 329.846 443.15 323.568C418.752 317.007 392.796 319.6 370.179 330.859C353.622 339.425 339.898 352.6 330.664 368.795C324.684 379.611 320.92 391.51 319.591 403.797C318.564 415.034 319.096 426.36 321.17 437.452C321.527 438.711 322.365 439.778 323.503 440.424C324.641 441.069 325.987 441.241 327.25 440.903C328.497 440.528 329.551 439.687 330.193 438.555C330.836 437.423 331.018 436.087 330.701 434.825C327.775 416.863 328.148 397.146 336.116 379.831C343.055 365.058 354.012 352.536 367.733 343.696C386.339 332.088 408.502 327.566 430.168 330.958C452.075 334.206 471.976 345.526 485.965 362.694C502.252 382.818 506.081 409.844 501.99 434.823C501.681 436.085 501.866 437.418 502.508 438.548C503.149 439.677 504.199 440.519 505.441 440.901C506.704 441.239 508.05 441.067 509.188 440.422C510.326 439.776 511.164 438.709 511.521 437.45L511.525 437.44Z" fill="#211715"/>
<path d="M455.059 378.301C449.447 381.404 443.632 384.123 437.653 386.442C435.221 387.429 432.742 388.292 430.224 389.03C428.678 389.442 425.832 390.339 424.309 389.442C423.279 388.824 423.125 386.646 422.662 385.4C421.788 382.722 419.904 380.491 417.411 379.18C411.875 376.425 404.998 378.855 399.509 380.609C380.458 386.599 363.942 398.759 352.565 415.172C349.582 419.495 346.931 424.037 344.636 428.761C343.87 431.03 342.317 432.949 340.259 434.172C339.556 434.504 338.78 434.653 338.004 434.607C337.282 434.588 337.319 434.567 337.564 434.596C337.166 434.549 335.424 433.835 336.174 434.273C330.67 431.055 325.692 439.593 331.185 442.805C333.51 444.008 336.108 444.585 338.723 444.481C341.339 444.376 343.882 443.594 346.104 442.21C351.011 439.194 352.911 433.975 355.542 429.161C360.027 420.808 365.864 413.256 372.815 406.809C380.062 400.238 388.494 395.107 397.66 391.688C400.147 390.755 402.67 389.927 405.229 389.205C407.014 388.696 411.105 386.922 412.896 387.97C413.765 388.474 413.884 390.57 414.278 391.647C414.731 393.066 415.463 394.382 416.428 395.517C417.394 396.651 418.576 397.583 419.905 398.258C426.151 401.264 433.389 398.581 439.403 396.31C446.5 393.642 453.401 390.478 460.054 386.839C465.63 383.778 460.649 375.241 455.065 378.305L455.059 378.301Z" fill="#211715"/>
<path d="M452.242 390.527C457.83 392.434 462.609 398.322 465.911 402.959C470.21 408.896 473.614 415.433 476.012 422.36C477.154 425.72 478.038 429.161 478.656 432.655C479.044 436.142 480.404 439.45 482.582 442.2C487.192 447.51 495.107 446.903 500.722 443.8C506.281 440.722 501.308 432.183 495.733 435.266C494.91 435.837 493.951 436.183 492.953 436.269C491.954 436.355 490.951 436.178 490.042 435.756C489.424 435.484 490.425 436.336 489.894 435.583C490.328 436.2 489.453 434.92 489.383 434.786C488.812 433.547 488.455 432.22 488.329 430.862C487.137 423.818 484.946 416.98 481.823 410.554C478.762 404.013 474.84 397.91 470.161 392.409C466.144 387.34 460.873 383.409 454.869 381.004C448.836 378.945 446.246 388.491 452.242 390.535V390.527Z" fill="#211715"/>
<path d="M501.564 443.04C502.324 442.43 503.203 441.987 504.146 441.738C505.088 441.489 506.072 441.441 507.034 441.596C507.996 441.752 508.914 442.107 509.731 442.639C510.547 443.172 511.242 443.869 511.772 444.687C512.722 446.969 513.129 449.44 512.96 451.906C513.033 454.812 512.803 457.718 512.272 460.576C510.339 470.616 505.107 482.514 493.948 484.491C492.69 484.849 491.624 485.687 490.978 486.825C490.332 487.962 490.159 489.307 490.495 490.571C490.869 491.818 491.71 492.873 492.843 493.516C493.975 494.159 495.312 494.34 496.575 494.021C513.199 491.073 521.173 472.403 522.623 457.372C523.347 449.853 523.034 440.656 516.705 435.502C513.539 432.976 509.584 431.647 505.535 431.748C501.486 431.85 497.602 433.376 494.567 436.058C493.65 436.99 493.136 438.245 493.136 439.552C493.136 440.86 493.65 442.115 494.567 443.046C495.507 443.948 496.759 444.451 498.061 444.451C499.364 444.451 500.615 443.948 501.555 443.046L501.564 443.04Z" fill="#211715"/>
<path d="M490.21 480.204C490.008 483.563 489.382 486.884 488.347 490.087C487.968 491.363 487.55 492.628 487.128 493.89C486.966 494.374 486.156 496.36 486.793 494.944C485.256 498.296 483.493 501.54 481.518 504.654C475.859 514.086 468.615 522.471 460.105 529.439C455.549 533.183 450.225 535.878 444.51 537.331C438.319 538.772 440.94 548.303 447.138 546.862C459.456 543.996 469.802 535.223 477.954 525.925C484.865 518.325 490.631 509.757 495.07 500.493C498.014 494.113 499.715 487.231 500.083 480.214C500.32 473.854 490.435 473.862 490.2 480.214L490.21 480.204Z" fill="#211715"/>
<path d="M338.531 436.052C335.497 433.369 331.613 431.842 327.564 431.74C323.514 431.639 319.559 432.969 316.394 435.496C310.056 440.644 309.754 449.851 310.476 457.366C311.917 472.407 319.898 491.067 336.524 494.015C337.786 494.327 339.12 494.143 340.251 493.501C341.382 492.859 342.224 491.808 342.604 490.565C342.94 489.301 342.767 487.956 342.121 486.818C341.475 485.681 340.409 484.843 339.151 484.485C328.002 482.508 322.768 470.607 320.826 460.57C320.321 457.862 320.088 455.11 320.131 452.355C319.916 449.738 320.326 447.108 321.327 444.681C321.856 443.863 322.552 443.165 323.368 442.632C324.184 442.1 325.103 441.744 326.065 441.589C327.027 441.434 328.011 441.482 328.953 441.731C329.896 441.98 330.775 442.424 331.535 443.034C332.478 443.929 333.729 444.427 335.029 444.427C336.329 444.427 337.58 443.929 338.523 443.034C339.44 442.102 339.953 440.847 339.953 439.54C339.953 438.233 339.44 436.978 338.523 436.046L338.531 436.052Z" fill="#211715"/>
<path d="M333.555 479.38C336.113 496.006 343.092 511.639 353.761 524.644C364.964 537.821 379.798 547.437 397.221 549.277C398.529 549.269 399.781 548.746 400.706 547.821C401.631 546.896 402.154 545.644 402.163 544.336C402.134 543.034 401.604 541.794 400.683 540.874C399.763 539.953 398.523 539.423 397.221 539.394C382.191 537.807 369.592 528.276 360.181 516.981C350.662 505.554 345.604 491.244 343.092 476.753C342.734 475.495 341.897 474.428 340.76 473.783C339.622 473.137 338.277 472.965 337.014 473.302C335.765 473.674 334.707 474.514 334.063 475.646C333.418 476.779 333.236 478.117 333.555 479.38Z" fill="#211715"/>
<path d="M502.365 726.727C502.911 721.791 503.162 716.827 503.115 711.861C503.313 709.657 503.01 707.437 502.227 705.367C501.689 704.205 500.901 703.176 499.919 702.353C498.938 701.531 497.787 700.934 496.549 700.607C494.464 700.252 492.345 700.153 490.236 700.31H482.727C473.153 700.31 463.445 699.829 453.881 700.31C452.613 700.322 451.368 700.655 450.262 701.276C449.156 701.898 448.224 702.789 447.554 703.866C446.617 706.096 446.28 708.532 446.576 710.932C446.547 716.201 446.556 721.472 446.932 726.731C446.963 728.031 447.494 729.271 448.414 730.191C449.334 731.111 450.573 731.641 451.874 731.672C453.181 731.661 454.432 731.137 455.356 730.213C456.281 729.288 456.805 728.038 456.815 726.731C456.515 722.526 456.443 718.316 456.447 714.101C456.447 712.427 456.465 710.753 456.469 709.079C456.469 707.58 457.062 706.885 455.133 708.841C452.109 711.91 453.466 709.936 454.155 710.193C455.36 710.364 456.583 710.364 457.787 710.193H463.758C473.229 710.193 482.704 710.193 492.184 710.193C492.892 710.241 493.603 710.241 494.311 710.193C494.222 710.475 492.779 709.37 493.213 709.075C493.111 710.127 493.111 711.186 493.213 712.238C493.249 717.079 492.999 721.917 492.464 726.729C492.471 728.037 492.994 729.29 493.919 730.215C494.844 731.14 496.097 731.663 497.405 731.67C498.706 731.639 499.945 731.109 500.865 730.189C501.785 729.268 502.316 728.029 502.347 726.729L502.365 726.727Z" fill="#211715"/>
<path d="M401.088 504.087C405.239 508.15 411.697 509.422 417.289 509.418C422.882 509.414 429.34 508.152 433.491 504.087C433.956 503.63 434.326 503.085 434.579 502.484C434.833 501.883 434.964 501.237 434.967 500.585C434.97 499.933 434.843 499.286 434.595 498.683C434.346 498.08 433.981 497.532 433.52 497.071C433.059 496.61 432.511 496.244 431.907 495.996C431.304 495.747 430.658 495.621 430.006 495.624C429.353 495.626 428.708 495.758 428.107 496.011C427.506 496.265 426.961 496.634 426.503 497.099C426.314 497.285 425.525 497.923 426.322 497.305C427.119 496.688 426.116 497.427 425.871 497.575C425.542 497.781 425.202 497.964 424.856 498.139C424.615 498.237 424.379 498.347 424.15 498.471C424.465 498.265 425.179 498.077 424.413 498.343C423.311 498.734 422.182 499.043 421.035 499.267C420.841 499.302 419.56 499.574 420.806 499.329C420.465 499.383 420.121 499.418 419.777 499.434C418.953 499.504 418.13 499.535 417.306 499.535C416.548 499.535 415.788 499.51 415.041 499.453C414.622 499.45 414.203 499.409 413.791 499.329C414.393 499.506 414.335 499.405 413.748 499.3C412.583 499.097 411.437 498.794 410.324 498.395C409.888 498.236 409.35 497.806 410.448 498.471C410.266 498.36 410.048 498.287 409.857 498.195C409.474 498.005 409.097 497.802 408.733 497.577C408.455 497.408 408.199 497.186 407.909 497.027C409.284 497.804 408.527 497.522 408.092 497.101C407.166 496.173 405.908 495.65 404.596 495.648C403.285 495.646 402.026 496.166 401.097 497.092C400.168 498.019 399.645 499.276 399.644 500.588C399.642 501.9 400.161 503.159 401.088 504.087Z" fill="#211715"/>
<path d="M415.162 469.252C415.885 471.862 416.463 474.509 416.896 477.181L416.719 475.868C416.771 476.23 416.782 476.597 416.75 476.961L416.925 475.648C416.901 475.815 416.861 475.98 416.805 476.14L417.304 474.96C417.255 475.071 417.196 475.177 417.129 475.277L417.903 474.276C417.826 474.371 417.739 474.456 417.643 474.532L418.644 473.76C418.442 473.884 418.233 473.995 418.016 474.091L419.196 473.593C418.857 473.738 418.501 473.842 418.137 473.902L419.451 473.725C419.121 473.764 418.787 473.764 418.457 473.725L419.77 473.9C419.397 473.848 419.029 473.757 418.654 473.706C418.017 473.501 417.337 473.471 416.684 473.617C416.03 473.647 415.397 473.849 414.847 474.204C414.287 474.532 413.796 474.966 413.404 475.483C413.011 476.001 412.725 476.59 412.56 477.218C412.395 477.846 412.356 478.5 412.444 479.143C412.533 479.786 412.747 480.405 413.074 480.966C413.388 481.523 413.812 482.011 414.319 482.4C414.826 482.79 415.407 483.072 416.027 483.231C416.958 483.356 417.859 483.589 418.807 483.632C420.267 483.638 421.706 483.291 423.003 482.619C423.837 482.23 424.576 481.661 425.165 480.953C425.754 480.245 426.179 479.415 426.41 478.524C426.713 477.101 426.7 475.628 426.371 474.21C425.941 471.655 425.342 469.125 424.693 466.619C424.337 465.385 423.528 464.33 422.428 463.667C421.58 463.17 420.603 462.938 419.621 462.999C418.64 463.061 417.7 463.414 416.92 464.013C416.141 464.612 415.558 465.43 415.246 466.362C414.934 467.295 414.907 468.299 415.168 469.246L415.162 469.252Z" fill="#211715"/>
<path d="M374.562 448.183C373.267 452.39 374.111 462.065 382.079 462.888C392.611 462.827 393.171 451.128 389.625 445.628C386.722 441.123 378.188 439.252 374.562 448.183Z" fill="#211715"/>
<path d="M458.552 448.183C459.847 452.39 459.003 462.065 451.035 462.888C440.504 462.824 439.944 451.128 443.489 445.626C446.384 441.123 454.927 439.252 458.552 448.183Z" fill="#211715"/>
</g>
<defs>
<clipPath id="clip0_645_48">
<rect width="800" height="800" fill="white"/>
</clipPath>
</defs>
</svg>
