<svg width="800" height="800" viewBox="0 0 800 800" fill="none" xmlns="http://www.w3.org/2000/svg">
<path d="M244.816 642.935H210.013V612.228C210.013 598.311 198.691 586.99 184.774 586.99H128.698C114.781 586.99 103.459 598.311 103.459 612.228V642.935H68.6574C58.9012 642.935 50.9902 650.846 50.9902 660.602V782.33C50.9902 792.087 58.9012 799.997 68.6574 799.997H244.815C254.571 799.997 262.482 792.086 262.482 782.33V660.602C262.482 650.844 254.573 642.935 244.816 642.935ZM182.57 642.935H130.906V614.435H182.57V642.935Z" fill="black"/>
<path d="M405.998 131.69C442.363 131.69 471.843 102.21 471.843 65.8452C471.843 29.4799 442.363 0 405.998 0C369.632 0 340.152 29.4799 340.152 65.8452C340.152 102.21 369.632 131.69 405.998 131.69Z" fill="black"/>
<path d="M729.948 509.629H715.783V425.246H727.411C730.881 425.246 733.695 422.432 733.695 418.962V398.015C733.695 394.545 730.881 391.73 727.411 391.73H644.858C649.528 378.163 644.544 362.676 631.911 354.626L566.705 313.071L566.188 227.484C565.98 186.236 532.254 152.678 491.004 152.678C473.349 152.678 338.159 152.678 320.443 152.678C279.193 152.678 245.467 186.236 245.259 227.484L244.085 460.89C243.996 478.437 258.149 492.732 275.695 492.819C275.751 492.819 275.804 492.819 275.857 492.819C293.327 492.819 307.537 478.699 307.624 461.21L308.798 227.804C308.815 224.42 311.567 221.69 314.948 221.698C318.331 221.707 321.065 224.451 321.065 227.832L321.079 761.874C321.079 782.93 338.148 799.998 359.204 799.998C380.26 799.998 397.329 782.93 397.329 761.874V457.14H413.788V761.872C413.788 782.928 430.857 799.997 451.913 799.997C472.969 799.997 490.038 782.928 490.038 761.872C490.038 264.35 489.363 537.015 489.346 228.05C489.346 224.42 492.257 221.461 495.886 221.4C499.516 221.34 502.525 224.203 502.643 227.831V227.834L503.265 330.754C503.329 341.54 508.861 351.557 517.96 357.354L589.803 403.138V418.959C589.803 422.429 592.618 425.243 596.088 425.243H607.716V509.626H593.55C583.022 509.626 574.489 518.16 574.489 528.686V747.344C574.489 757.872 583.024 766.405 593.55 766.405H607.716V786.994C607.716 794.173 613.538 799.995 620.717 799.995C627.897 799.995 633.719 794.173 633.719 786.994V766.405H689.777V786.994C689.777 794.173 695.599 799.995 702.778 799.995C709.958 799.995 715.78 794.173 715.78 786.994V766.405H729.944C740.472 766.405 749.005 757.87 749.005 747.344V528.688C749.008 518.162 740.477 509.629 729.948 509.629ZM689.78 509.629H633.728V425.246H689.78V509.629Z" fill="black"/>
</svg>
