<svg width="800" height="800" viewBox="0 0 800 800" fill="none" xmlns="http://www.w3.org/2000/svg">
<path d="M535.79 0H107.911C97.6326 0 89.3076 8.35 89.3076 18.6031V781.397C89.3076 791.675 97.6326 800 107.911 800H692.09C702.345 800 710.694 791.675 710.694 781.397V174.903L535.79 0ZM530.225 57.5688L656.836 184.18H530.225V57.5688ZM666.04 755.347H133.959V44.6531H493.017V185.181C493.017 195.117 497.119 204.297 503.637 210.792C510.108 217.311 519.287 221.388 529.248 221.388H666.04V755.347Z" fill="black"/>
<path d="M554.444 290.234H227.001V327.442H554.444V290.234Z" fill="black"/>
<path d="M552.562 420.459H227.001V457.667H552.562V420.459Z" fill="black"/>
<path d="M401.855 550.685H227.001V587.916H401.855V550.685Z" fill="black"/>
<path d="M485.986 531.592C472.558 544.972 464.208 563.722 464.208 584.18C464.208 604.638 472.558 623.389 485.986 636.792L486.181 636.987L454.883 688.403L489.502 688.867L505.859 719.434L538.598 665.577L571.338 719.434L587.744 688.867L622.339 688.403L591.016 636.987L591.236 636.792C604.639 623.389 613.014 604.639 613.014 584.18C613.014 563.72 604.641 544.97 591.236 531.592C577.833 518.141 559.083 509.766 538.598 509.766C518.114 509.766 499.366 518.139 485.986 531.592ZM568.359 584.18C568.359 589.917 566.797 595.191 563.989 599.708C562.792 601.709 561.328 603.541 559.667 605.25C554.686 610.158 548.192 613.356 540.77 613.869C540.062 613.917 539.355 613.967 538.597 613.967C537.839 613.967 537.156 613.919 536.473 613.869C529.052 613.356 522.508 610.158 517.528 605.25C515.867 603.541 514.403 601.709 513.231 599.708C510.398 595.191 508.836 589.917 508.836 584.18C508.836 575.878 512.108 568.603 517.528 563.134C522.997 557.714 530.322 554.442 538.597 554.442C546.898 554.442 554.197 557.714 559.666 563.134C565.064 568.603 568.359 575.88 568.359 584.18Z" fill="black"/>
</svg>
