<svg width="600" height="600" viewBox="0 0 600 600" fill="none" xmlns="http://www.w3.org/2000/svg">
<path d="M448.119 267.853H341.268L387.612 11.9519L151.879 332.144H258.733L212.389 588.046L448.119 267.853Z" fill="#FFD500"/>
<path d="M212.383 600C210.795 600 209.189 599.682 207.657 599.024C202.551 596.823 199.636 591.39 200.627 585.918L244.421 344.098H151.879C147.372 344.098 143.246 341.562 141.212 337.539C139.179 333.516 139.582 328.691 142.254 325.061L377.986 4.86676C381.283 0.387857 387.233 -1.2223 392.341 0.976139C397.447 3.17692 400.363 8.60973 399.371 14.0824L355.578 255.902H448.12C452.627 255.902 456.753 258.438 458.788 262.461C460.821 266.484 460.418 271.309 457.746 274.939L222.013 595.132C219.704 598.269 216.092 600 212.383 600ZM175.52 320.193H258.731C262.274 320.193 265.633 321.764 267.904 324.484C270.175 327.203 271.124 330.789 270.492 334.275L233.339 539.429L424.477 279.806H341.266C337.724 279.806 334.364 278.235 332.093 275.516C329.822 272.797 328.874 269.211 329.505 265.725L366.658 60.5707L175.52 320.193Z" fill="#3D3D3D"/>
<path d="M313.67 200.798C312.963 200.798 312.247 200.735 311.527 200.605C305.031 199.429 300.719 193.211 301.894 186.715L302.976 180.738C304.151 174.243 310.386 169.928 316.865 171.107C323.361 172.283 327.673 178.501 326.498 184.997L325.416 190.973C324.371 196.748 319.339 200.798 313.67 200.798Z" fill="#3D3D3D"/>
<path d="M299.361 279.809C298.653 279.809 297.937 279.745 297.217 279.615C290.721 278.439 286.409 272.221 287.586 265.725L295.833 220.181C297.009 213.686 303.235 209.371 309.724 210.55C316.22 211.726 320.531 217.944 319.356 224.44L311.109 269.984C310.063 275.759 305.031 279.809 299.361 279.809Z" fill="#3D3D3D"/>
</svg>
