<svg width="800" height="800" viewBox="0 0 800 800" fill="none" xmlns="http://www.w3.org/2000/svg">
<g clip-path="url(#clip0_646_204)">
<path d="M400 800C620.914 800 800 620.914 800 400C800 179.086 620.914 0 400 0C179.086 0 0 179.086 0 400C0 620.914 179.086 800 400 800Z" fill="#54C0EB"/>
<path d="M563.78 218.583C563.78 311.811 490.709 605.984 400 605.984C309.292 605.984 236.221 311.811 236.221 218.583C236.221 125.354 309.292 49.7638 400 49.7638C490.709 49.7638 563.78 125.354 563.78 218.583Z" fill="#324A5E"/>
<path d="M479.37 441.575C477.481 436.535 475.591 431.496 475.591 426.457L468.662 330.709H331.339L326.299 402.52L324.41 426.457C323.78 432.756 322.52 438.425 319.37 443.465C320 442.835 320 442.205 320.63 441.575L220.473 622.362L265.827 681.575L400 784.882L534.173 680.945L579.528 621.732L479.37 441.575Z" fill="#FFD05B"/>
<path d="M579.528 622.362L534.173 681.575L400 784.882L265.827 680.945L220.473 621.732L320.63 441.575C320 442.205 320 442.835 319.37 443.465C321.26 440.945 322.52 437.795 323.15 434.646C323.78 432.126 324.41 428.976 324.41 426.457L326.299 403.15L331.339 330.709H468.662L475.591 426.457C475.591 429.606 476.221 432.756 477.481 435.276C478.11 437.165 478.74 439.685 480 441.575C480 441.575 480 441.575 480 442.205L579.528 622.362Z" fill="#FFD05B"/>
<path d="M328.189 584.567C328.189 584.567 384.882 624.882 472.441 584.567C472.441 584.567 438.426 760.315 400.63 784.882C400 784.882 316.851 636.22 328.189 584.567Z" fill="#2C9984"/>
<path d="M400 800C395.59 800 391.181 800 386.772 800C262.047 796.22 151.181 734.488 81.2598 641.26C114.016 561.26 169.449 554.961 169.449 554.961C257.638 512.756 309.921 452.913 313.071 449.134L294.173 490.079L331.968 651.968L400 800Z" fill="#E6E9EE"/>
<path d="M719.37 641.26C646.299 737.638 530.394 800 400 800L468.032 651.968L505.827 490.079L486.929 449.134C490.079 452.913 542.992 512.756 631.181 554.961C631.181 554.961 685.984 561.26 719.37 641.26Z" fill="#E6E9EE"/>
<path d="M508.977 622.362L520.315 681.575C475.591 705.512 443.465 757.795 413.859 800C409.449 800 405.04 800 400.63 800C396.221 800 391.811 800 387.402 800C357.796 757.795 325.67 705.512 280.945 681.575L292.284 622.362H235.591C258.898 516.535 318.11 445.354 321.89 442.205C320 445.984 291.654 503.307 333.859 595.905C333.859 595.905 370.394 701.102 401.26 785.512C430.866 700.472 467.402 595.276 467.402 595.276C510.236 502.677 481.89 445.354 479.37 441.575C483.15 444.724 542.362 516.535 565.67 621.732H508.977V622.362Z" fill="white"/>
<path d="M435.905 688.504L435.275 697.953L429.606 798.74C419.527 799.37 410.078 800 399.999 800C389.921 800 379.842 799.37 370.393 798.74L364.724 697.953L364.094 688.504H435.905Z" fill="#324A5E"/>
<path d="M400 593.386C431.31 593.386 456.692 568.004 456.692 536.693C456.692 505.382 431.31 480 400 480C368.689 480 343.307 505.382 343.307 536.693C343.307 568.004 368.689 593.386 400 593.386Z" fill="#324A5E"/>
<path d="M460.472 697.953H339.527C330.708 697.953 323.779 691.024 323.779 682.205V598.425C323.779 589.606 330.708 582.677 339.527 582.677H461.102C469.921 582.677 476.85 589.606 476.85 598.425V682.835C476.22 691.024 469.291 697.953 460.472 697.953Z" fill="#FF7058"/>
<path d="M347.717 611.654V622.992H364.095V669.606H376.693V622.992H393.071V611.654H347.717Z" fill="white"/>
<path d="M438.425 611.654L423.937 648.189L409.449 611.654H395.591L418.898 668.976H429.607L452.914 611.654H438.425Z" fill="white"/>
<path d="M477.48 435.276C455.433 455.433 428.976 467.402 400 467.402C371.023 467.402 344.567 455.433 322.52 434.646C323.149 432.126 323.779 428.976 323.779 426.457L325.669 403.15L331.338 330.709H468.661L475.59 426.457C475.59 429.606 476.22 432.126 477.48 435.276Z" fill="#F9B54C"/>
<path d="M534.804 302.362C520.315 386.772 465.512 449.134 400 449.134C331.969 449.134 275.276 379.843 263.938 291.654C285.985 263.937 306.142 224.882 317.481 195.276C324.41 177.008 348.977 175.118 359.056 191.496C386.772 235.591 445.985 300.472 534.804 302.362Z" fill="#FFD05B"/>
</g>
<defs>
<clipPath id="clip0_646_204">
<rect width="800" height="800" fill="white"/>
</clipPath>
</defs>
</svg>
