<svg width="800" height="800" viewBox="0 0 800 800" fill="none" xmlns="http://www.w3.org/2000/svg">
<path d="M640 120H600V40C600 27.3594 594.027 15.4531 583.88 7.90625C576.894 2.70625 568.506 0 560 0C556.147 0 552.28 0.559375 548.506 1.69375L148.506 121.694C131.586 126.759 120 142.333 120 160V760C120 782.094 137.906 800 160 800H640C662.094 800 680 782.094 680 760V160C680 137.906 662.094 120 640 120ZM560 40V120H293.333L560 40ZM640 760H160V160H640V760Z" fill="black"/>
<path d="M235.046 708.364V648.364H243.342V655.438H244.052C244.544 654.528 245.254 653.477 246.183 652.284C247.111 651.091 248.398 650.049 250.046 649.159C251.694 648.25 253.872 647.795 256.58 647.795C260.103 647.795 263.247 648.686 266.012 650.466C268.777 652.246 270.946 654.812 272.518 658.165C274.109 661.517 274.904 665.551 274.904 670.267C274.904 674.983 274.118 679.027 272.546 682.398C270.974 685.75 268.815 688.335 266.069 690.153C263.323 691.953 260.188 692.852 256.665 692.852C254.014 692.852 251.845 692.407 250.16 691.517C248.493 690.627 247.186 689.585 246.239 688.392C245.292 687.199 244.563 686.138 244.052 685.21H243.54V708.364H235.046ZM243.37 670.182C243.37 673.25 243.815 675.939 244.705 678.25C245.595 680.561 246.883 682.369 248.569 683.676C250.254 684.964 252.319 685.608 254.762 685.608C257.3 685.608 259.421 684.936 261.126 683.591C262.83 682.227 264.118 680.381 264.989 678.051C265.879 675.722 266.325 673.098 266.325 670.182C266.325 667.303 265.889 664.718 265.018 662.426C264.165 660.134 262.878 658.326 261.154 657C259.45 655.674 257.319 655.011 254.762 655.011C252.3 655.011 250.217 655.646 248.512 656.915C246.826 658.184 245.548 659.955 244.677 662.227C243.806 664.5 243.37 667.152 243.37 670.182ZM297.12 692.966C294.355 692.966 291.855 692.455 289.62 691.432C287.385 690.39 285.614 688.884 284.308 686.915C283.02 684.945 282.376 682.53 282.376 679.67C282.376 677.208 282.849 675.182 283.796 673.591C284.743 672 286.022 670.741 287.631 669.812C289.241 668.884 291.04 668.184 293.029 667.71C295.018 667.237 297.044 666.877 299.109 666.631C301.722 666.328 303.844 666.081 305.472 665.892C307.101 665.684 308.285 665.352 309.023 664.898C309.762 664.443 310.131 663.705 310.131 662.682V662.483C310.131 660.002 309.431 658.08 308.029 656.716C306.647 655.352 304.582 654.67 301.836 654.67C298.976 654.67 296.722 655.305 295.075 656.574C293.446 657.824 292.319 659.216 291.694 660.75L283.711 658.932C284.658 656.28 286.04 654.14 287.859 652.511C289.696 650.864 291.808 649.67 294.194 648.932C296.58 648.174 299.09 647.795 301.722 647.795C303.465 647.795 305.311 648.004 307.262 648.42C309.232 648.818 311.069 649.557 312.773 650.636C314.497 651.716 315.908 653.259 317.006 655.267C318.105 657.256 318.654 659.841 318.654 663.023V692H310.359V686.034H310.018C309.469 687.133 308.645 688.212 307.546 689.273C306.448 690.333 305.037 691.214 303.313 691.915C301.59 692.616 299.525 692.966 297.12 692.966ZM298.967 686.148C301.315 686.148 303.323 685.684 304.989 684.756C306.675 683.828 307.953 682.616 308.825 681.119C309.715 679.604 310.16 677.985 310.16 676.261V670.636C309.857 670.939 309.27 671.223 308.398 671.489C307.546 671.735 306.571 671.953 305.472 672.142C304.374 672.312 303.304 672.473 302.262 672.625C301.22 672.758 300.349 672.871 299.648 672.966C298.001 673.174 296.495 673.525 295.131 674.017C293.787 674.509 292.707 675.22 291.893 676.148C291.097 677.057 290.7 678.269 290.7 679.784C290.7 681.886 291.476 683.477 293.029 684.557C294.582 685.617 296.561 686.148 298.967 686.148ZM362.667 659.017L354.968 660.381C354.646 659.396 354.135 658.458 353.434 657.568C352.752 656.678 351.824 655.949 350.65 655.381C349.476 654.812 348.008 654.528 346.246 654.528C343.841 654.528 341.834 655.068 340.224 656.148C338.614 657.208 337.809 658.581 337.809 660.267C337.809 661.725 338.349 662.9 339.428 663.79C340.508 664.68 342.25 665.409 344.656 665.977L351.587 667.568C355.603 668.496 358.595 669.926 360.565 671.858C362.534 673.79 363.519 676.299 363.519 679.386C363.519 682 362.762 684.33 361.246 686.375C359.75 688.402 357.657 689.992 354.968 691.148C352.298 692.303 349.201 692.881 345.678 692.881C340.792 692.881 336.805 691.839 333.718 689.756C330.631 687.653 328.737 684.67 328.036 680.807L336.246 679.557C336.758 681.697 337.809 683.316 339.4 684.415C340.991 685.494 343.065 686.034 345.621 686.034C348.406 686.034 350.631 685.456 352.298 684.301C353.964 683.127 354.798 681.697 354.798 680.011C354.798 678.648 354.286 677.502 353.263 676.574C352.26 675.646 350.716 674.945 348.633 674.472L341.246 672.852C337.174 671.924 334.163 670.447 332.212 668.42C330.281 666.394 329.315 663.828 329.315 660.722C329.315 658.146 330.034 655.892 331.474 653.96C332.913 652.028 334.902 650.523 337.44 649.443C339.978 648.345 342.885 647.795 346.161 647.795C350.877 647.795 354.589 648.818 357.298 650.864C360.006 652.89 361.796 655.608 362.667 659.017ZM405.558 659.017L397.859 660.381C397.537 659.396 397.025 658.458 396.325 657.568C395.643 656.678 394.715 655.949 393.54 655.381C392.366 654.812 390.898 654.528 389.137 654.528C386.732 654.528 384.724 655.068 383.114 656.148C381.504 657.208 380.7 658.581 380.7 660.267C380.7 661.725 381.239 662.9 382.319 663.79C383.398 664.68 385.141 665.409 387.546 665.977L394.478 667.568C398.493 668.496 401.486 669.926 403.455 671.858C405.425 673.79 406.41 676.299 406.41 679.386C406.41 682 405.652 684.33 404.137 686.375C402.641 688.402 400.548 689.992 397.859 691.148C395.188 692.303 392.092 692.881 388.569 692.881C383.683 692.881 379.696 691.839 376.609 689.756C373.522 687.653 371.628 684.67 370.927 680.807L379.137 679.557C379.648 681.697 380.7 683.316 382.29 684.415C383.881 685.494 385.955 686.034 388.512 686.034C391.296 686.034 393.522 685.456 395.188 684.301C396.855 683.127 397.688 681.697 397.688 680.011C397.688 678.648 397.177 677.502 396.154 676.574C395.15 675.646 393.607 674.945 391.523 674.472L384.137 672.852C380.065 671.924 377.054 670.447 375.103 668.42C373.171 666.394 372.205 663.828 372.205 660.722C372.205 658.146 372.925 655.892 374.364 653.96C375.804 652.028 377.792 650.523 380.33 649.443C382.868 648.345 385.775 647.795 389.052 647.795C393.768 647.795 397.48 648.818 400.188 650.864C402.897 652.89 404.686 655.608 405.558 659.017ZM415.749 708.364V648.364H424.045V655.438H424.755C425.247 654.528 425.958 653.477 426.886 652.284C427.814 651.091 429.102 650.049 430.749 649.159C432.397 648.25 434.575 647.795 437.283 647.795C440.806 647.795 443.95 648.686 446.715 650.466C449.48 652.246 451.649 654.812 453.221 658.165C454.812 661.517 455.607 665.551 455.607 670.267C455.607 674.983 454.821 679.027 453.249 682.398C451.677 685.75 449.518 688.335 446.772 690.153C444.026 691.953 440.891 692.852 437.369 692.852C434.717 692.852 432.549 692.407 430.863 691.517C429.196 690.627 427.889 689.585 426.942 688.392C425.996 687.199 425.266 686.138 424.755 685.21H424.244V708.364H415.749ZM424.073 670.182C424.073 673.25 424.518 675.939 425.408 678.25C426.299 680.561 427.586 682.369 429.272 683.676C430.958 684.964 433.022 685.608 435.465 685.608C438.003 685.608 440.124 684.936 441.829 683.591C443.533 682.227 444.821 680.381 445.692 678.051C446.583 675.722 447.028 673.098 447.028 670.182C447.028 667.303 446.592 664.718 445.721 662.426C444.869 660.134 443.581 658.326 441.857 657C440.153 655.674 438.022 655.011 435.465 655.011C433.003 655.011 430.92 655.646 429.215 656.915C427.53 658.184 426.251 659.955 425.38 662.227C424.509 664.5 424.073 667.152 424.073 670.182ZM483.505 692.881C479.414 692.881 475.844 691.943 472.795 690.068C469.746 688.193 467.378 685.57 465.692 682.199C464.007 678.828 463.164 674.888 463.164 670.381C463.164 665.854 464.007 661.896 465.692 658.506C467.378 655.116 469.746 652.483 472.795 650.608C475.844 648.733 479.414 647.795 483.505 647.795C487.596 647.795 491.166 648.733 494.215 650.608C497.264 652.483 499.632 655.116 501.317 658.506C503.003 661.896 503.846 665.854 503.846 670.381C503.846 674.888 503.003 678.828 501.317 682.199C499.632 685.57 497.264 688.193 494.215 690.068C491.166 691.943 487.596 692.881 483.505 692.881ZM483.533 685.75C486.185 685.75 488.382 685.049 490.124 683.648C491.867 682.246 493.155 680.381 493.988 678.051C494.84 675.722 495.266 673.155 495.266 670.352C495.266 667.568 494.84 665.011 493.988 662.682C493.155 660.333 491.867 658.449 490.124 657.028C488.382 655.608 486.185 654.898 483.533 654.898C480.863 654.898 478.647 655.608 476.886 657.028C475.143 658.449 473.846 660.333 472.994 662.682C472.16 665.011 471.744 667.568 471.744 670.352C471.744 673.155 472.16 675.722 472.994 678.051C473.846 680.381 475.143 682.246 476.886 683.648C478.647 685.049 480.863 685.75 483.533 685.75ZM513.327 692V648.364H521.538V655.295H521.992C522.788 652.947 524.189 651.1 526.197 649.756C528.223 648.392 530.515 647.71 533.072 647.71C533.602 647.71 534.227 647.729 534.947 647.767C535.685 647.805 536.263 647.852 536.68 647.909V656.034C536.339 655.939 535.733 655.835 534.862 655.722C533.99 655.589 533.119 655.523 532.248 655.523C530.24 655.523 528.451 655.949 526.879 656.801C525.326 657.634 524.094 658.799 523.185 660.295C522.276 661.773 521.822 663.458 521.822 665.352V692H513.327ZM566.978 648.364V655.182H543.143V648.364H566.978ZM549.535 637.909H558.029V679.188C558.029 680.835 558.275 682.076 558.768 682.909C559.26 683.723 559.895 684.282 560.671 684.585C561.467 684.869 562.328 685.011 563.256 685.011C563.938 685.011 564.535 684.964 565.046 684.869C565.558 684.775 565.955 684.699 566.239 684.642L567.773 691.659C567.281 691.848 566.58 692.038 565.671 692.227C564.762 692.436 563.626 692.549 562.262 692.568C560.027 692.606 557.944 692.208 556.012 691.375C554.08 690.542 552.518 689.254 551.325 687.511C550.131 685.769 549.535 683.581 549.535 680.949V637.909Z" fill="black"/>
<g clip-path="url(#clip0_856_17)">
<path d="M344.785 354.428C349.478 350.316 356.225 350.407 360.091 351.6C357.563 348.492 351.648 345.935 349.915 345.627C348.589 346.122 344.785 350.03 344.785 354.428Z" fill="black"/>
<path d="M460.207 342.206C465.557 343.017 467.249 346.637 467.573 347.743C469.39 346.214 471.069 340.893 470.412 337.401C467.328 320.897 428.984 331.83 409.669 324.821C409.3 329.631 415.614 337.338 421.655 340.195C411.329 349.153 402.058 367.211 400.192 389.268C398.325 367.211 389.055 349.153 378.729 340.195C384.769 337.338 391.087 329.631 390.714 324.821C371.4 331.83 333.055 320.897 329.962 337.401C329.314 340.893 330.993 346.214 332.81 347.743C333.134 346.637 334.83 343.017 340.176 342.206C367.193 338.124 389.749 379.761 369.388 396.598C369.076 396.855 369.251 397.324 369.67 397.324H430.717C431.132 397.324 431.307 396.855 430.999 396.598C410.634 379.761 433.191 338.124 460.207 342.206Z" fill="black"/>
<path d="M423.1 442.42C424.14 434.909 419.064 432.746 413.756 433.629C413.095 431.043 412.554 428.785 411.939 426.548C411.448 424.74 411.27 421.34 413.365 421.34C414.495 421.34 414.043 424.503 413.934 425.863C413.839 427.06 414.271 427.783 415.24 427.817C415.847 427.841 416.603 427.069 417.053 426.557C420.091 423.119 420.797 417.798 417.236 415.233C414.259 413.076 406.797 414.68 404.743 417.748C404.435 416.593 402.956 414.685 402.245 413.853C401.554 413.043 401.376 412.485 402.332 411.774C402.782 411.429 404.14 410.079 404.14 408.681C404.14 407.855 403.5 406.328 401.463 406.328C399.858 406.328 398.076 407.438 398.076 409.92C398.076 410.469 398.209 411.06 398.566 411.695C397.551 411.529 394.796 411.595 393.378 411.945L412.945 465.642C418.549 462.877 422.651 458.5 422.651 453.802C422.651 449.799 416.757 451.125 413.893 454.251C412.97 449.171 412.151 444.487 411.257 439.814C411.012 438.525 411.664 438.064 412.7 437.673C416.175 436.384 421.621 437.428 421.434 442.446C421.392 443.58 422.984 443.58 423.1 442.42Z" fill="black"/>
<path d="M476.984 299.527C476.498 297.972 492.341 297.93 492.341 307.845C492.341 314.492 482.866 317.638 482.866 324.536C482.866 327.744 486.321 330.101 487.381 330.101C484.941 319.031 495.03 324.822 497.757 326.893C492.341 312.006 504.533 312.101 503.332 305.271C502.496 300.504 491.9 301.941 488.062 299.527C481.262 295.244 473.209 278.575 467.905 295.244C477.795 304.427 472.042 317.943 459.483 317.943C459.483 317.943 459.412 319.925 459.529 320.083C474.507 319.348 479.723 308.344 476.984 299.527Z" fill="black"/>
<path d="M450.313 345.627C448.571 345.939 442.668 348.492 440.132 351.605C444.002 350.407 450.749 350.316 455.438 354.428C455.438 350.03 451.639 346.126 450.313 345.627Z" fill="black"/>
<path d="M392.338 443.58C391.306 446.657 391.947 451.953 393.967 453.778C390.454 453.778 386.286 454.435 384.194 455.923H384.19C383.691 453.187 387.494 448.299 392.338 443.58ZM378.208 454.671C377.369 455.935 376.961 458.097 376.961 459.02C376.961 464.341 383.3 465.413 385.724 464.287C392.724 471.063 406.476 469.255 411.077 466.981L386.867 400.551C386.373 399.295 384.598 399.894 385.034 401.199L389.141 412.618C385.62 413.458 379.962 416.024 379.962 419.424C379.962 423.947 387.969 426.894 392.595 426.54C392.366 427.571 392.632 428.49 393.352 429.334C391.673 429.334 388.504 430.116 387.461 431.234C385.008 428.947 381.168 428.116 379.343 429.508C377.506 430.914 377.452 433.287 379.368 435.973C380.702 437.831 381.201 439.664 379.704 441.822C385.283 441.822 383.226 434.568 385.412 434.568C385.126 435.973 385.304 437.598 385.935 439.406C386.36 440.604 386.36 441.456 385.636 442.612C383.837 445.488 381.039 452.098 381.417 458.076C379.588 458.064 378.657 457.619 379.301 455.12C379.543 454.189 378.969 453.524 378.208 454.671Z" fill="black"/>
<path d="M546.84 380.143C543.099 382.038 521.158 392.314 493.052 388.515C493.343 387.172 493.589 385.826 493.792 384.466C512.494 382.23 527.701 379.058 537.396 373.666C548.441 367.517 553.271 352.843 547.692 341.923C547.551 341.649 547.152 341.599 546.948 341.827C543.893 345.345 524.683 366.246 494.415 372.739C494.341 371.172 494.195 369.609 493.988 368.054C508.686 359.715 523.037 350.112 529.875 341.328C540.205 328.047 539.254 311.111 529.423 302.472C529.322 302.385 529.189 302.343 529.052 302.365C528.919 302.38 528.802 302.46 528.728 302.572C525.618 307.702 496.507 354.755 464.543 375.067C464.156 375.317 463.761 375.562 463.366 375.799C462.448 376.356 462.348 377.544 463.13 378.255C466.812 381.594 469.103 386.241 469.103 391.4C469.103 400.372 462.19 407.833 453.049 409.45C448.406 410.352 441.696 410.09 435.256 407.962C434.966 407.867 434.666 408.057 434.666 408.349V436.762C434.666 437.22 435.365 437.332 435.526 436.895C439.443 426.523 451.161 424.319 456.287 424.319C458.132 435.406 461.429 444.589 465.706 449.533C472.678 457.564 484.061 457.448 488.994 451.898C489.077 451.806 489.111 451.682 489.09 451.561C489.07 451.441 488.994 451.333 488.887 451.274C485.985 449.607 469.394 439.423 466.072 422.732C467.387 422.279 468.663 421.767 469.889 421.161C475.243 430.024 483.038 437.918 489.315 440.932C499.857 445.991 509.506 443.529 513.787 436.13C513.942 435.868 513.754 435.544 513.438 435.515C506.916 434.991 486.903 429.258 478.385 415.282C479.359 414.388 480.315 413.454 481.204 412.46C490.121 419.249 502.726 425.247 511.755 426.473C522.314 427.908 534.277 424.541 534.568 412.26C534.572 412.011 534.352 411.812 534.094 411.828C530.341 412.052 505.481 413.134 487.773 402.969C488.388 401.797 488.957 400.608 489.489 399.399C489.489 399.399 516.253 405.721 528.932 403.626C541.535 401.548 548.915 392.153 547.489 380.467C547.451 380.176 547.111 380.006 546.84 380.143Z" fill="black"/>
<path d="M310.527 399.397C311.059 400.606 311.633 401.799 312.252 402.968C294.548 413.128 269.701 412.055 265.93 411.826C265.664 411.81 265.444 412.022 265.448 412.262C265.743 424.539 277.707 427.909 288.266 426.472C297.287 425.249 309.9 419.247 318.812 412.463C319.706 413.455 320.658 414.387 321.631 415.285C313.109 429.257 293.101 434.99 286.578 435.513C286.267 435.542 286.08 435.867 286.229 436.128C290.511 443.528 300.164 445.989 310.706 440.934C316.979 437.916 324.774 430.022 330.128 421.163C331.358 421.766 332.639 422.278 333.944 422.73C330.622 439.421 314.032 449.61 311.134 451.277C311.026 451.335 310.951 451.439 310.931 451.56C310.91 451.68 310.943 451.805 311.022 451.896C315.956 457.45 327.343 457.562 334.314 449.531C338.596 444.588 341.884 435.405 343.73 424.318C348.859 424.318 360.574 426.522 364.49 436.894C364.66 437.33 365.355 437.218 365.355 436.76V408.347C365.355 408.056 365.051 407.865 364.76 407.96C358.321 410.088 351.616 410.35 346.976 409.449C337.831 407.831 330.914 400.37 330.914 391.399C330.914 386.239 333.208 381.588 336.887 378.246C337.673 377.543 337.569 376.354 336.659 375.797C336.259 375.556 335.86 375.315 335.47 375.065C303.527 354.762 274.427 307.742 271.293 302.579C271.147 302.337 270.798 302.288 270.582 302.475C260.767 311.117 259.811 328.05 270.146 341.327C276.98 350.106 291.33 359.713 306.025 368.052C305.817 369.607 305.676 371.17 305.601 372.738C275.359 366.244 256.161 345.38 253.077 341.842C252.873 341.601 252.461 341.651 252.32 341.926C246.758 352.846 251.589 367.516 262.626 373.665C272.316 379.052 287.522 382.224 306.229 384.464C306.428 385.82 306.674 387.171 306.965 388.509C278.888 392.309 256.959 382.054 253.189 380.146C252.906 380.004 252.57 380.179 252.532 380.474C251.115 392.16 258.489 401.546 271.089 403.624C283.764 405.72 310.527 399.397 310.527 399.397Z" fill="black"/>
<path d="M302.263 326.893C304.986 324.822 315.08 319.031 312.644 330.101C313.7 330.101 317.154 327.744 317.154 324.536C317.154 317.638 307.676 314.492 307.676 307.845C307.676 297.93 323.518 297.972 323.032 299.527C320.297 308.344 325.518 319.352 340.496 320.083C340.604 319.925 340.533 317.943 340.533 317.943C327.983 317.943 322.23 304.427 332.115 295.244C326.807 278.575 318.759 295.244 311.953 299.527C308.117 301.946 297.52 300.504 296.689 305.271C295.492 312.101 307.676 312.006 302.263 326.893Z" fill="black"/>
<path d="M440.132 296.89C440.132 300.682 442.543 303.426 443.806 304.241C444.988 303.426 447.481 300.682 447.481 296.89C447.481 295.935 446.176 293.827 443.806 293.827C441.433 293.827 440.132 295.935 440.132 296.89Z" fill="black"/>
<path d="M393.514 255.523L397.635 255.074L397.202 259.946H402.797L402.365 255.074L406.485 255.523V250.214L402.365 250.664L402.797 245.999H397.202L397.635 250.664L393.514 250.214V255.523Z" fill="black"/>
<path d="M394.769 268.631C394.769 274.014 398.195 277.909 399.987 279.069C401.662 277.909 405.204 274.014 405.204 268.631C405.204 267.276 403.354 264.283 399.987 264.283C396.619 264.283 394.769 267.276 394.769 268.631Z" fill="black"/>
<path d="M365.857 320.054C382.153 320.054 389.478 310.056 391.694 301.385C395.36 301.385 398.618 301.385 408.288 301.385C410.503 310.056 417.828 320.054 434.129 320.054H453.505C456.227 317.331 458.813 312.716 458.813 308.007C458.813 301.227 452.319 301.152 450.52 301.156C449.264 306.377 445.81 308.797 443.868 309.744C441.806 308.851 438.327 306.56 437.076 301.139C435.213 301.169 428.811 301.252 428.811 308.007C428.811 309.482 429.144 311.204 429.879 313.178C430.271 314.225 431.205 315.768 432.091 317.119C425.216 316.175 416.44 311.47 414.515 301.385C414.515 301.385 419.595 293.316 420.872 290.049C425.452 278.304 418.011 273.316 409.456 273.316C408.263 278.882 404.343 282.898 399.983 284.848C395.626 282.898 391.718 278.882 390.525 273.316C381.97 273.316 374.533 278.304 379.109 290.049C380.386 293.316 385.47 301.385 385.47 301.385C383.541 311.47 374.765 316.175 367.889 317.119C368.775 315.768 369.71 314.225 370.101 313.178C370.837 311.204 371.169 309.482 371.169 308.007C371.169 301.252 364.768 301.169 362.906 301.139C361.654 306.56 358.174 308.851 356.117 309.744C354.176 308.797 350.721 306.377 349.466 301.156C347.661 301.152 341.168 301.227 341.168 308.007C341.168 312.716 343.754 317.331 346.477 320.054H365.857Z" fill="black"/>
<path d="M448.796 282.834L445.595 283.183L445.931 279.351H441.7L442.041 283.183L438.84 282.834V286.855L442.041 286.505L441.7 290.338H445.931L445.595 286.505L448.796 286.855V282.834Z" fill="black"/>
<path d="M358.284 279.351H354.056L354.389 283.183L351.192 282.834V286.855L354.389 286.505L354.056 290.338H358.284L357.948 286.505L361.148 286.855V282.834L357.948 283.183L358.284 279.351Z" fill="black"/>
<path d="M352.502 296.89C352.502 300.682 354.996 303.426 356.177 304.241C357.44 303.426 359.856 300.682 359.856 296.89C359.856 295.935 358.55 293.827 356.177 293.827C353.807 293.827 352.502 295.935 352.502 296.89Z" fill="black"/>
<path d="M479.08 469.529L482.642 469.143L482.269 473.35H487.103L486.729 469.143L490.287 469.529V464.94L486.729 465.326L487.103 461.298H482.269L482.642 465.326L479.08 464.94V469.529Z" fill="black"/>
<path d="M487.409 477.032V489.723H484.57H484.566H481.96V477.003C474.572 477.992 468.624 483.109 466.911 489.761C461.012 490.559 445.103 487.021 446.654 484.668C464.18 460.017 450.773 445.342 434.664 446.157V462.715C434.664 468.032 430.025 472.338 424.309 472.338H413.185C405.204 472.338 400.007 480.362 400.007 480.362C400.007 480.362 394.811 472.338 386.833 472.338H375.705C369.985 472.338 365.358 468.032 365.358 462.715V446.157C349.245 445.342 335.826 460.021 353.361 484.672C354.899 487 338.462 490.733 330.755 489.79C328.722 487.686 325.791 486.356 322.511 486.356C321.119 486.356 319.734 486.605 318.429 487.092C318.429 487.092 288.132 458.408 287.575 458.125L287.825 457.543C289.55 454.318 286.91 450.801 285.239 451.05C287.18 448.722 287.272 438.538 276.509 436.18C276.825 438.226 276.983 442.404 276.983 442.404C276.983 442.404 268.677 437.914 264.508 441.789C260.846 446.124 265.93 453.993 265.93 453.993C265.93 453.993 261.681 454.097 259.586 453.923C262.666 464.336 272.997 463.6 275.229 461.543C275.083 463.201 278.821 465.562 281.984 463.667L283.377 462.993C283.622 463.326 313.129 491.203 313.129 491.203C311.774 493.215 311.129 495.68 311.574 498.316C312.272 502.427 315.698 505.836 320.075 506.717C323.164 507.341 326.07 506.738 328.398 505.375L336.209 512.625C336.907 513.256 337.847 513.651 338.894 513.577C340.807 513.448 342.237 511.897 342.091 510.122C342.029 509.32 341.621 508.634 341.056 508.114C340.931 507.973 333.099 500.706 333.099 500.706C339.559 496.175 351.594 492.982 361.587 492.982C363.342 492.982 364.165 491.498 363.562 490.039C359.035 479.156 368.767 471.274 378.832 477.693C383.226 480.49 387.686 486.003 391.044 495.198C374.529 499.201 353.793 510.218 349.595 522.24C347.982 526.883 353.315 533.214 359.796 534.491C359.912 534.516 360.033 534.495 360.128 534.428C360.228 534.366 360.3 534.262 360.32 534.15C363.708 516.195 383.013 502.818 393.061 500.548C393.563 501.899 393.397 501.463 393.905 502.81C382.963 507.985 372.355 518.898 369.32 531.872C367.931 537.812 374.558 543.171 380.029 544.634C380.302 544.709 380.573 544.517 380.59 544.251C381.629 527.843 388.875 513.909 395.364 507.57C395.543 508.808 395.676 510.055 395.763 511.303C395.763 511.303 389.12 529.822 389.12 543.333C389.12 549.618 398.461 554.004 399.841 554.619C401.566 554.004 410.898 549.618 410.898 543.333C410.898 529.818 404.256 511.303 404.256 511.303C404.343 510.055 404.48 508.808 404.659 507.57C411.144 513.909 418.394 527.839 419.433 544.247C419.446 544.513 419.719 544.709 419.99 544.634C425.465 543.171 432.088 537.812 430.703 531.872C427.664 518.898 417.059 507.985 406.118 502.81C406.621 501.463 406.455 501.899 406.958 500.548C417.01 502.818 436.31 516.195 439.699 534.15C439.719 534.262 439.79 534.366 439.89 534.428C439.985 534.491 440.107 534.516 440.223 534.491C446.695 533.214 452.042 526.883 450.415 522.244C446.234 510.218 425.49 499.201 408.974 495.202C412.341 486.003 416.801 480.49 421.191 477.693C431.251 471.274 440.983 479.16 436.456 490.043C435.85 491.498 436.672 492.982 438.431 492.982C449.63 492.982 463.398 496.994 469.01 502.394C472.186 507.295 477.969 510.575 484.574 510.575C494.606 510.575 502.736 503.018 502.736 493.702C502.736 485.275 496.089 478.295 487.409 477.032Z" fill="black"/>
</g>
<defs>
<clipPath id="clip0_856_17">
<rect width="300" height="308.62" fill="white" transform="translate(250 246)"/>
</clipPath>
</defs>
</svg>
