<svg width="600" height="600" viewBox="0 0 600 600" fill="none" xmlns="http://www.w3.org/2000/svg">
<path d="M418.54 380.457L403.356 395.55C403.356 395.55 367.27 431.433 268.77 333.49C170.27 235.55 206.356 199.669 206.356 199.669L215.916 190.163C239.47 166.745 241.69 129.147 221.14 101.699L179.108 45.5529C153.676 11.5809 104.532 7.09322 75.3815 36.0779L23.0616 88.1008C8.6076 102.473 -1.07839 121.103 0.0962732 141.77C3.10127 194.644 27.0236 308.407 160.512 441.136C302.07 581.89 434.893 587.483 489.209 582.42C506.389 580.82 521.329 572.07 533.369 560.096L580.723 513.016C612.686 481.233 603.673 426.746 562.776 404.517L499.093 369.897C472.239 355.3 439.526 359.587 418.54 380.457Z" fill="white"/>
</svg>
