<svg width="600" height="600" viewBox="0 0 600 600" fill="none" xmlns="http://www.w3.org/2000/svg">
<path d="M436.875 157.501L409.125 120.002C407.34 117.621 405.015 115.7 402.343 114.396C399.669 113.092 396.724 112.442 393.75 112.502H210C207.29 112.501 204.615 113.088 202.155 114.221C199.695 115.354 197.51 117.006 195.75 119.064L163.499 156.564C160.73 160.013 159.269 164.329 159.374 168.751V305.439C159.424 338.094 172.419 369.399 195.51 392.49C218.602 415.583 249.905 428.576 282.562 428.627H317.437C350.092 428.576 381.397 415.583 404.49 392.49C427.581 369.399 440.574 338.094 440.625 305.439V168.751C440.625 164.694 439.309 160.747 436.875 157.501Z" fill="#FFCC80"/>
<path d="M558.375 532.125L483.375 438.375C481.2 435.602 478.286 433.496 474.971 432.304C471.655 431.109 468.07 430.875 464.625 431.625L300 468.75L135.375 431.25C131.931 430.5 128.345 430.734 125.029 431.929C121.713 433.121 118.8 435.227 116.625 438L41.625 531.75C39.4487 534.495 38.0844 537.793 37.6867 541.273C37.289 544.751 37.8738 548.274 39.375 551.437C40.8405 554.698 43.2077 557.473 46.1973 559.432C49.1872 561.392 52.6751 562.457 56.25 562.5H543.75C547.285 562.491 550.744 561.482 553.729 559.59C556.714 557.7 559.105 555.004 560.625 551.813C562.125 548.649 562.71 545.126 562.313 541.648C561.915 538.168 560.552 534.87 558.375 532.125Z" fill="#01579B"/>
<path d="M549.188 112.501L305.438 37.5005C301.874 36.5628 298.127 36.5628 294.563 37.5005L50.813 112.501C46.8271 113.704 43.3554 116.2 40.9449 119.595C38.5346 122.99 37.3228 127.091 37.5005 131.251C37.3449 135.459 38.6105 139.597 41.0936 142.999C43.5764 146.4 47.1324 148.866 51.188 150L294.938 217.5C298.238 218.501 301.763 218.501 305.063 217.5L548.813 150C552.869 148.866 556.424 146.4 558.908 142.999C561.39 139.597 562.656 135.459 562.5 131.251C562.679 127.091 561.465 122.99 559.056 119.595C556.645 116.2 553.174 113.704 549.188 112.501Z" fill="#01579B"/>
<path d="M210.375 112.5C207.668 112.5 204.99 113.086 202.53 114.219C200.07 115.352 197.886 117.004 196.125 119.062L163.875 156.563C160.97 159.959 159.375 164.281 159.375 168.75V305.438C159.425 338.094 172.419 369.398 195.51 392.49C218.603 415.581 249.906 428.576 282.562 428.625H300V112.5H210.375Z" fill="#FFE0B2"/>
<path d="M135.375 431.25C131.931 430.5 128.345 430.734 125.029 431.929C121.713 433.121 118.8 435.227 116.625 438L41.625 531.75C39.4487 534.495 38.0844 537.793 37.6867 541.273C37.289 544.751 37.8738 548.274 39.375 551.437C40.8405 554.698 43.2077 557.473 46.1973 559.432C49.1872 561.392 52.6751 562.457 56.25 562.5H300V468.75L135.375 431.25Z" fill="#0277BD"/>
<path d="M294.563 37.5004L50.813 112.5C46.8271 113.704 43.3554 116.2 40.9449 119.595C38.5346 122.99 37.3228 127.091 37.5005 131.25C37.3449 135.459 38.6105 139.597 41.0936 142.998C43.5764 146.4 47.1324 148.866 51.188 150L294.938 217.5C296.614 217.774 298.324 217.774 300 217.5V37.5004C298.199 37.2129 296.365 37.2129 294.563 37.5004Z" fill="#0277BD"/>
<path d="M51.188 150L159.376 179.251V305.437C159.425 338.094 172.42 369.399 195.51 392.49C218.603 415.581 249.906 428.576 282.563 428.625H317.438C350.095 428.576 381.398 415.581 404.49 392.49C427.581 369.399 440.577 338.094 440.625 305.437V179.251L548.813 150C552.869 148.866 556.424 146.4 558.908 142.999C561.39 139.597 562.656 135.459 562.5 131.251C562.679 127.091 561.465 122.99 559.056 119.595C556.645 116.2 553.174 113.704 549.188 112.501L305.438 37.5005C301.874 36.5628 298.127 36.5628 294.563 37.5005L50.813 112.501C46.8271 113.704 43.3554 116.2 40.9449 119.595C38.5346 122.99 37.3228 127.091 37.5005 131.251C37.3449 135.459 38.6105 139.597 41.0936 142.999C43.5764 146.4 47.1324 148.866 51.188 150ZM403.125 305.437C403.077 328.149 394.032 349.914 377.974 365.974C361.915 382.033 340.148 391.076 317.438 391.125H282.563C259.853 391.076 238.086 382.033 222.027 365.974C205.969 349.914 196.924 328.149 196.875 305.437V189.562L294.938 216.75C298.238 217.751 301.763 217.751 305.063 216.75L403.125 189.562V305.437ZM300 75.938L477.001 131.251L300 179.251L123.001 131.251L300 75.938Z" fill="#263238"/>
<path d="M483.375 438.375C481.2 435.602 478.286 433.496 474.971 432.304C471.655 431.109 468.07 430.875 464.625 431.625L300 468.75L135.375 431.25C131.931 430.5 128.345 430.734 125.029 431.929C121.713 433.121 118.8 435.227 116.625 438L41.625 531.75C39.4487 534.495 38.0844 537.793 37.6867 541.273C37.289 544.751 37.8738 548.274 39.375 551.437C40.8405 554.698 43.2077 557.473 46.1973 559.432C49.1872 561.392 52.6751 562.457 56.25 562.5H543.75C547.285 562.491 550.744 561.482 553.729 559.59C556.714 557.7 559.105 555.004 560.625 551.813C562.125 548.649 562.71 545.126 562.313 541.648C561.915 538.168 560.552 534.87 558.375 532.125L483.375 438.375ZM95.25 525L138.562 470.813L295.875 506.25C298.596 506.811 301.403 506.811 304.125 506.25L461.438 471.187L504.75 525H95.25Z" fill="#263238"/>
</svg>
