<svg width="800" height="800" viewBox="0 0 800 800" fill="none" xmlns="http://www.w3.org/2000/svg">
<path d="M587.943 0C600.105 0 611.849 4.43282 620.979 12.4687L720.537 100.104C731.321 109.596 737.5 123.268 737.5 137.635V725C737.5 766.421 703.921 800 662.5 800H137.5C96.0786 800 62.5 766.421 62.5 725V75C62.5 33.5786 96.0786 0 137.5 0H587.943ZM562.5 50H137.5C123.693 50 112.5 61.1929 112.5 75V725C112.5 738.807 123.693 750 137.5 750H662.5C676.307 750 687.5 738.807 687.5 725V200H628.975C592.462 200 564.628 167.767 562.617 129.016L562.5 124.517V50ZM687.5 137.635L612.5 71.6251V124.517C612.5 138.399 619.811 148.366 627.145 149.817L628.975 150H687.5V137.635Z" fill="black"/>
</svg>
