<svg width="800" height="800" viewBox="0 0 800 800" fill="none" xmlns="http://www.w3.org/2000/svg">
<g clip-path="url(#clip0_646_184)">
<path d="M41.3785 72.3204L89.6739 59.3657C107.385 54.6188 125.751 65.2329 130.497 82.9595C135.244 100.688 124.638 119.072 106.929 123.819L58.6301 136.774C40.9222 141.527 22.5519 130.905 17.8066 113.188C13.0612 95.4564 23.666 77.072 41.3785 72.3204Z" fill="#00E58B"/>
<path d="M385.779 643.37C412.454 636.215 439.868 652.059 447.015 678.756C454.163 705.456 438.337 732.892 411.66 740.047C384.987 747.201 357.573 731.358 350.426 704.659C343.277 677.962 359.105 650.525 385.779 643.37Z" fill="#FF9600"/>
<path d="M707.506 557.089C734.182 549.935 761.596 565.779 768.745 592.475C775.89 619.175 760.06 646.612 733.387 653.765C706.717 660.92 679.301 645.076 672.156 618.379C665.009 591.682 680.837 564.243 707.506 557.089Z" fill="#FF9600"/>
<path d="M254.684 412.451L641.048 308.833L707.506 557.089L321.143 660.705L254.684 412.451Z" fill="#009FD3"/>
<path d="M203.009 219.071L460.584 149.994L512.347 343.344L254.77 412.423L203.009 219.071Z" fill="#009FD3"/>
<path d="M415.665 369.277L480.064 352.005L510.393 465.295L473.882 457.82L445.996 482.565L415.665 369.277Z" fill="#00E58B"/>
<path d="M299.598 193.166L363.996 175.892L394.324 289.186L357.81 281.707L329.927 306.454L299.598 193.166Z" fill="#00E58B"/>
<path d="M394.409 675.596C403.299 673.211 412.437 678.493 414.821 687.39C417.201 696.293 411.924 705.436 403.035 707.823C394.143 710.209 385.006 704.928 382.623 696.029C380.238 687.125 385.513 677.982 394.409 675.596Z" fill="#FFD72E"/>
<path d="M716.138 589.315C725.032 586.929 734.168 592.212 736.547 601.109C738.933 610.012 733.657 619.156 724.764 621.543C715.874 623.928 706.738 618.645 704.355 609.748C701.971 600.845 707.247 591.701 716.138 589.315Z" fill="#FFD72E"/>
<path d="M799.428 532.399C797.044 523.509 787.911 518.223 779.014 520.62L719.299 536.635L657.15 304.476C656.005 300.204 653.214 296.563 649.383 294.352C645.555 292.141 641.003 291.546 636.731 292.688L524.136 322.887L476.684 145.636C475.539 141.364 472.748 137.724 468.917 135.513C465.089 133.302 460.539 132.703 456.265 133.849L214.805 198.61L180.308 69.5721C179.166 65.3002 176.372 61.6548 172.541 59.4439C168.707 57.2298 164.155 56.6361 159.886 57.7798L139.499 63.2517C130.35 49.9579 115.063 41.5236 98.2457 41.5236C93.9051 41.5236 89.5707 42.097 85.3551 43.2251L37.0581 56.1767C10.5237 63.3002 -5.31856 90.6237 1.6377 117.178C1.66114 117.272 1.68301 117.361 1.70801 117.453C7.55334 139.283 27.4346 154.532 50.0581 154.532C54.4003 154.532 58.7347 153.957 62.9456 152.828L111.241 139.877C132.23 134.25 146.519 115.982 148.141 95.4487L152.415 94.3018L186.894 223.275C186.901 223.297 186.902 223.319 186.91 223.343L189.441 232.797L238.479 416.226C238.518 416.393 238.54 416.557 238.583 416.723L257.554 487.585L304.982 664.992C306.126 669.264 308.918 672.908 312.748 675.119C315.304 676.595 318.182 677.353 321.084 677.353C322.529 677.353 323.981 677.167 325.401 676.784L334.068 674.459C331.107 685.422 330.885 697.276 334.027 709.012C335.568 714.762 337.845 720.162 340.723 725.139H282.713C273.509 725.139 266.046 732.601 266.046 741.806C266.046 751.009 273.507 758.473 282.713 758.473H398.31C398.337 758.473 398.362 758.475 398.388 758.475C398.406 758.475 398.421 758.473 398.437 758.473H472.023C481.226 758.473 488.69 751.011 488.69 741.806C488.69 732.603 481.228 725.139 472.023 725.139H456.095C464.653 710.336 467.575 692.269 462.814 674.486C459.704 662.867 453.614 652.656 445.517 644.567L656.095 588.095C653.134 599.057 652.912 610.914 656.055 622.65C663.848 651.773 690.313 672.111 720.411 672.111C726.228 672.111 732.047 671.34 737.703 669.825C773.206 660.304 794.353 623.657 784.844 588.125C781.733 576.504 775.644 566.293 767.544 558.204L787.644 552.814C796.538 550.434 801.811 541.29 799.428 532.399ZM102.613 107.68L54.3159 120.632C52.9191 121.007 51.4862 121.199 50.0581 121.199C42.5518 121.199 35.9518 116.188 33.9503 108.992C33.9346 108.938 33.9221 108.883 33.9065 108.825C31.5253 99.9315 36.8143 90.758 45.6972 88.3736L93.9863 75.4221C95.3848 75.0471 96.8176 74.8564 98.2457 74.8564C105.805 74.8564 112.446 79.9408 114.396 87.2237C114.396 87.2237 114.397 87.2377 114.399 87.244V87.2455C116.771 96.1377 111.486 105.302 102.613 107.68ZM687.1 545.265L397.267 622.995L374.07 536.35C371.688 527.459 362.557 522.181 353.66 524.559C344.768 526.94 339.49 536.078 341.87 544.968L365.071 631.629L332.931 640.25L289.69 478.723L275.112 424.188L403.879 389.652L429.899 486.837C431.395 492.42 435.673 496.829 441.206 498.489C442.782 498.962 444.396 499.193 445.998 499.193C450.021 499.193 453.971 497.735 457.064 494.993L478.712 475.782L507.057 481.582C512.723 482.743 518.573 480.885 522.531 476.682C526.49 472.479 527.99 466.524 526.5 460.946L500.478 363.751L564.867 346.482L588.065 433.129C590.059 440.579 596.794 445.49 604.156 445.49C605.581 445.49 607.033 445.306 608.476 444.918C617.369 442.537 622.647 433.399 620.267 424.509L597.065 337.844L629.269 329.207L687.1 545.265ZM487.321 443.518L477.223 441.451C472.079 440.39 466.743 441.831 462.818 445.312L455.117 452.148L436.071 381.018L468.275 372.38L487.321 443.518ZM371.251 267.407L361.154 265.338C356.01 264.288 350.674 265.718 346.746 269.199L339.048 276.032L320.004 204.905L352.206 196.268L371.251 267.407ZM287.81 213.543L313.829 310.724C315.323 316.307 319.602 320.716 325.137 322.379C326.712 322.849 328.326 323.08 329.927 323.08C333.951 323.08 337.901 321.623 340.993 318.88L362.638 299.673L390.982 305.476C396.648 306.635 402.498 304.78 406.457 300.576C410.418 296.373 411.918 290.416 410.428 284.838L384.407 187.636L448.799 170.366L491.942 331.523L266.56 391.966L223.419 230.815L287.81 213.543ZM398.454 658.361C413.489 658.361 426.715 668.536 430.615 683.108C435.374 700.889 424.801 719.231 407.04 723.994C404.215 724.75 401.32 725.136 398.437 725.141H398.348C383.328 725.122 370.121 714.955 366.224 700.392C361.47 682.636 372.013 664.322 389.728 659.531L389.896 659.486C392.707 658.74 395.585 658.361 398.454 658.361ZM720.48 571.996C735.516 571.996 748.744 582.173 752.645 596.743C757.403 614.528 746.83 632.867 729.069 637.628C726.225 638.389 723.314 638.778 720.413 638.778C705.378 638.778 692.155 628.603 688.256 614.031C683.5 596.268 694.05 577.948 711.769 573.162L711.905 573.128C714.724 572.378 717.608 571.996 720.48 571.996Z" fill="#000003"/>
<path d="M612.113 458.504C603.22 460.882 597.94 470.017 600.318 478.909L601.999 485.195C603.992 492.646 610.726 497.562 618.088 497.562C619.512 497.562 620.962 497.378 622.404 496.99C631.298 494.612 636.578 485.478 634.199 476.586L632.518 470.3C630.14 461.407 621.01 456.12 612.113 458.504Z" fill="#000003"/>
<path d="M360.126 484.267C357.743 475.376 348.613 470.095 339.713 472.484C330.822 474.867 325.546 484.006 327.93 492.896L329.615 499.182C331.61 506.628 338.343 511.537 345.702 511.537C347.13 511.537 348.582 511.353 350.027 510.964C358.918 508.581 364.194 499.442 361.81 490.551L360.126 484.267Z" fill="#000003"/>
<path d="M527.878 725.139H520.556C511.353 725.139 503.889 732.601 503.889 741.806C503.889 751.009 511.351 758.473 520.556 758.473H527.878C537.081 758.473 544.545 751.011 544.545 741.806C544.545 732.6 537.081 725.139 527.878 725.139Z" fill="#000003"/>
</g>
<defs>
<clipPath id="clip0_646_184">
<rect width="800" height="800" fill="white"/>
</clipPath>
</defs>
</svg>
