<svg width="600" height="600" viewBox="0 0 600 600" fill="none" xmlns="http://www.w3.org/2000/svg">
<path d="M519 539.813H456.562L456.375 524.125C456.437 523.687 456.312 484.125 452 423.625C446.75 350 439.25 281 353.812 227.438L368.187 212.188C414.312 239.688 453.875 277.813 473 310.25C497.812 352.438 506.312 374.875 513.75 413.875C526.437 479.875 519.312 537.688 519 539.813Z" fill="#755E49"/>
<path d="M331.438 523.479C331.438 532.229 330.625 540.729 329.063 548.979H75.75C74.1875 540.729 73.375 532.167 73.375 523.479C73.375 508.354 75.875 493.792 80.375 480.229C97.8125 428.292 145.875 390.979 202.375 390.979C258.875 390.979 306.937 428.292 324.375 480.229C329 493.792 331.438 508.354 331.438 523.479Z" fill="#FF9D00"/>
<path d="M579.563 542.938C579.563 552.438 575.687 561 569.5 567.25C563.312 573.5 554.687 577.313 545.187 577.313H53.9375C34.9375 577.313 19.5625 561.938 19.5625 542.938C19.5625 533.438 23.4375 524.875 29.625 518.625C35.875 512.438 44.4375 508.562 53.9375 508.562H545.187C564.187 508.562 579.563 523.938 579.563 542.938Z" fill="#00B7FF"/>
<path d="M575.313 234.125C581.438 234.125 583.813 224.062 578.75 219.812C560.5 204.437 525 182.187 472.688 181.875C420 181.5 384.625 204.437 366.688 220.125C361.688 224.5 364.125 234.375 370.188 234.375L575.313 234.125Z" fill="#02C652"/>
<path d="M517.25 92.9376C521.563 88.6251 516.188 79.8126 509.563 80.3751C485.75 82.4376 444.938 91.8126 407.75 128.563C370.25 165.563 361.438 206.75 359.813 230.563C359.375 237.188 368.063 242.5 372.375 238.188L517.25 92.9376Z" fill="#02C652"/>
<path d="M379.688 229.625C384 225.313 378.625 216.5 372 217.063C348.188 219.125 307.375 228.5 270.188 265.25C232.688 302.25 223.875 343.438 222.25 367.25C221.813 373.875 230.5 379.188 234.813 374.875L379.688 229.625Z" fill="#02C652"/>
<path d="M385.5 26.1875C385.5 20.0625 375.437 17.6875 371.187 22.75C355.812 41 333.562 76.5 333.25 128.812C332.875 181.5 355.812 216.875 371.5 234.813C375.875 239.813 385.75 237.375 385.75 231.313L385.5 26.1875Z" fill="#02C652"/>
<path d="M385.5 218.313C385.5 212.188 375.437 209.813 371.187 214.875C355.812 233.125 333.562 268.625 333.25 320.937C332.875 373.625 355.812 409 371.5 426.938C375.875 431.938 385.75 429.5 385.75 423.438L385.5 218.313Z" fill="#02C652"/>
<path d="M376.563 235.688C382.688 235.688 385.063 225.625 380 221.375C361.75 206 326.25 183.75 273.938 183.438C221.25 183.063 185.875 206 167.938 221.688C162.938 226.063 165.375 235.938 171.438 235.938L376.563 235.688Z" fill="#02C652"/>
</svg>
