<svg width="800" height="800" viewBox="0 0 800 800" fill="none" xmlns="http://www.w3.org/2000/svg">
<path d="M213.631 685.169L226.559 691.633C280.424 723.952 340.754 739.034 401.083 739.034C590.69 739.034 745.822 583.902 745.822 394.295C745.822 303.801 709.194 215.462 644.555 150.823C579.916 86.1847 493.732 49.5562 401.083 49.5562C211.477 49.5562 56.3441 204.689 58.4987 396.45C58.4987 461.088 77.8903 523.572 110.21 577.438L118.828 590.365L84.3542 717.488L213.631 685.169Z" fill="#00E676"/>
<path d="M681.184 116.349C607.927 40.9378 506.659 0 403.238 0C183.467 0 6.78792 178.833 8.94254 396.45C8.94254 465.398 28.3341 532.191 60.6534 592.52L4.6333 797.209L213.631 743.343C271.806 775.663 336.445 790.745 401.083 790.745C618.7 790.745 795.378 611.912 795.378 394.295C795.378 288.719 754.441 189.606 681.184 116.349ZM403.238 723.952C345.063 723.952 286.888 708.87 237.332 678.705L224.404 672.241L99.4365 704.56L131.756 581.747L123.137 568.819C28.3341 415.841 73.5811 213.307 228.714 118.504C383.846 23.7008 584.226 68.9478 679.029 224.08C773.832 379.213 728.585 579.592 573.453 674.396C523.896 706.715 463.567 723.952 403.238 723.952ZM592.844 484.789L569.143 474.016C569.143 474.016 534.669 458.934 513.123 448.161C510.969 448.161 508.814 446.006 506.659 446.006C500.196 446.006 495.886 448.161 491.577 450.315C491.577 450.315 489.422 452.47 459.258 486.944C457.103 491.253 452.794 493.408 448.485 493.408H446.33C444.175 493.408 439.866 491.253 437.712 489.098L426.939 484.789C403.238 474.016 381.692 461.088 364.455 443.851C360.145 439.542 353.682 435.233 349.372 430.924C334.29 415.841 319.208 398.604 308.435 379.213L306.28 374.904C304.125 372.749 304.125 370.594 301.971 366.285C301.971 361.976 301.971 357.667 304.125 355.512C304.125 355.512 312.744 344.739 319.208 338.275C323.517 333.966 325.671 327.502 329.981 323.193C334.29 316.729 336.445 308.11 334.29 301.647C332.135 290.874 306.28 232.699 299.816 219.771C295.507 213.307 291.198 211.153 284.734 208.998H278.27C273.961 208.998 267.497 208.998 261.033 208.998C256.724 208.998 252.414 211.153 248.105 211.153L245.951 213.307C241.641 215.462 237.332 219.771 233.023 221.926C228.714 226.235 226.559 230.544 222.25 234.853C207.167 254.245 198.549 277.946 198.549 301.647C198.549 318.884 202.858 336.121 209.322 351.203L211.477 357.667C230.868 398.604 256.724 435.233 291.198 467.552L299.816 476.171C306.28 482.635 312.744 486.944 317.053 493.408C362.3 532.191 414.011 560.201 472.186 575.283C478.649 577.438 487.268 577.438 493.732 579.592C500.196 579.592 508.814 579.592 515.278 579.592C526.051 579.592 538.979 575.283 547.597 570.974C554.061 566.665 558.37 566.665 562.68 562.355L566.989 558.046C571.298 553.737 575.607 551.582 579.916 547.273C584.226 542.964 588.535 538.655 590.69 534.345C594.999 525.727 597.153 514.954 599.308 504.181C599.308 499.872 599.308 493.408 599.308 489.098C599.308 489.098 597.153 486.944 592.844 484.789Z" fill="white"/>
</svg>
