<svg width="800" height="800" viewBox="0 0 800 800" fill="none" xmlns="http://www.w3.org/2000/svg">
<g clip-path="url(#clip0_645_123)">
<path d="M569.626 198.314C571.542 196.653 573.794 195.424 576.228 194.712C578.662 194 581.221 193.821 583.73 194.187C586.192 194.536 588.545 195.432 590.616 196.809C592.687 198.186 594.423 200.009 595.698 202.145C597.173 205.092 598.012 208.317 598.161 211.609C599.237 224.493 596.749 237.424 590.971 248.989C588.247 254.834 584.294 260.022 579.382 264.2C575.396 267.438 570.639 269.586 565.574 270.437C565.574 270.437 564.715 270.57 563.205 270.816C562.072 275.054 560.794 278.624 560.174 280.522C556.067 291.669 532.685 330.831 503.503 343.854C503.674 352.28 504.508 360.68 505.995 368.975C507.413 377.068 506.968 384.315 518.221 388.367C518.221 388.367 515.449 461.158 449.219 461.158C376.496 461.158 378.874 391.091 378.874 391.091C381.043 390.368 386.281 388.636 387.026 388.374C398.268 384.297 397.83 377.066 399.254 368.979C400.674 360.986 401.492 352.897 401.704 344.781C388.08 338.956 375.604 329.018 364.518 315.749C353.842 302.655 346.054 287.452 341.663 271.138L337.16 270.445C332.092 269.6 327.33 267.454 323.34 264.217C318.428 260.04 314.475 254.852 311.752 249.006C305.974 237.441 303.486 224.51 304.562 211.627C304.71 208.334 305.549 205.109 307.025 202.162C308.299 200.026 310.036 198.203 312.106 196.826C314.177 195.449 316.53 194.554 318.993 194.205C321.502 193.838 324.06 194.017 326.494 194.729C328.928 195.441 331.179 196.67 333.095 198.331C333.095 198.331 333.327 94.9435 451.503 94.9435C569.678 94.9435 569.626 198.314 569.626 198.314Z" fill="white"/>
<path d="M550.14 182.926C548.855 181.599 547.592 180.223 546.351 178.797C560.459 178.334 574.532 177.122 588.512 175.166C589.101 175.113 589.706 175.034 590.324 174.936C589.638 181.669 588.015 188.273 585.503 194.558C584.92 194.4 584.329 194.277 583.732 194.187C579.572 193.586 575.334 194.488 571.78 196.732C564.638 195.643 557.113 190.122 550.14 182.926Z" fill="#B5886A"/>
<path d="M450.015 5.27177C365.037 4.85759 316.42 61.6138 309.434 130.134C302.529 136.609 287.211 145.349 287.423 156.109C287.636 166.869 301.799 174.298 311.542 175.174C332.275 178.828 391.197 180.767 450.028 180.988C508.858 180.769 567.781 178.828 588.512 175.174C598.258 174.298 612.417 166.875 612.631 156.109C612.846 145.342 597.526 136.605 590.62 130.134C583.636 61.6116 535.015 4.8532 450.015 5.27177Z" fill="#F4B467"/>
<path d="M556.771 127.789C504.405 115.947 450.462 112.69 397.052 118.147C383.784 119.432 370.601 121.485 357.571 124.296C350.961 125.742 353.76 135.884 360.367 134.438C384.051 129.531 408.149 126.89 432.334 126.551C459.827 125.671 487.345 127.042 514.614 130.649C527.839 132.492 540.962 134.921 553.983 137.933C560.571 139.45 563.382 129.312 556.78 127.789H556.771Z" fill="#211715"/>
<path d="M450.015 0.012299C420.049 -0.066593 389.731 6.94165 364.619 23.7851C342.318 38.998 325.05 60.506 315.018 85.5685C309.292 99.8289 305.64 114.837 304.175 130.134L305.709 126.408C296.914 134.517 283.255 141.492 282.201 154.869C281.125 168.618 296.515 178.03 308.31 180.002C308.967 180.114 309.658 180.195 310.328 180.285C310.357 180.285 311.36 180.43 310.736 180.333C310.26 180.261 311.36 180.443 311.542 180.471C312.574 180.638 313.611 180.785 314.647 180.925C317.19 181.273 319.737 181.58 322.289 181.847C328.107 182.452 333.941 182.891 339.777 183.27C355.522 184.291 371.296 184.865 387.066 185.299C424.643 186.338 462.223 186.446 499.805 185.623C516.429 185.264 533.056 184.758 549.662 183.888C561.595 183.263 573.56 182.544 585.407 180.925C586.376 180.793 587.342 180.657 588.306 180.504C588.712 180.441 589.117 180.366 589.523 180.305C589.251 180.346 588.468 180.454 589.726 180.285C590.399 180.195 591.076 180.114 591.747 180.002C594.882 179.435 597.933 178.478 600.83 177.153C607.006 174.725 612.202 170.317 615.605 164.62C622.909 150.792 610.701 139.581 600.723 131.692C598.556 129.98 596.371 128.289 594.339 126.415L595.873 130.14C593.084 103.324 584.285 76.9714 568.145 55.171C551.65 32.9343 528.649 16.3769 502.327 7.79193C485.417 2.42291 467.756 -0.203547 450.015 0.012299C443.248 0.032022 443.235 10.551 450.015 10.5312C476.532 10.4611 503.081 16.1545 525.839 30.1293C545.636 42.46 561.515 60.17 571.621 81.19C576.705 91.722 580.475 102.839 582.845 114.292C583.482 117.294 584.033 120.313 584.498 123.349C584.936 126.275 584.642 130.903 586.481 133.327C588.417 135.45 590.606 137.328 592.998 138.919C595.575 140.957 598.157 143 600.565 145.239C602.785 147.158 604.686 149.416 606.197 151.93C606.762 152.804 607.133 153.79 607.284 154.82C607.435 155.851 607.364 156.901 607.074 157.902C605.7 162.723 600.09 166.251 595.459 168.081C592.764 169.072 589.964 169.749 587.114 170.099C586.22 170.237 585.33 170.399 584.436 170.537C583.908 170.616 583.378 170.693 582.847 170.757C583.855 170.621 582.372 170.814 582.054 170.853C576.622 171.51 571.163 171.982 565.704 172.387C531.955 174.868 498.008 175.359 464.172 175.646C427.794 175.955 391.344 175.359 355.005 173.612C342.573 173.014 330.11 172.33 317.751 170.824C317.42 170.785 316.274 170.636 317.209 170.761C316.679 170.691 316.151 170.614 315.62 170.542C314.494 170.375 313.372 170.171 312.243 170.018C309.392 169.649 306.6 168.912 303.938 167.827C299.423 165.878 294.107 162.405 292.9 157.597C292.665 156.584 292.641 155.533 292.83 154.51C293.018 153.488 293.415 152.514 293.995 151.652C295.564 149.149 297.505 146.901 299.752 144.985C302.163 142.761 304.751 140.729 307.326 138.696C309.537 136.943 313.159 134.856 314.242 132.161C315.025 129.166 315.481 126.096 315.603 123.003C316.072 119.973 316.628 116.957 317.271 113.954C318.538 108.031 320.156 102.189 322.118 96.4578C329.539 74.4331 342.842 54.8571 360.587 39.8484C379.606 23.9714 403.758 14.6621 428.283 11.7387C435.496 10.8972 442.753 10.4939 450.015 10.5312C456.785 10.5488 456.795 0.032022 450.015 0.012299Z" fill="#211715"/>
<path d="M377.678 350.205C380.011 348.577 381.976 346.476 383.444 344.039C384.913 341.602 385.852 338.883 386.2 336.059C378.113 330.257 370.82 323.423 364.505 315.729C353.83 302.635 346.043 287.434 341.653 271.12L337.147 270.426C332.079 269.58 327.318 267.434 323.328 264.197C318.415 260.02 314.463 254.832 311.74 248.987C311.358 248.224 310.994 247.453 310.644 246.681C310.107 248.095 309.809 248.873 309.809 248.873C305.685 259.659 304.442 272.198 308.029 289.634C310.344 300.79 315.371 311.719 318.027 322.816C320.683 333.914 318.45 347.58 308.538 353.205C304.762 362.802 356.658 366.363 377.678 350.205Z" fill="#B5886A"/>
<path d="M498.233 343.797C498.621 354.479 499.793 365.117 501.74 375.626C502.174 379.065 503.382 382.362 505.272 385.268C508.195 389.104 512.225 391.951 516.817 393.425C518.162 393.785 519.594 393.601 520.805 392.914C522.015 392.227 522.907 391.091 523.288 389.752C523.629 388.408 523.436 386.984 522.751 385.779C522.066 384.573 520.942 383.679 519.613 383.283C518.846 382.995 518.101 382.653 517.382 382.259C517.023 382.06 516.672 381.852 516.326 381.633C516.159 381.53 515.263 380.877 515.782 381.291C515.249 380.851 514.751 380.37 514.294 379.851C513.291 378.742 514.514 380.259 514.075 379.566C513.904 379.301 513.736 379.038 513.578 378.764C513.385 378.424 513.212 378.078 513.045 377.725C513.265 378.192 513.188 378.142 513.045 377.693C512.826 377.02 512.607 376.356 512.443 375.67C512.09 374.252 511.86 372.806 511.641 371.364C510.069 362.25 509.102 353.043 508.746 343.802C508.614 337.041 498.095 337.019 498.227 343.802L498.233 343.797Z" fill="#211715"/>
<path d="M380.251 396.144C384.626 394.941 388.889 393.362 392.992 391.424C397.451 389.029 400.818 385.011 402.397 380.202C403.613 375.812 404.445 371.326 404.885 366.792C406.039 359.502 406.728 352.146 406.947 344.768C407.113 337.997 396.595 337.999 396.428 344.768C396.286 350.906 395.768 357.03 394.876 363.104C394.382 367.44 393.65 371.745 392.685 376.001C392.58 376.395 392.466 376.787 392.341 377.175C392.304 377.291 391.841 378.49 392.091 377.912C392.341 377.333 391.786 378.492 391.727 378.597C391.492 379.033 391.23 379.453 390.941 379.855C391.379 379.264 390.827 379.969 390.621 380.178C390.303 380.5 389.987 380.824 389.641 381.115C390.079 380.741 388.797 381.698 388.808 381.692C388.348 381.983 387.873 382.248 387.39 382.498C384.177 383.921 380.858 385.093 377.463 386.005C376.135 386.402 375.012 387.296 374.327 388.501C373.642 389.707 373.449 391.13 373.788 392.474C374.171 393.811 375.064 394.945 376.274 395.632C377.484 396.318 378.915 396.503 380.259 396.147L380.251 396.144Z" fill="#211715"/>
<path d="M585.078 174.931C585.037 175.273 584.971 176.939 585.03 175.37C584.998 175.737 584.946 176.103 584.874 176.465C584.749 177.305 584.612 178.142 584.465 178.977C584.172 180.666 583.823 182.346 583.417 184.017C582.676 187.123 581.689 190.164 580.465 193.114C580.279 193.79 580.23 194.497 580.321 195.193C580.412 195.889 580.641 196.56 580.996 197.166C581.344 197.762 581.807 198.284 582.357 198.702C582.907 199.12 583.535 199.425 584.203 199.6C584.871 199.775 585.568 199.817 586.252 199.723C586.937 199.629 587.596 199.401 588.192 199.052C589.317 198.295 590.163 197.192 590.603 195.91C593.225 189.184 594.903 182.128 595.591 174.942C595.593 174.251 595.459 173.566 595.196 172.926C594.933 172.287 594.546 171.706 594.057 171.217C593.07 170.23 591.733 169.676 590.338 169.676C588.943 169.676 587.605 170.23 586.619 171.217C585.703 172.25 585.162 173.563 585.085 174.942L585.078 174.931Z" fill="#211715"/>
<path d="M571.629 191.358C570.662 191.119 569.711 190.821 568.78 190.466C568.699 190.436 567.641 190.015 568.452 190.339C569.262 190.664 568.202 190.214 568.121 190.175C567.634 189.956 567.154 189.704 566.681 189.45C565.695 188.921 564.733 188.354 563.797 187.734C563.31 187.416 562.831 187.076 562.357 186.752C562.088 186.561 561.822 186.368 561.557 186.173C561.338 186.016 560.525 185.487 561.507 186.149C559.478 184.659 557.582 182.997 555.84 181.181C553.828 179.229 551.917 177.177 550.072 175.069C549.082 174.09 547.746 173.541 546.353 173.541C544.961 173.541 543.624 174.09 542.634 175.069C541.677 176.071 541.144 177.403 541.144 178.788C541.144 180.173 541.677 181.505 542.634 182.507C546.489 186.976 550.783 191.046 555.452 194.656C559.403 197.825 563.959 200.154 568.842 201.5C569.508 201.684 570.203 201.735 570.889 201.649C571.574 201.564 572.236 201.345 572.837 201.004C573.438 200.663 573.965 200.207 574.39 199.662C574.814 199.117 575.127 198.493 575.311 197.827C575.494 197.162 575.545 196.466 575.46 195.78C575.375 195.095 575.155 194.433 574.814 193.832C574.473 193.231 574.017 192.704 573.472 192.279C572.927 191.855 572.304 191.542 571.638 191.358H571.629Z" fill="#211715"/>
<path d="M304.724 247.479C297.326 267.174 301.244 288.317 307.816 307.639C310.884 316.663 315.085 326.408 313.475 336.147C313.007 339.754 311.531 343.155 309.217 345.96C307.902 347.422 306.159 348.126 304.807 349.467C303.661 350.745 303.041 352.409 303.072 354.126C303.045 363.606 316.987 365.274 323.814 366.052C335.856 367.353 348.032 366.551 359.799 363.68C372.258 360.661 385.792 354.446 390.383 341.547C390.741 340.202 390.557 338.771 389.87 337.561C389.183 336.351 388.048 335.459 386.71 335.078C385.366 334.734 383.942 334.925 382.735 335.61C381.529 336.295 380.635 337.42 380.241 338.751C379.744 340.149 380.533 338.448 379.825 339.745C379.531 340.282 379.251 340.819 378.926 341.341C378.727 341.659 377.715 343.055 378.449 342.117C377.931 342.773 377.376 343.399 376.788 343.992C376.389 344.398 375.975 344.79 375.549 345.169C375.343 345.351 373.663 346.666 374.576 345.998C373.349 346.896 372.068 347.719 370.741 348.463C368.306 349.888 365.709 351.018 363.006 351.829C359.68 352.927 356.284 353.801 352.842 354.446C346.46 355.63 339.977 356.184 333.487 356.098C330.403 356.074 327.318 355.921 324.252 355.59C323.961 355.559 323.671 355.522 323.375 355.491C321.977 355.34 324.149 355.609 323.292 355.491C322.683 355.403 322.074 355.311 321.467 355.206C320.231 354.987 319.001 354.746 317.785 354.435C316.639 354.141 315.532 353.766 314.415 353.376C313.61 353.096 314.835 353.554 314.89 353.582C314.616 353.446 314.327 353.337 314.062 353.186C313.708 352.934 313.332 352.714 312.94 352.528C312.502 352.384 313.876 353.497 313.054 352.576C312.342 351.776 313.794 353.85 313.152 352.673C313.1 352.579 313.694 354.126 313.505 353.495C313.356 352.991 313.505 352.605 313.588 354.297C313.549 353.42 313.15 355.831 313.588 354.606L311.178 357.748C323.568 350.389 326.154 334.486 323.084 321.421C321.055 312.791 317.638 304.562 315.105 296.081C312.63 288.045 311.302 279.7 311.16 271.293C311.082 264.118 312.341 256.99 314.873 250.275C315.232 248.93 315.048 247.498 314.361 246.288C313.674 245.077 312.539 244.185 311.2 243.804C309.855 243.464 308.432 243.657 307.226 244.341C306.02 245.026 305.125 246.15 304.728 247.479H304.724Z" fill="#211715"/>
<path d="M573.347 202.033C574.611 200.991 576.074 200.216 577.646 199.755C579.218 199.295 580.867 199.158 582.494 199.352C584.121 199.547 585.691 200.07 587.11 200.889C588.529 201.708 589.767 202.806 590.749 204.117C592.451 207.324 593.26 210.93 593.092 214.557C593.314 219.009 593.063 223.471 592.342 227.87C589.684 243.429 581.488 262.381 564.165 265.357C562.826 265.738 561.691 266.629 561.004 267.839C560.317 269.05 560.133 270.481 560.492 271.826C560.889 273.154 561.784 274.277 562.989 274.962C564.194 275.647 565.617 275.84 566.961 275.501C584.894 272.42 595.535 255.484 600.442 239.314C603.025 230.824 604.071 221.942 603.53 213.084C602.967 204.395 600.339 196.226 592.329 191.702C588.163 189.408 583.389 188.454 578.661 188.972C573.932 189.489 569.479 191.453 565.907 194.595C564.932 195.587 564.386 196.923 564.386 198.314C564.386 199.705 564.932 201.041 565.907 202.033C566.907 202.997 568.243 203.537 569.633 203.537C571.022 203.537 572.358 202.997 573.358 202.033H573.347Z" fill="#211715"/>
<path d="M560.122 257.305C559.834 262.382 558.893 267.4 557.323 272.236C556.76 274.118 556.144 275.981 555.52 277.844C555.349 278.348 555.189 278.854 555.003 279.351C554.858 279.744 554.203 281.205 554.88 279.695C552.596 284.676 549.968 289.491 547.015 294.106C538.714 307.863 528.114 320.093 515.677 330.265C508.89 335.849 500.953 339.865 492.435 342.027C485.841 343.543 488.633 353.687 495.231 352.171C512.89 348.112 527.664 335.373 539.307 322.047C549.084 311.229 557.254 299.061 563.567 285.917C567.744 276.927 570.148 267.215 570.645 257.314C570.864 250.545 560.345 250.551 560.126 257.314L560.122 257.305Z" fill="#211715"/>
<path d="M336.788 194.595C333.664 191.831 329.849 189.966 325.748 189.201C321.647 188.436 317.416 188.799 313.506 190.252C304.88 193.653 300.576 200.911 299.481 209.841C297.413 227.492 301.918 245.286 312.136 259.826C317.677 267.915 326.143 273.536 335.749 275.501C337.093 275.831 338.512 275.635 339.715 274.951C340.918 274.268 341.814 273.149 342.218 271.826C342.577 270.481 342.393 269.05 341.706 267.839C341.019 266.629 339.884 265.738 338.545 265.357C321.233 262.383 313.026 243.42 310.368 227.87C309.675 223.634 309.417 219.338 309.599 215.05C309.73 211.423 309.892 207.248 311.961 204.117C312.943 202.805 314.181 201.706 315.6 200.887C317.019 200.067 318.589 199.544 320.216 199.349C321.843 199.155 323.492 199.292 325.065 199.753C326.637 200.214 328.099 200.99 329.363 202.033C330.366 202.988 331.698 203.52 333.082 203.52C334.467 203.52 335.798 202.988 336.801 202.033C337.776 201.041 338.323 199.705 338.323 198.314C338.323 196.923 337.776 195.587 336.801 194.595H336.788Z" fill="#211715"/>
<path d="M332.775 255.601C339.191 292.618 359.252 328.845 393.548 346.71C402.813 351.538 412.912 354.559 423.306 355.611C424.698 355.603 426.031 355.046 427.015 354.061C428 353.077 428.556 351.744 428.565 350.352C428.535 348.967 427.971 347.646 426.991 346.666C426.011 345.687 424.691 345.123 423.306 345.093C387.938 341.426 360.38 309.709 349.272 277.844C346.473 269.685 344.348 261.31 342.917 252.804C342.536 251.466 341.644 250.33 340.433 249.643C339.222 248.956 337.79 248.772 336.446 249.131C335.118 249.529 333.995 250.424 333.311 251.629C332.627 252.834 332.436 254.257 332.775 255.601Z" fill="#211715"/>
<path d="M374.587 381.595C351.742 387.339 320.584 397.885 310.014 401.597C292.059 407.478 274.558 414.668 257.654 423.108L234.629 432.998C237.464 421.164 239.908 410.792 240.857 407.067C244.871 391.273 263.341 317.93 267.785 299.166C242.759 289.377 210.645 276.575 184.644 268.142C179.959 278.764 161.355 320.875 154.932 341.22C152.217 349.817 132.273 407.737 127.868 431.352C125.499 444.043 118.528 460.604 116.911 475.058C114.209 499.478 108.491 513.058 121.149 536.605C131.387 555.653 150.999 569.915 172.97 570.792C190.997 571.508 209.195 567.533 226.292 563.654C244.519 559.521 277.537 546.375 290.339 543.022L294.284 541.832C301.365 596.644 308.344 651.047 310.772 667.467C311.868 674.918 313.648 785.91 313.54 794.768C315.732 794.744 317.908 794.744 317.908 794.744H686.301C681.287 696.059 673.766 611.283 666.036 509.694C664.283 486.572 651.108 449.447 639.005 438.152C634.06 433.123 628.515 428.722 622.495 425.047C593.132 408.635 562.959 393.714 532.093 380.342L503.444 370.48C494.665 385.382 481.664 407.157 476.303 414.748C473.126 419.242 458.833 439.688 453.747 446.811L450.744 451.016L450.273 450.359C440.609 437.133 425.659 412.322 417.785 398.437C415.324 394.096 409.32 383.68 404.279 374.331L376.277 381.157C375.719 381.306 375.156 381.452 374.587 381.595Z" fill="#BDBDBD"/>
<path d="M521.997 369.102C518.075 365.794 513.921 362.77 509.567 360.054C502.82 371.638 484.64 402.55 477.151 413.542C479.312 414.897 480.594 415.71 480.594 415.71C486.792 419.643 526.814 431.617 531.582 430.55C531.863 416.567 531.863 388.076 531.363 378.666C528.63 375.119 525.486 371.908 521.997 369.102Z" fill="#BDBDBD"/>
<path d="M380.991 373.895C386.025 368.976 391.55 364.586 397.48 360.796C401.414 370.016 413.935 391.674 417.786 398.465C420.475 403.205 423.988 409.223 427.836 415.615L427.632 415.71C421.432 419.643 381.41 431.617 376.644 430.55C376.363 416.566 376.361 388.076 376.863 378.665C378.106 376.964 379.486 375.369 380.991 373.895Z" fill="#BDBDBD"/>
<path d="M597.898 799.136C603.539 799.136 603.548 790.37 597.898 790.37C592.249 790.37 592.249 799.136 597.898 799.136Z" fill="#211715"/>
<path d="M247.777 476.253C248.679 476.747 249.542 477.308 250.361 477.929L249.296 477.107C250.69 478.2 251.942 479.462 253.022 480.866L252.2 479.801C253.563 481.619 254.692 483.601 255.561 485.7L255.031 484.442C255.446 485.443 255.816 486.461 256.142 487.497C256.531 488.806 257.39 489.925 258.553 490.639C259.456 491.168 260.496 491.415 261.54 491.35C262.585 491.284 263.586 490.908 264.415 490.271C265.245 489.633 265.865 488.763 266.198 487.77C266.53 486.778 266.558 485.709 266.28 484.701C264.301 477.373 259.569 471.093 253.072 467.169C252.476 466.82 251.816 466.593 251.132 466.499C250.447 466.405 249.751 466.447 249.083 466.622C248.415 466.797 247.787 467.102 247.237 467.52C246.687 467.938 246.224 468.46 245.875 469.056C245.527 469.652 245.299 470.312 245.205 470.996C245.111 471.681 245.153 472.377 245.328 473.045C245.503 473.713 245.809 474.341 246.226 474.891C246.644 475.441 247.166 475.904 247.762 476.253H247.777Z" fill="#211715"/>
<path d="M318.804 793.767C318.793 770.06 318.186 746.337 317.709 722.635C317.439 709.155 317.156 695.68 316.731 682.196C316.615 675.523 316.132 668.861 315.285 662.241C314.711 658.186 314.163 654.132 313.615 650.069C313.442 648.794 313.731 650.935 313.521 649.37C313.433 648.713 313.343 648.055 313.256 647.398L312.73 643.453C312.341 640.523 311.954 637.591 311.568 634.659C309.749 620.83 307.949 606.997 306.166 593.162C301.948 560.547 297.734 527.933 293.522 495.318C290.234 470.025 287.006 444.713 283.371 419.466C283.12 417.724 282.863 415.981 282.602 414.237C282.222 412.897 281.331 411.761 280.12 411.074C278.91 410.386 277.477 410.203 276.132 410.564C274.806 410.965 273.685 411.86 273.001 413.065C272.316 414.27 272.122 415.691 272.457 417.036C275.964 440.346 278.558 461.283 281.662 484.944C285.898 517.43 290.101 549.92 294.269 582.415C297.58 608.055 300.843 633.695 304.35 659.291C304.599 661.123 304.854 662.955 305.112 664.787C305.215 665.517 305.318 666.244 305.423 666.979C305.476 667.345 305.529 667.708 305.583 668.074C305.829 669.731 305.518 667.658 305.537 667.653C305.557 667.649 305.976 675.199 305.991 675.654C306.462 687.681 306.708 699.719 306.968 711.752C307.532 737.782 308.047 763.819 308.266 789.853C308.276 791.168 308.283 792.477 308.288 793.78C308.288 800.549 318.806 800.56 318.806 793.78L318.804 793.767Z" fill="#211715"/>
<path d="M611.636 792.323C611.509 791.713 611.474 791.082 611.34 790.475C611.303 790.306 611.54 792.075 611.424 791.071C611.395 790.837 611.362 790.602 611.334 790.368C611.259 789.75 611.185 789.13 611.115 788.512C610.733 785.211 610.396 781.907 610.065 778.602C609.077 768.767 608.176 758.923 607.297 749.079C605.351 727.276 603.486 705.469 601.943 683.625C601.536 677.835 601.025 672.01 600.973 666.207C600.973 665.951 600.973 665.694 600.99 665.436C600.99 665.357 601.008 665.276 601.01 665.197C600.944 666.748 601.172 664.241 601.242 663.761C601.797 660.049 602.358 656.339 602.923 652.631C604.108 644.856 605.312 637.083 606.535 629.314C611.851 595.384 617.325 561.478 622.293 527.493C626.639 497.775 630.96 467.932 633.071 437.957C633.265 435.181 633.431 432.411 633.568 429.647C633.899 422.88 623.378 422.898 623.049 429.647C621.662 458.022 617.647 486.303 613.626 514.401C608.744 548.629 603.265 582.774 597.887 616.926C595.477 632.292 593.009 647.659 590.778 663.054C590.342 668.07 590.428 673.119 591.037 678.118C592.426 699.269 594.249 720.397 596.099 741.514C597.611 758.776 598.748 776.191 601.201 793.355C601.284 793.944 601.363 794.536 601.485 795.119C602.877 801.739 613.019 798.938 611.627 792.323H611.636Z" fill="#211715"/>
<path d="M529.438 384.902C559.478 397.727 588.506 412.589 617.199 428.162C628.063 433.748 637.094 442.338 643.218 452.909C649.262 464.211 653.867 476.225 656.925 488.672C660.506 502.388 661.262 516.135 662.353 530.23C663.699 547.636 665.06 565.041 666.438 582.446C669.037 615.495 671.634 648.546 674.01 681.615C676.717 719.291 679.06 756.989 681.04 794.711C681.382 801.448 691.903 801.487 691.559 794.711C689.822 760.471 687.726 726.257 685.271 692.071C682.902 658.41 680.284 624.767 677.639 591.124C676.28 573.847 674.925 556.568 673.573 539.287C672.368 523.794 672.02 508.009 668.717 492.778C665.845 479.496 661.479 466.582 655.702 454.281C653.428 449.244 650.658 444.445 647.434 439.956C643.458 434.886 638.848 430.347 633.718 426.45C626.924 421.472 619.688 417.128 612.101 413.47C605.054 409.689 597.978 405.964 590.875 402.294C576.326 394.806 561.597 387.668 546.647 381.013C542.694 379.259 538.727 377.532 534.748 375.83C533.533 375.171 532.113 374.999 530.776 375.35C529.439 375.7 528.286 376.546 527.551 377.717C526.857 378.924 526.666 380.355 527.019 381.702C527.372 383.049 528.241 384.202 529.438 384.913V384.902Z" fill="#211715"/>
<path d="M317.906 800.012H685.475C692.242 800.012 692.253 789.493 685.475 789.493H317.906C311.137 789.493 311.126 800.012 317.906 800.012Z" fill="#211715"/>
<path d="M351.523 751.827C378.353 751.827 405.183 751.844 432.012 751.88C462.609 751.906 493.206 751.933 523.803 751.961C535.286 751.969 546.769 751.976 558.251 751.98C565.02 751.98 565.031 741.461 558.251 741.461C534.291 741.461 510.331 741.444 486.371 741.409C454.972 741.38 423.575 741.353 392.178 741.328C378.627 741.319 365.074 741.312 351.521 741.308C344.751 741.308 344.742 751.827 351.523 751.827Z" fill="#211715"/>
<path d="M445.987 450.387C445.987 464.366 446.053 478.346 446.095 492.325C446.175 518.872 446.261 545.42 446.351 571.968C446.452 602.723 446.554 633.476 446.658 664.228C446.747 691.066 446.836 717.905 446.925 744.744C446.972 759.476 447.015 774.209 447.055 788.941C447.055 789.526 447.055 790.111 447.055 790.694C447.055 797.464 457.573 797.475 457.573 790.694C457.573 777.999 457.508 765.304 457.466 752.611C457.386 726.725 457.301 700.836 457.212 674.947L456.903 582.794C456.811 555.373 456.722 527.952 456.636 500.53C456.587 484.593 456.544 468.657 456.506 452.721C456.506 451.941 456.506 451.161 456.506 450.381C456.506 443.613 445.987 443.602 445.987 450.381V450.387Z" fill="#211715"/>
<path d="M392.08 361.425C396.975 373.347 403.806 384.547 410.17 395.724C417.06 407.823 424.095 419.829 431.495 431.63C436.049 438.888 440.699 446.112 445.739 453.043C446.471 454.217 447.624 455.067 448.962 455.418C450.301 455.769 451.723 455.594 452.936 454.93C454.133 454.218 455.001 453.065 455.354 451.718C455.707 450.372 455.516 448.94 454.823 447.733C438.457 425.249 424.717 400.617 411.327 376.292C409.464 372.908 407.626 369.512 405.849 366.082C405.106 364.645 404.374 363.2 403.67 361.743C403.327 361.037 402.991 360.327 402.662 359.611C402.564 359.392 402.467 359.173 402.366 358.953C401.742 357.577 402.743 359.896 402.224 358.631C401.816 357.311 400.919 356.196 399.717 355.513C398.515 354.831 397.098 354.632 395.755 354.958C394.415 355.337 393.277 356.228 392.589 357.439C391.902 358.649 391.718 360.083 392.08 361.428V361.425Z" fill="#211715"/>
<path d="M505.04 357.373C497.675 370.016 490.233 382.619 482.602 395.103C476.361 405.316 469.657 415.1 462.789 424.894C458.273 431.328 453.771 437.773 449.202 444.179C448.51 445.386 448.319 446.818 448.673 448.164C449.026 449.51 449.895 450.664 451.091 451.375C452.302 452.049 453.727 452.23 455.068 451.878C456.408 451.526 457.561 450.67 458.286 449.489C465.829 438.919 473.242 428.26 480.698 417.632C488.663 406.278 495.567 394.109 502.645 382.194C506.497 375.708 510.323 369.207 514.122 362.69C517.536 356.83 508.448 351.529 505.038 357.382L505.04 357.373Z" fill="#211715"/>
<path d="M394.574 356.416C387.196 360.943 380.507 366.508 374.715 372.941C373.081 374.458 371.99 376.469 371.61 378.665C371.526 379.636 371.52 380.62 371.487 381.593C371.393 384.365 371.345 387.14 371.305 389.921C371.111 403.464 371.137 417.01 371.384 430.559C371.395 431.707 371.777 432.821 372.473 433.735C373.169 434.649 374.141 435.314 375.245 435.63C379.139 435.995 383.067 435.575 386.796 434.396C392.146 433.186 397.44 431.718 402.702 430.173C408.181 428.567 413.618 426.857 418.995 424.962C422.913 423.795 426.697 422.219 430.286 420.261C436.038 416.713 430.761 407.612 424.976 411.178C424.493 411.471 423.994 411.739 423.483 411.98C423.104 412.166 422.714 412.333 422.331 412.508C421.215 413.019 423.459 412.056 422.234 412.55C420.24 413.354 418.226 414.103 416.199 414.82C411.016 416.648 405.77 418.298 400.5 419.86C395.352 421.381 390.176 422.823 384.94 424.039C382.999 424.491 381.05 424.881 379.089 425.236C378.695 425.308 377.584 425.361 379.201 425.236C378.883 425.26 378.565 425.326 378.245 425.334C377.518 425.354 375.874 425.085 378.026 425.492L381.888 430.563C381.55 413.314 381.217 395.914 382.107 378.679L381.412 381.324C385.894 375.104 393.338 369.759 399.884 365.499C405.538 361.822 400.272 352.708 394.574 356.416Z" fill="#211715"/>
<path d="M508.343 365.497C514.891 369.759 522.331 375.102 526.815 381.321L526.096 378.665C526.992 395.901 526.661 413.301 526.315 430.55L530.176 425.479C532.308 425.076 530.796 425.339 530.091 425.33C529.729 425.33 529.368 425.251 529.008 425.223C530.65 425.354 529.481 425.288 529.12 425.223C527.161 424.87 525.21 424.478 523.269 424.026C518.042 422.81 512.864 421.368 507.71 419.847C502.439 418.289 497.191 416.639 492.01 414.807C489.981 414.09 487.967 413.341 485.973 412.536C484.958 412.129 486.886 412.962 485.878 412.495C485.539 412.339 485.195 412.192 484.857 412.032C484.3 411.769 483.757 411.476 483.231 411.156C477.452 407.592 472.164 416.687 477.921 420.239C481.511 422.196 485.296 423.772 489.214 424.94C494.589 426.836 500.035 428.545 505.507 430.151C510.767 431.685 516.061 433.164 521.413 434.374C525.142 435.553 529.07 435.973 532.964 435.608C534.07 435.295 535.044 434.631 535.74 433.717C536.437 432.802 536.817 431.686 536.825 430.537C537.089 416.997 537.116 403.451 536.904 389.899C536.864 387.127 536.814 384.352 536.72 381.571C536.687 380.598 536.683 379.614 536.597 378.643C536.224 376.445 535.133 374.432 533.494 372.919C527.7 366.487 521.012 360.921 513.633 356.394C507.935 352.69 502.676 361.793 508.325 365.475L508.343 365.497Z" fill="#211715"/>
<path d="M500.72 499.73C515.293 499.8 529.867 499.949 544.44 500.065C551.562 500.126 558.684 500.184 565.806 500.238C566.983 500.238 571.469 499.664 572.146 500.481C571.927 500.207 572.065 501.919 572.061 502.177C572.036 503.321 572.01 504.467 571.984 505.614C571.925 508.122 571.869 510.631 571.815 513.141C571.855 513.79 571.843 514.441 571.78 515.087C571.809 515.061 571.71 514.89 571.743 514.868C571.995 514.671 570.665 515.03 571.305 514.894C570.495 514.994 569.677 515.013 568.863 514.951C566.628 514.951 564.394 514.944 562.162 514.929C555.985 514.905 549.809 514.875 543.633 514.842C530.899 514.776 518.165 514.716 505.43 514.662C504.224 514.662 500.609 515.16 499.859 514.491C500.05 514.66 499.874 514.244 499.879 513.733C499.879 512.598 499.879 511.46 499.879 510.325V502.028C499.879 501.568 499.631 500.185 499.879 499.776C499.745 499.995 500.17 499.756 500.709 499.73C507.448 499.401 507.487 488.88 500.709 489.211C495.347 489.471 490.287 492.678 489.5 498.323C489.311 500.395 489.264 502.478 489.36 504.557C489.36 510.014 488.115 517.307 492.187 521.631C496.887 526.623 505.417 525.174 511.66 525.201C519.301 525.231 526.944 525.268 534.589 525.31C542.309 525.353 550.029 525.392 557.75 525.429C560.652 525.442 563.555 525.453 566.459 525.462C569.594 525.764 572.757 525.412 575.749 524.427C578.035 523.48 579.932 521.784 581.127 519.617C582.204 516.933 582.628 514.031 582.365 511.151C582.422 508.482 582.487 505.813 582.547 503.142C582.899 500.412 582.437 497.639 581.219 495.171C578.49 490.683 573.812 489.772 568.968 489.741C565.287 489.716 561.606 489.689 557.926 489.66C538.86 489.506 519.782 489.303 500.709 489.211C493.951 489.176 493.942 499.695 500.72 499.73Z" fill="#211715"/>
<path d="M568.493 542.049C568.478 550.308 568.241 558.57 568.147 566.829C568.088 571.949 567.943 577.09 568.07 582.209C568.108 583.697 568.143 583.993 566.795 584.153C564.759 584.27 562.717 584.27 560.681 584.153L527.382 584.19L510.931 584.21H504.825C503.355 584.21 502.619 584.541 502.255 583.287C502.073 581.553 502.119 579.802 502.393 578.08C502.448 576.234 502.509 574.387 502.575 572.54C502.697 569.052 502.827 565.563 502.963 562.074C503.195 555.861 503.475 549.642 503.489 543.425C503.504 536.655 492.985 536.647 492.97 543.425C492.943 556.464 491.874 569.481 491.753 582.516C491.658 584.248 491.944 585.981 492.592 587.59C493.241 589.2 494.235 590.647 495.505 591.829C498.207 593.994 501.64 595.033 505.088 594.729L521.323 594.711L558.139 594.67C563.677 594.67 570.336 595.728 574.794 591.768C579.679 587.44 578.543 580.552 578.578 574.697C578.642 563.81 578.973 552.925 578.995 542.044C579.006 535.277 568.487 535.266 568.476 542.044L568.493 542.049Z" fill="#211715"/>
<path d="M405.647 489.211C388.635 489.292 371.625 489.467 354.612 489.609L342.415 489.706C338.741 489.401 335.043 489.604 331.425 490.309C328.912 491.077 326.751 492.706 325.322 494.911C324.018 497.274 323.482 499.984 323.788 502.666C323.849 505.497 323.921 508.327 323.98 511.158C323.718 514.038 324.142 516.939 325.219 519.623C328.97 526.649 337.491 525.479 344.186 525.453C351.397 525.424 358.608 525.388 365.819 525.348C373.647 525.308 381.474 525.269 389.301 525.229L399.228 525.19C402.116 525.352 405.012 525.271 407.886 524.949C410.369 524.55 412.636 523.3 414.298 521.413C415.96 519.525 416.913 517.118 416.994 514.605C417.101 512.054 416.994 509.475 416.994 506.922C416.994 504.524 417.106 502.101 416.994 499.703C416.698 493.42 411.667 489.502 405.645 489.211C398.877 488.88 398.895 499.401 405.645 499.73C406.859 499.789 406.475 499.745 406.475 501.106V508.261C406.726 510.273 406.726 512.308 406.475 514.32C406.313 514.866 406.451 514.487 406.515 514.434C406.041 514.833 404.948 514.653 404.323 514.653C392.307 514.666 380.292 514.748 368.276 514.811L348.612 514.91C344.256 514.927 339.748 514.625 335.413 514.986C334.188 515.087 334.589 514.691 334.569 513.632C334.521 511.125 334.46 508.618 334.403 506.113C334.372 504.798 334.343 503.484 334.315 502.169C334.338 501.588 334.313 501.007 334.239 500.431C334.834 500.293 335.445 500.235 336.055 500.26C342.63 500.284 349.189 500.163 355.752 500.109C372.385 499.971 389.02 499.802 405.656 499.721C412.412 499.697 412.427 489.176 405.647 489.211Z" fill="#211715"/>
<path d="M327.364 542.049C327.382 551.524 327.658 561 327.748 570.474C327.771 573.204 327.786 575.934 327.794 578.663C327.515 581.587 327.775 584.538 328.561 587.368C329.206 589.057 330.244 590.569 331.589 591.779C332.934 592.988 334.548 593.859 336.297 594.321C339.001 594.776 341.751 594.895 344.484 594.676L380.529 594.718L397.907 594.738C400.414 594.891 402.93 594.817 405.424 594.518C407.323 594.159 409.098 593.316 410.579 592.072C412.059 590.829 413.194 589.225 413.876 587.416C415.215 583.892 414.555 579.693 414.437 575.994C414.305 571.936 414.15 567.886 413.999 563.816C413.744 557.023 413.422 550.229 413.407 543.436C413.392 536.642 402.873 536.655 402.888 543.436C402.912 555.129 403.651 566.821 403.997 578.499C404.032 579.634 404.689 583.272 403.951 583.978C403.074 584.804 399.691 584.221 398.499 584.219L383.564 584.203C372.225 584.19 360.888 584.177 349.55 584.164H342.757C341.747 584.164 339.117 584.569 338.508 583.912C337.809 583.158 338.321 580.125 338.321 578.981C338.321 576.389 338.304 573.794 338.282 571.199C338.197 561.487 337.909 551.77 337.892 542.053C337.879 535.286 327.36 535.273 327.373 542.053L327.364 542.049Z" fill="#211715"/>
<path d="M260.306 427.649C288.854 413.518 319.256 403.435 349.671 394.12C358.941 391.271 368.257 388.571 377.671 386.248C384.246 384.628 381.456 374.482 374.875 376.106C358.126 380.235 341.64 385.457 325.27 390.867C311.453 395.434 297.631 400.124 284.101 405.489C274.207 409.411 264.534 413.845 254.997 418.565C254.4 418.914 253.878 419.377 253.461 419.927C253.043 420.477 252.738 421.104 252.563 421.773C252.387 422.441 252.346 423.137 252.439 423.822C252.533 424.506 252.761 425.165 253.11 425.762C253.458 426.358 253.921 426.88 254.471 427.298C255.022 427.715 255.649 428.021 256.317 428.196C256.986 428.371 257.682 428.413 258.366 428.319C259.051 428.225 259.71 427.997 260.306 427.649Z" fill="#211715"/>
<path d="M205.259 237.891C211.704 222.913 218.831 200.608 219.004 192.956C219.452 183.713 220.89 174.545 223.293 165.609C225.346 157.551 228.552 152.138 236.833 148.077C244.249 144.433 251.983 149.747 257.884 154.906C259.552 149.925 266.834 145.34 271.864 144.229C273.512 143.955 275.199 144.01 276.826 144.391C278.453 144.772 279.989 145.471 281.344 146.449L284.046 143.729C293.642 135.463 302.61 137.098 307.891 143.438L308.305 143.938L310.828 140.817C313.164 137.927 324.93 138.139 329.363 139.097C333.098 139.999 336.575 141.747 339.528 144.205C342.481 146.664 344.829 149.768 346.393 153.278C349.022 159.56 347.642 168.252 340.386 170.984C340.327 171.009 340.265 171.03 340.206 171.05C342.507 187.278 337.283 206.385 336.277 209.944C333.97 219.309 329.388 227.961 322.938 235.132C317.003 241.337 310.032 246.459 302.338 250.269C295.165 253.931 286.43 255.515 279.873 260.334C275.442 263.591 264.207 287.493 263.157 294.678C263.157 294.678 263.015 295.647 262.791 297.209C239.75 288.176 211.783 277.142 188.194 269.31L196.099 254.893L200.946 246.922C202.281 244.501 203.751 241.398 205.259 237.891Z" fill="white"/>
<path d="M287.769 147.448C292.625 143.399 299.079 141.378 303.712 146.627C308.035 151.524 309.554 158.899 310.823 165.107C312.313 171.149 313.194 177.326 313.453 183.544C313.453 188.913 312.065 193.598 306.44 195.233C299.953 197.12 302.715 207.286 309.236 205.377C312.605 204.473 315.668 202.678 318.104 200.181C320.539 197.684 322.257 194.578 323.077 191.187C324.684 184.773 323.689 178.354 322.659 171.949C321.768 165.06 320.243 158.268 318.103 151.66C315.776 145.167 312.204 138.308 305.794 135.025C296.833 130.436 287.572 133.971 280.329 140.008C279.353 141 278.806 142.336 278.806 143.727C278.806 145.119 279.353 146.454 280.329 147.446C281.33 148.406 282.663 148.941 284.049 148.941C285.435 148.941 286.768 148.408 287.769 147.448Z" fill="#211715"/>
<path d="M314.548 144.536C315.335 143.659 313.709 145.112 314.406 144.608C314.563 144.511 314.728 144.426 314.899 144.354C315.197 144.573 313.634 144.698 314.502 144.549C314.941 144.472 315.394 144.282 315.839 144.183C316.229 144.093 318.147 143.859 316.757 143.984C319.127 143.755 321.509 143.682 323.888 143.764C324.942 143.808 325.99 143.894 327.037 143.999C328.413 144.139 326.062 143.78 327.276 144.041C327.844 144.163 328.413 144.26 328.975 144.418C329.652 144.602 330.311 144.827 330.971 145.075C331.97 145.437 331.394 145.257 331.19 145.158C331.514 145.307 331.848 145.463 332.152 145.625C332.79 145.954 333.417 146.309 334.024 146.69C334.328 146.881 334.631 147.08 334.929 147.284C334.918 147.284 336.204 148.248 335.601 147.762C337.76 149.387 339.544 151.458 340.83 153.834C341.126 154.367 341.404 154.912 341.652 155.471C341.255 154.575 341.812 156.006 341.9 156.308C342.064 156.865 342.174 157.428 342.298 157.996C342.518 158.969 342.298 158.097 342.298 157.891C342.329 158.329 342.369 158.767 342.375 159.205C342.375 159.786 342.342 160.362 342.314 160.943C342.373 159.78 342.244 161.279 342.145 161.671C342.007 162.224 341.836 162.769 341.632 163.301C342.044 162.205 341.295 163.814 341.111 164.121C341.025 164.263 340.477 164.971 340.903 164.45C341.328 163.928 340.734 164.614 340.618 164.726L339.991 165.32C339.441 165.845 340.675 164.901 340.011 165.302C339.752 165.458 339.498 165.62 339.239 165.775C339.114 165.848 338.242 166.253 338.801 166.014C339.36 165.775 338.439 166.119 338.295 166.159C337.797 166.297 337.322 166.273 338.076 166.247C337.775 166.247 337.464 166.247 337.164 166.26C335.959 166.325 337.924 166.536 336.752 166.214C336.073 166.025 335.398 165.867 334.729 165.637C333.281 165.142 331.88 164.507 330.467 163.935C327.115 162.477 323.41 162.032 319.808 162.653C318.469 163.034 317.335 163.926 316.648 165.136C315.961 166.346 315.776 167.777 316.135 169.122C316.531 170.45 317.425 171.574 318.631 172.259C319.837 172.943 321.26 173.135 322.604 172.795C321.592 172.981 322.573 172.795 322.869 172.795C323.261 172.808 323.647 172.795 324.039 172.841C322.922 172.733 324.837 173.079 325.177 173.18C326.803 173.665 328.35 174.364 329.917 175.006C333.185 176.524 336.833 177.031 340.392 176.461C347.926 174.977 352.381 167.715 352.846 160.505C352.895 156.932 352.171 153.391 350.722 150.125C349.274 146.858 347.136 143.944 344.455 141.582C339.355 136.748 332.729 133.844 325.718 133.368C322.595 133.106 319.454 133.162 316.343 133.535C313.13 133.938 309.381 134.554 307.104 137.116C306.147 138.117 305.613 139.449 305.613 140.835C305.613 142.22 306.147 143.552 307.104 144.553C308.097 145.528 309.432 146.073 310.823 146.073C312.214 146.073 313.549 145.528 314.542 144.553L314.548 144.536Z" fill="#211715"/>
<path d="M335.514 178.15C335.56 188.308 334.145 198.419 331.311 208.173C328.55 219.17 322.469 229.05 313.896 236.469C309.434 240.203 304.53 243.373 299.294 245.91C294.14 248.461 288.516 249.936 283.283 252.322C279.276 253.95 275.783 256.629 273.17 260.075C271.133 262.999 269.32 266.072 267.746 269.269C265.438 273.73 263.363 278.308 261.459 282.956C259.947 286.256 258.814 289.716 258.082 293.271C257.753 294.615 257.951 296.034 258.634 297.237C259.317 298.44 260.434 299.336 261.757 299.743C263.102 300.102 264.534 299.918 265.744 299.231C266.955 298.543 267.846 297.407 268.226 296.068C269.365 288.961 272.913 282.338 276.093 276.016C277.751 272.583 279.641 269.268 281.751 266.093C281.916 265.854 282.087 265.622 282.253 265.383C283.012 264.287 281.743 265.946 282.253 265.383C282.552 265.024 282.87 264.683 283.207 264.36C283.312 264.268 284.716 263.404 285.455 262.986C286.851 262.201 288.293 261.503 289.774 260.895C295.268 258.622 300.951 256.95 306.228 254.154C311.622 251.304 316.686 247.869 321.329 243.911C330.687 235.744 337.465 225.029 340.833 213.073C344.346 201.766 346.097 189.984 346.024 178.144C345.917 171.381 335.398 171.361 335.505 178.144L335.514 178.15Z" fill="#211715"/>
<path d="M261.84 178.352C262.717 181.451 263.712 184.525 264.448 187.661C265.173 190.756 265.311 193.905 265.796 197.039C266.369 202.034 268.111 206.823 270.88 211.02C272.323 213.189 274.306 214.946 276.635 216.116C278.963 217.287 281.556 217.831 284.158 217.695C286.938 217.516 289.655 216.79 292.153 215.557C294.652 214.325 296.882 212.611 298.716 210.514C300.551 208.122 301.897 205.393 302.676 202.481C303.456 199.569 303.653 196.532 303.258 193.543C302.651 186.822 301.308 180.068 300.19 173.41C298.258 161.752 294.909 149.635 284.813 142.456C282.228 140.541 279.18 139.348 275.982 138.998C272.784 138.648 269.551 139.155 266.613 140.466C263.552 141.594 260.751 143.329 258.378 145.568C256.005 147.806 254.11 150.502 252.807 153.492C252.447 154.837 252.631 156.269 253.318 157.479C254.005 158.69 255.141 159.581 256.48 159.961C257.824 160.301 259.247 160.109 260.452 159.425C261.658 158.74 262.552 157.617 262.949 156.289C263.966 153.622 267.989 151.226 270.654 150.093C272.111 149.455 273.721 149.252 275.29 149.508C276.859 149.764 278.321 150.469 279.499 151.538C286.292 156.606 288.236 166.089 289.663 173.947C290.601 179.119 291.304 184.33 292.165 189.507C292.834 193.528 293.57 198.345 291.821 201.963C291.058 203.389 289.957 204.606 288.615 205.51C287.273 206.413 285.731 206.974 284.123 207.145C283.148 207.352 282.132 207.217 281.244 206.765C280.355 206.313 279.649 205.57 279.242 204.66C277.254 201.166 276.085 197.266 275.822 193.254C275.044 187.254 273.761 181.331 271.986 175.547C270.141 169.045 259.988 171.808 261.842 178.343L261.84 178.352Z" fill="#211715"/>
<path d="M261.603 151.178C256.453 146.727 250.681 142.461 243.706 141.724C237.436 141.067 231.543 144.31 226.983 148.364C218.362 156.034 216.543 169.402 214.965 180.193C214.478 183.513 214.06 186.846 213.869 190.197C213.801 191.33 213.801 192.469 213.725 193.602C213.709 193.839 213.681 194.074 213.665 194.31C213.65 194.547 213.613 194.821 213.58 195.077C213.668 194.42 213.683 194.308 213.622 194.716C212.959 198.47 212.094 202.185 211.031 205.846C208.358 215.302 205.138 224.594 201.389 233.677C198.607 240.112 195.324 246.319 191.571 252.241C188.043 258.04 197.138 263.332 200.655 257.551C203.62 252.919 206.297 248.109 208.671 243.149C212.433 234.725 215.729 226.1 218.544 217.314C221.26 209.877 223.154 202.164 224.191 194.315C225.179 183.756 225.826 172.781 229.683 162.758C231.338 158.465 234.582 154.974 238.742 153.008C244.267 150.223 250.199 155.199 254.181 158.629C259.28 163.036 266.751 155.627 261.619 151.191L261.603 151.178Z" fill="#211715"/>
<path d="M238.611 176.5C238.654 186.318 249.222 190.561 256.942 193.414C257.762 193.716 258.581 194.014 259.396 194.326C259.745 194.457 260.087 194.599 260.433 194.735C260.987 194.954 258.949 194.06 259.776 194.461L260.198 194.661C261.403 195.365 262.837 195.562 264.187 195.208C265.536 194.855 266.69 193.979 267.394 192.775C268.098 191.571 268.295 190.136 267.941 188.787C267.588 187.437 266.713 186.284 265.508 185.579C262.598 184.157 259.46 183.235 256.466 182.014C256.274 181.935 256.083 181.841 255.886 181.773C256.137 181.895 256.394 182.003 256.657 182.097L256.366 181.97C255.943 181.786 255.524 181.595 255.108 181.398C254.279 181.006 253.464 180.587 252.673 180.127C251.959 179.713 251.279 179.077 250.543 178.729C250.806 178.854 251.639 179.606 250.981 179.062C250.832 178.939 250.685 178.812 250.543 178.683C250.236 178.411 249.944 178.124 249.666 177.822C249.587 177.734 249.355 177.357 249.25 177.335C249.25 177.335 249.98 178.35 249.8 178.041C249.741 177.938 249.662 177.846 249.596 177.747C249.377 177.401 249.204 177.031 248.998 176.673C248.818 176.364 249.355 177.55 249.36 177.53C249.377 177.46 249.265 177.276 249.243 177.202C249.191 177.007 249.127 176.814 249.083 176.614C249.064 176.529 249.053 176.441 249.031 176.356C248.873 175.755 249.151 177.213 249.143 177.232C249.164 176.99 249.153 176.746 249.11 176.507C249.11 175.112 248.556 173.774 247.569 172.788C246.583 171.802 245.245 171.247 243.85 171.247C242.455 171.247 241.118 171.802 240.131 172.788C239.145 173.774 238.591 175.112 238.591 176.507L238.611 176.5Z" fill="#211715"/>
<path d="M219.196 484.95C221.988 486.98 225.562 484.979 226.95 482.358C227.745 480.673 228.379 478.916 228.843 477.112C230.482 471.692 231.863 466.192 233.252 460.707C236.776 446.8 240.074 432.838 243.405 418.885C249.335 394.045 255.811 369.328 262.002 344.551C265.664 329.899 269.372 315.258 272.856 300.565C273.184 299.221 272.986 297.804 272.303 296.601C271.621 295.399 270.505 294.502 269.183 294.095C241.646 283.32 214.178 272.223 186.042 263.071C184.925 262.765 183.738 262.835 182.664 263.271C181.591 263.707 180.691 264.484 180.103 265.482C169.317 289.94 157.985 314.509 149.811 339.978C142.36 363.168 134.359 386.167 127.791 409.631C126.154 415.477 124.579 421.353 123.325 427.296C121.559 435.689 119.196 443.824 116.768 452.048C115.353 456.85 113.994 461.675 112.992 466.582C112.017 471.361 111.588 476.209 110.919 481.034C109.359 489.704 108.384 498.469 108 507.27C107.945 525.641 116.606 543.712 129.562 556.519C135.975 562.867 143.553 567.915 151.882 571.388C160.567 574.849 169.878 576.463 179.222 576.128C190.642 575.753 202.003 574.338 213.165 571.898C221.743 570.165 230.296 568.293 238.678 565.762C253.955 561.16 268.85 555.408 284.008 550.444C286.57 549.607 289.138 548.792 291.744 548.101C298.281 546.366 295.507 536.217 288.948 537.957C275.225 541.599 261.943 547.052 248.494 551.568C231.748 557.269 214.529 561.468 197.039 564.116C187.357 565.543 176.772 566.654 167.06 564.934C158.994 563.463 151.347 560.247 144.654 555.511C131.287 546.193 120.868 530.27 118.879 513.967C118.245 506.167 118.65 498.318 120.084 490.624C121.097 481.351 122.612 472.14 124.622 463.032C127.011 453.79 130.292 444.781 132.38 435.463C133.656 429.781 134.791 424.098 136.29 418.464C142.77 394.014 150.972 370.033 158.892 346.033C166.781 322.146 176.783 299.015 186.899 275.99L189.189 270.789L183.25 273.2C211.384 282.351 238.854 293.451 266.391 304.226L262.716 297.768C256.105 325.643 248.965 353.4 241.972 381.179C236.441 403.148 231.186 425.172 225.786 447.172C224.033 454.321 222.26 461.471 220.329 468.576C219.694 470.916 219.052 473.259 218.313 475.571C218.017 476.3 217.761 477.045 217.546 477.802C217.461 478.24 218.285 476.459 217.735 477.333C217.185 478.207 219.317 475.876 219.286 475.891L221.94 475.172L224.508 475.869C223.302 475.173 221.871 474.98 220.524 475.331C219.176 475.683 218.022 476.551 217.31 477.747C216.636 478.958 216.456 480.383 216.808 481.723C217.159 483.064 218.015 484.217 219.196 484.942V484.95Z" fill="#211715"/>
<path d="M430.143 292.914C437.07 296.491 444.784 298.272 452.577 298.095C460.561 298.042 468.689 296.497 475.088 291.52C476.068 290.531 476.617 289.194 476.617 287.802C476.617 286.409 476.068 285.072 475.088 284.083C474.085 283.127 472.754 282.595 471.369 282.595C469.984 282.595 468.653 283.127 467.65 284.083C469.206 282.869 467.856 283.896 467.457 284.151C467.001 284.444 466.53 284.714 466.05 284.966C465.719 285.141 464.067 285.829 465.378 285.332C464.733 285.577 464.093 285.825 463.436 286.037C459.694 287.229 455.771 287.752 451.848 287.585C448.105 287.686 444.372 287.184 440.789 286.097C440.077 285.878 439.385 285.628 438.684 285.389C438.464 285.31 438.245 285.192 438.004 285.124C439.297 285.503 438.375 285.288 438.033 285.124C437.156 284.714 436.304 284.287 435.451 283.835C434.24 283.161 432.815 282.981 431.475 283.333C430.134 283.684 428.981 284.54 428.257 285.722C427.567 286.93 427.379 288.36 427.731 289.705C428.084 291.051 428.95 292.204 430.143 292.919V292.914Z" fill="#211715"/>
<path d="M450.204 239.675C451.252 243.461 452.091 247.301 452.717 251.178L452.529 249.78C452.604 250.306 452.618 250.838 452.573 251.367L452.761 249.969C452.726 250.212 452.667 250.451 452.586 250.683L453.116 249.427C453.046 249.587 452.961 249.74 452.864 249.885L453.686 248.822C453.574 248.959 453.449 249.083 453.311 249.193L454.374 248.369C454.083 248.551 453.779 248.712 453.465 248.851L454.72 248.321C454.228 248.528 453.713 248.675 453.186 248.759L454.584 248.57C454.106 248.627 453.623 248.627 453.145 248.57L454.543 248.759C453.999 248.682 453.465 248.551 452.921 248.476C451.551 248.157 450.111 248.346 448.869 249.006C448.273 249.355 447.75 249.818 447.333 250.368C446.915 250.918 446.61 251.546 446.435 252.214C446.259 252.882 446.218 253.579 446.312 254.263C446.406 254.948 446.633 255.607 446.982 256.203C447.316 256.796 447.767 257.316 448.307 257.73C448.847 258.144 449.465 258.445 450.125 258.614C451.306 258.774 452.452 259.074 453.651 259.127C455.431 259.14 457.188 258.726 458.774 257.919C459.768 257.475 460.65 256.813 461.353 255.982C462.057 255.151 462.565 254.173 462.84 253.12C463.197 251.388 463.179 249.6 462.785 247.876C462.158 244.17 461.301 240.497 460.348 236.864C459.977 235.519 459.087 234.376 457.874 233.687C456.661 232.999 455.224 232.82 453.879 233.191C452.534 233.562 451.391 234.452 450.703 235.665C450.014 236.878 449.835 238.315 450.206 239.66L450.204 239.675Z" fill="#211715"/>
<path d="M388.764 207.268C386.844 213.512 388.106 227.868 399.923 229.093C415.552 229.001 416.385 211.638 411.123 203.475C406.815 196.791 394.148 194.012 388.764 207.268Z" fill="#211715"/>
<path d="M513.935 207.268C515.857 213.512 514.606 227.868 502.779 229.093C487.149 228.999 486.317 211.638 491.578 203.475C495.887 196.791 508.553 194.012 513.935 207.268Z" fill="#211715"/>
</g>
<defs>
<clipPath id="clip0_645_123">
<rect width="800" height="800" fill="white"/>
</clipPath>
</defs>
</svg>
