<svg width="900" height="900" viewBox="0 0 900 900" fill="none" xmlns="http://www.w3.org/2000/svg">
<rect x="2" y="2" width="896" height="896" rx="448" fill="white"/>
<rect x="2" y="2" width="896" height="896" rx="448" stroke="black" stroke-width="4"/>
<path d="M368.285 450.396C369.463 450.396 370.61 450.555 371.773 450.567C380.98 450.789 389.982 451.746 398.687 453.568C414.696 456.932 429.669 463.014 443.323 471.121C436.347 445.368 415.859 429.811 390.516 420.876C387.028 419.647 383.446 418.568 379.786 417.573C361.278 412.547 341.026 410.461 321.968 410.142C295.572 409.688 271.55 412.528 257.755 415.407C257.755 415.407 257.535 415.455 257.441 415.468C257.048 415.567 256.671 415.641 256.31 415.719C248.108 417.493 203.221 426.669 173.212 422.918C172.269 422.789 171.327 422.698 170.4 422.538C169.3 422.348 168.231 422.145 167.179 421.925C127.287 413.664 97.2787 378.436 97.2787 336.111C97.2787 331.838 97.687 327.658 98.2841 323.558C87.129 353.427 79.7446 385.113 76.6809 418.076C75.9896 425.46 75.5656 432.923 75.3142 440.435C75.1728 444.565 75 448.702 75 452.863C75 636.386 208.688 788.614 383.98 817.65C299.469 793.739 235.131 721.325 222.451 632.065C222.907 632.256 223.394 632.427 223.866 632.617C222.153 625.025 221.006 617.237 220.472 609.271C220.33 606.08 220.126 602.907 220.126 599.684C220.126 583.783 222.64 568.483 227.212 554.121C246.333 493.964 302.25 450.396 368.285 450.396Z" fill="#2E3192"/>
<path d="M185.042 296.786C157.374 296.786 134.954 319.206 134.954 346.874C134.954 374.538 157.374 396.965 185.042 396.965C212.694 396.965 235.13 374.538 235.13 346.874C235.13 319.206 212.694 296.786 185.042 296.786Z" fill="#2E3192"/>
<path d="M824.686 440.435C824.435 432.923 824.01 425.46 823.319 418.076C820.239 385.113 812.871 353.427 801.716 323.558C802.313 327.658 802.721 331.838 802.721 336.111C802.721 378.436 772.697 413.664 732.821 421.925C731.753 422.145 730.7 422.348 729.585 422.538C728.658 422.698 727.715 422.789 726.788 422.918C696.764 426.669 651.892 417.493 643.691 415.719C643.313 415.641 642.952 415.567 642.559 415.468C642.465 415.455 642.229 415.407 642.229 415.407C628.45 412.528 604.428 409.688 578.033 410.142C558.959 410.461 538.722 412.547 520.199 417.573C516.554 418.568 512.956 419.647 509.468 420.876C484.141 429.811 463.653 445.368 456.678 471.121C470.331 463.014 485.304 456.932 501.298 453.568C510.002 451.746 519.021 450.789 528.212 450.567C529.39 450.555 530.521 450.396 531.7 450.396C597.75 450.396 653.652 493.964 672.788 554.121C677.36 568.483 679.874 583.783 679.874 599.684C679.874 602.907 679.654 606.08 679.528 609.271C678.994 617.237 677.831 625.025 676.134 632.617C676.606 632.427 677.077 632.256 677.549 632.065C664.87 721.325 600.531 793.739 516.02 817.65C691.312 788.614 825 636.386 825 452.863C825 448.702 824.827 444.565 824.686 440.435Z" fill="#2E3192"/>
<path d="M664.869 346.874C664.869 374.538 687.305 396.965 714.957 396.965C742.625 396.965 765.045 374.538 765.045 346.874C765.045 319.206 742.625 296.786 714.957 296.786C687.305 296.786 664.869 319.206 664.869 346.874Z" fill="#2E3192"/>
<path d="M450 183.176C477.668 183.176 500.088 160.74 500.088 133.088C500.088 106.002 478.579 83.9899 451.713 83.0786C451.131 83.0629 450.581 83 450 83C449.419 83 448.853 83.0629 448.287 83.0786C421.421 83.9899 399.912 106.002 399.912 133.088C399.912 160.74 422.332 183.176 450 183.176Z" fill="#BF1B2C"/>
<path d="M225.216 239.705C249.381 239.705 272.241 245.283 292.65 255.166C300.945 259.439 332.023 277.287 350.767 311.931C361.372 331.822 370.924 356.077 379.502 383.008C379.989 384.518 380.477 386.027 380.948 387.55C382.142 391.398 383.305 395.355 384.467 399.302C384.546 399.333 384.656 399.351 384.734 399.382C388.835 400.499 392.889 401.707 396.801 403.089C420.619 411.491 438.515 424.613 450 441.49C461.485 424.613 479.364 411.491 503.198 403.089C507.126 401.707 511.164 400.48 515.265 399.382C515.343 399.351 515.453 399.333 515.532 399.302C516.695 395.355 517.841 391.398 519.051 387.55C519.523 386.027 520.01 384.518 520.497 383.008C529.075 356.077 538.628 331.822 549.233 311.931C567.977 277.287 599.054 259.439 607.334 255.166C627.758 245.283 650.619 239.705 674.783 239.705C693.747 239.705 711.846 243.288 728.657 249.525C749.993 257.444 769.224 269.762 784.998 285.63C783.961 283.572 782.924 281.498 781.84 279.455C781.809 279.393 781.777 279.314 781.746 279.251C781.683 279.188 781.62 279.125 781.558 279.063C739.278 217.867 669.001 177.771 589.376 177.771C551.857 177.771 516.396 186.68 484.958 202.485C484.942 202.501 484.91 202.501 484.895 202.517C484.863 202.532 484.847 202.548 484.816 202.564C474.337 207.827 462.522 210.781 450 210.781C437.478 210.781 425.647 207.827 415.183 202.564C415.152 202.548 415.136 202.532 415.105 202.517C415.089 202.501 415.057 202.501 415.026 202.485C383.603 186.68 348.143 177.771 310.624 177.771C230.998 177.771 160.721 217.867 118.426 279.063C118.379 279.125 118.316 279.188 118.253 279.251C118.222 279.314 118.19 279.393 118.159 279.455C117.075 281.498 116.038 283.572 114.985 285.63C130.775 269.762 150.006 257.444 171.342 249.525C188.153 243.288 206.237 239.705 225.216 239.705Z" fill="#BF1B2C"/>
<path d="M472.797 483.721C450.141 496.694 427.076 483.721 427.076 483.721L427.061 483.764C418.75 480.639 411.459 476.54 403.352 474.202C413.848 522.508 422.08 572.631 428.349 617.391C434.697 662.69 439.033 702.471 441.657 729.291H458.327C460.966 702.471 465.302 662.69 471.65 617.391C477.919 572.631 486.151 522.508 496.647 474.214C488.492 476.54 481.25 480.639 472.812 483.751C472.812 483.732 472.797 483.721 472.797 483.721Z" fill="#BF1B2C"/>
</svg>
