<svg width="1001" height="1003" viewBox="0 0 1001 1003" fill="none" xmlns="http://www.w3.org/2000/svg">
<path d="M459.773 26.5865C379.364 34.1579 302.136 61.5664 235.659 106.086C166.002 152.877 111.791 214.812 74.3883 290.828C38.8027 363.059 23.2056 434.836 25.6285 514.942C26.5371 546.287 29.2628 570.062 35.017 598.227C66.6655 751.927 177.511 883.669 325.002 942.726C384.513 966.5 445.387 977.251 510.501 975.434C557.292 974.223 592.423 969.074 633.46 957.263C691.154 940.606 750.06 910.017 797.457 872.312C813.054 859.743 858.482 814.618 871.051 798.869C925.565 731.484 959.939 650.318 972.659 559.31C976.293 533.113 976.293 467.848 972.659 441.499C957.819 335.802 914.662 245.703 842.885 171.503C765.354 91.0949 669.652 43.0922 559.412 28.7065C537.455 25.9808 480.215 24.7694 459.773 26.5865ZM571.072 47.635C657.689 61.5664 733.251 96.8491 799.728 153.937C871.051 215.266 921.325 296.583 944.948 388.651C958.425 441.348 962.362 516.456 954.336 566.124C939.042 659.707 904.516 734.361 845.005 801.898C772.926 883.82 681.463 934.7 572.586 953.326C545.935 957.869 490.21 960.291 465.981 958.02C377.093 949.389 301.227 921.526 231.571 871.706C200.528 849.295 159.037 808.561 135.111 776.609C86.5025 711.798 58.0341 642.596 46.2227 560.673C42.1341 532.962 41.8313 475.116 45.617 445.588C55.6112 364.422 85.1397 291.737 135.565 223.746C152.828 200.577 197.045 155.755 219.759 138.492C248.076 116.838 281.693 96.6977 311.373 83.372C357.407 62.7778 393.901 52.7836 454.473 44.1522C457.047 43.8493 479.761 43.6979 505.201 44.0008C543.361 44.3036 554.869 44.9093 571.072 47.635Z" fill="#B70031"/>
<path d="M460.984 81.1005C456.29 81.5547 451.898 82.3119 451.293 82.9176C450.384 83.9776 453.11 140.46 454.624 147.426C455.23 150.303 456.138 150.909 460.227 150.454L465.073 150L465.224 137.129C465.527 120.017 465.375 120.472 469.313 120.472C474.31 120.472 477.49 124.409 482.335 136.675C486.575 146.972 486.575 146.972 492.784 147.426C496.267 147.729 499.144 147.426 499.144 146.82C499.144 144.246 485.818 117.897 483.395 116.08C481.124 114.112 481.275 113.809 485.515 111.235C491.118 107.752 493.692 101.846 492.481 94.8804C490.664 83.6747 480.821 79.2833 460.984 81.1005ZM477.944 93.2147C484.304 99.5747 479.912 109.266 470.221 110.78C465.375 111.537 464.618 111.235 463.861 108.206C463.255 106.237 462.801 101.392 462.801 97.3032V90.1861H468.858C472.947 90.1861 475.975 91.2461 477.944 93.2147Z" fill="#B70031"/>
<path d="M519.739 85.1891C518.225 94.8805 512.773 141.217 512.773 144.549C512.773 147.123 513.682 147.729 517.771 147.729H522.768L524.736 131.375C528.219 101.392 529.733 92.3063 531.096 95.4862C531.853 97.1519 534.125 109.72 536.245 123.5C539.122 141.823 540.788 148.94 542.605 150.455C547.602 154.089 548.056 153.332 564.259 118.2C573.95 97.0005 574.859 98.0605 571.225 125.923C569.862 135.766 568.802 146.366 568.802 149.546C568.802 154.846 569.105 155.3 573.345 155.3C576.827 155.3 578.039 154.543 578.493 151.817C580.007 145.457 585.459 98.2119 585.459 92.7605C585.459 86.8548 585.61 87.0063 573.95 85.0377L569.256 84.2806L559.11 108.509C553.508 121.683 548.359 132.586 547.753 132.586C547.148 132.586 544.876 121.229 542.605 107.298C540.333 92.7605 537.759 81.5549 536.699 80.7977C535.639 80.192 531.551 79.5863 527.613 79.5863C520.648 79.5863 520.648 79.5863 519.739 85.1891Z" fill="#B70031"/>
<path d="M393.901 92.3065C383.452 96.8493 377.092 110.024 378.758 123.198C381.332 141.521 388.298 153.181 399.958 158.48C407.984 162.266 410.861 162.115 420.098 157.42C430.546 152.272 434.029 145.761 434.029 131.375C434.029 102.452 414.344 83.3722 393.901 92.3065ZM410.406 102.452C421.915 111.538 427.064 139.552 418.735 147.881C414.646 151.969 405.258 151.818 401.018 147.275C394.961 140.915 391.175 129.558 391.024 117.898C390.872 108.509 391.327 106.541 394.507 103.209C399.049 98.3636 404.955 98.0607 410.406 102.452Z" fill="#B70031"/>
<path d="M622.86 112.446C610.746 127.74 588.486 157.723 588.486 158.783C588.486 159.237 590.606 160.146 593.332 160.6C597.723 161.66 598.783 161.206 603.932 155.149L609.535 148.637L618.318 151.363C634.52 156.512 633.46 155.452 632.4 165.143C631.34 174.229 632.855 176.5 639.669 176.5C642.243 176.5 642.698 174.986 643.606 164.84C644.06 158.48 644.515 142.883 644.515 130.163C644.515 104.723 643.758 102.301 635.429 102.301C631.795 102.301 629.523 104.118 622.86 112.446ZM634.672 129.558C633.915 140.006 633.006 145.155 631.643 145.76C629.22 146.518 615.743 140.915 615.743 139.098C615.895 137.129 634.218 112.598 634.975 113.506C635.429 113.96 635.278 121.078 634.672 129.558Z" fill="#B70031"/>
<path d="M339.691 110.175C337.42 111.992 338.177 114.263 347.717 135.463C353.623 148.335 358.014 159.086 357.56 159.54C356.954 160.297 354.228 158.026 329.849 135.917C322.126 129.103 315.009 123.5 313.797 123.5C312.737 123.5 309.254 124.56 306.377 125.772L300.926 128.043L312.434 152.575C318.643 166.203 325.154 180.134 326.669 183.617C329.546 190.432 331.666 191.492 336.208 188.16C338.934 186.192 338.48 184.829 328.94 163.023C323.337 150.303 319.097 139.552 319.4 139.249C319.703 138.795 326.669 144.549 334.846 151.817C342.871 159.086 352.411 167.717 356.046 170.897L362.708 176.652L368.766 173.472C376.034 169.837 377.245 174.683 359.074 134.403C346.96 107.752 345.446 105.935 339.691 110.175Z" fill="#B70031"/>
<path d="M667.38 152.12L652.086 182.254L655.569 184.525C657.386 185.737 663.897 189.22 669.954 192.248C678.737 196.64 681.614 197.548 683.28 196.034C687.066 192.854 685.552 190.431 676.314 185.283C671.317 182.557 667.229 179.68 667.229 178.923C667.229 177.56 683.886 145.306 691.003 133.04L694.637 126.68L690.094 124.409C687.672 123.046 684.946 121.986 684.189 121.986C683.432 121.986 675.86 135.463 667.38 152.12Z" fill="#B70031"/>
<path d="M745.973 180.589C728.256 200.729 721.744 210.723 721.744 217.992C721.744 226.017 727.347 234.497 735.373 238.586C742.338 242.22 747.638 242.371 753.241 239.494C757.633 237.223 777.47 217.083 787.464 204.817L793.37 197.549L789.281 193.46L785.192 189.372L777.47 198.457C773.078 203.454 764.447 212.843 758.087 219.203C745.064 232.529 740.824 233.892 735.524 227.077C729.618 219.506 730.224 218.294 752.938 191.189L767.173 174.38L763.841 170.897C762.024 168.929 759.904 167.415 758.995 167.566C758.087 167.566 752.181 173.472 745.973 180.589Z" fill="#B70031"/>
<path d="M231.72 175.591L227.48 179.074L232.629 192.551C241.412 216.477 252.466 243.885 253.678 245.097C254.283 245.703 256.555 244.794 258.826 243.128L262.763 240.1L259.583 232.377L256.403 224.806L261.552 219.506C264.429 216.477 268.517 212.691 270.789 211.177C274.877 208.148 274.877 208.148 280.632 211.783C283.812 213.751 287.143 215.72 288.052 216.326C288.96 216.78 291.837 215.72 294.563 213.751L299.409 210.117L269.729 191.037C253.526 180.589 239.292 171.957 238.08 171.957C236.869 171.957 233.992 173.623 231.72 175.591ZM250.498 190.129C268.669 202.697 268.366 201.94 258.372 209.814L252.315 214.66L247.015 203.151C241.412 190.734 239.292 184.071 240.806 184.071C241.412 184.071 245.803 186.797 250.498 190.129Z" fill="#B70031"/>
<path d="M469.616 180.589C411.922 185.586 350.139 210.268 302.894 247.065C287.902 258.725 262.008 284.317 249.137 300.368C214.46 343.222 189.777 400.613 182.054 456.49C177.208 490.41 179.48 540.23 187.203 572.636C218.851 706.195 326.516 802.655 463.559 820.22C481.276 822.492 520.344 822.492 537.758 820.22C558.201 817.495 583.944 811.589 604.387 804.623C706.449 770.4 785.646 684.541 812.6 579.45C820.929 546.741 824.109 491.167 819.566 459.67C806.24 368.208 759.449 290.374 686.461 237.98C678.889 232.528 660.264 221.928 645.272 214.357C606.052 194.671 573.95 184.98 535.638 181.194C521.253 179.68 483.85 179.377 469.616 180.589ZM528.067 190.128C587.578 196.034 644.212 218.143 690.701 253.425C705.389 264.782 734.766 294.159 746.729 309.908C820.777 406.519 833.043 531.901 778.832 640.627C764.598 669.398 748.849 691.355 724.772 716.189C675.709 766.766 618.47 796.749 547.753 809.015C527.159 812.649 473.704 812.649 452.959 809.015C397.385 799.323 346.959 776.912 305.317 743.295C282.148 724.518 253.528 692.566 237.023 667.127C204.465 616.853 186.9 551.587 189.171 489.956C190.231 463.002 192.957 444.982 199.468 420.299C222.637 333.228 284.571 258.725 366.645 219.506C417.07 195.277 474.613 184.829 528.067 190.128Z" fill="#B70031"/>
<path d="M471.734 209.814C430.848 213.448 383.754 229.197 349.683 250.397C284.115 291.131 237.778 352.762 218.244 425.296C207.341 465.122 205.675 517.819 213.852 557.796C229.449 634.267 274.575 700.592 341.052 745.263C445.688 815.375 588.939 807.197 686.913 725.426C741.427 679.998 775.801 620.032 789.278 547.196C793.367 525.239 793.064 473.602 788.673 450.282C777.618 391.528 753.541 343.979 712.656 300.217C672.982 257.817 616.196 225.865 559.865 214.357C534.577 209.208 499.294 207.391 471.734 209.814ZM513.225 232.377L519.585 238.434L520.039 262.662L520.645 286.891L562.439 315.965C585.608 332.016 606.051 346.402 608.171 348.068L611.956 350.945L613.016 345.796C613.622 343.071 614.531 337.468 614.985 333.379C616.499 322.325 621.951 317.328 632.55 317.328C639.819 317.328 641.182 317.934 646.33 322.931L652.085 328.534V353.822V379.111L663.29 386.833C689.942 405.156 695.544 411.516 693.879 421.056C691.759 431.807 679.645 439.682 670.862 435.745C664.956 433.019 626.19 406.67 571.676 368.511C544.419 349.582 521.857 333.985 521.251 333.985C520.797 333.985 520.342 339.436 520.342 345.948C520.342 356.396 520.797 358.516 523.825 361.848C525.642 363.816 556.079 385.773 591.513 410.608C661.473 459.67 687.973 478.75 691.456 483.142C692.667 484.656 693.727 488.744 693.727 492.379C693.727 497.679 692.819 499.799 688.579 504.19C681.007 512.064 676.465 512.367 664.502 506.31C658.899 503.584 653.902 501.01 653.296 500.859C652.539 500.556 652.085 506.31 652.085 513.73L652.236 527.056L667.985 538.261C686.307 551.133 694.484 559.461 694.484 565.064C694.484 572.333 690.093 578.995 682.976 582.327C675.405 586.113 670.256 585.204 660.413 578.39C657.385 576.421 654.356 574.756 653.599 574.756C652.69 574.756 652.085 580.358 652.085 587.475V600.347L667.833 611.704C676.465 618.064 686.156 626.09 689.185 629.421C694.182 635.024 694.787 636.387 694.03 641.687C692.819 650.469 683.127 659.555 674.95 659.555C671.316 659.555 649.965 645.472 590.756 604.133C531.397 562.641 522.614 556.584 521.402 556.584C520.797 556.584 520.342 562.338 520.342 569.304V582.175L585.154 627.301C620.739 652.287 653.902 675.455 658.899 678.787C671.77 687.418 673.739 690.144 674.496 699.532C675.102 706.801 674.647 708.012 670.256 713.009C666.016 717.855 664.502 718.612 658.596 718.612C654.962 718.612 649.813 717.552 647.39 716.189C644.816 714.978 615.591 694.838 582.276 671.518C549.114 648.349 521.554 629.27 521.099 629.27C520.645 629.27 520.342 648.198 520.342 671.215C520.191 694.384 519.585 718.461 518.828 724.669C517.768 734.512 517.011 736.481 512.922 740.115C504.291 747.838 496.568 747.535 487.482 739.206L481.88 734.058L480.668 682.269C480.062 653.801 479.457 630.178 479.154 630.027C478.851 629.724 452.2 648.198 419.643 671.064C387.237 693.929 357.103 714.372 352.712 716.492C343.02 721.338 337.569 720.581 331.057 713.161C327.423 708.921 326.515 706.498 326.515 700.744C326.515 696.806 327.575 692.112 328.786 690.295C330.755 687.569 370.883 658.949 460.983 596.107L480.971 582.024V569.304C480.971 562.338 480.365 556.584 479.608 556.584C478.851 556.584 455.228 572.787 426.911 592.473C338.174 654.709 332.875 658.041 325.757 658.041C318.489 658.041 312.583 654.255 309.1 647.441C303.497 636.69 307.283 630.784 329.392 614.884L347.26 602.013L348.169 591.715C348.774 586.113 349.229 579.753 349.229 577.481V573.393L339.84 578.995C328.786 585.507 321.82 586.113 314.703 581.115C309.252 577.178 305.92 568.244 307.435 561.733C308.797 556.433 314.855 550.981 333.935 537.656L349.077 527.056L349.229 514.79C349.229 508.127 348.926 502.222 348.472 501.767C347.866 501.313 342.869 503.282 337.114 506.31C327.272 511.307 326.212 511.61 320.609 509.793C310.009 506.764 304.103 493.742 308.797 484.353C311.069 479.962 324.092 470.573 437.057 391.073C483.545 358.365 482.485 359.576 479.911 342.616L478.7 334.136L436.754 363.513C347.866 425.75 330.906 436.956 325.303 436.956C316.823 436.956 306.829 427.265 306.829 419.088C306.829 410.153 317.277 399.705 342.869 383.199L349.229 378.959V352.762V326.565L354.832 322.022C359.526 318.085 361.797 317.328 368.309 317.328C375.577 317.328 376.637 317.782 381.634 323.385C386.783 329.139 387.086 330.048 387.086 340.194C387.086 348.371 387.54 350.794 389.054 350.188C390.114 349.734 406.317 338.831 424.943 325.656C443.568 312.634 463.708 298.551 469.765 294.462L480.668 287.194L481.274 263.268C481.577 243.734 482.182 238.737 484.302 235.708C488.24 230.105 494.751 226.471 501.111 226.471C505.654 226.471 508.077 227.683 513.225 232.377Z" fill="#B70031"/>
<path d="M520.344 420.602V434.685L566.226 466.636L611.958 498.739L613.169 488.29C614.078 480.719 613.775 476.63 612.412 473.753C611.201 471.027 597.572 460.579 574.706 444.528C554.869 430.748 534.729 416.665 529.581 413.031L520.344 406.519V420.602Z" fill="#B70031"/>
<path d="M457.351 423.025C397.991 463.759 388.754 470.876 387.845 475.57C386.482 482.385 387.542 498.285 389.36 497.83C390.268 497.679 411.165 483.293 435.848 466.03L480.973 434.685V423.328C480.973 417.119 480.368 411.214 479.762 410.154C479.005 409.094 471.585 413.334 457.351 423.025Z" fill="#B70031"/>
<path d="M433.726 513.579L387.086 546.136V559.764C387.086 567.336 387.692 573.241 388.449 572.939C389.206 572.636 410.254 558.25 435.391 540.684L480.971 509.036V494.953C480.971 487.23 480.82 480.87 480.668 480.87C480.366 480.87 459.317 495.559 433.726 513.579Z" fill="#B70031"/>
<path d="M520.344 494.196C520.344 503.585 520.949 506.916 523.069 509.339C526.401 513.276 611.201 573.241 613.321 573.241C613.775 573.241 614.229 567.184 614.229 559.764V546.287L569.255 514.639C544.421 497.376 523.372 482.99 522.312 482.688C520.798 482.233 520.344 485.262 520.344 494.196Z" fill="#B70031"/>
<path d="M190.08 213.751L186.446 217.688L189.626 220.111C191.291 221.626 200.226 229.046 209.614 236.92C225.363 250.094 229.451 254.637 224.757 252.971C223.697 252.668 211.28 248.883 197.197 244.491L171.757 236.768L166.457 241.917L161.309 247.217L179.177 262.36C215.217 293.1 214.157 292.342 217.488 289.314C219.154 287.8 220.517 285.831 220.366 284.922C220.366 284.014 214.308 278.108 206.737 271.9C191.594 259.331 181.297 249.185 183.417 249.185C184.326 249.185 196.591 252.971 210.674 257.363L236.417 265.54L241.414 260.845C243.988 258.271 246.26 255.697 246.26 255.243C246.26 254.485 206.434 219.96 197.046 212.54C193.866 209.966 193.563 210.117 190.08 213.751Z" fill="#B70031"/>
<path d="M800.485 228.137C775.196 248.429 761.113 260.694 761.113 262.209C761.113 263.117 762.325 264.934 763.839 266.297C766.262 268.569 767.776 267.66 786.856 252.971C798.062 244.34 807.45 237.526 807.753 237.677C808.056 237.98 802.302 249.64 795.185 263.42L782.01 288.557L786.099 293.857C789.127 298.097 790.642 298.854 792.61 297.794C796.245 295.826 842.279 258.877 843.49 257.06C843.944 256.303 843.036 253.88 841.219 251.76L838.19 247.823L822.744 260.24C814.264 267.206 804.725 274.777 801.545 277.2C795.942 281.44 795.942 281.44 797.305 277.806C798.062 275.837 804.119 264.026 810.782 251.457L822.896 228.894L819.11 223.897C816.99 221.172 814.567 218.9 813.507 218.9C812.599 218.9 806.693 223.14 800.485 228.137Z" fill="#B70031"/>
<path d="M144.351 272.808C142.836 274.777 141.776 277.2 142.079 278.108C142.382 278.865 155.102 287.648 170.548 297.642L198.562 315.814L202.045 311.877C203.862 309.757 205.376 307.637 205.376 307.031C205.376 306.122 150.862 270.234 148.136 269.325C147.531 269.174 145.865 270.688 144.351 272.808Z" fill="#B70031"/>
<path d="M828.501 296.128C813.51 305.365 801.093 313.694 800.79 314.754C800.487 315.965 801.547 318.388 803.213 320.205L805.938 323.688L834.255 306.577C856.061 293.251 862.572 288.557 862.572 286.134C862.572 282.803 859.998 279.471 857.272 279.471C856.364 279.471 843.341 287.043 828.501 296.128Z" fill="#B70031"/>
<path d="M124.967 305.668L122.089 310.514L133.749 316.117C140.261 319.297 146.167 322.022 147.075 322.325C148.135 322.779 141.775 339.891 139.504 342.768C139.352 342.919 134.052 340.648 127.692 337.771C121.332 334.894 115.275 332.471 114.064 332.471C112.398 332.471 108.461 338.225 108.461 340.799C108.461 341.859 167.669 370.328 169.789 370.328C171.606 370.328 176.149 361.696 174.938 360.636C174.635 360.334 168.729 357.305 161.915 353.822C154.949 350.339 149.346 346.857 149.346 345.948C149.346 344.282 154.949 332.622 157.221 329.897C158.281 328.685 162.066 329.745 171.455 334.137C178.421 337.317 184.478 340.042 184.932 340.042C186.143 340.042 190.535 330.654 189.626 329.897C188.869 329.139 150.709 310.968 136.021 304.305L127.995 300.822L124.967 305.668Z" fill="#B70031"/>
<path d="M850.456 324.445C817.293 353.217 819.413 350.642 822.29 357.154C823.502 360.334 825.167 362.757 825.924 362.757C827.742 362.757 881.196 355.639 889.524 354.277C893.007 353.822 895.884 352.459 895.884 351.551C895.884 347.917 889.827 343.071 886.344 343.828C882.861 344.585 840.916 350.642 839.25 350.642C836.827 350.642 841.067 346.705 859.693 331.562C870.444 322.78 879.227 314.905 879.227 314.3C879.227 313.543 878.016 310.817 876.501 308.545L873.927 304.154L850.456 324.445Z" fill="#B70031"/>
<path d="M96.9514 372.145C94.9828 376.385 94.0742 381.988 94.0742 388.65C94.0742 397.736 94.5285 399.402 98.6171 404.702C108.006 416.362 128.146 422.873 142.683 418.785C152.98 415.908 159.188 408.942 163.125 395.919C166.608 384.713 166.154 383.199 159.794 381.685C156.008 380.776 155.857 381.079 154.948 387.742C154.04 396.525 150.254 401.976 142.531 405.762C137.534 408.336 135.717 408.488 127.691 406.973C116.334 404.853 109.217 400.159 105.28 391.982L102.251 385.622L105.886 376.536L109.52 367.602L106.34 366.693C100.737 365.179 99.8285 365.633 96.9514 372.145Z" fill="#B70031"/>
<path d="M868.022 383.351C851.365 387.894 837.585 391.831 837.282 392.134C836.525 392.891 842.582 416.665 845.156 422.722C846.67 426.659 847.882 427.416 850.305 426.811C854.09 425.902 854.09 424.085 851.213 411.365C849.85 406.065 849.093 401.522 849.245 401.371C850.002 400.614 866.205 396.071 868.022 396.071C868.93 396.071 871.05 400.462 872.413 405.914C874.836 414.394 875.593 415.756 878.622 415.756C883.467 415.756 883.922 414.242 881.499 405.005C880.287 400.462 879.227 396.071 879.227 395.011C879.227 393.042 893.31 387.894 896.187 388.802C897.096 389.105 899.367 393.799 901.033 399.251C903.607 407.276 904.819 409.094 907.847 409.396C911.33 410.002 911.481 409.699 910.724 403.339C910.27 399.857 908.453 391.831 906.636 385.774C904.213 377.597 902.699 374.871 900.73 375.022C899.367 375.022 884.527 378.808 868.022 383.351Z" fill="#B70031"/>
<path d="M886.799 436.35C877.259 437.41 864.691 439.227 859.088 440.136L848.791 441.802L849.245 446.496C849.7 451.039 850.002 451.342 855.757 451.342C859.088 451.19 865.902 450.887 870.899 450.585C878.774 449.979 879.985 450.13 880.439 452.553C881.499 457.55 876.654 462.093 864.994 467.393C858.331 470.422 853.334 473.602 853.031 475.116C851.971 479.204 853.485 483.899 855.908 483.899C858.785 483.899 875.745 475.419 881.651 470.876L886.497 467.393L892.251 471.936C897.399 476.024 899.065 476.479 904.819 475.873C912.996 474.964 918.296 469.967 918.751 462.699C918.902 459.822 918.902 452.099 918.751 445.587L918.599 433.927L911.482 434.079C907.394 434.23 896.339 435.139 886.799 436.35ZM911.028 452.099C911.028 459.519 906.939 464.213 900.428 464.213C894.068 464.213 889.525 459.216 890.131 453.159C890.585 448.767 891.191 448.162 896.642 447.405C910.574 445.285 911.028 445.436 911.028 452.099Z" fill="#B70031"/>
<path d="M78.1736 466.031C78.1736 469.665 77.7194 479.205 77.1136 487.382L76.2051 502.373L80.5965 501.768C84.3822 501.313 84.9879 500.556 85.4422 496.013C86.1993 487.988 88.0165 486.776 97.7078 487.533C102.402 487.988 115.273 488.745 126.328 489.199L146.316 490.108V484.202V478.296L125.571 477.236C114.062 476.631 100.736 475.873 96.0421 475.268L87.2593 474.359V467.091C87.2593 459.822 87.1079 459.671 82.7165 459.671C78.3251 459.671 78.1736 459.973 78.1736 466.031Z" fill="#B70031"/>
<path d="M855.303 497.831C854.243 498.89 853.486 504.342 853.486 511.913C853.486 524.028 853.638 524.33 858.786 529.328C863.329 533.719 865.146 534.476 871.658 534.476C881.501 534.476 884.832 532.508 892.706 521.605C900.58 510.853 903.912 508.733 908.909 511.005C913.452 512.973 914.815 518.576 912.846 526.299C911.18 533.113 912.24 534.628 917.692 533.265C921.78 532.205 923.143 528.57 923.143 519.03C923.143 506.462 915.572 497.528 904.972 497.528C898.006 497.528 892.252 501.01 886.346 509.188C877.412 521.302 873.778 524.028 869.083 522.362C866.812 521.605 863.935 519.182 862.723 516.91C860.603 513.276 860.603 512.065 862.875 505.25C864.843 499.042 864.995 497.528 863.329 497.528C862.269 497.528 860.452 497.225 859.241 496.771C858.181 496.316 856.363 496.771 855.303 497.831Z" fill="#B70031"/>
<path d="M117.395 519.485C115.123 520.696 111.035 526.147 107.855 532.205C101.646 544.167 98.4663 546.742 92.8635 544.622C88.3207 542.804 87.2607 540.23 87.2607 530.69C87.2607 523.876 86.9578 523.27 83.6264 523.27C78.7807 523.27 77.7207 525.087 77.7207 534.476C77.7207 543.41 80.7493 550.376 86.8064 555.07C90.2892 557.796 92.2578 558.25 97.7092 557.493C106.946 556.282 110.126 553.707 115.578 543.41C121.938 531.599 126.632 527.359 131.629 528.57C137.989 530.236 139.352 533.265 139.049 543.864C138.746 554.01 139.2 554.464 145.409 552.042C148.892 550.83 149.346 549.77 149.346 542.956C149.346 534.476 146.318 525.845 141.472 520.696C138.746 517.819 136.626 517.213 129.812 517.213C125.118 517.365 119.515 518.273 117.395 519.485Z" fill="#B70031"/>
<path d="M849.549 554.313C849.095 557.341 848.792 559.916 849.095 560.219C849.852 560.824 904.517 568.547 909.514 568.85C917.994 569.304 918.6 568.85 918.6 563.701V558.553L885.74 553.859C867.569 551.133 852.275 549.013 851.669 549.013C851.063 549.013 850.155 551.436 849.549 554.313Z" fill="#B70031"/>
<path d="M126.629 575.967C88.0153 599.287 88.6211 598.833 89.681 605.041C90.2868 607.918 91.0439 610.796 91.6496 611.401C92.861 612.764 140.258 617.156 154.341 617.156C164.335 617.156 164.638 617.004 163.578 613.673C161.912 607.918 159.944 606.707 152.069 606.253L144.347 605.798L141.318 594.593L138.289 583.387L141.924 580.207C144.044 578.39 147.224 575.967 149.192 574.756C152.221 572.787 152.524 571.576 151.615 567.487C151.161 564.761 150.101 562.641 149.647 562.641C149.041 562.641 138.744 568.699 126.629 575.967ZM131.324 592.473C132.232 594.896 133.292 598.53 133.747 600.801L134.655 605.041H117.695C108.458 605.041 100.887 604.587 100.887 603.83C100.887 602.467 125.267 588.384 127.841 588.384C128.901 588.384 130.415 590.201 131.324 592.473Z" fill="#B70031"/>
<path d="M842.279 590.201C840.311 597.773 840.916 598.53 851.668 601.104C857.27 602.467 869.839 605.798 879.833 608.373L897.702 613.067L896.793 620.335C895.885 626.544 896.187 627.907 898.762 629.118C903.002 631.39 904.365 628.967 908.756 610.947C913.147 592.473 913.45 588.99 909.967 587.778C906.787 586.567 905.727 587.627 903.456 594.744C902.547 597.924 900.73 600.498 899.519 600.498C897.702 600.498 853.636 589.898 845.762 587.476C844.096 587.021 842.885 587.93 842.279 590.201Z" fill="#B70031"/>
<path d="M161.913 627.453C160.55 628.361 161.156 631.39 164.488 639.87L168.879 651.227L160.248 655.315C155.553 657.587 151.01 659.404 150.405 659.555C149.648 659.555 147.073 655.164 144.65 649.713C142.228 644.261 139.653 639.87 139.048 639.87C138.29 639.87 136.625 640.778 135.111 641.838C132.688 643.655 132.688 644.261 136.322 653.953L140.259 664.25L133.748 667.127C123.602 671.821 122.391 671.367 117.393 660.313C114.971 654.861 112.396 650.47 111.791 650.47C111.033 650.47 109.216 651.378 107.702 652.59C104.825 654.558 104.976 655.164 110.579 667.733C119.059 686.661 118.302 686.055 128.145 682.27C132.688 680.452 146.619 674.547 158.885 668.944C184.779 657.435 183.265 660.313 174.027 638.658C168.728 626.393 166.608 624.424 161.913 627.453Z" fill="#B70031"/>
<path d="M825.016 640.627C823.956 642.747 823.199 645.17 823.199 645.927C823.199 646.684 828.953 650.015 835.919 653.498C847.882 659.101 849.548 660.464 862.722 676.212C870.445 685.298 877.108 692.869 877.713 692.869C878.925 692.869 882.256 685.904 882.256 683.178C882.256 682.118 878.168 676.667 873.17 671.215C868.173 665.764 864.085 660.615 864.085 659.707C864.085 658.798 866.659 658.041 869.99 658.041C873.17 658.041 879.833 657.587 884.83 657.132C893.462 656.224 894.219 655.77 896.49 650.772C897.853 647.895 898.913 645.472 898.61 645.17C898.307 645.018 888.919 645.472 877.713 646.078C855.453 647.29 849.245 646.532 835.919 640.627C831.225 638.507 827.288 636.841 826.985 636.841C826.833 636.841 825.925 638.507 825.016 640.627Z" fill="#B70031"/>
<path d="M219.002 720.581C219.002 723.458 226.119 729.667 227.936 728.455C230.208 727.244 230.056 722.701 227.785 720.429C225.362 718.007 219.002 718.158 219.002 720.581Z" fill="#B70031"/>
<path d="M774.136 721.944C773.682 723.004 773.076 726.941 772.773 730.575C771.713 739.812 769.442 741.478 766.11 735.572C762.779 729.515 761.567 729.515 760.356 735.27C759.75 737.692 758.387 739.812 757.176 739.812C754.299 739.812 752.027 746.021 752.027 754.349C752.027 759.498 753.239 763.132 757.327 769.492C761.113 775.398 762.627 779.486 762.627 783.878C762.627 789.178 763.536 791.146 768.684 796.295C773.379 800.838 775.347 801.898 776.559 800.686C777.922 799.324 777.316 797.809 773.984 794.326L769.593 789.784L773.227 783.424C785.039 761.921 800.484 742.841 805.784 742.841C810.479 742.841 813.659 738.752 811.539 735.572C808.964 731.332 805.179 731.787 799.576 736.632C796.699 739.207 793.67 741.327 793.064 741.327C792.307 741.327 791.247 738.147 790.641 734.361C790.036 729.97 788.219 725.881 786.099 723.761C782.162 719.824 775.044 718.915 774.136 721.944ZM784.433 728.607C787.613 731.787 787.461 733.301 783.676 735.27C780.95 736.784 780.799 737.238 782.767 738.752C783.979 739.812 785.796 742.841 786.704 745.718C788.824 752.078 788.824 751.927 786.099 751.927C783.676 751.927 776.256 738.45 776.256 733.907C776.256 726.487 779.89 724.064 784.433 728.607ZM770.804 752.229C772.167 757.378 771.864 761.012 770.199 761.012C767.927 761.012 765.05 754.047 766.11 751.321C767.473 747.838 769.744 748.292 770.804 752.229ZM778.982 752.229C781.404 754.652 781.253 757.984 778.679 757.984C776.71 757.984 774.742 754.955 774.742 751.775C774.742 749.807 776.862 750.109 778.982 752.229ZM765.656 765.101C770.653 772.975 771.41 775.398 767.927 773.581C764.899 771.915 758.084 762.375 758.084 759.952C758.084 756.015 761.264 758.135 765.656 765.101Z" fill="#B70031"/>
<path d="M203.858 726.941C203.858 728.152 207.189 730.878 211.278 732.998C224.906 739.812 222.938 741.781 207.189 736.784C195.075 732.998 195.378 732.998 191.441 737.541C189.321 739.964 186.595 741.327 183.869 741.327C177.509 741.327 173.572 743.901 173.572 747.989C173.572 750.867 172.966 751.321 169.181 750.715C159.187 749.352 162.972 755.409 177.964 765.101C188.412 771.764 186.595 774.641 174.935 770.249C165.849 766.767 162.064 766.312 160.701 768.584C159.338 770.704 163.881 777.669 166.455 777.669C171.149 777.669 172.058 781.152 168.878 786.301C163.729 794.629 167.515 796.901 175.844 790.389L181.144 786.452L187.201 791.298C198.104 799.929 205.978 794.175 195.681 785.089C189.624 779.789 189.169 778.426 192.652 777.064C194.318 776.458 198.104 779.184 204.918 786.149C212.035 793.266 215.518 795.841 217.941 795.538C223.695 794.781 222.938 789.329 216.426 784.484C207.946 778.275 200.829 771.309 201.586 770.098C202.041 769.492 204.918 769.795 207.946 771.007C211.126 772.067 215.972 772.975 218.698 773.127C228.843 773.127 235.052 760.558 228.086 754.198C224.755 751.169 223.998 747.384 226.875 747.384C227.783 747.384 230.812 749.201 233.689 751.321C236.415 753.441 240.049 754.955 241.866 754.652C244.592 754.198 244.44 753.744 240.049 748.444C237.475 745.264 232.781 741.024 229.752 738.904C226.723 736.935 221.423 732.847 217.789 729.97C210.975 724.518 203.858 722.852 203.858 726.941ZM212.943 743.749C214.761 745.567 214.458 745.869 210.672 745.869C203.706 745.869 199.315 744.204 199.315 741.781C199.315 739.964 200.526 739.661 205.069 740.569C208.098 741.024 211.732 742.538 212.943 743.749ZM187.201 747.989C187.201 750.715 182.658 752.532 180.689 750.564C179.932 749.807 179.781 748.444 180.235 747.535C181.749 745.112 187.201 745.567 187.201 747.989ZM202.798 750.867L207.189 752.684L200.829 757.832C194.318 762.981 190.835 763.284 185.081 759.044C182.355 757.075 182.506 756.772 188.109 752.835C194.621 748.444 196.589 748.141 202.798 750.867ZM221.272 756.772C220.818 758.741 219.909 761.769 219.455 763.587C218.849 766.464 217.638 767.069 212.792 767.069C205.221 767.069 205.221 764.647 212.489 758.438C219.455 752.532 222.786 751.927 221.272 756.772Z" fill="#B70031"/>
<path d="M234.145 736.481C234.145 739.055 243.23 745.718 245.502 744.961C248.53 743.749 248.379 742.386 245.199 739.358C241.867 736.481 234.145 734.361 234.145 736.481Z" fill="#B70031"/>
<path d="M790.945 765.858C781.708 777.215 778.679 785.544 782.919 787.209C785.948 788.421 788.674 784.635 789.734 777.972C790.794 771.461 792.914 770.855 795.488 776.306C797.002 779.335 796.851 781.304 794.882 786.906C790.188 799.929 795.791 802.352 802.756 790.389C804.876 786.755 807.148 783.726 807.905 783.726C811.539 783.726 814.113 798.718 811.236 803.261C808.208 808.106 814.265 811.741 818.353 807.652C820.625 805.381 820.776 789.935 818.656 784.181C817.748 781.909 815.931 779.184 814.568 778.124C812.448 776.458 812.751 775.549 816.839 769.946C821.988 763.132 821.836 761.012 816.536 761.012C814.265 761.012 811.691 763.132 808.359 767.826C802.908 775.549 799.576 776.761 801.091 770.401C803.211 762.224 802.908 760.255 799.576 759.801C797.154 759.498 794.731 761.164 790.945 765.858Z" fill="#B70031"/>
<path d="M286.539 802.806C285.025 806.592 286.539 807.501 295.776 808.712C306.679 810.075 311.373 811.892 311.373 814.618C311.373 817.798 306.528 820.069 299.865 820.069C295.322 820.069 294.565 819.615 295.928 818.252C299.108 815.072 297.896 814.012 291.688 814.012C287.145 814.012 284.57 815.072 281.845 817.646C277.453 822.038 270.488 835.515 270.488 839.603C270.488 843.843 273.819 845.358 275.636 842.026C276.545 840.512 279.876 836.272 283.208 832.638C287.448 827.792 290.173 826.126 293.353 826.126C298.653 826.126 299.108 827.792 294.413 829.912C292.293 830.821 290.476 833.546 289.719 836.878C288.81 840.815 287.448 842.783 285.176 843.238C283.359 843.692 274.728 846.721 265.945 849.901C253.073 854.595 250.045 856.26 250.045 858.683C250.045 862.923 255.496 863.378 266.248 860.046C271.093 858.683 275.485 857.926 276.091 858.532C276.696 859.138 275.636 862.469 273.516 866.103C270.185 872.312 270.185 878.52 273.516 877.309C274.273 877.006 277.151 873.22 279.876 868.678C282.602 864.135 285.63 860.198 286.69 859.895C287.599 859.592 289.719 862.166 291.385 865.8C295.322 874.735 310.313 889.726 315.159 889.726C318.188 889.726 318.945 888.969 318.945 885.789C318.945 883.063 316.37 879.58 309.708 873.523C304.71 868.829 299.562 863.075 298.35 860.652C296.23 856.715 296.23 855.806 298.35 852.626C299.865 850.355 302.893 848.538 306.376 847.932C319.55 845.509 331.21 837.029 329.09 831.578C328.485 830.215 325.305 827.792 321.822 825.975C315.916 823.098 315.613 822.492 318.036 820.826C319.853 819.463 323.336 819.009 328.939 819.615C338.176 820.675 339.69 818.706 332.725 814.618C330.302 813.104 327.576 810.378 326.667 808.409C325.002 804.624 322.125 803.866 319.399 806.592C318.188 807.804 314.705 807.349 306.225 804.321C292.899 799.778 287.902 799.324 286.539 802.806ZM314.553 832.032C317.733 834.758 317.885 835.212 315.916 837.332C314.705 838.543 311.07 840.663 307.739 842.026L301.833 844.449L303.045 840.966C303.65 838.998 304.408 835.666 304.862 833.243C305.77 828.398 309.405 827.792 314.553 832.032Z" fill="#B70031"/>
<path d="M688.428 805.986C685.703 809.469 682.22 816.586 679.948 824.158C676.92 834.303 674.8 838.089 667.986 845.66C658.597 856.109 657.234 861.712 663.291 863.377C665.26 863.832 668.44 863.377 670.257 862.469C673.588 860.652 673.74 860.803 672.983 867.466C672.528 871.252 670.106 878.974 667.38 884.426C661.928 896.389 661.928 895.783 665.26 895.783C671.771 895.783 677.223 885.334 685.551 856.563C688.277 847.023 689.943 843.995 696.908 836.726C705.388 827.792 707.508 821.583 702.36 821.583C700.694 821.583 698.271 822.946 696.757 824.612C690.548 831.426 689.337 825.066 695.243 817.04C699.331 811.589 700.088 805.078 697.211 802.2C694.485 799.475 693.577 799.929 688.428 805.986Z" fill="#B70031"/>
<path d="M724.013 845.055C717.956 847.477 711.747 848.689 705.387 848.689C693.879 848.84 691.456 851.717 698.27 857.623C702.056 860.803 703.721 861.257 710.99 860.652C720.378 860.046 731.281 855.352 737.641 849.446C740.973 846.417 741.427 845.357 739.913 843.54C737.49 840.512 734.764 840.815 724.013 845.055Z" fill="#B70031"/>
<path d="M402.532 847.932C394.809 856.714 387.389 880.64 389.358 890.634C390.418 896.389 393.144 896.237 393.144 890.331C393.144 888.212 394.204 884.274 395.415 881.246C397.232 876.854 398.141 876.249 400.261 877.309C401.775 878.066 403.895 878.369 404.955 878.066C407.832 877.006 407.227 879.126 402.835 884.729C398.747 890.18 398.898 894.874 403.289 893.966C404.652 893.663 407.984 889.726 410.709 885.183C416.767 874.734 430.092 860.954 434.181 860.954C438.118 860.954 437.966 861.56 431.001 869.132C424.035 876.703 420.401 884.426 420.401 891.997C420.401 899.72 424.944 899.114 428.578 890.786C432.969 880.64 433.121 886.849 428.881 904.566C423.278 928.491 422.521 933.64 425.246 933.64C427.669 933.64 429.486 930.308 434.332 916.983C438.421 906.08 438.875 905.626 449.778 900.326C459.772 895.48 465.829 888.514 465.829 881.7C465.829 877.612 464.466 876.854 455.229 875.794C452.201 875.34 451.292 874.28 450.535 869.283C449.929 865.952 449.778 862.772 450.232 862.014C450.535 861.409 453.564 860.954 456.895 860.954C462.649 860.954 466.283 857.926 463.709 855.2C463.103 854.594 455.381 853.837 446.598 853.383L430.546 852.626L423.732 861.409C417.069 869.737 416.464 870.192 411.618 869.283C407.529 868.526 405.712 868.98 402.835 871.706L399.201 875.037V871.554C399.201 867.012 406.015 855.503 409.801 853.383C413.284 851.566 413.435 852.475 411.164 859.289C410.255 862.014 409.801 864.437 410.255 864.892C411.769 866.557 417.372 862.317 419.644 857.926C423.126 851.263 422.521 847.629 417.372 845.055C410.709 841.572 407.529 842.177 402.532 847.932ZM441.298 867.92C440.692 871.1 432.969 877.006 431.455 875.643C430.395 874.432 438.269 865.497 440.541 865.497C441.146 865.497 441.601 866.557 441.298 867.92ZM455.229 885.183C457.046 886.243 456.895 887.152 453.715 890.331C448.718 895.783 444.629 895.48 444.629 889.877C444.629 884.274 449.929 881.852 455.229 885.183Z" fill="#B70031"/>
<path d="M570.771 853.383C565.925 857.472 561.231 860.954 560.171 860.954C559.262 860.954 556.234 862.772 553.659 864.892C551.085 867.163 548.662 868.526 548.359 868.223C547.905 867.769 549.268 864.286 551.388 860.349C554.568 854.443 554.719 853.08 552.902 852.475C549.571 851.112 546.088 854.595 542.151 863.226C537.759 872.312 537.608 874.886 541.242 878.217C543.968 880.489 544.271 880.489 546.694 877.763C548.814 875.492 550.177 875.037 552.902 876.097C555.931 877.309 557.142 876.249 563.502 867.012C571.225 855.806 573.951 853.837 577.434 856.714C579.099 858.077 579.402 860.349 578.645 865.8C577.434 874.129 579.402 875.34 583.491 868.829C584.854 866.557 587.731 862.772 589.851 860.5C593.182 856.866 593.334 856.109 591.516 854.897C590.305 853.989 587.882 853.535 586.216 853.837C583.945 853.989 583.036 853.08 582.734 849.9C582.431 847.629 581.674 845.812 580.916 845.812C580.159 845.812 575.616 849.143 570.771 853.383Z" fill="#B70031"/>
<path d="M543.662 891.24C532.002 904.868 529.882 908.351 536.091 904.263L540.179 901.688L539.271 908.2C538.362 913.954 538.816 915.468 543.056 921.374L547.902 927.885L544.419 931.52C541.693 934.397 541.239 935.911 542.45 937.728C544.57 941.06 548.659 943.634 549.87 942.423C550.476 941.817 551.688 935.003 552.748 927.28C553.808 919.557 555.322 911.683 556.382 910.017C559.259 904.566 581.065 885.183 584.093 885.183C586.062 885.183 586.97 886.243 586.97 888.363C586.97 891.24 586.667 891.391 584.547 889.574C579.247 885.183 571.222 901.991 574.25 910.774C576.219 916.225 584.699 921.525 591.816 921.525C599.085 921.525 611.047 915.62 616.347 909.411C620.739 904.111 621.647 895.783 618.013 892.754C614.984 890.331 613.167 891.846 612.107 897.903C611.047 903.657 608.473 906.231 599.539 910.774C591.967 914.56 584.699 915.014 583.336 911.531C581.367 906.231 582.427 901.84 586.062 900.326C589.09 899.266 589.999 897.448 590.907 891.846C591.816 885.94 591.513 884.426 589.09 882.608C584.547 879.277 581.822 880.186 569.859 888.968C563.196 893.966 556.836 897.297 554.565 897.297C551.385 897.297 550.476 898.357 549.265 902.9C548.356 906.08 547.599 909.563 547.599 910.623C547.599 911.683 546.993 912.137 546.085 911.683C544.116 910.471 544.116 903.203 546.085 898.206C546.842 896.086 550.173 893.057 553.959 891.088C557.593 889.271 560.925 887 561.53 886.091C562.59 884.577 557.745 879.126 555.17 879.126C554.565 879.126 549.265 884.577 543.662 891.24Z" fill="#B70031"/>
</svg>
