<svg width="1001" height="915" viewBox="0 0 1001 915" fill="none" xmlns="http://www.w3.org/2000/svg">
<path d="M460.763 39.1506C437.264 41.9151 404.089 47.6955 401.199 49.5805C399.817 50.3344 400.194 53.099 402.833 63.2775C406.603 77.8543 406.98 83.2577 404.215 84.263C403.21 84.64 397.806 86.2736 392.026 87.9072C375.313 92.5566 354.956 100.348 342.138 107.008C337.74 109.395 333.342 111.029 332.337 110.652C330.578 109.898 329.195 107.133 323.038 91.3C319.645 82.5037 318.64 80.8701 316.629 81.3728C315.247 81.7498 307.33 86.1479 298.911 91.0487C272.145 106.631 248.018 124.977 225.399 146.968C204.162 167.451 176.642 199.997 177.648 203.139C177.899 203.893 184.056 207.662 191.219 211.684C198.507 215.579 204.539 219.6 204.791 220.606C204.916 221.611 201.649 227.643 197.377 234.051C186.193 251.393 178.527 264.964 173.124 277.656C170.485 283.813 167.469 290.222 166.464 291.73L164.705 294.369L156.285 290.976C151.636 288.965 145.227 286.201 141.96 284.693C138.693 283.311 135.677 282.054 135.3 282.054C132.535 282.054 119.592 323.648 114.44 348.78C112.429 359.084 109.916 375.295 108.911 384.845C107.026 402.438 106.398 444.157 107.78 454.713L108.66 460.493H118.838C128.514 460.493 129.268 460.242 134.546 456.095C137.562 453.707 140.201 451.697 140.452 451.697C140.703 451.697 144.976 453.707 149.877 456.095C154.903 458.483 159.301 460.493 159.678 460.493C160.055 460.493 160.432 455.09 160.558 448.43L160.683 436.24L145.101 436.869L129.645 437.497V424.051C129.645 393.39 135.551 354.561 144.85 323.145L147.363 314.475L151.384 315.229C153.646 315.606 159.427 317.616 164.328 319.627C169.103 321.637 174.757 323.522 176.894 324.025L180.538 324.779L183.428 314.475C186.444 303.668 187.701 300.778 204.916 267.603C215.472 247.371 225.902 231.538 234.572 222.491C237.714 219.349 238.845 217.464 237.965 216.836C235.452 215.328 219.744 202.385 215.974 198.741L212.33 195.348L219.116 187.557C241.107 161.796 277.925 130.632 305.194 114.422C306.199 113.919 308.713 117.563 312.608 125.857C316.001 132.643 319.771 139.428 321.027 140.936L323.415 143.701L328.316 140.559C330.955 138.926 333.719 137.543 334.473 137.543C335.227 137.543 336.735 137.041 337.992 136.287C348.547 130.381 393.157 111.783 406.1 108.013C424.698 102.484 429.222 101.353 430.478 101.856C431.232 102.107 432.615 101.856 433.62 101.227C435.254 100.222 435.254 98.5884 433.997 90.1691C433.243 84.7656 432.363 77.226 432.238 73.4561L431.861 66.5447L440.029 65.0368C470.313 59.6334 517.436 59.5077 550.988 64.7855L559.533 66.1678L558.779 70.1889C558.276 72.3252 556.517 79.7392 554.883 86.6506C553.25 93.5619 551.867 99.5937 551.867 100.096C551.867 100.725 554.255 101.102 557.271 101.102C564.308 101.102 603.64 112.034 617.965 117.94C624.123 120.579 636.563 126.36 645.611 130.758C654.784 135.156 662.449 138.8 662.952 138.8C663.329 138.8 666.847 132.266 670.617 124.349C674.513 116.432 678.157 109.898 678.911 109.898C681.55 109.898 701.027 122.464 716.107 133.648C733.574 146.717 755.564 166.446 765.994 178.383L773.534 186.928L762.978 196.856C757.198 202.259 750.915 207.662 748.904 208.919C745.511 210.93 744.129 214.825 746.517 215.705C747.145 215.83 751.418 221.108 755.941 227.14C763.355 237.193 767.125 242.596 778.058 258.807C782.959 266.095 800.048 301.532 802.687 309.699C803.818 313.469 805.452 317.239 806.206 318.119C807.211 319.124 811.107 318.37 822.039 314.726C830.082 312.087 838.124 309.699 840.134 309.448C843.779 309.071 843.904 309.323 847.548 320.381C856.345 347.649 861.874 380.321 863.005 412.239L863.884 433.727L854.963 435.11C850.062 435.989 842.396 436.617 837.998 436.617H829.956L829.076 443.152C828.699 446.796 827.945 452.451 827.568 455.844L826.689 461.75L831.841 459.99C834.605 458.985 839.632 456.723 842.899 454.964C850.439 450.943 850.816 450.943 858.23 454.713C863.382 457.352 874.314 458.86 881.854 458.106C883.865 457.854 884.87 427.947 883.613 405.202C881.854 374.289 877.079 346.141 868.911 317.867C864.136 301.532 856.345 279.666 854.586 277.782C853.329 276.399 837.747 281.3 834.605 284.065C832.595 285.698 821.285 290.85 819.526 290.85C819.023 290.85 813.997 281.677 808.468 270.367C802.813 259.184 793.514 242.722 787.608 233.8C781.702 224.878 776.801 217.213 776.801 216.836C776.801 216.082 781.451 212.94 788.236 209.045C791.504 207.16 797.41 202.51 804.195 196.353L806.96 193.714L803.567 189.19C789.367 170.341 758.706 138.926 739.103 123.344C725.029 112.034 696.127 92.808 682.052 85.2683L670.869 79.3622L667.853 83.0064C666.219 85.017 662.575 91.3 659.685 96.9548C656.166 103.992 653.779 107.385 652.396 107.385C651.14 107.385 645.988 105.5 640.961 103.238C635.809 100.85 629.4 98.2114 626.636 97.3318C623.871 96.4521 619.599 94.6929 617.211 93.4363C614.824 92.1797 605.273 89.0381 596.1 86.3992L579.261 81.7498L580.141 75.9693C580.644 72.8278 582.277 66.9217 583.911 62.7749C589.314 48.7008 589.314 48.8265 581.021 47.1929C547.72 40.2815 527.615 38.2709 493.435 38.5223C477.601 38.5223 462.899 38.8992 460.763 39.1506Z" fill="#006697"/>
<path d="M476.093 138.926C403.461 144.957 338.117 175.367 287.098 227.014C242.489 272.127 214.215 328.423 204.288 392.008C202.026 406.836 200.643 449.561 202.151 463.006L203.157 472.431L214.215 472.808L225.147 473.185L224.268 465.897C222.508 452.576 223.262 414.375 225.65 398.291C231.682 356.446 246.51 318.119 270.134 283.436C281.946 265.969 290.994 255.288 308.461 238.575C349.803 198.866 398.686 174.614 458.375 164.309C476.344 161.293 523.719 161.168 541.563 164.309C559.658 167.451 574.235 170.969 589.565 176.121C676.146 205.024 743.123 275.268 767.879 363.106C775.293 389.62 777.303 405.202 777.429 436.617C777.429 452.199 777.052 466.776 776.549 468.912L775.67 473.059H784.969H794.268L795.273 468.284C797.158 458.86 796.278 409.223 794.016 393.893C783.963 329.177 757.449 275.143 712.965 229.025C662.072 176.247 595.974 145.209 521.331 138.926C503.487 137.418 494.44 137.418 476.093 138.926Z" fill="#006697"/>
<path d="M496.702 196.73C495.822 198.238 494.314 198.992 493.309 198.615C491.298 197.861 490.921 199.746 492.806 201.002C493.56 201.379 494.063 202.887 494.063 204.27C494.063 206.28 494.565 206.657 496.576 206.029C498.084 205.526 500.094 205.903 501.225 206.908C503.11 208.416 503.236 208.165 502.356 205.024C501.728 202.51 502.105 201.379 503.487 200.877C504.493 200.374 505.372 199.494 505.372 198.866C505.372 198.112 504.493 197.861 503.487 198.363C502.482 198.74 500.974 197.986 499.969 196.604C498.335 194.342 498.335 194.342 496.702 196.73Z" fill="#006697"/>
<path d="M507.384 205.149C506.128 208.793 499.97 211.935 495.949 210.929C494.19 210.552 491.677 208.668 490.294 207.034C488.661 204.898 487.781 204.395 487.781 205.652C487.781 208.416 492.682 214.197 494.944 214.197C496.578 214.197 496.703 217.59 495.949 242.722C494.944 277.279 494.818 278.284 490.797 278.284C488.787 278.284 487.781 279.038 487.781 280.42C487.781 282.431 489.038 282.682 497.834 282.682C506.379 282.682 507.887 282.431 507.887 280.546C507.887 279.164 506.63 278.284 504.494 278.033L500.976 277.656L500.347 246.366L499.719 215.202L502.861 213.568C506.505 211.683 509.772 206.531 508.892 203.892C508.515 202.887 508.013 203.264 507.384 205.149ZM502.609 280.42C499.97 280.672 495.698 280.672 493.185 280.42C490.546 280.169 492.682 279.918 497.834 279.918C502.986 279.918 505.123 280.169 502.609 280.42Z" fill="#006697"/>
<path d="M489.413 285.573C488.533 287.08 488.407 288.588 489.161 289.971C490.041 291.353 489.79 293.364 488.407 296.002C486.899 298.767 486.648 300.275 487.653 301.28C489.538 303.165 489.413 305.93 487.528 305.427C486.648 305.301 486.271 305.301 486.899 305.553C489.79 307.186 486.899 308.443 480.114 308.443C473.705 308.443 472.574 308.066 473.202 306.432C473.579 305.427 473.454 304.924 472.7 305.301C471.066 306.307 471.066 309.7 472.7 309.7C473.454 309.7 473.956 310.328 473.956 311.082C473.956 311.836 472.825 312.213 471.443 311.836C468.679 311.082 466.794 312.841 468.93 314.098C471.82 315.857 473.077 322.266 473.579 337.596C473.956 350.414 473.705 353.681 472.448 353.681C471.192 353.681 470.94 352.299 471.192 348.78C471.694 344.256 471.443 343.879 469.181 344.508C467.296 345.01 466.417 346.393 466.04 349.786L465.537 354.309L465.411 349.283C465.16 344.885 464.783 344.256 462.019 344.131C459.254 343.879 458.877 344.382 458.877 348.026C458.877 350.288 459.631 352.55 460.511 352.801C461.39 353.304 461.265 353.555 460.008 353.555C457.62 353.681 455.861 357.074 457.62 358.079C459.882 359.461 458.877 362.477 456.364 362.477C453.725 362.477 452.971 364.237 454.981 365.619C458.249 367.504 460.134 374.666 460.134 384.719V395.149H454.479C449.075 395.149 448.824 395.275 449.578 398.291C450.332 401.181 449.955 401.432 446.437 401.432C443.169 401.432 442.541 401.935 442.541 404.323C442.541 406.333 443.672 407.841 445.683 408.721C448.698 410.103 448.824 410.606 448.824 422.041V433.979L389.512 434.481L330.074 434.858L306.827 438.754C294.009 440.89 280.94 443.026 277.673 443.529C270.636 444.409 269.882 446.67 275.411 450.063L279.181 452.2V473.311V494.422H269.128C263.222 494.422 259.075 493.919 259.075 493.165C259.075 492.411 259.704 491.909 260.332 491.909C262.971 491.909 261.589 486.882 258.698 486.254C234.948 480.976 220.874 479.342 199.889 479.342H177.773L159.552 472.431L141.331 465.394L121.728 472.431L102.25 479.342H80.3849C64.1746 479.342 54.1217 480.096 40.8016 482.107C23.7117 484.746 22.832 484.997 22.832 487.762C22.832 489.395 23.4603 490.652 24.0886 490.652C24.8426 490.652 25.3453 491.783 25.3453 493.165C25.3453 494.547 26.2249 495.678 27.2302 495.678C28.8638 495.678 29.1151 500.83 29.1151 534.005C29.1151 567.18 28.8638 572.332 27.2302 572.332C25.7222 572.332 25.3453 573.965 25.3453 579.871V587.411H144.472H263.599L264.981 583.516C266.238 580.374 266.112 578.866 264.73 575.976C262.217 571.327 262.343 569.442 265.107 566.928C268.5 563.912 272.521 564.289 274.909 567.934C276.542 570.447 276.668 571.578 275.286 575.348C274.155 578.489 274.029 580.877 274.909 583.264L276.04 586.783L315.12 587.16L354.201 587.411L353.698 590.427C352.944 594.197 356.337 597.464 360.861 597.464C364.505 597.464 365.636 596.71 368.778 592.061C371.291 588.416 393.407 582.385 403.46 582.51C407.984 582.51 410.874 582.887 409.869 583.264C408.864 583.641 405.094 585.024 401.575 586.406C397.931 587.662 393.533 590.176 391.648 591.935C388.381 594.951 388.381 595.202 390.392 597.59C392.653 599.977 395.167 599.977 497.958 599.977C590.696 599.977 603.388 599.726 605.147 598.092C606.152 596.961 606.78 595.328 606.403 594.323C605.398 591.809 598.738 587.914 590.57 584.898L583.91 582.385L595.22 582.887C610.048 583.641 623.87 588.165 628.143 593.569C633.295 600.103 643.348 597.715 641.966 590.301L641.463 587.411H680.669H720.001L721.384 583.893C722.515 581.379 722.515 579.369 721.509 576.856C719.373 571.075 719.876 567.431 723.394 565.797C730.808 562.53 735.332 569.442 731.06 577.358C729.552 579.997 729.552 581.002 731.06 583.893L732.944 587.411L851.946 587.16L970.947 586.783L971.324 579.746C971.701 573.463 971.324 572.583 969.062 571.955C966.549 571.327 966.549 570.573 966.549 533.502C966.549 500.705 966.8 495.678 968.434 495.678C969.439 495.678 970.319 494.547 970.319 493.165C970.319 491.783 970.947 490.652 971.575 490.652C972.329 490.652 972.832 489.27 972.832 487.636C972.832 484.871 972.078 484.62 959.386 482.484C951.218 481.102 934.882 479.845 918.169 479.342L890.524 478.588L872.68 472.054L854.836 465.394L836.489 472.431L818.143 479.342H795.901C774.79 479.342 761.344 480.976 738.222 486.254C735.332 486.882 733.95 491.909 736.589 491.909C737.343 491.909 737.845 492.411 737.845 493.165C737.845 493.919 733.447 494.422 727.164 494.422H716.483V473.311V452.2L720.253 450.063C722.389 448.807 724.022 447.047 724.022 446.042C724.022 444.283 722.138 443.78 709.571 442.272C706.179 441.77 692.984 439.759 680.418 437.748C657.548 434.104 657.422 434.104 602.131 434.104H546.714L546.966 422.166C547.217 410.354 547.217 410.103 550.61 408.344C555.511 405.83 554.757 402.186 549.479 401.684C545.835 401.307 545.458 400.804 545.835 398.291C546.463 395.526 545.96 395.275 540.683 394.898L534.902 394.521L534.525 384.091C534.274 375.672 534.525 373.661 536.159 373.033C537.164 372.656 538.044 371.274 538.044 370.017C538.044 368.76 538.923 367.127 539.929 366.247C542.567 364.111 542.316 362.477 539.426 362.477C536.536 362.477 534.902 360.467 536.787 359.336C538.798 358.079 538.295 353.304 536.284 354.058C534.902 354.561 534.651 353.681 535.153 349.911C535.782 345.513 535.53 345.01 533.143 345.262C531.007 345.387 530.504 346.267 530.504 349.534C530.504 351.796 530.001 353.681 529.247 353.681C528.619 353.681 527.991 351.796 527.991 349.534C527.991 346.267 527.488 345.387 525.352 345.262C522.964 345.01 522.713 345.513 523.341 350.037C523.718 352.801 523.467 354.686 522.839 354.184C521.205 353.304 521.331 319.752 522.964 319.752C523.718 319.752 524.221 318.621 524.221 317.365C524.221 315.983 524.849 314.475 525.478 314.098C527.488 312.841 526.985 310.956 524.849 311.71C522.085 312.841 519.697 310.83 522.21 309.448C524.598 308.066 524.849 304.673 522.587 304.673C521.456 304.673 521.079 303.291 521.456 300.401C521.959 296.505 521.708 296.128 519.446 296.756C517.687 297.133 516.681 298.641 516.304 301.406L515.802 305.301L515.676 301.406C515.425 298.516 514.671 297.259 512.786 296.756C510.398 296.128 510.147 296.505 510.649 300.401C511.026 303.291 510.649 304.673 509.519 304.673C508.765 304.673 507.508 305.553 506.88 306.684C506.251 307.94 504.618 308.443 502.105 308.066C499.089 307.689 498.335 306.935 498.083 303.668C497.706 299.395 499.717 298.013 500.722 301.783C501.225 303.793 501.351 303.793 501.476 301.909C501.602 300.652 502.607 299.898 504.115 300.024C506 300.149 506.503 300.778 505.874 302.788C504.869 305.804 505.749 305.176 507.634 301.406C508.765 299.144 508.639 298.013 506.628 295.5C504.492 292.861 504.492 292.107 505.874 290.096C507.131 288.337 507.257 287.332 506.126 285.573C504.115 282.305 491.549 282.305 489.413 285.573ZM504.743 285.824C505.246 286.578 502.607 287.08 497.832 287.08C493.057 287.08 490.418 286.578 490.921 285.824C491.298 285.07 494.439 284.567 497.832 284.567C501.225 284.567 504.366 285.07 504.743 285.824ZM501.979 289.217C499.717 289.468 495.947 289.468 493.811 289.217C491.549 288.965 493.308 288.714 497.832 288.714C502.356 288.714 504.115 288.965 501.979 289.217ZM501.351 291.73C499.34 291.981 496.324 291.981 494.439 291.73C492.429 291.479 494.062 291.227 497.832 291.227C501.602 291.227 503.235 291.479 501.351 291.73ZM496.575 296.002C496.575 297.51 495.696 298.139 494.062 298.013C491.675 297.887 490.669 295.877 492.177 294.369C493.685 292.861 496.575 293.992 496.575 296.002ZM500.345 296.631C500.345 297.636 499.843 298.39 499.089 298.39C498.46 298.39 497.832 297.259 497.832 295.751C497.832 294.369 498.46 293.615 499.089 293.992C499.843 294.369 500.345 295.625 500.345 296.631ZM502.858 295.5C502.858 297.259 503.11 297.385 503.989 296.128C504.869 294.746 505.12 294.746 505.749 296.128C506.126 297.133 505.497 297.887 504.115 298.013C502.858 298.139 501.602 297.133 501.225 295.751C500.848 294.494 501.099 293.364 501.728 293.364C502.356 293.364 502.858 294.369 502.858 295.5ZM492.303 303.416C491.8 300.903 492.177 300.149 494.062 300.024C496.198 299.772 496.575 300.526 496.45 304.422C496.198 308.569 496.198 308.694 495.696 305.427L495.067 301.783L493.685 304.673C491.298 309.323 489.538 308.946 489.538 303.793V299.144L491.172 302.914C492.806 306.181 492.806 306.307 492.303 303.416ZM522.336 307.186C521.959 307.815 520.702 308.443 519.823 308.443C518.692 308.443 518.315 309.197 518.692 310.328C519.32 311.71 518.566 312.213 515.676 312.213C510.775 312.213 509.393 310.077 513.163 308.443C515.927 307.186 515.927 307.186 512.66 307.815C510.775 308.192 508.89 307.94 508.513 307.186C508.011 306.432 510.649 305.93 515.425 305.93C520.2 305.93 522.839 306.432 522.336 307.186ZM485.266 310.956C485.266 311.584 483.255 312.213 480.868 312.213C478.48 312.213 476.47 311.584 476.47 310.956C476.47 310.202 478.48 309.7 480.868 309.7C483.255 309.7 485.266 310.202 485.266 310.956ZM509.142 311.082C509.142 311.71 504.115 312.213 497.832 312.213C490.795 312.213 486.522 311.71 486.522 310.956C486.522 310.077 490.669 309.7 497.832 309.825C504.115 309.951 509.142 310.453 509.142 311.082ZM522.336 317.239C522.839 318.119 514.419 318.496 497.958 318.496C481.999 318.496 472.7 317.993 472.7 317.239C472.7 316.485 481.622 315.983 497.078 315.983C512.032 315.983 521.833 316.485 522.336 317.239ZM520.451 336.591C520.451 347.398 519.948 353.807 519.069 354.435C518.315 354.812 517.938 356.32 518.315 357.577C518.943 359.838 517.938 359.964 497.832 359.964C477.726 359.964 476.721 359.838 477.349 357.577C477.726 356.32 477.349 354.812 476.595 354.435C475.716 353.807 475.213 347.398 475.213 336.591V319.752H497.832H520.451V336.591ZM475.967 356.446C476.344 356.948 472.323 357.451 467.045 357.451C461.767 357.451 457.746 356.948 458.123 356.32C459.003 354.938 475.087 354.938 475.967 356.446ZM535.53 356.194C536.787 357.074 534.651 357.451 528.368 357.451C523.341 357.451 519.194 356.948 519.194 356.446C519.194 354.938 533.269 354.812 535.53 356.194ZM473.956 360.592C473.956 362.1 472.323 362.477 467.045 362.477C461.767 362.477 460.134 362.1 460.134 360.592C460.134 359.084 461.767 358.707 467.045 358.707C472.323 358.707 473.956 359.084 473.956 360.592ZM534.274 360.592C534.274 361.975 532.766 362.477 527.991 362.477C523.216 362.477 521.708 361.975 521.708 360.592C521.708 359.21 523.216 358.707 527.991 358.707C532.766 358.707 534.274 359.21 534.274 360.592ZM509.519 362.1C503.11 362.352 492.554 362.352 486.271 362.1C479.862 361.975 485.015 361.723 497.832 361.723C510.649 361.723 515.802 361.975 509.519 362.1ZM537.415 366.247C536.913 367.001 522.336 367.504 497.832 367.504C473.328 367.504 458.751 367.001 458.249 366.247C457.746 365.368 471.192 364.991 497.832 364.991C524.472 364.991 537.918 365.368 537.415 366.247ZM536.787 370.017C536.787 370.771 522.964 371.274 497.832 371.274C472.7 371.274 458.877 370.771 458.877 370.017C458.877 369.263 472.7 368.76 497.832 368.76C522.964 368.76 536.787 369.263 536.787 370.017ZM475.213 386.981C475.213 400.176 474.962 401.432 472.951 401.432C469.684 401.432 468.804 400.176 470.312 397.537C471.443 395.401 471.066 395.149 467.045 395.149H462.647V383.84V372.53H468.93H475.213V386.981ZM517.938 387.61V402.563L534.022 403.066C542.819 403.192 526.483 403.443 497.832 403.443C469.181 403.443 452.72 403.192 461.39 403.066L477.098 402.563L476.721 389.369C476.47 381.955 476.595 375.295 476.972 374.289C477.475 372.907 481.747 372.53 497.832 372.53H517.938V387.61ZM533.017 383.84V395.149H528.619C524.472 395.149 524.221 395.401 524.975 398.291C525.603 401.055 525.352 401.432 522.462 401.432H519.194V387.861C519.194 380.321 519.571 373.787 520.074 373.41C520.451 372.907 523.593 372.53 526.985 372.53H533.017V383.84ZM464.909 397.286C462.27 397.537 457.997 397.537 455.484 397.286C452.845 397.034 454.981 396.783 460.134 396.783C465.286 396.783 467.422 397.034 464.909 397.286ZM540.306 397.286C537.667 397.537 533.394 397.537 530.881 397.286C528.242 397.034 530.378 396.783 535.53 396.783C540.683 396.783 542.819 397.034 540.306 397.286ZM467.673 400.176C467.673 400.93 464.155 401.432 459.505 401.432C454.856 401.432 451.337 400.93 451.337 400.176C451.337 399.422 454.856 398.919 459.505 398.919C464.155 398.919 467.673 399.422 467.673 400.176ZM543.07 400.176C543.07 400.93 539.552 401.432 534.902 401.432C530.253 401.432 526.734 400.93 526.734 400.176C526.734 399.422 530.253 398.919 534.902 398.919C539.552 398.919 543.07 399.422 543.07 400.176ZM549.353 406.459C549.353 407.338 531.384 407.715 497.832 407.715C464.28 407.715 446.311 407.338 446.311 406.459C446.311 405.579 464.28 405.202 497.832 405.202C531.384 405.202 549.353 405.579 549.353 406.459ZM522.085 409.852C508.765 410.103 486.899 410.103 473.705 409.852C460.385 409.726 471.192 409.6 497.832 409.6C524.472 409.6 535.279 409.726 522.085 409.852ZM470.815 462.378V512.643L460.511 513.02L450.081 513.397V462.378V411.36L460.511 411.737L470.815 412.114V462.378ZM521.708 462.378V513.271H497.204H472.7V462.378V411.485H497.204H521.708V462.378ZM545.583 462.378V513.271H534.902H524.221V462.378V411.485H534.902H545.583V462.378ZM448.196 449.309C448.196 450.817 435.127 451.069 364.505 451.446C286.218 451.697 280.564 451.571 278.05 449.561C275.411 447.424 279.056 447.299 361.741 447.424C434.75 447.55 448.196 447.801 448.196 449.309ZM717.614 449.435C715.101 451.571 709.069 451.697 631.536 451.697C577.376 451.697 547.971 451.32 547.468 450.44C547.091 449.686 546.966 448.807 547.217 448.178C547.594 447.676 586.675 447.299 634.175 447.299C716.483 447.299 720.253 447.424 717.614 449.435ZM448.196 486.254V518.926L434.122 519.303C420.927 519.554 419.922 519.805 419.922 522.067C419.922 523.45 420.55 524.58 421.179 524.58C423.064 524.58 422.687 531.618 420.802 533.251C419.419 534.382 419.168 538.655 419.671 553.483L420.299 572.332H358.474H296.774V512.643V452.953L372.548 453.205L448.196 453.582V486.254ZM698.89 512.643V572.332H637.19H575.365L575.993 552.854C576.37 542.047 576.245 533.377 575.616 533.377C574.108 533.377 574.234 524.957 575.742 523.952C576.496 523.575 576.999 522.319 576.999 521.439C576.999 520.057 573.983 519.554 562.296 519.303L547.468 518.926L547.091 487.51C546.966 470.295 547.091 455.467 547.468 454.587C547.845 453.33 563.679 452.953 623.493 452.953H698.89V512.643ZM295.517 457.352C295.517 458.86 293.884 459.237 288.606 459.237C283.328 459.237 281.694 458.86 281.694 457.352C281.694 455.844 283.328 455.467 288.606 455.467C293.884 455.467 295.517 455.844 295.517 457.352ZM713.97 457.352C713.97 458.734 712.462 459.237 707.687 459.237C702.911 459.237 701.403 458.734 701.403 457.352C701.403 455.969 702.911 455.467 707.687 455.467C712.462 455.467 713.97 455.969 713.97 457.352ZM295.517 516.412V572.332H288.606H281.694V516.412V460.493H288.606H295.517V516.412ZM713.97 516.412V572.332H707.687H701.403V516.412V460.493H707.687H713.97V516.412ZM181.165 489.395C181.165 491.909 182.045 491.909 218.864 491.909C243.116 491.909 256.562 492.411 256.562 493.165C256.562 493.919 242.362 494.422 216.351 494.422C181.417 494.422 176.139 494.17 176.139 492.537C176.139 490.903 171.489 490.652 142.336 490.652C118.712 490.652 108.407 491.029 108.03 492.034C107.276 494.296 27.8585 494.547 27.8585 492.285C27.8585 491.029 35.1468 490.652 65.5569 490.652C89.4326 490.652 103.255 490.149 103.255 489.395C103.255 488.641 117.204 488.013 140.702 487.762C161.185 487.636 178.778 487.385 179.657 487.133C180.411 487.008 181.165 488.013 181.165 489.395ZM892.157 489.395C892.409 490.149 907.614 490.652 930.987 490.652C961.02 490.652 969.188 491.029 968.685 492.16C968.057 494.422 889.644 494.296 888.89 492.034C888.513 491.029 878.837 490.652 854.585 490.652C825.431 490.652 820.782 490.903 820.782 492.537C820.782 494.17 815.378 494.422 779.942 494.422C753.553 494.422 739.102 493.919 739.102 493.165C739.102 492.411 752.422 491.909 776.675 491.909C811.357 491.909 814.247 491.783 814.75 489.647C815.253 487.636 818.017 487.51 853.579 487.887C876.575 488.139 891.906 488.767 892.157 489.395ZM125.874 532.748V572.332H117.706H109.538V532.748V493.165H117.706H125.874V532.748ZM157.038 522.319C156.913 538.403 156.536 556.247 156.284 561.902L155.782 572.332H141.456H127.131V532.748V493.165H142.21H157.415L157.038 522.319ZM173.626 532.748V572.332H166.086H158.546V532.748V493.165H166.086H173.626V532.748ZM837.369 504.098C837.62 510.255 837.62 527.973 837.369 543.681L836.992 572.332H829.578H822.038V532.748V493.165H829.578H836.992L837.369 504.098ZM868.533 532.748V572.332H854.082H839.631V532.748V493.165H854.082H868.533V532.748ZM886.126 532.748V572.332H878.586H871.046V532.748V493.165H878.586H886.126V532.748ZM108.03 534.256L108.282 572.332H69.955H31.6283V534.005V495.678L69.7037 495.93L107.653 496.307L108.03 534.256ZM965.292 534.005V572.332H926.966H888.639V534.005V495.678H926.966H965.292V534.005ZM242.739 534.633V572.332H209.439H176.139V534.633V496.935H209.439H242.739V534.633ZM255.306 534.759V572.457L250.028 572.08L244.624 571.703L244.247 535.89C244.122 516.161 244.247 499.448 244.624 498.569C244.876 497.563 247.263 496.935 250.279 496.935H255.306V534.759ZM751.668 534.633V572.332H746.642H741.615V534.633V496.935H746.642H751.668V534.633ZM820.53 534.256L820.153 571.703L786.602 572.08L752.925 572.332V534.633V496.935H786.853H820.782L820.53 534.256ZM279.056 536.141C278.93 556.373 278.553 571.578 278.05 569.944C277.673 568.311 275.663 565.797 273.778 564.289C269.254 560.897 264.228 562.53 261.714 568.311C260.709 570.447 259.075 572.332 258.196 572.332C256.939 572.332 256.562 565.169 256.562 535.89V499.448H267.872H279.181L279.056 536.141ZM739.102 535.89C739.102 566.677 738.851 572.332 737.343 572.332C736.337 572.332 735.332 571.075 735.081 569.693C734.829 568.185 733.196 565.797 731.311 564.415C726.661 560.897 721.635 562.53 718.745 568.562C716.483 572.834 716.483 572.08 716.483 536.141V499.448H727.792H739.102V535.89ZM545.583 517.041C545.583 518.423 544.704 519.554 543.698 519.554C542.693 519.554 541.814 518.926 541.814 518.297C541.814 517.543 526.357 517.041 497.832 517.041C469.307 517.041 453.851 517.543 453.851 518.297C453.851 518.926 452.971 519.554 451.966 519.554C450.96 519.554 450.081 518.423 450.081 517.041C450.081 514.528 450.96 514.528 497.832 514.528C544.704 514.528 545.583 514.528 545.583 517.041ZM539.929 526.717V534.633H497.581H455.107V526.465V518.297L497.455 518.549L539.929 518.926V526.717ZM438.771 521.942C430.101 522.444 422.561 522.319 421.933 521.816C421.179 521.188 428.341 520.936 437.64 521.062L454.479 521.313L438.771 521.942ZM575.114 521.816C574.36 522.319 566.569 522.444 557.521 521.942L541.185 521.313L558.778 521.062C568.328 520.936 575.742 521.188 575.114 521.816ZM453.851 528.979V533.377H438.771H423.692V528.979V524.58H438.771H453.851V528.979ZM572.978 528.602L572.601 532.748L557.27 533.125L541.814 533.502V528.979V524.58H557.647H573.355L572.978 528.602ZM575.365 536.644C574.36 537.775 421.179 537.901 421.179 536.77C421.179 536.267 455.987 535.89 498.712 535.89C541.311 535.89 575.868 536.267 575.365 536.644ZM489.036 540.414C489.036 540.665 486.397 540.791 483.13 540.791C477.978 540.665 477.601 540.539 480.868 539.785C484.386 538.906 489.036 539.283 489.036 540.414ZM517.812 540.414C518.064 540.665 515.676 540.916 512.534 540.916C509.267 540.916 506.628 540.414 506.628 539.785C506.628 538.655 516.681 539.283 517.812 540.414ZM546.212 539.66C546.714 540.414 544.704 540.791 540.934 540.791L534.902 540.539L539.929 539.66C542.693 539.157 545.081 538.655 545.206 538.529C545.332 538.529 545.835 538.906 546.212 539.66ZM575.742 539.911C575.742 540.539 573.48 540.916 570.59 540.916C567.825 540.916 565.815 540.414 566.192 539.785C567.071 538.529 575.742 538.655 575.742 539.911ZM429.095 540.539C427.462 540.791 424.948 540.791 423.44 540.539C421.807 540.288 423.064 540.037 426.205 540.037C429.347 540.037 430.603 540.288 429.095 540.539ZM459.254 540.539C457.62 540.791 454.856 540.791 452.971 540.539C450.96 540.288 452.343 540.037 455.735 540.037C459.254 540.037 460.762 540.288 459.254 540.539ZM428.467 560.394C428.718 572.457 429.221 578.238 430.352 578.866C431.231 579.369 429.221 579.871 426.079 579.871H420.173L421.43 574.594C422.058 571.578 422.435 563.535 422.31 556.624C422.058 540.916 421.933 541.922 425.325 542.424C427.964 542.801 428.09 543.178 428.467 560.394ZM458.626 560.394C458.877 572.457 459.38 578.238 460.511 578.866C461.39 579.369 459.254 579.871 455.861 579.871C450.96 579.871 449.955 579.494 451.086 578.364C452.091 577.358 452.594 571.327 452.594 559.389C452.594 542.047 452.594 542.047 455.484 542.424C458.123 542.801 458.249 543.178 458.626 560.394ZM486.522 559.514C486.522 571.327 487.025 577.358 488.03 578.364C489.161 579.494 488.156 579.871 483.381 579.746C479.862 579.746 477.852 579.369 478.731 578.992C479.862 578.615 480.239 573.714 480.239 561.148C480.239 551.598 480.616 543.43 481.119 543.053C481.496 542.55 483.004 542.173 484.261 542.173C486.397 542.173 486.522 543.555 486.522 559.514ZM515.425 559.514C515.425 571.327 515.927 577.358 516.933 578.364C518.064 579.494 517.058 579.871 512.283 579.746C508.765 579.746 506.754 579.369 507.634 578.992C508.765 578.615 509.142 573.588 509.142 560.268V542.173H512.283H515.425V559.514ZM544.327 560.268C544.327 573.588 544.704 578.615 545.96 578.992C546.714 579.369 544.704 579.746 541.311 579.746C536.41 579.871 535.405 579.494 536.536 578.364C537.541 577.358 538.044 571.327 538.044 559.514V542.173H541.185H544.327V560.268ZM574.234 560.394C574.485 572.457 574.988 578.238 576.119 578.866C576.999 579.369 575.114 579.871 571.972 579.871H566.317L566.694 562.656C566.82 553.106 567.323 544.561 567.574 543.681C567.951 542.801 569.459 542.173 570.967 542.424C573.731 542.801 573.857 543.178 574.234 560.394ZM262.594 576.102C264.102 578.615 263.851 578.615 145.352 578.615C47.2103 578.615 26.6019 578.364 26.6019 576.981C26.6019 575.976 26.9789 574.845 27.4815 574.468C27.8585 573.965 80.6363 573.588 144.598 573.588C259.578 573.588 260.96 573.588 262.594 576.102ZM419.168 576.604C418.414 578.489 412.005 578.615 346.913 578.615C284.082 578.615 275.537 578.364 276.165 576.73C276.794 575.096 286.344 574.845 348.169 574.594C387.25 574.342 419.419 574.217 419.671 574.342C419.796 574.468 419.671 575.473 419.168 576.604ZM969.062 576.102C969.062 578.615 968.183 578.615 850.94 578.615C785.974 578.615 732.819 578.112 732.819 577.61C732.819 573.714 735.709 573.588 852.448 573.588C968.183 573.588 969.062 573.588 969.062 576.102ZM720.001 576.981C720.378 578.238 705.802 578.615 650.134 578.615C611.43 578.615 578.884 578.238 577.753 577.861C576.622 577.484 575.742 576.604 575.742 575.976C575.742 575.348 605.524 574.971 647.62 575.096C703.665 575.348 719.499 575.85 720.001 576.981ZM372.171 583.264C360.358 585.526 277.925 585.652 276.542 583.39C275.663 582.133 285.464 581.631 326.681 581.128C354.829 580.751 378.328 580.751 379.082 581.128C379.71 581.379 376.569 582.385 372.171 583.264ZM263.348 583.013C262.72 584.647 248.269 584.898 144.598 584.898C40.5503 584.898 26.6019 584.647 26.6019 583.013C26.6019 581.379 40.6759 581.128 145.352 581.128C250.279 581.128 263.976 581.379 263.348 583.013ZM719.247 583.013C718.368 584.772 712.713 585.024 674.889 584.898C643.097 584.898 629.651 584.395 624.122 583.139C617.336 581.505 621.483 581.379 668.48 581.254C714.975 581.128 720.253 581.379 719.247 583.013ZM969.062 583.013C969.062 584.647 955.491 584.898 851.317 584.647C758.579 584.395 733.573 583.893 733.07 582.636C732.693 581.505 756.82 581.128 850.815 581.128C955.239 581.128 969.062 581.379 969.062 583.013ZM436.258 583.641C436.258 584.395 431.86 584.898 425.325 584.772C417.911 584.772 415.147 584.395 416.78 583.641C420.299 582.133 436.258 582.133 436.258 583.641ZM553.123 583.641C553.123 584.521 533.017 584.898 495.319 584.898C457.62 584.898 437.515 584.521 437.515 583.641C437.515 582.762 457.62 582.385 495.319 582.385C533.017 582.385 553.123 582.762 553.123 583.641ZM559.406 583.641C559.406 584.27 558.275 584.898 556.893 584.898C555.511 584.898 554.38 584.27 554.38 583.641C554.38 582.887 555.511 582.385 556.893 582.385C558.275 582.385 559.406 582.887 559.406 583.641ZM578.255 583.641C579.512 584.521 577.376 584.898 571.093 584.898C565.815 584.898 561.919 584.395 561.919 583.641C561.919 582.008 575.742 582.008 578.255 583.641ZM365.511 589.422C366.265 591.558 364.003 593.694 360.861 593.694C357.72 593.694 355.458 591.558 356.212 589.422C356.714 588.165 358.474 587.411 360.861 587.411C363.249 587.411 365.008 588.165 365.511 589.422ZM431.231 589.296C431.231 590.804 428.97 591.181 418.037 591.181C410.749 591.181 404.843 590.678 404.843 590.05C404.843 588.039 407.607 587.662 419.671 587.537C429.095 587.411 431.231 587.788 431.231 589.296ZM560.663 589.296C560.663 590.93 552.746 591.181 497.204 591.181C441.661 591.181 433.745 590.93 433.745 589.296C433.745 587.662 441.661 587.411 497.204 587.411C552.746 587.411 560.663 587.662 560.663 589.296ZM564.433 589.422C564.433 590.427 563.804 590.93 563.176 590.553C562.422 590.05 562.171 589.17 562.548 588.542C563.679 586.783 564.433 587.16 564.433 589.422ZM588.811 588.165C589.942 588.542 590.821 589.422 590.821 590.05C590.821 591.935 566.569 590.804 565.94 588.919C565.564 587.788 568.202 587.411 576.119 587.411C582.025 587.411 587.68 587.788 588.811 588.165ZM639.452 589.422C640.206 591.558 637.944 593.694 634.803 593.694C631.661 593.694 629.399 591.558 630.153 589.422C630.656 588.165 632.415 587.411 634.803 587.411C637.19 587.411 638.95 588.165 639.452 589.422ZM399.565 593.946C399.942 595.705 399.188 596.207 396.172 596.207C392.528 596.207 391.02 594.071 393.156 591.935C394.79 590.301 399.188 591.809 399.565 593.946ZM603.262 592.815C605.021 595.077 603.765 596.207 599.366 596.207C596.099 596.207 594.717 594.071 596.728 592.061C598.11 590.553 601.754 591.055 603.262 592.815ZM422.435 594.951C422.435 597.213 421.556 597.464 412.382 597.464C403.209 597.464 402.329 597.213 402.329 594.951C402.329 592.689 403.209 592.438 412.382 592.438C421.556 592.438 422.435 592.689 422.435 594.951ZM567.951 595.202C568.328 597.338 564.307 597.464 496.701 597.464C425.702 597.464 424.948 597.464 424.948 594.951C424.948 592.438 425.577 592.438 496.198 592.689C563.05 593.066 567.574 593.192 567.951 595.202ZM573.229 594.951C573.229 596.333 572.349 597.464 571.344 597.464C570.339 597.464 569.459 596.333 569.459 594.951C569.459 593.569 570.339 592.438 571.344 592.438C572.349 592.438 573.229 593.569 573.229 594.951ZM593.712 594.951C594.34 597.338 593.712 597.464 584.413 597.464C576.999 597.464 574.485 597.087 574.485 595.83C574.485 592.94 575.868 592.438 584.664 592.438C591.952 592.438 593.083 592.815 593.712 594.951Z" fill="#006697"/>
<path d="M480.242 331.062V337.345H484.64H489.038V331.062V324.779H484.64H480.242V331.062Z" fill="#006697"/>
<path d="M492.805 331.062V337.345H497.203H501.601V331.062V324.779H497.203H492.805V331.062Z" fill="#006697"/>
<path d="M506.251 325.658C505.748 326.035 505.371 328.926 505.371 331.941C505.371 337.345 505.371 337.345 509.769 337.345H514.167V331.062C514.167 325.03 514.042 324.779 510.649 324.779C508.638 324.779 506.628 325.156 506.251 325.658Z" fill="#006697"/>
<path d="M480.242 348.654V354.938H484.64H489.038V348.654V342.371H484.64H480.242V348.654Z" fill="#006697"/>
<path d="M492.805 348.654V354.938H497.203H501.601V348.654V342.371H497.203H492.805V348.654Z" fill="#006697"/>
<path d="M505.625 348.278C506.002 354.058 506.128 354.309 510.149 354.686L514.17 355.063V348.78V342.371H509.646H505.248L505.625 348.278Z" fill="#006697"/>
<path d="M480.242 381.955C480.242 387.609 480.242 387.609 484.64 387.609C489.038 387.609 489.038 387.609 489.038 381.955C489.038 376.3 489.038 376.3 484.64 376.3C480.242 376.3 480.242 376.3 480.242 381.955Z" fill="#006697"/>
<path d="M493.561 381.578C493.687 386.856 493.813 386.981 497.959 386.981C502.106 386.981 502.232 386.856 502.609 381.578L502.986 376.3H498.211H493.436L493.561 381.578Z" fill="#006697"/>
<path d="M506.631 381.955C506.631 387.609 506.631 387.609 511.029 387.609C515.427 387.609 515.427 387.609 515.427 381.955C515.427 376.3 515.427 376.3 511.029 376.3C506.631 376.3 506.631 376.3 506.631 381.955Z" fill="#006697"/>
<path d="M480.242 397.034C480.242 402.689 480.242 402.689 484.64 402.689C489.038 402.689 489.038 402.689 489.038 397.034C489.038 391.379 489.038 391.379 484.64 391.379C480.242 391.379 480.242 391.379 480.242 397.034Z" fill="#006697"/>
<path d="M493.937 391.631C493.937 391.882 493.811 394.395 493.56 397.286L493.309 402.689H498.084H502.859V397.034C502.859 391.379 502.859 391.379 498.461 391.379C496.073 391.379 494.063 391.505 493.937 391.631Z" fill="#006697"/>
<path d="M506.631 397.034C506.631 402.689 506.631 402.689 511.029 402.689C515.427 402.689 515.427 402.689 515.427 397.034C515.427 391.379 515.427 391.379 511.029 391.379C506.631 391.379 506.631 391.379 506.631 397.034Z" fill="#006697"/>
<path d="M456.363 422.292V429.204L461.138 428.827L465.788 428.45L466.165 421.79L466.542 415.255H461.515H456.363V422.292Z" fill="#006697"/>
<path d="M456.363 440.89V447.927H461.515H466.542L466.165 441.267L465.788 434.733L461.138 434.356L456.363 433.979V440.89Z" fill="#006697"/>
<path d="M460.51 455.215C456.489 455.592 456.363 455.718 456.363 461.875V468.033H461.39H466.416V461.875C466.416 458.357 466.039 455.467 465.537 455.215C464.908 454.964 462.646 454.964 460.51 455.215Z" fill="#006697"/>
<path d="M456.363 481.102V488.139H461.515H466.542L466.165 481.479L465.788 474.944L461.138 474.567L456.363 474.19V481.102Z" fill="#006697"/>
<path d="M456.363 501.961V508.244H461.39H466.416V501.961V495.678H461.39H456.363V501.961Z" fill="#006697"/>
<path d="M476.471 422.166V429.078H481.497H486.524V422.166V415.255H481.497H476.471V422.166Z" fill="#006697"/>
<path d="M491.551 422.166V429.078H496.577H501.604V422.166V415.255H496.577H491.551V422.166Z" fill="#006697"/>
<path d="M507.885 422.166V429.078H512.911H517.938V422.166V415.255H512.911H507.885V422.166Z" fill="#006697"/>
<path d="M476.471 441.016V447.927H481.497H486.524V441.016V434.104H481.497H476.471V441.016Z" fill="#006697"/>
<path d="M492.43 434.984C491.928 435.361 491.551 438.502 491.551 441.895V447.927H496.577H501.604V441.016V434.104H497.457C495.069 434.104 492.807 434.481 492.43 434.984Z" fill="#006697"/>
<path d="M507.885 441.016V447.927H512.911H517.938V441.016V434.104H512.911H507.885V441.016Z" fill="#006697"/>
<path d="M495.069 455.215C491.802 455.592 491.551 455.969 491.551 461.875V468.033H496.577H501.604V461.875C501.604 455.341 500.724 454.461 495.069 455.215Z" fill="#006697"/>
<path d="M508.513 455.341C508.136 455.592 507.885 458.608 507.885 462.001V468.033H512.911H517.938V461.875C517.938 455.844 517.938 455.718 513.54 455.215C511.026 454.964 508.764 454.964 508.513 455.341Z" fill="#006697"/>
<path d="M476.471 461.75V468.033H481.497H486.524V461.75V455.467H481.497H476.471V461.75Z" fill="#006697"/>
<path d="M476.471 481.227V488.139H481.497H486.524V481.227V474.316H481.497H476.471V481.227Z" fill="#006697"/>
<path d="M492.43 475.196C491.928 475.573 491.551 478.714 491.551 482.107V488.139H496.577H501.604V481.227V474.316H497.457C495.069 474.316 492.807 474.693 492.43 475.196Z" fill="#006697"/>
<path d="M507.885 481.227V488.139H512.911H517.938V481.227V474.316H512.911H507.885V481.227Z" fill="#006697"/>
<path d="M476.471 501.961V508.244H481.497H486.524V501.961V495.678H481.497H476.471V501.961Z" fill="#006697"/>
<path d="M491.551 501.961V508.244H496.577H501.604V501.961V495.678H496.577H491.551V501.961Z" fill="#006697"/>
<path d="M507.885 501.961V508.244H512.911H517.938V501.961V495.678H512.911H507.885V501.961Z" fill="#006697"/>
<path d="M529.751 416.889C529.374 417.894 529.249 420.91 529.5 423.549C529.877 428.324 530.003 428.449 534.903 428.449H539.93V422.166V415.883L535.155 415.506C532.013 415.255 530.254 415.632 529.751 416.889Z" fill="#006697"/>
<path d="M530.13 434.858C529.627 435.361 529.25 438.502 529.25 441.895V448.053L534.653 447.676L539.931 447.299V441.016V434.733L535.533 434.356C533.02 434.104 530.632 434.356 530.13 434.858Z" fill="#006697"/>
<path d="M529.25 461.75V468.033H534.905H540.56V461.75V455.467H534.905H529.25V461.75Z" fill="#006697"/>
<path d="M529.751 475.949C529.374 476.955 529.249 479.971 529.5 482.609C529.877 487.385 530.003 487.51 534.903 487.51H539.93V481.227V474.944L535.155 474.567C532.013 474.316 530.254 474.693 529.751 475.949Z" fill="#006697"/>
<path d="M529.25 501.961V508.244H534.905H540.56V501.961V495.678H534.905H529.25V501.961Z" fill="#006697"/>
<path d="M303.811 457.477C302.429 458.734 301.801 461.75 301.801 466.274V473.059H306.199H310.597V465.771C310.597 456.472 307.958 453.205 303.811 457.477Z" fill="#006697"/>
<path d="M318.387 456.975C317.507 457.854 316.879 461.75 316.879 465.771V473.059H321.277H325.675V465.771C325.675 458.734 324.293 455.467 321.277 455.467C320.523 455.467 319.266 456.095 318.387 456.975Z" fill="#006697"/>
<path d="M333.468 456.975C332.714 457.854 331.96 461.75 331.834 465.52L331.457 472.431L336.107 472.808L340.756 473.185V466.274C340.756 457.603 336.986 452.828 333.468 456.975Z" fill="#006697"/>
<path d="M347.289 456.975C346.41 457.854 345.781 461.75 345.781 465.771V473.059H350.179H354.578V465.771C354.578 458.734 353.195 455.467 350.179 455.467C349.425 455.467 348.169 456.095 347.289 456.975Z" fill="#006697"/>
<path d="M362.369 456.975C361.49 457.854 360.861 461.75 360.861 465.771V473.059H365.259H369.658V465.771C369.658 458.734 368.275 455.467 365.259 455.467C364.506 455.467 363.249 456.095 362.369 456.975Z" fill="#006697"/>
<path d="M376.571 458.483C375.314 460.367 374.686 463.509 374.937 467.028C375.314 472.305 375.44 472.431 380.09 472.808L384.739 473.185V466.274C384.739 461.75 384.111 458.734 382.728 457.477C380.09 454.713 378.833 454.964 376.571 458.483Z" fill="#006697"/>
<path d="M391.776 457.477C390.394 458.734 389.766 461.75 389.766 466.274V473.185L394.541 472.808C399.065 472.431 399.19 472.305 399.567 467.028C399.819 463.509 399.19 460.367 397.934 458.483C395.672 454.964 394.415 454.713 391.776 457.477Z" fill="#006697"/>
<path d="M406.1 457.854C405.472 459.237 404.844 463.132 404.844 466.651V473.059H409.242H413.64V465.771C413.64 458.608 412.258 455.467 408.991 455.467C408.111 455.467 406.854 456.598 406.1 457.854Z" fill="#006697"/>
<path d="M420.551 458.483C419.295 460.367 418.667 463.509 418.918 467.028C419.295 472.305 419.421 472.431 424.07 472.808L428.719 473.185V466.274C428.719 461.75 428.091 458.734 426.709 457.477C424.07 454.713 422.813 454.964 420.551 458.483Z" fill="#006697"/>
<path d="M436.384 457.226C435.63 458.106 434.876 462.001 434.624 465.645L434.373 472.431L439.148 472.808L443.798 473.185V466.776C443.798 457.1 440.279 452.576 436.384 457.226Z" fill="#006697"/>
<path d="M301.801 485.625V491.908H306.199H310.597V485.625V479.342H306.199H301.801V485.625Z" fill="#006697"/>
<path d="M317.133 485.877C317.51 492.914 317.259 492.663 325.05 492.034C326.432 491.909 326.934 490.275 326.934 485.625V479.342H321.782H316.756L317.133 485.877Z" fill="#006697"/>
<path d="M331.458 485.248C331.709 491.908 331.709 491.908 336.987 491.908C340.631 491.908 340.757 491.783 340.757 485.625V479.342H336.107H331.332L331.458 485.248Z" fill="#006697"/>
<path d="M346.033 485.877L346.41 492.411H350.808H355.207L355.583 485.877L355.96 479.342H350.808H345.656L346.033 485.877Z" fill="#006697"/>
<path d="M360.861 485.625V491.908H365.636H370.286V485.625V479.342H365.636H360.861V485.625Z" fill="#006697"/>
<path d="M375.941 485.625V491.908H380.34H384.738V485.625V479.342H380.34H375.941V485.625Z" fill="#006697"/>
<path d="M390.266 485.625C390.266 489.018 390.769 491.908 391.397 491.908C400.445 491.908 399.817 492.411 399.817 485.625V479.342H394.916H390.141L390.266 485.625Z" fill="#006697"/>
<path d="M404.844 485.625V491.908H409.242H413.64V485.625V479.342H409.242H404.844V485.625Z" fill="#006697"/>
<path d="M419.924 485.625V491.908H424.322H428.72V485.625V479.342H424.322H419.924V485.625Z" fill="#006697"/>
<path d="M434.373 485.248C434.373 490.903 434.624 491.28 438.143 492.034C440.279 492.411 442.29 492.411 442.918 492.16C443.421 491.908 443.798 489.018 443.798 485.5V479.342H439.023H434.373V485.248Z" fill="#006697"/>
<path d="M301.801 505.731V512.014H306.199H310.597V505.731V499.448H306.199H301.801V505.731Z" fill="#006697"/>
<path d="M316.879 505.731V512.014H321.905H326.932V505.731V499.448H321.905H316.879V505.731Z" fill="#006697"/>
<path d="M331.833 501.584C331.833 502.841 331.582 505.731 331.456 507.867C330.953 511.889 331.079 512.014 335.854 512.014H340.755V505.731V499.448H336.357C333.09 499.448 331.959 499.951 331.833 501.584Z" fill="#006697"/>
<path d="M345.781 505.731V512.014H350.808H355.834V505.731V499.448H350.808H345.781V505.731Z" fill="#006697"/>
<path d="M360.861 505.731V512.014H365.636H370.286L370.412 505.731L370.537 499.448H365.636H360.861V505.731Z" fill="#006697"/>
<path d="M375.941 505.731V512.014H380.34H384.738V505.731V499.448H380.34H375.941V505.731Z" fill="#006697"/>
<path d="M389.766 505.731V512.014H394.792H399.819V505.731V499.448H394.792H389.766V505.731Z" fill="#006697"/>
<path d="M404.844 505.731V512.014H409.242H413.64V505.731V499.448H409.242H404.844V505.731Z" fill="#006697"/>
<path d="M419.924 505.731V512.014H424.322H428.72V505.731V499.448H424.322H419.924V505.731Z" fill="#006697"/>
<path d="M434.373 505.731V512.014H439.148H443.798V505.731V499.448H439.148H434.373V505.731Z" fill="#006697"/>
<path d="M301.801 524.58V530.864H306.199H310.597V524.58V518.297H306.199H301.801V524.58Z" fill="#006697"/>
<path d="M316.879 524.58V530.864H321.905H326.932V524.58V518.297H321.905H316.879V524.58Z" fill="#006697"/>
<path d="M331.709 524.58C332.212 530.864 332.212 530.864 336.484 530.864H340.757V524.58V518.297H336.107H331.332L331.709 524.58Z" fill="#006697"/>
<path d="M345.781 524.58V530.864H350.808H355.834V524.58V518.297H350.808H345.781V524.58Z" fill="#006697"/>
<path d="M360.861 524.58V530.864H365.636H370.412V524.58V518.297H365.636H360.861V524.58Z" fill="#006697"/>
<path d="M375.941 524.58V530.864H380.34H384.738V524.58V518.297H380.34H375.941V524.58Z" fill="#006697"/>
<path d="M389.888 524.58L390.265 530.864H395.04H399.815V524.58V518.297H394.789H389.637L389.888 524.58Z" fill="#006697"/>
<path d="M404.844 524.58V530.864H409.242H413.64V524.58V518.297H409.242H404.844V524.58Z" fill="#006697"/>
<path d="M301.801 544.058V551.095L306.199 550.718L310.597 550.467V543.807V537.147H306.199H301.801V544.058Z" fill="#006697"/>
<path d="M317.133 543.681L317.51 550.341H321.908H326.306L326.683 543.681L327.06 537.147H321.908H316.756L317.133 543.681Z" fill="#006697"/>
<path d="M331.959 542.801C331.959 545.943 331.959 548.833 331.959 549.336C331.959 549.964 333.844 550.341 336.106 550.341C340.127 550.341 340.127 550.215 340.504 543.681L340.881 537.147H336.483C331.959 537.147 331.959 537.147 331.959 542.801Z" fill="#006697"/>
<path d="M346.033 543.681L346.41 550.215L350.808 550.341H355.207L355.583 543.681L355.96 537.147H350.808H345.656L346.033 543.681Z" fill="#006697"/>
<path d="M361.113 543.681C361.49 549.964 361.742 550.341 365.134 550.718C369.533 551.221 370.412 549.964 370.664 542.801L370.915 537.147H365.888H360.736L361.113 543.681Z" fill="#006697"/>
<path d="M375.941 543.932V550.718H380.34H384.738V543.932V537.147H380.34H375.941V543.932Z" fill="#006697"/>
<path d="M390.014 543.681L390.391 550.341H394.789H399.187L399.564 543.681L399.941 537.147H394.789H389.637L390.014 543.681Z" fill="#006697"/>
<path d="M404.844 544.058V551.095L409.242 550.718L413.64 550.467V543.807V537.147H409.242H404.844V544.058Z" fill="#006697"/>
<path d="M301.801 562.279V568.562H306.199H310.597V562.279V555.996H306.199H301.801V562.279Z" fill="#006697"/>
<path d="M316.879 562.279V568.562H321.905H326.932V562.279V555.996H321.905H316.879V562.279Z" fill="#006697"/>
<path d="M331.709 562.279C332.212 568.562 332.212 568.562 336.484 568.562H340.757V562.279V555.996H336.107H331.332L331.709 562.279Z" fill="#006697"/>
<path d="M345.781 562.279V568.562H350.808H355.834V562.279V555.996H350.808H345.781V562.279Z" fill="#006697"/>
<path d="M360.861 562.279V568.562H365.636H370.286L370.663 562.279L371.04 555.996H365.888H360.861V562.279Z" fill="#006697"/>
<path d="M375.941 562.279V568.562H380.34H384.738V562.279V555.996H380.34H375.941V562.279Z" fill="#006697"/>
<path d="M389.891 562.279L390.143 568.562H395.043H399.819V562.279V555.996H394.792H389.766L389.891 562.279Z" fill="#006697"/>
<path d="M404.844 562.279V568.562H409.242H413.64V562.279V555.996H409.242H404.844V562.279Z" fill="#006697"/>
<path d="M554.382 457.352C553.502 458.357 552.874 462.127 552.748 465.771V472.431L557.272 472.808L561.921 473.185V466.776C561.921 456.975 558.403 452.576 554.382 457.352Z" fill="#006697"/>
<path d="M569.711 456.975C568.831 457.854 568.203 461.75 568.203 465.771V473.059H572.601H576.999V466.651C576.999 457.226 573.732 452.954 569.711 456.975Z" fill="#006697"/>
<path d="M583.535 456.975C582.656 457.854 582.027 461.75 582.027 465.771V473.059H586.425H590.824V465.771C590.824 458.734 589.441 455.467 586.425 455.467C585.672 455.467 584.415 456.095 583.535 456.975Z" fill="#006697"/>
<path d="M598.613 456.975C597.734 457.854 597.105 461.75 597.105 465.771V473.059H601.504H605.902V466.651C605.902 457.226 602.635 452.954 598.613 456.975Z" fill="#006697"/>
<path d="M612.938 457.854C611.43 459.613 610.928 461.875 611.179 466.274C611.556 472.431 611.556 472.431 615.954 472.431C620.227 472.431 620.352 472.305 620.729 467.027C620.98 463.509 620.352 460.367 619.096 458.482C616.708 454.838 615.703 454.713 612.938 457.854Z" fill="#006697"/>
<path d="M628.016 457.477C626.634 458.734 626.006 461.75 626.006 466.274V473.185L630.781 472.808L635.43 472.431V466.274C635.43 460.493 633.42 455.467 631.032 455.467C630.404 455.467 629.022 456.346 628.016 457.477Z" fill="#006697"/>
<path d="M642.594 456.975C641.714 457.854 641.086 461.75 641.086 465.771V473.059H645.484H649.882V465.771C649.882 458.734 648.5 455.467 645.484 455.467C644.73 455.467 643.474 456.095 642.594 456.975Z" fill="#006697"/>
<path d="M656.919 457.477C655.537 458.734 654.908 461.75 654.908 466.274V473.185L659.683 472.808C664.207 472.431 664.333 472.305 664.71 467.028C664.961 463.509 664.333 460.367 663.076 458.483C660.814 454.964 659.558 454.713 656.919 457.477Z" fill="#006697"/>
<path d="M671.245 457.854C670.617 459.237 669.988 463.132 669.988 466.651V473.059H674.386H678.785V465.771C678.785 458.608 677.402 455.467 674.135 455.467C673.255 455.467 671.999 456.598 671.245 457.854Z" fill="#006697"/>
<path d="M686.576 456.975C685.697 457.854 685.068 461.75 685.068 465.771V473.059H689.467H693.865V465.771C693.865 458.734 692.482 455.467 689.467 455.467C688.713 455.467 687.456 456.095 686.576 456.975Z" fill="#006697"/>
<path d="M552.494 485.625V491.908H557.269H561.919V485.625V479.342H557.144H552.494V485.625Z" fill="#006697"/>
<path d="M566.947 485.374C566.947 488.767 567.199 491.783 567.576 492.034C567.827 492.411 570.089 492.411 572.602 492.16C577 491.657 577 491.531 577 485.5V479.342H571.974H566.947V485.374Z" fill="#006697"/>
<path d="M582.027 485.625V491.908H586.425H590.824V485.625V479.342H586.425H582.027V485.625Z" fill="#006697"/>
<path d="M595.848 485.5C595.848 491.531 595.848 491.657 600.246 492.16C602.759 492.411 605.021 492.411 605.272 492.034C605.649 491.783 605.901 488.767 605.901 485.374V479.342H600.874H595.848V485.5Z" fill="#006697"/>
<path d="M610.928 485.5C610.928 491.531 610.928 491.657 615.326 492.16L619.724 492.662V486.002V479.342H615.326H610.928V485.5Z" fill="#006697"/>
<path d="M626.006 485.5C626.006 491.406 626.132 491.657 629.776 492.16C631.912 492.537 633.797 492.411 634.174 492.16C634.551 491.783 634.802 488.767 634.802 485.374V479.342H630.404H626.006V485.5Z" fill="#006697"/>
<path d="M639.83 485.625V491.908H644.857H649.883V485.625V479.342H644.857H639.83V485.625Z" fill="#006697"/>
<path d="M654.908 485.625V491.908H659.935H664.961V485.625V479.342H659.935H654.908V485.625Z" fill="#006697"/>
<path d="M669.988 485.877V492.537L674.009 492.411C678.031 492.285 678.156 492.16 678.533 485.877L678.91 479.342H674.512H669.988V485.877Z" fill="#006697"/>
<path d="M685.068 485.625V491.908H689.467H693.865V485.625V479.342H689.467H685.068V485.625Z" fill="#006697"/>
<path d="M552.622 504.726C552.748 507.742 552.874 510.506 552.999 511.009C552.999 511.637 555.136 512.014 557.523 512.014H561.921V505.731V499.448H557.146H552.371L552.622 504.726Z" fill="#006697"/>
<path d="M566.947 505.731V512.014H571.974H577V505.731V499.448H571.974H566.947V505.731Z" fill="#006697"/>
<path d="M582.027 505.731V512.014H586.425H590.824V505.731V499.448H586.425H582.027V505.731Z" fill="#006697"/>
<path d="M595.848 505.731V512.014H600.874H605.901V505.731V499.448H600.874H595.848V505.731Z" fill="#006697"/>
<path d="M610.928 505.731V512.014H615.326H619.724V505.731V499.448H615.326H610.928V505.731Z" fill="#006697"/>
<path d="M626.006 505.731V512.014H630.404H634.802V505.731V499.448H630.404H626.006V505.731Z" fill="#006697"/>
<path d="M639.83 505.731V512.014H644.857H649.883V505.731V499.448H644.857H639.83V505.731Z" fill="#006697"/>
<path d="M654.908 505.731V512.014H659.935H664.961V505.731V499.448H659.935H654.908V505.731Z" fill="#006697"/>
<path d="M669.988 505.731V512.014H674.386H678.785V505.731V499.448H674.386H669.988V505.731Z" fill="#006697"/>
<path d="M685.068 505.731V512.014H689.467H693.865V505.731V499.448H689.467H685.068V505.731Z" fill="#006697"/>
<path d="M615.075 517.92C611.053 518.423 610.928 518.674 610.928 524.581C610.928 530.989 611.933 532.12 616.834 531.115C619.473 530.612 619.724 529.858 619.724 523.827C619.724 520.057 619.598 517.166 619.473 517.292C619.221 517.292 617.211 517.669 615.075 517.92Z" fill="#006697"/>
<path d="M582.027 524.58V530.864H586.425H590.824V524.58V518.297H586.425H582.027V524.58Z" fill="#006697"/>
<path d="M595.848 524.58V530.864H600.874H605.901V524.58V518.297H600.874H595.848V524.58Z" fill="#006697"/>
<path d="M626.006 524.58V530.864H630.404H634.802V524.58V518.297H630.404H626.006V524.58Z" fill="#006697"/>
<path d="M639.83 524.58V530.864H644.857H649.883V524.58V518.297H644.857H639.83V524.58Z" fill="#006697"/>
<path d="M654.908 524.58V530.864H659.935H664.961V524.58V518.297H659.935H654.908V524.58Z" fill="#006697"/>
<path d="M669.988 524.58V530.864H674.386H678.785V524.58V518.297H674.386H669.988V524.58Z" fill="#006697"/>
<path d="M685.068 524.58V530.864H689.467H693.865V524.58V518.297H689.467H685.068V524.58Z" fill="#006697"/>
<path d="M582.027 544.058V550.969H586.425H590.824V544.058V537.146H586.425H582.027V544.058Z" fill="#006697"/>
<path d="M596.102 543.681L596.479 550.341H600.877L605.275 550.215L605.652 543.681L606.029 537.147H600.877H595.725L596.102 543.681Z" fill="#006697"/>
<path d="M610.928 544.058V550.969H615.326H619.724V544.058V537.146H615.326H610.928V544.058Z" fill="#006697"/>
<path d="M626.006 544.058V550.969H630.404H634.802V544.058V537.146H630.404H626.006V544.058Z" fill="#006697"/>
<path d="M640.08 543.681L640.457 550.341H644.855H649.253L649.63 543.681L650.007 537.147H644.855H639.703L640.08 543.681Z" fill="#006697"/>
<path d="M655.16 543.681L655.537 550.341H659.935H664.333L664.71 543.681L665.087 537.147H659.935H654.783L655.16 543.681Z" fill="#006697"/>
<path d="M669.988 543.807V550.467L674.135 550.341C678.156 550.341 678.156 550.215 678.533 543.681L678.91 537.147H674.512H669.988V543.807Z" fill="#006697"/>
<path d="M685.068 543.932V550.718H689.467H693.865V543.932V537.147H689.467H685.068V543.932Z" fill="#006697"/>
<path d="M582.027 562.279V568.562H586.425H590.824V562.279V555.996H586.425H582.027V562.279Z" fill="#006697"/>
<path d="M595.848 562.279V568.562H600.874H605.901V562.279V555.996H600.874H595.848V562.279Z" fill="#006697"/>
<path d="M610.928 562.279V568.562H615.326H619.724V562.279V555.996H615.326H610.928V562.279Z" fill="#006697"/>
<path d="M626.006 562.279V568.562H630.404H634.802V562.279V555.996H630.404H626.006V562.279Z" fill="#006697"/>
<path d="M639.83 562.279V568.562H644.857H649.883V562.279V555.996H644.857H639.83V562.279Z" fill="#006697"/>
<path d="M654.908 562.279V568.562H659.935H664.961V562.279V555.996H659.935H654.908V562.279Z" fill="#006697"/>
<path d="M669.988 562.279V568.562H674.386H678.785V562.279V555.996H674.386H669.988V562.279Z" fill="#006697"/>
<path d="M685.068 562.279V568.562H689.467H693.865V562.279V555.996H689.467H685.068V562.279Z" fill="#006697"/>
<path d="M112.93 497.689C112.428 498.192 112.051 501.333 112.051 504.726V510.758H116.826H121.475L121.35 504.223C121.098 497.94 120.973 497.689 117.454 497.312C115.444 497.061 113.433 497.186 112.93 497.689Z" fill="#006697"/>
<path d="M112.428 524.58L112.679 530.864H117.454H122.104V524.58V518.297H117.077H112.051L112.428 524.58Z" fill="#006697"/>
<path d="M113.309 542.801V549.713H117.707H122.105V542.801V535.89H117.707H113.309V542.801Z" fill="#006697"/>
<path d="M113.309 562.279V568.562H117.707H122.105V562.279V555.996H117.707H113.309V562.279Z" fill="#006697"/>
<path d="M130.274 498.066C129.897 498.694 129.771 501.836 129.897 504.977L130.022 510.758H134.923H139.698V503.846V496.935H135.426C133.038 496.935 130.776 497.438 130.274 498.066Z" fill="#006697"/>
<path d="M144.346 497.689C143.844 498.192 143.467 501.333 143.467 504.726V510.758H148.619H153.645L153.268 504.223C152.891 497.94 152.766 497.689 148.996 497.312C146.985 497.061 144.849 497.186 144.346 497.689Z" fill="#006697"/>
<path d="M130.9 524.58V530.864H135.299H139.697V524.58V518.297H135.299H130.9V524.58Z" fill="#006697"/>
<path d="M144.725 524.58V530.864H149.123H153.521V524.58V518.297H149.123H144.725V524.58Z" fill="#006697"/>
<path d="M131.78 536.644C131.277 537.147 130.9 540.288 130.9 543.681V549.713H136.053H141.079L140.702 543.053C140.325 536.77 140.199 536.518 136.555 536.141C134.419 535.89 132.283 536.141 131.78 536.644Z" fill="#006697"/>
<path d="M144.725 542.801V549.713H149.123H153.521V542.801V535.89H149.123H144.725V542.801Z" fill="#006697"/>
<path d="M130.9 562.279V568.562H135.927H140.953V562.279V555.996H135.927H130.9V562.279Z" fill="#006697"/>
<path d="M144.725 562.279V568.562H149.123H153.521V562.279V555.996H149.123H144.725V562.279Z" fill="#006697"/>
<path d="M161.059 503.846V510.758H165.457H169.855V504.098V497.438L165.457 497.186L161.059 496.809V503.846Z" fill="#006697"/>
<path d="M161.938 517.92C161.436 518.297 161.059 521.439 161.059 524.832V530.864H166.085H171.112V523.952V517.041H166.965C164.577 517.041 162.315 517.418 161.938 517.92Z" fill="#006697"/>
<path d="M162.316 544.058V550.969H166.715H171.113V544.058V537.146H166.715H162.316V544.058Z" fill="#006697"/>
<path d="M162.316 562.279V568.562H166.715H171.113V562.279V555.996H166.715H162.316V562.279Z" fill="#006697"/>
<path d="M825.809 503.846V510.758H830.207H834.605V503.846V496.935H830.207H825.809V503.846Z" fill="#006697"/>
<path d="M825.809 523.952V530.864H830.207H834.605V523.952V517.041H830.207H825.809V523.952Z" fill="#006697"/>
<path d="M825.43 537.9C824.928 538.403 824.551 541.545 824.551 544.937V550.969H829.703H834.729L834.352 544.309C833.975 538.026 833.85 537.775 830.206 537.398C828.069 537.146 825.933 537.398 825.43 537.9Z" fill="#006697"/>
<path d="M824.551 562.279V568.562H829.577H834.604V562.279V555.996H829.577H824.551V562.279Z" fill="#006697"/>
<path d="M843.4 503.846V510.758H847.799H852.197V503.846V496.935H847.799H843.4V503.846Z" fill="#006697"/>
<path d="M856.468 498.443C856.091 498.946 855.965 501.961 856.217 505.103C856.594 510.758 856.594 510.758 861.369 510.758H866.018V503.846V496.809L861.494 497.186C859.107 497.312 856.719 497.94 856.468 498.443Z" fill="#006697"/>
<path d="M842.146 524.58V530.864H847.173H852.199V524.58V518.297H847.173H842.146V524.58Z" fill="#006697"/>
<path d="M855.967 524.58V530.864H860.993H866.02V524.58V518.297H860.993H855.967V524.58Z" fill="#006697"/>
<path d="M842.146 542.676V549.713H847.047H851.948L851.822 543.053L851.571 536.518L846.922 536.141L842.146 535.764V542.676Z" fill="#006697"/>
<path d="M855.967 542.801V549.713H860.365H864.763V542.801V535.89H860.365H855.967V542.801Z" fill="#006697"/>
<path d="M842.146 562.279V568.562H846.922H851.571L851.697 562.279L851.822 555.996H847.047H842.146V562.279Z" fill="#006697"/>
<path d="M855.967 562.279V568.562H860.365H864.763V562.279V555.996H860.365H855.967V562.279Z" fill="#006697"/>
<path d="M874.816 503.846V510.758H879.215H883.613V503.846V496.935H879.215H874.816V503.846Z" fill="#006697"/>
<path d="M874.816 524.58V530.864H879.215H883.613V524.58V518.297H879.215H874.816V524.58Z" fill="#006697"/>
<path d="M874.438 536.644C873.936 537.147 873.559 540.288 873.559 543.681V549.713H878.711H883.737L883.36 543.053C882.983 536.77 882.858 536.518 879.213 536.141C877.077 535.89 874.941 536.141 874.438 536.644Z" fill="#006697"/>
<path d="M873.559 562.279V568.562H878.585H883.612V562.279V555.996H878.585H873.559V562.279Z" fill="#006697"/>
<path d="M43.8191 497.689C43.3164 498.192 42.9395 501.333 42.9395 504.726V510.758H48.0916H53.118L52.741 504.098C52.3641 497.815 52.2384 497.563 48.5942 497.186C46.458 496.935 44.3217 497.186 43.8191 497.689Z" fill="#006697"/>
<path d="M56.3835 497.815C55.8809 498.192 55.5039 501.333 55.5039 504.726V510.758H60.5304H65.5568V504.6C65.5568 500.202 65.0542 498.192 63.5462 497.689C60.9073 496.684 57.3888 496.684 56.3835 497.815Z" fill="#006697"/>
<path d="M70.2078 497.815C69.7051 498.192 69.3281 501.333 69.3281 504.726V510.758H74.3546H79.381V504.6C79.381 500.202 78.8784 498.192 77.3705 497.689C74.7316 496.684 71.213 496.684 70.2078 497.815Z" fill="#006697"/>
<path d="M82.7722 497.815C82.2696 498.192 81.8926 501.333 81.8926 504.726V510.758H86.919H91.9455V504.6C91.9455 500.202 91.4428 498.192 89.9349 497.689C87.296 496.684 83.7775 496.684 82.7722 497.815Z" fill="#006697"/>
<path d="M95.7168 503.972V510.758H100.241H104.639L104.262 504.098C103.885 497.689 103.885 497.563 99.8636 497.438L95.7168 497.312V503.972Z" fill="#006697"/>
<path d="M42.9395 524.58V530.864H47.9659H52.9924V524.58V518.297H47.9659H42.9395V524.58Z" fill="#006697"/>
<path d="M55.5039 524.58V530.864H60.5304H65.5568V524.58V518.297H60.5304H55.5039V524.58Z" fill="#006697"/>
<path d="M69.3281 524.58V530.864H74.3546H79.381V524.58V518.297H74.3546H69.3281V524.58Z" fill="#006697"/>
<path d="M81.8926 524.58V530.864H86.919H91.9455V524.58V518.297H86.919H81.8926V524.58Z" fill="#006697"/>
<path d="M95.7168 524.58V530.864H100.115H104.513V524.58V518.297H100.115H95.7168V524.58Z" fill="#006697"/>
<path d="M43.8191 536.644C43.3164 537.147 42.9395 540.288 42.9395 543.681V549.713H48.0916H53.118L52.741 543.053C52.3641 536.77 52.2384 536.518 48.5942 536.141C46.458 535.89 44.3217 536.141 43.8191 536.644Z" fill="#006697"/>
<path d="M56.3835 536.77C55.8809 537.147 55.5039 540.288 55.5039 543.681V549.713H60.5304H65.5568V542.801V535.89H61.41C59.0224 535.89 56.7605 536.267 56.3835 536.77Z" fill="#006697"/>
<path d="M70.2078 536.77C69.7051 537.147 69.3281 540.288 69.3281 543.681V549.713H74.3546H79.381V542.801V535.89H75.2342C72.8466 535.89 70.5847 536.267 70.2078 536.77Z" fill="#006697"/>
<path d="M82.7722 536.77C82.2696 537.147 81.8926 540.288 81.8926 543.681V549.713H86.919H91.9455V542.801V535.89H87.7987C85.4111 535.89 83.1492 536.267 82.7722 536.77Z" fill="#006697"/>
<path d="M95.7168 542.801V549.713H100.115H104.513V542.801V535.89H100.115H95.7168V542.801Z" fill="#006697"/>
<path d="M42.9395 561.651V568.562H47.9659H52.9924V561.651V554.739H47.9659H42.9395V561.651Z" fill="#006697"/>
<path d="M56.3835 555.619C55.8809 555.996 55.5039 559.137 55.5039 562.53V568.562H60.5304H65.5568V561.651V554.739H61.41C59.0224 554.739 56.7605 555.116 56.3835 555.619Z" fill="#006697"/>
<path d="M69.8313 556.499C69.4543 557.504 69.3286 560.394 69.58 563.033C69.957 567.682 70.2083 567.934 74.7321 568.311L79.3816 568.688V561.776V554.739H74.9834C72.3445 554.739 70.2083 555.493 69.8313 556.499Z" fill="#006697"/>
<path d="M82.3957 556.499C82.0188 557.504 81.8931 560.394 82.1444 563.033C82.5214 567.682 82.7727 567.934 87.2965 568.311L91.946 568.688V561.776V554.739H87.5479C84.909 554.739 82.7727 555.493 82.3957 556.499Z" fill="#006697"/>
<path d="M95.591 555.242C95.3397 555.493 95.3397 558.635 95.4654 562.153C95.968 568.562 95.968 568.562 100.24 568.562H104.513V561.651V554.739H100.366C97.9786 554.739 95.8423 554.99 95.591 555.242Z" fill="#006697"/>
<path d="M894.045 497.94C891.531 498.317 891.154 499.071 891.154 504.6V510.758H896.306H901.333L900.956 504.223C900.579 497.563 899.951 496.935 894.045 497.94Z" fill="#006697"/>
<path d="M904.598 497.689C904.096 498.192 903.719 501.333 903.719 504.726V510.758H908.871H913.897L913.52 504.098C913.143 497.815 913.018 497.563 909.374 497.186C907.237 496.935 905.101 497.186 904.598 497.689Z" fill="#006697"/>
<path d="M916.913 497.94C916.536 498.317 916.285 501.333 916.285 504.726V510.758H921.437H926.464L926.087 504.223C925.71 497.689 925.584 497.563 921.689 497.438C919.427 497.312 917.29 497.563 916.913 497.94Z" fill="#006697"/>
<path d="M931.363 503.721V510.758H935.887H940.285L939.908 504.098C939.531 497.689 939.406 497.563 935.51 497.186L931.363 496.809V503.721Z" fill="#006697"/>
<path d="M943.932 503.846V510.758H948.33H952.728V503.846V496.935H948.33H943.932V503.846Z" fill="#006697"/>
<path d="M891.154 524.58V530.864H896.181H901.207V524.58V518.297H896.181H891.154V524.58Z" fill="#006697"/>
<path d="M903.719 524.58V530.864H908.745H913.772V524.58V518.297H908.745H903.719V524.58Z" fill="#006697"/>
<path d="M916.285 524.58V530.864H921.312H926.338V524.58V518.297H921.312H916.285V524.58Z" fill="#006697"/>
<path d="M931.363 524.58V530.864H935.761H940.16V524.58V518.297H935.761H931.363V524.58Z" fill="#006697"/>
<path d="M943.932 524.58V530.864H948.33H952.728V524.58V518.297H948.33H943.932V524.58Z" fill="#006697"/>
<path d="M892.034 536.644C891.531 537.147 891.154 540.288 891.154 543.681V549.713H896.306H901.333L900.956 543.053C900.579 536.77 900.453 536.518 896.809 536.141C894.673 535.89 892.537 536.141 892.034 536.644Z" fill="#006697"/>
<path d="M904.598 536.77C904.096 537.147 903.719 540.288 903.719 543.681V549.713H908.745H913.772V542.801V535.89H909.625C907.237 535.89 904.975 536.267 904.598 536.77Z" fill="#006697"/>
<path d="M917.165 536.77C916.662 537.147 916.285 540.288 916.285 543.681V549.713H921.312H926.338V542.801V535.89H922.191C919.804 535.89 917.542 536.267 917.165 536.77Z" fill="#006697"/>
<path d="M931.363 542.801V549.713H935.761H940.16V542.801V535.89H935.761H931.363V542.801Z" fill="#006697"/>
<path d="M943.932 542.801V549.713H948.33H952.728V542.801V535.89H948.33H943.932V542.801Z" fill="#006697"/>
<path d="M891.154 561.651V568.562H896.181H901.207V561.651V554.739H896.181H891.154V561.651Z" fill="#006697"/>
<path d="M904.598 555.619C904.096 555.996 903.719 559.137 903.719 562.53V568.562H908.745H913.772V561.651V554.739H909.625C907.237 554.739 904.975 555.116 904.598 555.619Z" fill="#006697"/>
<path d="M917.165 555.619C916.662 555.996 916.285 559.137 916.285 562.53V568.562H921.312H926.338V561.651V554.739H922.191C919.804 554.739 917.542 555.116 917.165 555.619Z" fill="#006697"/>
<path d="M931.363 561.651V568.562H935.761H940.16V561.651V554.739H935.761H931.363V561.651Z" fill="#006697"/>
<path d="M943.932 561.651V568.562H948.33H952.728V561.651V554.739H948.33H943.932V561.651Z" fill="#006697"/>
<path d="M177.648 504.726L178.025 511.386H182.424H186.822L187.199 504.726L187.576 498.192H182.424H177.271L177.648 504.726Z" fill="#006697"/>
<path d="M190.213 504.726L190.59 511.386H194.988H199.386L199.763 504.726L200.14 498.192H194.988H189.836L190.213 504.726Z" fill="#006697"/>
<path d="M204.037 504.726L204.414 511.386H208.812H213.21L213.587 504.726L213.964 498.192H208.812H203.66L204.037 504.726Z" fill="#006697"/>
<path d="M216.602 504.726L216.979 511.386L221.754 511.763L226.403 512.14V505.229V498.192H221.251H216.225L216.602 504.726Z" fill="#006697"/>
<path d="M229.168 504.726L229.545 511.386L234.32 511.763L238.97 512.14V505.229V498.192H233.817H228.791L229.168 504.726Z" fill="#006697"/>
<path d="M177.396 525.209V532.12H182.423H187.449V525.209V518.297H182.423H177.396V525.209Z" fill="#006697"/>
<path d="M189.963 525.209V532.12H194.989H200.016V525.209V518.297H194.989H189.963V525.209Z" fill="#006697"/>
<path d="M203.785 525.209V532.12H208.812H213.838V525.209V518.297H208.812H203.785V525.209Z" fill="#006697"/>
<path d="M216.602 524.832L216.979 531.492L221.754 531.869L226.403 532.246V525.334V518.297H221.251H216.225L216.602 524.832Z" fill="#006697"/>
<path d="M229.168 524.832L229.545 531.492L234.32 531.869L238.97 532.246V525.334V518.297H233.817H228.791L229.168 524.832Z" fill="#006697"/>
<path d="M177.648 543.681L178.025 550.341H182.424H186.822L187.199 543.681L187.576 537.147H182.424H177.271L177.648 543.681Z" fill="#006697"/>
<path d="M190.213 543.681L190.59 550.341H194.988H199.386L199.763 543.681L200.14 537.147H194.988H189.836L190.213 543.681Z" fill="#006697"/>
<path d="M204.037 543.681L204.414 550.341H208.812H213.21L213.587 543.681L213.964 537.147H208.812H203.66L204.037 543.681Z" fill="#006697"/>
<path d="M216.602 543.681L216.979 550.341H221.377H225.775L226.152 543.681L226.529 537.147H221.377H216.225L216.602 543.681Z" fill="#006697"/>
<path d="M229.168 543.681L229.545 550.341H233.943H238.341L238.718 543.681L239.095 537.147H233.943H228.791L229.168 543.681Z" fill="#006697"/>
<path d="M207.932 555.744C203.911 556.121 203.785 556.247 203.785 562.404V568.562H208.812H213.838V562.404C213.838 558.886 213.461 555.996 212.958 555.744C212.33 555.493 210.068 555.493 207.932 555.744Z" fill="#006697"/>
<path d="M216.98 555.87C216.603 556.121 216.352 559.137 216.352 562.53V568.562H221.378H226.404V562.404C226.404 556.373 226.404 556.247 222.006 555.744C219.493 555.493 217.231 555.493 216.98 555.87Z" fill="#006697"/>
<path d="M177.396 562.279V568.562H182.423H187.449V562.279V555.996H182.423H177.396V562.279Z" fill="#006697"/>
<path d="M189.963 562.279V568.562H194.989H200.016V562.279V555.996H194.989H189.963V562.279Z" fill="#006697"/>
<path d="M228.916 562.279V568.562H233.942H238.969V562.279V555.996H233.942H228.916V562.279Z" fill="#006697"/>
<path d="M757.197 504.726L757.322 511.386L762.097 511.763L766.747 512.14V505.229V498.192H761.846H756.945L757.197 504.726Z" fill="#006697"/>
<path d="M770.52 505.103V512.014H774.918H779.316V505.103V498.192H774.918H770.52V505.103Z" fill="#006697"/>
<path d="M783.084 505.103V512.014H787.482H791.88V505.103V498.192H787.482H783.084V505.103Z" fill="#006697"/>
<path d="M796.908 505.103V512.014H801.306H805.705V505.103V498.192H801.306H796.908V505.103Z" fill="#006697"/>
<path d="M809.473 505.103V512.014H813.871H818.269V505.103V498.192H813.871H809.473V505.103Z" fill="#006697"/>
<path d="M757.197 524.832L757.322 531.492L762.097 531.869L766.747 532.246V525.334V518.297H761.846H756.945L757.197 524.832Z" fill="#006697"/>
<path d="M770.52 525.209V532.12H774.918H779.316V525.209V518.297H774.918H770.52V525.209Z" fill="#006697"/>
<path d="M783.084 525.209V532.12H787.482H791.88V525.209V518.297H787.482H783.084V525.209Z" fill="#006697"/>
<path d="M796.908 525.209V532.12H801.306H805.705V525.209V518.297H801.306H796.908V525.209Z" fill="#006697"/>
<path d="M809.473 525.209V532.12H813.871H818.269V525.209V518.297H813.871H809.473V525.209Z" fill="#006697"/>
<path d="M757.071 543.681C757.448 550.341 757.448 550.341 761.846 550.341H766.119L766.496 543.681L766.873 537.147H761.72H756.568L757.071 543.681Z" fill="#006697"/>
<path d="M770.52 544.058V550.969H774.918H779.316V544.058V537.146H774.918H770.52V544.058Z" fill="#006697"/>
<path d="M783.084 544.184V551.095L787.231 550.718C791.126 550.341 791.252 550.215 791.629 543.681L792.006 537.147H787.608H783.084V544.184Z" fill="#006697"/>
<path d="M796.908 543.807V550.592L801.306 550.718L805.705 550.844V544.058V537.147H801.306H796.908V543.807Z" fill="#006697"/>
<path d="M809.473 543.932V550.718L813.871 550.592L818.269 550.467V543.807V537.147H813.871H809.473V543.932Z" fill="#006697"/>
<path d="M757.074 562.279L756.822 568.562H761.849H766.75V562.279V555.996H762.1H757.325L757.074 562.279Z" fill="#006697"/>
<path d="M770.52 562.279V568.562H774.918H779.316V562.279V555.996H774.918H770.52V562.279Z" fill="#006697"/>
<path d="M783.084 562.279V568.562H787.482H791.88V562.279V555.996H787.482H783.084V562.279Z" fill="#006697"/>
<path d="M796.908 562.279V568.562H801.306H805.705V562.279V555.996H801.306H796.908V562.279Z" fill="#006697"/>
<path d="M809.473 562.279V568.562H813.871H818.269V562.279V555.996H813.871H809.473V562.279Z" fill="#006697"/>
<path d="M264.102 510.129V517.166L268.877 516.789L273.526 516.412V510.129V503.846L268.877 503.469L264.102 503.092V510.129Z" fill="#006697"/>
<path d="M264.102 527.722V534.633H268.5H272.898V527.722V520.811H268.5H264.102V527.722Z" fill="#006697"/>
<path d="M264.102 546.571V553.483H268.5H272.898V546.571V539.66H268.5H264.102V546.571Z" fill="#006697"/>
<path d="M722.766 510.129V517.041H727.164H731.562V510.129V503.218H727.164H722.766V510.129Z" fill="#006697"/>
<path d="M722.766 527.722V534.633H727.792H732.819V527.722V520.811H727.792H722.766V527.722Z" fill="#006697"/>
<path d="M723.018 546.194L723.395 552.854H727.793H732.191L732.568 546.194L732.945 539.66H727.793H722.641L723.018 546.194Z" fill="#006697"/>
<path d="M458.877 527.094V533.377L496.952 533.125L534.902 532.748L535.279 526.717L535.656 520.811H497.329H458.877V527.094ZM534.022 526.717L533.645 531.492L496.952 531.869L460.134 532.12V527.094V522.067H497.329H534.399L534.022 526.717Z" fill="#006697"/>
<path d="M473.957 299.018C473.957 303.919 475.339 305.93 478.607 305.93C482.502 305.93 485.267 303.165 485.267 299.27C485.267 294.369 480.491 296.254 479.863 301.406L479.36 305.301L479.235 301.406C478.983 298.641 478.23 297.259 476.47 296.756C474.46 296.254 473.957 296.756 473.957 299.018Z" fill="#006697"/>
<path d="M502.357 304.045C501.226 307.312 501.478 308.066 502.985 305.553C503.739 304.296 504.116 302.914 503.739 302.663C503.488 302.286 502.86 302.914 502.357 304.045Z" fill="#006697"/>
<path d="M144.851 607.14C160.81 636.922 176.518 658.913 209.818 697.993L213.463 702.266L220.877 695.606C224.898 691.961 229.547 688.066 231.055 686.935C233.945 685.176 234.322 685.301 238.344 689.197C240.731 691.584 242.742 693.721 242.742 694.098C242.742 695.731 221.882 706.036 215.976 707.292L209.567 708.674L201.148 730.665C196.498 742.729 185.566 771.128 176.895 793.747C168.224 816.366 161.062 835.215 161.062 835.592C161.062 835.969 212.583 836.221 275.414 836.221C338.37 836.221 389.765 836.472 389.765 836.723C389.765 837.1 386.121 844.012 381.597 852.305C377.074 860.473 373.429 867.636 373.429 868.013C373.429 868.516 428.846 869.018 496.578 869.144C564.309 869.395 619.726 869.27 619.726 869.018C619.726 868.767 617.213 864.243 614.197 858.965C611.181 853.688 607.285 846.399 605.4 842.755L602.008 836.095L717.239 836.975L832.345 837.854L831.465 834.838C830.083 830.063 818.648 801.413 801.306 758.939C792.51 737.451 784.594 717.596 783.463 714.706C781.703 709.68 781.326 709.428 774.541 707.92C769.137 706.915 765.367 704.779 758.33 699.375L749.157 692.338L752.927 688.82C755.063 686.935 757.325 685.427 758.079 685.427C758.833 685.427 763.357 689.197 768.258 693.846L777.054 702.391L782.08 696.737C808.972 666.704 833.853 631.518 847.676 603.998L852.325 594.825L840.01 595.202L827.821 595.579L822.292 605.632C810.605 626.869 785.096 662.808 778.813 666.955C776.174 668.84 775.546 668.463 766.247 660.672C760.969 656.274 756.068 652.755 755.566 653.006C754.937 653.258 747.272 659.792 738.601 667.457C729.931 675.248 721.512 681.909 720.004 682.286C718.37 682.663 704.296 682.788 688.588 682.663L659.937 682.286L670.996 673.992C686.578 662.054 701.531 648.483 712.967 635.539C723.019 624.481 742.874 598.092 742.874 596.082C742.874 595.454 738.099 594.951 732.444 594.951H721.888L714.097 605.004C703.416 618.701 685.447 637.424 672.252 648.483C661.445 657.53 638.701 672.987 626.763 679.521L620.605 682.914H567.074H513.542L504.746 691.082L495.949 699.124L487.781 690.956L479.488 682.914H423.191H366.769L357.219 677.636C326.558 660.923 295.017 633.78 273.026 605.255L264.984 594.951H252.543C242.867 594.951 240.228 595.328 240.982 596.459C243.37 600.857 254.051 615.434 260.837 623.853C276.419 643.079 295.645 661.3 315.625 675.877C320.149 679.27 324.045 682.16 324.296 682.411C324.547 682.663 312.358 682.914 297.153 682.914H269.508L252.669 667.834C243.37 659.666 235.453 652.881 234.951 652.755C234.574 652.755 229.924 656.399 224.646 660.923C219.369 665.321 214.342 668.714 213.463 668.337C208.562 666.452 177.146 622.219 167.345 603.37L162.947 594.951H150.632H138.191L144.851 607.14ZM273.529 689.448C272.9 691.71 241.988 775.401 238.218 785.202C237.338 787.464 239.726 787.59 354.58 786.584L471.822 785.705L464.157 800.282L456.492 814.858H499.845H543.072L536.161 801.036C532.391 793.496 529.25 786.961 529.25 786.584C529.25 786.208 580.645 785.831 643.476 785.705L757.702 785.328L744.508 749.514C737.219 729.786 729.428 708.549 727.166 702.391C724.904 696.108 722.642 690.077 722.14 688.82C720.632 685.05 728.423 686.181 737.847 691.207L746.392 695.606L752.676 712.193C763.357 739.838 788.112 805.182 788.112 805.559C788.112 805.811 736.34 806.062 673.006 806.062C563.806 806.062 557.9 806.188 558.78 808.198C559.283 809.455 561.293 814.984 563.178 820.513C565.063 826.042 567.074 831.571 567.576 832.702C568.456 834.838 564.686 834.964 498.588 834.964C460.136 834.964 428.721 834.713 428.721 834.336C428.721 833.959 431.862 828.178 435.632 821.393C439.402 814.607 442.543 808.324 442.543 807.57C442.543 806.439 419.296 806.062 349.303 806.062C269.382 806.062 210.195 805.308 209.19 804.303C208.939 804.177 212.834 792.742 217.735 778.919C222.51 765.222 229.422 745.745 232.814 735.692C245.883 698.119 245.632 698.747 255.056 692.464C261.591 688.066 264.732 686.809 268.879 686.809C273.906 686.684 274.283 686.935 273.529 689.448ZM487.153 694.223C491.3 698.37 495.447 701.763 496.578 701.763C497.709 701.763 501.855 698.37 506.002 694.223L513.416 686.684H615.705H717.867L719.752 691.207C723.271 699.752 752.927 780.93 752.927 782.186C752.927 783.066 712.841 783.443 638.575 783.443H524.223L531.135 797.266C534.904 804.805 538.046 811.34 538.046 811.717C538.046 812.094 520.705 812.345 499.594 812.345H461.267L468.178 798.899C472.074 791.611 475.215 784.951 475.215 784.323C475.215 783.569 432.239 783.317 358.978 783.694C266.115 784.071 242.742 783.82 242.742 782.563C242.742 781.684 243.873 778.165 245.255 774.772C247.391 769.243 275.791 692.59 277.299 688.192C277.676 687.061 299.164 686.684 378.707 686.684H479.739L487.153 694.223ZM765.87 710.308C766.247 711.439 772.153 726.267 779.064 743.231C802.06 799.905 810.731 821.267 810.731 821.895C810.731 822.272 761.723 822.524 701.783 822.398C641.717 822.272 589.441 822.147 585.42 822.272L578.132 822.398L583.787 833.331C588.813 843.006 593.337 853.185 593.337 854.567C593.337 854.819 549.23 855.07 495.447 855.07H397.431L405.599 839.614C409.997 831.069 413.641 823.403 413.641 822.524C413.641 821.518 385.367 821.141 298.033 821.393C234.448 821.644 182.424 821.393 182.424 820.89C182.424 820.387 182.927 818.754 183.681 817.12C184.309 815.487 193.357 792.114 203.661 765.222C213.965 738.205 223.39 714.078 224.395 711.565C226.029 707.795 228.039 706.036 234.071 702.894C238.344 700.883 241.988 699.25 242.239 699.627C242.49 699.878 241.359 703.648 239.6 708.172C234.071 722.623 205.043 805.936 205.043 807.319C205.043 808.198 230.553 808.575 282.074 808.575C379.713 808.575 439.15 809.706 437.642 811.591C437.14 812.345 433.747 818.502 430.103 825.163L423.694 837.477H497.834C538.549 837.477 571.974 837.352 571.974 837.1C571.974 836.849 569.964 831.069 567.576 824.157C565.189 817.372 563.178 811.34 563.178 810.711C563.178 810.209 614.699 809.832 677.53 809.832C768.886 809.832 791.882 809.455 791.882 808.198C791.882 807.067 764.488 734.184 752.173 702.643L750.414 697.742L757.828 703.02C761.849 705.91 765.493 709.177 765.87 710.308Z" fill="#006697"/>
<path d="M354.202 716.465C353.699 716.842 353.322 727.649 353.322 740.341V763.337H364.632H375.941V753.284V743.231H396.047H416.153V753.284V763.337H427.462H438.772V739.461V715.586H427.462H416.153V725.01V734.435H396.047H375.941V725.01V715.586H365.511C359.731 715.586 354.579 715.963 354.202 716.465Z" fill="#006697"/>
<path d="M487.403 716.465C486.9 716.842 486.523 727.649 486.523 740.341V763.337H497.833H509.142V739.461V715.586H498.713C492.932 715.586 487.78 715.963 487.403 716.465Z" fill="#006697"/>
<path d="M549.354 719.984V724.382H564.433C575.617 724.382 579.512 724.759 579.512 725.89C579.638 726.77 579.638 735.566 579.512 745.368L579.387 763.337H591.45H603.388V743.86V724.508L618.844 724.131L634.175 723.754V719.984V716.214L591.827 715.837L549.354 715.586V719.984Z" fill="#006697"/>
<path d="M421.556 623.35C419.797 625.235 417.41 626.366 414.896 626.366C408.865 626.366 411.001 629.382 417.158 629.885L422.436 630.262V642.199C422.436 654.012 422.436 654.012 425.578 654.012H428.719V637.047C428.719 621.717 428.468 620.083 426.583 620.209C425.326 620.334 423.064 621.717 421.556 623.35Z" fill="#006697"/>
<path d="M460.387 623.225C455.11 627.623 454.733 634.408 459.633 639.058C462.272 641.571 464.157 642.074 469.938 642.074C473.833 642.074 478.106 641.571 479.237 640.943C481.247 640.063 481.373 640.315 480.116 643.707C478.608 647.98 474.21 651.498 470.189 651.498C468.681 651.498 466.168 650.116 464.409 648.357C461.267 645.215 456.366 644.084 456.366 646.472C456.366 647.226 457.748 649.236 459.508 650.87C462.021 653.509 463.78 654.012 470.315 654.012C477.352 654.012 478.357 653.635 482.127 649.865C488.912 643.079 489.541 631.267 483.509 624.23C480.996 621.34 479.362 620.837 472.451 620.334C465.162 619.832 464.032 620.083 460.387 623.225ZM477.477 625.863C485.897 631.77 474.461 642.828 465.791 637.173C459.382 632.9 463.278 623.853 471.446 623.853C473.205 623.853 475.969 624.733 477.477 625.863Z" fill="#006697"/>
<path d="M508.013 623.35C503.364 627.246 502.61 632.649 506.631 632.649C508.265 632.649 509.647 631.393 510.401 629.633C513.291 621.968 527.994 621.842 527.994 629.382C527.994 633.152 525.355 635.414 515.302 639.938C507.008 643.582 502.861 647.603 502.861 651.75C502.861 653.76 504.369 654.012 519.197 654.012C532.894 654.012 535.533 653.76 535.533 652.127C535.533 650.619 533.271 650.242 522.841 650.242C507.259 650.242 507.008 649.111 521.585 641.948C533.648 636.042 536.79 632.398 534.025 626.743C531.763 622.094 527.365 620.083 518.946 620.083C513.166 620.083 511.155 620.711 508.013 623.35Z" fill="#006697"/>
<path d="M557.019 623.35C549.479 629.633 548.976 643.959 556.013 650.493C559.155 653.509 560.789 654.012 567.072 654.012C573.355 654.012 574.988 653.509 578.381 650.493C581.774 647.477 582.528 645.844 583.031 639.812C584.036 626.743 578.884 620.083 567.449 620.083C562.171 620.083 560.035 620.711 557.019 623.35ZM573.229 626.115C576.622 628.879 577.878 637.927 575.868 644.336C574.109 649.739 569.082 652.252 564.056 650.367C560.16 648.859 558.527 646.095 558.15 640.189C557.521 632.398 558.15 630.136 561.291 626.994C564.935 623.35 569.334 622.973 573.229 626.115Z" fill="#006697"/>
</svg>
