<svg width="1001" height="1001" viewBox="0 0 1001 1001" fill="none" xmlns="http://www.w3.org/2000/svg">
<path d="M468.852 26.2547C312.368 37.6613 174.42 121.904 93.3856 255.574C22.5698 372.373 6.05403 517.688 48.8287 648.269C99.9206 803.803 226.937 922.146 385.56 961.95C426.552 972.168 463.149 976.089 509.844 975.258C552.262 974.426 579.472 970.98 616.187 961.831C732.391 932.602 832.793 861.073 898.856 760.315C937.709 701.025 962.305 634.486 972.167 561.532C975.612 535.986 976.563 484.181 973.949 457.566C963.493 347.896 918.104 248.802 843.13 171.332C763.878 89.5849 664.308 40.6317 551.431 28.037C531.469 25.7794 487.863 24.8289 468.852 26.2547ZM544.302 39.9188C636.98 48.8302 721.341 83.5252 793.82 142.459C810.455 156.004 847.883 193.67 860.715 209.71C944.72 315.459 978.939 445.446 957.196 577.097C942.937 663.122 904.797 742.492 845.982 808.674C707.32 964.802 480.377 1008.17 293.595 914.541C263.652 899.451 236.918 882.342 209.709 860.717C192.005 846.577 154.102 808.436 139.131 789.663C85.9 722.531 53.1061 645.536 41.5807 560.462C38.4915 537.174 37.3033 488.696 39.2044 464.219C45.7394 383.423 72.3547 307.973 117.981 240.603C187.252 138.3 296.684 67.0094 417.522 45.3845C430.592 43.0081 455.307 39.6812 465.881 38.9683C481.209 37.7801 528.855 38.3742 544.302 39.9188Z" fill="#294D6D"/>
<path d="M391.143 100.041C388.766 102.655 387.578 105.744 385.321 115.368C384.489 118.695 383.776 119.646 381.043 119.884C378.548 120.24 377.597 119.765 377.122 117.864C375.815 112.754 366.072 115.606 366.072 121.072C365.953 125.468 362.27 132.597 360.131 132.597C359.181 132.597 357.636 131.052 356.804 129.27C355.497 126.656 354.665 126.062 352.646 126.775C347.061 128.32 345.041 130.577 344.328 135.686C343.615 141.509 342.071 142.816 337.556 141.509C333.635 140.439 330.07 142.103 332.684 143.766C333.872 144.479 334.11 146.024 333.635 148.638C333.04 151.608 333.397 152.915 335.773 155.291C339.457 158.975 342.665 158.975 345.16 155.173C346.942 152.559 346.942 151.965 345.041 148.162C343.496 144.717 343.378 143.41 344.447 140.914C346.111 137.35 349.437 136.993 351.576 140.32C352.408 141.627 353.358 145.786 353.715 149.588C354.309 155.41 353.953 157.193 351.339 162.064C347.655 168.837 348.487 171.688 354.428 172.995C357.636 173.708 358.705 173.352 360.844 170.738C364.646 166.46 365.597 158.5 363.339 149.826C361.557 142.816 362.151 140.32 365.716 140.32C367.141 140.32 367.854 138.538 368.686 132.716C368.924 131.409 369.755 130.221 370.587 129.864C371.656 129.508 372.013 131.884 372.013 139.013C372.013 148.875 373.676 155.054 377.003 157.905C378.548 159.094 379.261 158.975 381.4 157.311C384.726 154.579 384.964 149.351 381.875 143.291C379.142 137.825 377.716 127.726 379.142 124.28C379.974 122.141 380.211 122.26 381.4 125.468C383.657 131.528 384.608 132.597 388.529 132.954C393.519 133.429 393.994 129.627 389.598 123.686C387.816 121.191 387.459 119.408 388.053 116.675C389.717 108.833 393.4 110.972 394.707 120.359C395.183 123.805 396.965 131.409 398.509 137.231C400.173 142.934 401.361 148.281 401.005 149.113C400.529 150.42 406.589 153.39 409.797 153.39C410.51 153.39 412.411 150.776 413.956 147.568C416.807 142.103 416.807 141.627 415.025 137.944C414.075 135.924 412.53 133.904 411.579 133.548C410.748 133.191 410.035 131.528 410.035 129.745C410.035 128.082 409.084 124.993 407.896 123.092C404.569 117.626 402.906 109.428 403.975 104.318C405.163 99.328 405.044 99.0903 398.509 98.021C394.47 97.4269 393.281 97.6645 391.143 100.041Z" fill="#294D6D"/>
<path d="M653.973 101.942C653.022 102.299 652.428 104.675 652.428 107.527C652.428 113.824 645.536 128.32 640.784 132.122C637.813 134.498 636.625 134.617 623.912 134.023C616.426 133.667 608.465 132.597 606.445 131.766C600.623 129.508 599.316 131.528 602.168 138.063C605.732 145.905 606.683 146.38 616.901 145.073C633.061 143.053 634.486 143.41 629.377 148.994C625.694 152.915 610.01 157.787 597.177 158.975L587.672 159.926L599.91 163.371C611.436 166.698 612.505 166.817 621.06 165.51C626.05 164.678 630.565 163.728 631.159 163.371C631.754 163.015 634.368 159.569 636.982 155.767C642.21 148.162 651.002 140.677 655.874 139.608C657.537 139.37 660.626 138.419 662.528 137.706C664.547 136.994 668.587 135.568 671.795 134.617C674.885 133.548 677.38 132.36 677.38 132.003C677.38 131.647 676.192 130.102 674.885 128.439C672.627 125.587 672.508 125.587 673.221 128.082C673.815 130.34 673.34 130.815 669.419 131.884C666.924 132.478 662.646 133.31 659.913 133.785C655.636 134.498 654.804 134.261 654.804 132.597C654.804 131.528 656.349 129.152 658.131 127.25C662.528 122.973 665.498 118.339 665.498 115.963C665.498 113.23 658.369 101.11 656.824 101.229C655.992 101.229 654.685 101.586 653.973 101.942Z" fill="#294D6D"/>
<path d="M654.326 168.956C653.85 173.471 652.662 179.768 651.83 182.857C650.88 185.947 650.523 188.798 650.999 189.155C651.474 189.63 654.92 189.392 658.722 188.68C664.9 187.61 665.495 187.135 665.495 184.402C665.495 180.243 662.286 170.025 660.267 167.768C659.435 166.698 658.247 164.678 657.89 163.134C656.345 158.381 655.157 160.401 654.326 168.956Z" fill="#294D6D"/>
<path d="M469.446 178.461C406.947 185.353 351.934 207.215 302.743 244.524C287.178 256.406 256.404 287.18 244.522 302.745C225.393 328.054 207.095 360.848 196.757 389.126C184.163 423.346 177.152 463.032 177.152 500.222C177.152 612.386 233.829 714.927 329.24 775.286C358.945 794.06 399.105 810.1 434.394 817.467C467.426 824.24 510.082 826.022 540.499 821.863C589.334 815.328 635.197 798.812 674.051 774.098C703.874 755.087 738.807 722.65 759.244 695.203C794.533 647.675 815.683 594.682 822.455 535.986C825.782 506.876 823.762 465.289 817.584 434.99C801.543 357.758 757.343 288.487 693.656 240.96C651.594 209.592 601.215 188.561 548.46 180.6C530.637 177.867 485.843 176.56 469.446 178.461ZM548.46 189.036C643.396 204.126 723.717 258.783 772.789 341.599C788.354 367.977 801.9 402.315 808.554 432.614C817.94 475.389 818.178 522.322 809.148 566.285C796.909 625.456 765.066 682.846 720.628 726.214C670.249 775.049 610.602 803.922 539.549 813.546C519.587 816.279 481.328 816.279 461.128 813.546C364.885 800.595 281.831 746.77 231.571 664.785C180.479 581.731 171.33 476.696 207.095 385.8C248.8 279.813 344.568 204.245 456.97 188.561C476.575 185.828 478.595 185.709 506.874 186.066C525.884 186.422 537.172 187.135 548.46 189.036Z" fill="#294D6D"/>
<path d="M498.676 296.804C497.845 320.687 497.726 321.637 494.993 324.489C492.26 327.341 492.023 328.529 491.785 342.312L491.428 357.164L488.22 357.521L484.893 357.877V385.205V412.415H480.735C476.933 412.415 476.576 412.177 476.576 408.85C476.576 405.523 476.22 405.286 472.418 405.286H468.259V421.326V437.367H408.85H349.44V427.861C349.44 418.474 349.44 418.356 346.47 418.356C344.094 418.356 343.5 418.95 343.5 421.326C343.5 424.297 343.5 424.297 332.212 424.297C320.924 424.297 320.924 424.297 320.924 421.326C320.924 418.95 320.33 418.356 317.954 418.356C314.983 418.356 314.983 418.474 314.983 427.861V437.367H268.644H222.305V499.152V560.938H500.934H779.563V499.152V437.367L732.986 437.129L686.291 436.772L685.934 427.505C685.578 418.712 685.459 418.356 682.726 418.356C680.35 418.356 679.756 418.95 679.756 421.326C679.756 424.297 679.637 424.297 669.062 424.297C658.487 424.297 658.368 424.297 658.368 421.326C658.368 418.95 657.774 418.356 655.398 418.356C652.665 418.356 652.546 418.712 652.19 427.505L651.833 436.772L592.781 437.129L533.609 437.367V421.326V405.286H529.45C525.648 405.286 525.292 405.523 525.292 408.85C525.292 412.177 524.935 412.415 521.133 412.415H516.974V385.205V357.877L513.172 357.521L509.251 357.164L508.657 341.599C508.182 329.242 507.588 325.44 506.043 323.776C504.023 321.4 503.667 317.716 502.003 286.705C501.647 278.744 500.934 272.209 500.34 272.209C499.865 272.209 499.152 283.259 498.676 296.804ZM504.261 330.905C505.924 332.212 506.281 334.47 506.281 345.163V357.758H500.934H495.587V344.688C495.587 333.638 495.944 331.618 497.726 330.549C500.459 328.885 501.647 329.004 504.261 330.905ZM510.796 388.295L510.439 411.821L500.696 412.177L490.834 412.534V388.651V364.887H500.934H511.034L510.796 388.295ZM525.292 428.455V437.367H500.934H476.576V428.455V419.544H500.934H525.292V428.455ZM343.5 433.802V437.367H332.212H320.924V433.802V430.237H332.212H343.5V433.802ZM679.756 433.802V437.367H669.062H658.368V433.802V430.237H669.062H679.756V433.802ZM650.051 448.654C650.051 454.001 650.051 454.001 645.892 454.001C643.16 454.001 641.734 453.407 641.734 452.338C641.734 447.823 635.318 447.347 634.011 451.744C633.417 453.407 632.11 454.001 629.258 454.001C626.406 454.001 625.099 453.407 624.505 451.744C623.198 447.347 616.782 447.823 616.782 452.338C616.782 453.526 615.237 454.001 612.029 454.001C608.821 454.001 607.276 453.526 607.276 452.338C607.276 447.823 600.86 447.347 599.553 451.744C598.484 455.189 591.592 454.833 590.048 451.268C589.335 449.843 587.79 448.654 586.483 448.654C585.176 448.654 583.632 449.843 582.919 451.268C581.374 454.952 572.819 455.308 572.819 451.744C572.819 450.555 571.987 449.248 571.037 448.773C568.304 447.823 565.69 449.248 565.69 451.744C565.69 455.308 557.135 454.952 555.59 451.268C554.878 449.843 553.333 448.654 552.026 448.654C550.719 448.654 549.174 449.843 548.461 451.268C546.917 454.833 540.025 455.189 538.956 451.744C537.649 447.347 531.233 447.823 531.233 452.338C531.233 453.526 529.688 454.001 526.48 454.001C523.272 454.001 521.727 453.526 521.727 452.338C521.727 447.823 515.311 447.347 514.004 451.744C513.41 453.407 512.103 454.001 509.251 454.001C506.4 454.001 505.093 453.407 504.499 451.744C503.192 447.347 496.775 447.823 496.775 452.338C496.775 453.526 495.231 454.001 492.023 454.001C488.814 454.001 487.27 453.526 487.27 452.338C487.27 447.823 480.854 447.347 479.547 451.744C478.477 455.189 471.586 454.833 470.041 451.268C469.328 449.843 467.784 448.654 466.477 448.654C465.17 448.654 463.625 449.843 462.912 451.268C461.367 454.952 454.119 455.189 453.169 451.744C452.1 447.347 445.683 447.347 445.683 451.744C445.683 453.526 444.852 454.001 440.931 454.001C437.723 454.001 436.178 453.526 436.178 452.338C436.178 451.506 435.465 450.08 434.514 449.367C432.376 447.585 427.861 449.605 427.861 452.219C427.861 455.071 419.9 454.595 418.949 451.744C417.642 447.347 411.226 447.823 411.226 452.338C411.226 453.526 409.681 454.001 406.473 454.001C403.265 454.001 401.721 453.526 401.721 452.338C401.721 447.823 395.304 447.347 393.997 451.744C393.047 454.595 385.086 455.071 385.086 452.219C385.086 449.605 380.571 447.585 378.432 449.367C377.482 450.08 376.769 451.506 376.769 452.338C376.769 453.526 375.224 454.001 372.016 454.001C368.808 454.001 367.263 453.526 367.263 452.338C367.263 447.823 360.847 447.347 359.54 451.744C359.065 453.288 357.639 454.001 355.263 454.001C351.936 454.001 351.817 453.764 351.817 448.654V443.307H500.934H650.051V448.654ZM344.688 500.934V555.116L336.133 554.759L327.459 554.403L327.103 500.578L326.865 446.872H335.776H344.688V500.934ZM673.815 500.934V555.116L665.26 554.759L656.586 554.403L656.23 500.578L655.992 446.872H664.903H673.815V500.934ZM254.386 461.724V473.012H241.316H228.246V461.724V450.437H241.316H254.386V461.724ZM285.278 474.794V499.152H281.714H278.149V509.371V519.47L272.565 519.114L266.862 518.757L266.505 508.895C266.149 499.39 266.149 499.152 263.297 499.152H260.327V474.794V450.437H272.803H285.278V474.794ZM320.924 461.724V473.012H306.072H291.219V461.724V450.437H306.072H320.924V461.724ZM709.46 461.724V473.012H694.608H679.756V461.724V450.437H694.608H709.46V461.724ZM740.353 474.794V499.152H737.383C734.412 499.152 734.412 499.271 734.412 509.252V519.351H729.065H723.719V509.252V499.152H719.56H715.401V474.794V450.437H727.877H740.353V474.794ZM772.434 461.724V473.012H759.364H746.294V461.724V450.437H759.364H772.434V461.724ZM358.946 460.536C358.946 464.457 359.184 464.695 363.105 464.695C367.026 464.695 367.263 464.457 367.263 460.536C367.263 456.496 367.382 456.378 372.016 456.378C376.65 456.378 376.769 456.496 376.769 460.536C376.769 464.457 377.006 464.695 380.927 464.695C384.848 464.695 385.086 464.457 385.086 460.536C385.086 456.615 385.324 456.378 389.245 456.378C393.166 456.378 393.403 456.615 393.403 460.536C393.403 464.457 393.641 464.695 397.562 464.695C401.483 464.695 401.721 464.457 401.721 460.536C401.721 456.496 401.839 456.378 406.473 456.378C411.107 456.378 411.226 456.496 411.226 460.536C411.226 464.457 411.464 464.695 415.385 464.695C419.306 464.695 419.543 464.457 419.543 460.536C419.543 456.615 419.781 456.378 423.702 456.378C427.623 456.378 427.861 456.615 427.861 460.536C427.861 464.457 428.098 464.695 432.019 464.695C435.94 464.695 436.178 464.457 436.178 460.536C436.178 456.496 436.297 456.378 440.931 456.378C445.565 456.378 445.683 456.496 445.683 460.536C445.683 464.338 445.921 464.695 449.248 464.695C452.575 464.695 452.812 464.338 452.812 460.536C452.812 456.496 452.931 456.378 457.565 456.378C462.199 456.378 462.318 456.496 462.318 460.536C462.318 464.457 462.556 464.695 466.477 464.695C470.398 464.695 470.635 464.457 470.635 460.536C470.635 456.615 470.873 456.378 474.794 456.378C478.715 456.378 478.953 456.615 478.953 460.536C478.953 464.457 479.19 464.695 483.111 464.695C487.032 464.695 487.27 464.457 487.27 460.536C487.27 456.496 487.389 456.378 492.023 456.378C496.656 456.378 496.775 456.496 496.775 460.536C496.775 464.457 497.013 464.695 500.934 464.695C504.855 464.695 505.093 464.457 505.093 460.536C505.093 456.615 505.33 456.378 509.251 456.378C513.172 456.378 513.41 456.615 513.41 460.536C513.41 464.457 513.648 464.695 517.569 464.695C521.49 464.695 521.727 464.457 521.727 460.536C521.727 456.496 521.846 456.378 526.48 456.378C531.114 456.378 531.233 456.496 531.233 460.536C531.233 464.457 531.47 464.695 535.391 464.695C539.312 464.695 539.55 464.457 539.55 460.536C539.55 456.615 539.788 456.378 543.709 456.378C547.63 456.378 547.867 456.615 547.867 460.536C547.867 464.457 548.105 464.695 552.026 464.695C555.947 464.695 556.185 464.457 556.185 460.536C556.185 456.615 556.422 456.378 560.343 456.378C564.264 456.378 564.502 456.615 564.502 460.536C564.502 464.457 564.739 464.695 568.66 464.695C572.581 464.695 572.819 464.457 572.819 460.536C572.819 456.496 572.938 456.378 577.572 456.378C582.206 456.378 582.325 456.496 582.325 460.536C582.325 464.457 582.562 464.695 586.483 464.695C590.404 464.695 590.642 464.457 590.642 460.536C590.642 456.615 590.88 456.378 594.801 456.378C598.722 456.378 598.959 456.615 598.959 460.536C598.959 464.457 599.197 464.695 603.118 464.695C607.039 464.695 607.276 464.457 607.276 460.536C607.276 456.496 607.395 456.378 612.029 456.378C616.663 456.378 616.782 456.496 616.782 460.536C616.782 464.457 617.02 464.695 620.941 464.695C624.862 464.695 625.099 464.457 625.099 460.536C625.099 456.615 625.337 456.378 629.258 456.378C633.179 456.378 633.417 456.615 633.417 460.536C633.417 464.457 633.654 464.695 637.575 464.695C641.496 464.695 641.734 464.457 641.734 460.536C641.734 456.615 641.971 456.378 646.011 456.378H650.17L649.813 462.556L649.457 468.853L500.696 469.21L351.817 469.448V462.913C351.817 456.496 351.817 456.378 355.381 456.378C358.708 456.378 358.946 456.734 358.946 460.536ZM358.946 478.359V486.082H363.105H367.263V478.24V470.517L371.778 470.873L376.175 471.23L376.531 478.597L376.887 486.082H380.927H385.086V478.359V470.636H389.245H393.403V478.359V486.082H397.562H401.721V478.359V470.636H405.879H410.038V478.359V486.082H414.791H419.543V478.359V470.636H423.702H427.861V478.359V486.082H432.019H436.178V478.359V470.636H440.337H444.495V478.359V486.082H449.248H454.001V478.359V470.636H458.159H462.318V477.171C462.318 480.735 461.843 483.706 461.13 483.706C460.536 483.706 459.942 485.25 459.942 487.27V490.835H405.879H351.817V480.735V470.636H355.381H358.946V478.359ZM478.953 477.171V483.706H474.794H470.635V477.171V470.636H474.794H478.953V477.171ZM496.775 477.171V483.706H492.023H487.27V478.002C487.27 471.111 487.626 470.636 492.854 470.636H496.775V477.171ZM513.41 477.171V483.706H509.251H505.093V477.171V470.636H509.251H513.41V477.171ZM530.995 477.408L531.351 483.706H526.599H521.727V477.052V470.517L526.242 470.873L530.639 471.23L530.995 477.408ZM547.867 478.359V486.082H552.026H556.185V478.359V470.636H560.343H564.502V478.359V486.082H569.255H574.007V478.359V470.636H578.166H582.325V478.359V486.082H586.483H590.642V478.359V470.636H594.801H598.959V478.359V486.082H603.712H608.465V478.359V470.636H612.623H616.782V478.359V486.082H620.941H625.099V478.359V470.636H629.258H633.417V478.359V486.082H637.575H641.615L641.971 478.597C642.328 471.23 642.328 471.23 646.249 470.873L650.051 470.517V480.616V490.835H595.989H541.926V487.27C541.926 485.25 541.451 483.706 540.738 483.706C540.144 483.706 539.55 480.735 539.55 477.171V470.636H543.709H547.867V478.359ZM254.386 487.864V501.647L241.672 501.291L228.84 500.934L228.483 489.171C228.364 482.636 228.483 476.577 228.721 475.745C229.196 474.557 232.642 474.2 241.91 474.2H254.386V487.864ZM320.924 487.864V501.529H306.072H291.219V488.696C291.219 481.567 291.576 475.388 292.051 475.032C292.408 474.557 299.18 474.2 306.903 474.2H320.924V487.864ZM709.46 487.864V501.647L694.964 501.291L680.35 500.934L679.993 489.171C679.875 482.636 679.993 476.577 680.231 475.745C680.706 474.557 684.39 474.2 695.202 474.2H709.46V487.864ZM772.434 487.864V501.647L759.721 501.291L746.888 500.934L746.532 489.171C746.413 482.636 746.532 476.577 746.769 475.745C747.245 474.557 750.69 474.2 759.958 474.2H772.434V487.864ZM539.55 489.647V493.211H564.502H589.454V505.093V516.975H569.849H550.244V511.747C550.244 506.519 550.125 506.4 540.501 499.271L530.639 492.023H500.815H471.111L460.773 499.39C450.555 506.757 450.436 506.875 450.436 511.866V516.975H430.831H411.226V505.093V493.211H436.178H461.13V489.647V486.082H500.34H539.55V489.647ZM363.461 504.737L363.105 516.381L357.52 516.737L351.817 517.094V505.212V493.211H357.758H363.817L363.461 504.737ZM378.907 504.737L378.551 516.381L371.778 516.737L364.887 517.094V505.093V493.211H372.016H379.264L378.907 504.737ZM393.403 505.093V516.975H386.868H380.333V505.093V493.211H386.868H393.403V505.093ZM409.8 504.737L409.444 516.381L402.671 516.737L395.78 517.094V505.093V493.211H402.909H410.157L409.8 504.737ZM606.088 505.093V516.975H598.959H591.83V505.093V493.211H598.959H606.088V505.093ZM621.297 504.737L620.941 516.381L614.168 516.737L607.276 517.094V505.093V493.211H614.406H621.654L621.297 504.737ZM635.793 505.093V516.975H629.258H622.723V505.093V493.211H629.258H635.793V505.093ZM650.051 505.093V516.975H644.11H638.169V505.093V493.211H644.11H650.051V505.093ZM529.213 503.667L532.421 506.994V530.401V553.809H528.262H524.104V534.441C524.104 517.45 523.866 514.717 521.727 511.39C518.163 505.45 515.43 504.499 500.934 504.499C490.359 504.499 487.151 504.855 484.537 506.638C477.883 510.915 477.17 513.41 476.814 534.441L476.339 553.809H472.893H469.447V529.807C469.447 497.726 466.595 500.34 500.34 500.34H526.005L529.213 503.667ZM262.703 514.004V525.411L245.831 525.055L228.84 524.698L228.483 515.311C228.246 510.083 228.364 505.212 228.721 504.261C229.196 503.073 233.236 502.717 246.068 502.717H262.703V514.004ZM320.924 514.004V525.292H301.319H281.714V514.004V502.717H301.319H320.924V514.004ZM719.56 514.004V524.698H699.955H680.35L679.993 515.311C679.756 510.083 679.875 505.212 680.231 504.261C680.825 502.954 684.746 502.717 700.193 502.954L719.56 503.311V514.004ZM772.434 514.004V525.411L755.562 525.055L738.571 524.698L738.214 515.311C737.977 510.083 738.096 505.212 738.452 504.261C738.927 503.073 742.967 502.717 755.8 502.717H772.434V514.004ZM515.905 510.915C518.638 513.173 518.757 513.767 519.113 533.491L519.47 553.809H516.499H513.41V537.174V520.539H500.934H488.458V537.174V553.809H485.488H482.517V533.966C482.517 508.182 482.161 508.658 500.459 508.658C511.152 508.658 513.529 509.014 515.905 510.915ZM450.436 535.986V553.809H432.019H413.602V538.956V524.104H410.632H407.661V538.956V553.809H402.909H398.156V538.956V524.104H395.186H392.215V538.956V553.809H387.462H382.71V538.956V524.104H379.739H376.769V538.956V553.809H372.016H367.263V538.956V524.104H364.293H361.322V538.956V553.809H356.57H351.817V535.986V518.163H401.126H450.436V535.986ZM650.051 535.986V553.809H645.298H640.546V538.956V524.104H637.575H634.605V538.956V553.809H629.852H625.099V538.956V524.104H622.129H619.158V538.956V553.809H614.406H609.653V538.956V524.104H606.682H603.712V538.956V553.809H598.959H594.206V538.956V524.104H591.236H588.266V538.956V553.809H569.255H550.244V536.818C550.244 527.431 550.6 519.351 551.075 518.995C551.432 518.52 573.888 518.163 600.979 518.163H650.051V535.986ZM268.644 535.392V544.303H261.515H254.386V537.768C254.386 531.59 254.267 531.233 251.415 531.233C248.564 531.233 248.445 531.59 248.445 537.768C248.445 543.947 248.326 544.303 245.593 544.303C242.979 544.303 242.623 544.897 242.266 549.294L241.91 554.403H235.375H228.84L228.483 542.046C228.364 535.154 228.483 528.857 228.721 528.025C229.196 526.837 233.83 526.48 249.039 526.48H268.644V535.392ZM320.924 540.739V555.116L312.369 554.759L303.695 554.403L303.339 549.531C303.101 545.729 302.388 544.422 300.606 543.947C298.705 543.471 298.348 542.283 298.348 537.293C298.348 531.352 298.23 531.233 294.784 531.233C291.219 531.233 291.219 531.352 291.219 537.768V544.303H283.496H275.773V535.392V526.48H298.348H320.924V540.739ZM726.095 535.392V544.303H718.372H710.649V537.768V531.233H706.49H702.331V537.768C702.331 542.64 701.856 544.303 700.668 544.303C699.48 544.303 698.767 545.967 698.529 549.294L698.173 554.403H689.261H680.35L679.993 540.382L679.637 526.48H702.925H726.095V535.392ZM772.434 540.739V554.997H765.899H759.364V549.65C759.364 544.778 759.126 544.303 756.394 544.303C753.542 544.303 753.423 543.947 753.423 537.768C753.423 531.352 753.423 531.233 749.859 531.233C746.294 531.233 746.294 531.352 746.294 537.768V544.303H739.759H733.224V535.392V526.48H752.829H772.434V540.739ZM508.657 540.739V553.809H500.34H492.023V541.57C492.023 534.798 492.379 528.857 492.854 528.5C493.211 528.025 497.013 527.669 501.172 527.669H508.657V540.739Z" fill="#294D6D"/>
<path d="M476.574 570.443V574.008H500.932H525.29V570.443V566.878H500.932H476.574V570.443Z" fill="#294D6D"/>
<path d="M462.316 580.543V583.513H500.932H539.548V580.543V577.572H500.932H462.316V580.543Z" fill="#294D6D"/>
<path d="M449.248 591.237V594.207H500.34H551.432V591.237V588.266H500.34H449.248V591.237Z" fill="#294D6D"/>
<path d="M465.288 663.597C456.614 667.518 452.812 677.38 456.852 685.935C460.298 693.183 470.397 696.866 478.121 693.539L482.517 691.757V695.797C482.517 701.381 480.735 705.421 477.17 707.797C474.437 709.58 473.962 709.58 471.229 707.797C469.566 706.728 468.259 705.065 468.259 704.114C468.259 702.807 466.714 702.332 462.318 702.332C456.852 702.332 456.377 702.569 456.377 705.183C456.377 710.174 461.011 714.095 468.259 715.521C486.319 719.085 495.587 707.441 494.161 683.321C493.567 672.984 491.191 667.518 485.725 664.31C481.21 661.577 470.754 661.221 465.288 663.597ZM480.735 672.627C483.349 677.617 482.992 681.776 479.428 685.222C474.081 690.688 467.07 686.885 467.07 678.568C467.07 672.508 469.803 669.063 474.794 669.063C478.121 669.063 479.19 669.775 480.735 672.627Z" fill="#294D6D"/>
<path d="M512.103 663.716C505.805 667.162 502.597 675.598 502.479 688.43C502.479 703.876 506.994 712.788 516.499 715.283C531.708 719.323 541.926 706.728 540.382 685.697C539.312 669.657 533.015 661.933 521.133 661.933C517.925 662.052 513.766 662.765 512.103 663.716ZM526.005 672.152C528.381 675.598 529.569 689.737 528.262 698.173C526.717 709.104 518.994 712.313 515.905 703.401C514.004 697.817 514.242 678.093 516.261 673.221C518.519 667.993 523.034 667.518 526.005 672.152Z" fill="#294D6D"/>
<path d="M555.946 664.428C550.599 667.161 547.51 672.627 547.51 679.281C547.51 685.578 551.193 690.806 557.372 693.301C563.194 695.678 566.521 695.678 570.679 693.539C574.6 691.519 575.313 692.707 574.125 699.48C572.937 705.54 572.105 706.965 568.422 708.391C564.976 709.698 561.412 708.154 560.342 704.708C559.748 702.688 558.56 702.331 553.57 702.331C547.629 702.331 547.629 702.331 548.341 705.54C550.243 713.382 561.293 718.134 571.392 715.402C582.442 712.431 586.245 705.302 586.245 687.36C586.245 677.023 585.888 674.766 583.512 670.488C581.967 667.637 579.115 664.785 576.858 663.716C571.511 661.22 561.293 661.458 555.946 664.428ZM571.868 671.082C574.957 673.815 574.838 682.489 571.63 685.697C566.521 690.806 559.154 686.766 559.154 678.805C559.154 670.488 566.402 666.092 571.868 671.082Z" fill="#294D6D"/>
<path d="M421.088 666.924C415.147 670.251 414.791 670.726 414.791 675.122C414.791 677.618 415.029 679.756 415.385 679.756C415.742 679.756 418.712 678.449 421.92 676.786L427.861 673.815V694.609V715.402H433.802H439.743V689.262V663.122L433.564 663.241C428.93 663.359 425.603 664.31 421.088 666.924Z" fill="#294D6D"/>
<path d="M146.735 221.949C147.091 223.85 149.111 234.306 151.25 245.475L155.171 265.674L155.765 250.227C156.359 236.326 156.715 234.068 159.805 227.89C163.369 220.642 163.369 218.978 159.686 220.879C158.141 221.711 156.597 221.592 154.577 220.404C152.913 219.572 150.418 218.859 148.873 218.741C146.497 218.741 146.141 219.216 146.735 221.949Z" fill="#294D6D"/>
<path d="M171.568 227.89C169.785 231.692 168.003 237.395 167.647 240.722C167.171 245.95 166.696 246.663 164.557 246.426C162.3 246.188 161.943 246.901 161.23 252.961C159.923 262.823 157.903 268.169 155.408 267.694C154.22 267.456 153.388 268.051 153.388 269.239C153.388 270.308 152.557 272.684 151.606 274.586C150.061 277.556 150.061 278.15 151.368 278.15C154.339 278.15 158.973 273.635 160.874 268.882C163.369 262.704 165.864 260.684 168.359 262.823C169.904 264.011 170.023 265.674 169.429 270.902C168.954 274.586 167.884 279.338 166.934 281.596C165.983 283.735 165.27 285.992 165.27 286.586C165.27 288.012 170.261 287.893 174.063 286.467C176.677 285.517 177.152 284.566 177.152 280.289C177.271 275.536 177.39 275.298 178.934 277.437C179.885 278.744 180.717 281.715 180.717 284.21C180.717 288.844 182.855 291.695 185.232 290.151C186.063 289.675 186.42 288.368 185.945 287.299C184.875 284.566 188.083 284.685 190.579 287.418C191.767 288.606 192.598 290.864 192.598 292.527C192.598 297.755 194.024 300.726 196.282 300.726C198.896 300.726 199.133 298.587 197.114 294.191C195.45 290.388 196.638 289.081 199.49 291.577C200.678 292.765 203.173 293.596 204.837 293.596C207.57 293.596 208.045 293.121 208.045 290.27C208.045 286.467 205.193 283.378 197.708 279.338C192.361 276.368 189.034 270.546 189.034 264.011C189.034 260.208 186.182 258.307 183.568 260.446C181.548 262.11 179.528 260.803 179.528 257.951C179.528 256.763 178.934 254.268 178.221 252.366C177.033 249.277 176.914 249.158 175.37 251.178C174.3 252.723 172.993 253.198 171.33 252.604C169.548 252.129 168.478 252.723 166.934 254.98C164.676 258.545 162.419 257.476 163.131 253.079C163.369 251.416 164.438 250.109 165.864 249.752C169.191 249.158 170.023 247.495 170.023 241.198C170.023 236.801 170.736 235.019 173.35 232.167L176.796 228.722L186.776 238.702C192.242 244.168 201.747 252.485 207.926 257C220.283 266.268 229.432 274.348 229.432 275.893C229.432 276.487 228.006 277.675 226.224 278.507C223.135 279.814 220.045 282.665 219.927 284.21C219.927 285.398 240.245 288.012 241.433 286.824C242.027 286.23 242.74 284.091 243.215 282.071C243.928 278.388 243.572 278.031 223.254 262.941C200.084 245.594 185.945 233.356 180.598 226.108C178.578 223.375 176.439 221.117 175.845 221.117C175.37 221.117 173.35 224.207 171.568 227.89Z" fill="#294D6D"/>
<path d="M808.434 237.989C805.583 242.267 802.969 246.663 802.612 247.851C801.424 250.94 805.345 248.445 810.573 242.861C814.137 238.94 814.613 237.751 814.137 234.306L813.425 230.147L808.434 237.989Z" fill="#294D6D"/>
<path d="M822.218 238.583C810.336 250.822 807.722 255.574 813.188 255.574C814.97 255.574 816.277 254.386 817.465 251.891C818.416 249.752 821.743 244.643 824.951 240.366C828.159 236.207 830.654 232.286 830.416 231.692C830.179 231.098 826.495 234.187 822.218 238.583Z" fill="#294D6D"/>
<path d="M855.012 234.306C851.091 236.801 846.694 237.276 845.506 235.375C844.199 233.236 842.536 234.187 842.536 237.157C842.536 239.296 841.704 240.247 839.565 240.841C835.525 241.791 835.882 243.098 840.397 244.405C846.932 246.306 845.981 249.158 838.258 251.416C832.674 252.96 831.367 253.079 830.535 251.772C829.941 250.94 829.466 249.871 829.466 249.277C829.466 246.9 827.089 248.802 827.089 251.297C827.089 253.792 826.258 254.386 822.099 255.337L816.99 256.406L822.099 257.238C826.376 258.069 827.327 258.663 827.802 261.396C828.159 263.179 829.584 265.08 831.01 265.674C832.674 266.506 833.624 267.931 833.624 269.832C833.624 274.229 827.565 274.466 821.148 270.427C818.534 268.763 815.089 266.862 813.544 266.387C812.118 265.793 806.771 262.822 801.662 259.852C796.553 256.762 792.157 254.505 791.8 254.742C791.563 255.099 790.85 256.881 790.256 259.02C789.543 261.753 789.661 263.179 790.85 264.367C793.701 267.218 802.85 271.021 809.504 272.328C812.95 272.922 818.059 273.872 820.911 274.466C826.614 275.536 828.99 277.199 827.683 279.338C827.089 280.288 825.307 280.526 822.812 280.17C818.297 279.457 817.94 280.051 820.911 283.615C823.644 286.823 828.04 289.2 830.06 288.487C830.891 288.13 832.317 285.16 833.149 281.833C834.694 275.892 835.763 274.585 837.189 276.962C838.615 279.338 841.466 278.031 842.06 274.704C842.655 271.734 843.367 271.258 846.576 271.258C852.992 271.496 863.685 270.664 864.992 269.951C865.586 269.476 866.299 267.694 866.537 265.911C866.893 262.822 866.299 262.228 860.358 259.852C853.586 257.119 851.804 254.624 854.893 252.128C856.2 251.059 856.437 249.99 855.606 248.445C854.774 246.9 855.249 245.712 857.863 243.455C860.596 240.96 861.071 239.771 860.596 236.207C860.002 231.216 859.883 231.098 855.012 234.306ZM849.308 258.188C852.992 261.634 852.754 264.129 848.477 266.743C845.387 268.525 844.199 268.644 840.753 267.456C836.951 266.268 836.595 265.674 836.595 261.634C836.595 259.139 836.951 256.762 837.427 256.406C839.209 254.505 846.576 255.693 849.308 258.188Z" fill="#294D6D"/>
<path d="M132.952 250.465C128.556 251.178 128.794 253.198 133.665 256.406C137.586 258.901 137.586 259.02 136.636 264.961C136.16 268.169 135.21 271.853 134.497 273.16C132.834 276.249 133.19 276.486 140.2 276.011L146.26 275.536V269.239C146.26 265.08 146.854 262.466 148.042 261.515C149.23 260.565 149.587 259.139 149.112 257.476C148.636 256.05 148.28 254.149 148.399 253.079C148.399 251.653 147.092 250.94 144.121 250.346C139.606 249.633 138.418 249.633 132.952 250.465Z" fill="#294D6D"/>
<path d="M768.87 269.714C768.87 274.467 769.464 277.437 770.652 278.625C772.791 280.645 779.801 282.903 784.435 282.903C786.099 282.903 788.475 283.616 789.663 284.566C791.921 286.23 791.921 286.467 790.02 290.507C788.831 292.765 786.693 295.498 785.029 296.567C781.583 298.824 779.682 298.112 771.484 291.458L766.256 287.299L769.939 294.191C771.959 297.993 773.623 302.627 773.623 304.409C773.623 306.31 774.692 308.924 776.118 310.35C778.138 312.37 779.445 312.607 784.079 312.013C790.257 311.182 793.228 308.449 798.931 298.943C801.783 294.072 802.495 293.478 805.466 294.072C807.248 294.428 809.387 294.309 810.338 293.715C812.239 292.408 813.308 285.398 811.882 283.14C811.288 282.309 802.852 278.388 793.228 274.586C783.485 270.665 774.454 266.387 773.029 265.08C771.603 263.773 770.177 262.704 769.702 262.704C769.226 262.704 768.87 265.912 768.87 269.714Z" fill="#294D6D"/>
<path d="M198.539 271.971C198.539 272.565 200.559 273.991 203.054 275.417C205.431 276.724 209.233 278.863 211.371 280.051C215.174 282.309 215.292 282.309 216.956 280.051C219.213 276.962 219.213 276.249 216.362 273.397C214.461 271.496 212.441 271.021 206.262 271.021C201.985 271.021 198.539 271.496 198.539 271.971Z" fill="#294D6D"/>
<path d="M164.084 297.636C164.084 298.587 164.559 299.656 165.035 300.013C165.51 300.369 167.53 303.458 169.312 307.142C173.946 316.172 175.609 317.479 180.6 315.697C182.857 314.984 184.877 313.795 185.115 312.964C185.471 312.132 182.738 309.637 179.293 307.498C175.847 305.241 171.926 302.151 170.619 300.725C167.173 296.923 164.084 295.497 164.084 297.636Z" fill="#294D6D"/>
<path d="M105.624 489.172C96.2375 494.162 96.8316 508.182 106.575 512.816C112.397 515.549 118.338 514.48 123.09 509.846C126.061 506.875 126.655 505.331 126.655 500.816C126.655 496.063 126.061 494.875 122.259 491.31C117.268 486.795 111.327 485.963 105.624 489.172Z" fill="#294D6D"/>
<path d="M880.321 489.409C876.519 491.667 873.43 497.489 873.43 502.004C873.43 503.905 875.093 506.876 877.47 509.608C881.153 513.648 882.103 514.005 887.688 514.005C893.154 514.005 894.223 513.529 897.312 510.084C900.045 506.994 900.758 505.093 900.758 500.816C900.758 496.182 900.164 494.756 896.718 491.31C893.51 488.102 891.728 487.27 888.163 487.27C885.549 487.27 882.103 488.221 880.321 489.409Z" fill="#294D6D"/>
<path d="M846.815 626.407C843.25 635.081 843.369 638.051 846.934 633.536C848.241 631.872 849.785 631.16 850.974 631.635C852.993 632.348 864.519 645.18 863.806 645.893C863.568 646.012 858.697 646.606 852.993 647.081L842.537 647.913V644.23C842.537 642.21 842.181 640.546 841.706 640.546C840.399 640.546 831.963 661.102 832.675 662.29C833.032 662.884 834.339 662.409 835.527 661.221C837.191 659.676 841.349 658.844 851.568 658.013C865.232 656.943 865.588 656.943 873.074 660.27L880.797 663.478L880.203 668.112C879.846 670.607 879.965 672.627 880.559 672.627C881.748 672.627 891.253 650.527 891.253 647.913C891.134 646.368 890.54 646.725 888.758 649.101C885.787 653.141 884.956 653.141 876.757 649.576C868.44 645.893 852.043 628.07 852.043 622.605C852.043 616.664 850.261 617.971 846.815 626.407Z" fill="#294D6D"/>
<path d="M150.655 619.872C150.18 620.347 150.18 621.773 150.417 623.199C150.774 624.624 150.655 626.288 150.061 627.12C148.992 628.664 115.247 642.922 112.514 642.922C111.683 642.922 110.138 641.734 109.069 640.19C104.672 633.655 106.455 640.427 113.703 657.894C118.099 668.231 121.663 676.905 121.782 677.023C121.782 677.142 125.584 675.716 130.1 674.053C140.199 670.132 141.625 667.874 133.783 667.874C126.654 667.874 121.188 665.26 118.455 660.626C116.673 657.537 116.554 656.705 117.861 655.28C119.644 653.497 152.794 639.358 155.17 639.358C156.002 639.358 157.428 640.546 158.497 641.972C162.299 647.794 161.586 642.685 156.953 631.516C151.606 618.565 151.725 618.802 150.655 619.872Z" fill="#294D6D"/>
<path d="M818.774 684.628C812.595 695.203 807.367 704.471 807.248 705.184C807.011 705.897 809.862 708.273 813.546 710.293C823.289 715.996 824.477 715.521 819.13 707.916C815.803 703.164 814.853 696.272 817.229 693.896C818.061 693.064 823.526 695.678 836.002 703.045C845.627 708.748 853.706 714.214 854.063 715.046C854.419 715.996 854.182 718.016 853.469 719.561C852.756 721.105 852.518 722.65 852.993 723.006C853.469 723.244 857.152 718.016 861.192 711.125C865.232 704.352 868.083 698.53 867.489 698.173C866.895 697.817 865.826 698.53 865.232 699.837C864.519 701.025 863.093 702.332 862.142 702.807C859.41 703.758 824.596 683.321 825.071 680.945C825.546 677.855 833.032 674.885 838.616 675.598C846.102 676.667 845.745 674.41 837.785 669.776C833.745 667.399 830.418 665.498 830.299 665.498C830.18 665.498 824.952 674.172 818.774 684.628Z" fill="#294D6D"/>
<path d="M155.764 687.836C136.159 690.569 134.852 690.687 131.525 688.786C125.465 685.222 125.822 687.123 134.139 700.549C137.109 705.183 139.367 704.827 136.872 700.074C135.208 696.985 137.585 694.608 143.407 693.42C148.397 692.589 149.11 693.064 153.863 701.262L156.952 706.728L153.388 711.599C149.348 717.303 147.328 717.778 144.714 713.857C143.763 712.431 142.575 711.599 142.1 712.075C141.03 713.025 153.506 734.294 155.289 734.413C156.002 734.413 156.358 732.987 156.12 731.086C155.764 728.472 158.378 724.075 169.903 708.035C177.864 697.222 184.28 687.479 184.28 686.41C184.28 683.915 181.666 684.034 155.764 687.836ZM168.834 689.975C168.834 691.163 160.398 702.332 159.447 702.332C158.378 702.332 152.912 692.826 153.625 692.232C153.982 691.757 159.566 690.687 168.002 689.38C168.477 689.38 168.834 689.618 168.834 689.975Z" fill="#294D6D"/>
<path d="M197.946 713.857C200.204 719.442 199.966 719.798 184.52 732.512C175.965 739.403 168.36 745.106 167.529 745.106C166.697 745.106 165.152 744.275 163.964 743.205C162.895 742.255 161.706 741.898 161.231 742.492C160.875 742.968 163.37 746.889 166.697 751.047C170.143 755.325 173.113 757.939 173.351 757.107C173.588 756.275 173.232 754.968 172.519 754.255C169.192 750.928 171.212 747.958 183.926 737.621C190.936 732.036 196.758 727.521 196.996 727.759C197.233 727.997 194.619 738.453 191.292 750.928C185.233 773.623 185.233 773.86 187.49 776.118C189.748 778.494 189.985 778.376 206.382 764.711C222.898 751.047 224.086 750.453 229.789 752.83C230.859 753.305 231.809 753.186 231.809 752.711C231.809 750.691 220.878 737.977 219.809 738.69C219.215 739.047 219.215 740.235 219.928 741.542C222.423 746.176 221.116 748.196 210.422 756.869C204.481 761.741 199.491 765.424 199.253 765.187C199.134 764.949 201.154 756.394 204.006 746.295C206.739 736.195 209.115 727.046 209.115 725.977C209.234 723.719 200.085 711.837 198.303 711.837C197.59 711.837 197.471 712.788 197.946 713.857Z" fill="#294D6D"/>
<path d="M794.534 720.749C790.85 725.739 787.523 730.492 787.167 731.442C786.216 733.7 788.355 733.7 790.256 731.442C791.088 730.492 792.276 729.66 792.87 729.66C793.464 729.66 801.187 735.126 809.98 741.779C826.139 754.018 826.615 754.612 824.595 759.959C824.357 760.553 824.714 761.147 825.308 761.266C826.971 761.266 841.348 742.492 840.516 741.185C840.16 740.71 838.972 741.066 837.902 742.017C836.714 743.086 835.051 743.918 834.219 743.918C833.268 743.918 825.426 738.452 816.634 731.799C800.712 719.679 800.475 719.442 802.732 713.857C804.633 709.223 800.831 712.431 794.534 720.749Z" fill="#294D6D"/>
<path d="M775.997 745.582C775.997 747.839 775.047 748.79 771.839 749.859C766.967 751.523 761.026 757.82 759.957 762.81C757.937 772.078 764.472 780.752 773.264 780.752C775.047 780.752 779.799 779.326 783.72 777.663C797.979 771.603 800.593 771.484 803.325 776.593C805.583 780.752 802.613 786.812 797.028 789.426C791.8 791.921 790.374 791.921 783.126 789.188C779.799 787.881 776.948 787.406 776.472 788C775.76 789.188 788.473 801.308 789.899 800.713C790.849 800.357 790.968 799.763 791.325 796.436C791.325 795.723 792.038 795.01 792.869 795.01C793.582 795.01 796.553 793.228 799.286 791.089C804.989 786.931 809.266 779.564 809.266 774.098C809.266 769.94 805.583 763.642 802.018 761.622C798.097 759.602 789.661 761.028 780.75 765.187C776.472 767.207 772.076 768.87 771.007 768.87C768.036 768.87 765.304 765.543 765.304 761.979C765.422 753.78 775.047 749.859 784.909 753.899C790.968 756.513 790.849 754.731 784.671 748.433C778.374 742.136 775.997 741.304 775.997 745.582Z" fill="#294D6D"/>
<path d="M231.215 762.929C224.918 769.227 224.799 772.553 230.978 768.87C233.117 767.563 236.087 766.494 237.869 766.494C240.721 766.494 250.939 772.078 252.484 774.573C252.84 775.168 242.741 778.613 229.077 782.534C215.888 786.218 204.362 790.02 203.531 790.733C202.343 791.921 204.719 794.773 215.769 804.872C223.255 811.882 229.908 817.586 230.384 817.586C230.859 817.586 234.186 814.734 237.632 811.169C241.671 807.13 243.454 804.516 242.622 803.922C241.79 803.446 240.008 803.922 238.582 804.872C234.542 807.367 230.265 808.199 225.987 806.892C221.948 805.823 213.393 800.001 214.343 799.05C214.581 798.694 225.156 795.604 237.869 791.921C250.583 788.356 261.752 784.554 262.702 783.604C264.247 782.059 263.178 780.514 252.603 770.534C246.068 764.355 239.889 758.889 238.82 758.176C237.394 757.345 235.612 758.414 231.215 762.929Z" fill="#294D6D"/>
<path d="M738.571 782.059C734.65 783.128 710.648 801.545 710.648 803.446C710.648 804.872 712.668 804.872 713.619 803.327C715.639 800.119 719.203 802.971 729.184 815.447C744.393 834.577 744.274 834.22 742.017 837.547C738.69 842.656 741.304 841.706 750.928 834.22C759.72 827.448 763.285 823.408 758.77 825.19C753.067 827.448 753.661 827.804 746.532 819.249C741.066 812.595 740.591 811.051 743.442 809.981C747.007 808.555 748.67 809.268 755.205 815.209C762.691 821.982 765.78 822.576 771.127 818.18C775.642 814.378 776.593 811.288 774.81 806.773C773.028 802.496 770.652 802.139 771.721 806.298C773.028 811.526 771.365 811.882 764.473 807.961C759.126 804.872 757.106 804.278 752.71 804.872L747.482 805.466L751.047 801.307C757.106 794.535 755.681 785.623 748.076 782.415C743.561 780.514 743.561 780.514 738.571 782.059ZM742.254 793.109C744.512 795.367 746.294 798.218 746.294 799.525C746.294 802.139 740.71 809.625 739.165 809.031C737.026 808.199 728.471 796.079 728.471 793.941C728.471 792.634 729.422 790.97 730.61 790.376C734.412 788.119 738.096 788.95 742.254 793.109Z" fill="#294D6D"/>
<path d="M268.88 787.406C269.118 788 270.068 789.901 270.9 791.564C272.326 794.535 271.851 795.485 261.276 810.813C255.216 819.724 249.513 827.329 248.681 827.685C247.849 828.042 246.067 827.685 244.879 827.091C243.691 826.378 242.384 826.378 242.027 826.972C241.196 828.16 261.157 842.062 262.345 840.993C262.702 840.518 262.108 839.092 260.919 837.785C258.781 835.408 258.899 835.171 264.484 827.091C267.692 822.457 270.662 818.774 271.257 818.774C272.326 818.774 284.089 827.091 284.089 827.923C284.089 828.16 281.594 831.963 278.623 836.121C273.633 843.013 272.682 843.845 269.593 843.488C267.573 843.25 266.029 843.607 266.029 844.082C266.147 845.627 286.347 859.053 287.059 858.103C287.297 857.509 286.584 856.202 285.277 855.013C283.97 853.825 282.901 852.399 282.901 851.805C282.901 851.211 288.129 843.25 294.426 834.101C305.952 817.586 306.07 817.467 309.873 818.18C312.011 818.536 313.794 818.417 313.794 817.942C313.794 816.397 293.832 803.209 293.119 804.397C292.763 804.991 293.238 806.06 294.189 806.892C295.139 807.724 295.971 809.031 295.971 809.744C295.971 811.051 286.703 824.715 285.871 824.715C285.634 824.715 282.426 822.695 278.861 820.081L272.326 815.566L277.673 808.199C282.663 801.308 283.257 800.832 286.584 801.545C292.287 802.852 290.505 800.713 280.168 793.822C269.474 786.693 268.167 785.861 268.88 787.406Z" fill="#294D6D"/>
<path d="M681.892 819.249C671.674 825.19 663.594 830.299 663.951 830.656C664.188 831.012 666.208 831.25 668.228 831.25C671.674 831.25 672.506 832.2 681.774 847.884C687.12 857.033 691.517 865.113 691.636 865.945C691.636 866.777 690.566 868.44 689.14 869.747C683.199 875.213 690.091 872.48 708.389 861.905L727.994 850.617L723.835 842.419C721.459 837.904 719.083 834.458 718.37 834.577C717.776 834.814 717.419 837.428 717.538 840.518C717.776 843.963 717.181 847.528 715.874 850.261C713.617 855.014 706.013 860.836 703.399 859.766C702.448 859.41 699.715 855.37 697.101 850.736C693.418 843.963 692.824 842.062 694.131 841.231C696.626 839.686 701.616 839.924 704.23 841.943C706.963 843.963 708.27 844.201 708.27 842.419C708.27 840.636 699.596 825.903 698.527 825.903C697.933 825.903 697.576 827.804 697.576 830.062C697.576 833.032 696.626 835.29 694.487 837.428C691.041 840.874 691.517 841.231 685.219 830.299L682.011 824.715L684.863 821.863C689.972 816.754 701.735 816.754 705.894 821.863C707.557 823.764 710.646 824.121 710.646 822.338C710.646 820.675 702.448 808.08 701.379 808.199C700.903 808.318 692.111 813.189 681.892 819.249Z" fill="#294D6D"/>
<path d="M321.518 830.537C316.409 832.794 309.636 839.805 307.735 844.557C305.834 849.548 306.428 860.123 308.923 864.875C313.557 873.787 320.924 878.183 331.617 878.183C340.172 878.183 343.856 876.52 349.797 869.985C359.064 859.766 358.708 845.508 348.965 835.884C341.479 828.279 330.786 826.259 321.518 830.537ZM343.618 835.29C347.777 839.448 348.014 843.013 344.687 852.756C341.479 861.905 334.944 871.648 330.429 874.024C326.271 876.163 322.825 875.569 318.904 871.886C310.111 863.925 324.964 831.844 337.321 831.844C338.865 831.844 341.717 833.389 343.618 835.29Z" fill="#294D6D"/>
<path d="M653.853 834.102C646.486 836.953 645.654 838.379 651.12 839.211C655.16 839.686 656.11 844.32 655.754 859.766L655.397 872.242L644.822 859.529L634.247 846.815L637.456 844.201C642.327 839.924 639.238 839.924 628.544 844.201C618.445 848.36 615.474 850.855 620.702 850.855C623.079 850.855 626.762 854.42 638.763 868.915C647.08 878.896 654.447 887.095 654.922 886.976C655.516 886.857 656.823 886.738 658.011 886.619C659.793 886.501 659.793 884.362 659.081 862.618C658.368 841.706 658.486 838.379 660.15 835.765C661.219 834.22 661.932 832.438 661.695 831.963C661.457 831.488 658.011 832.438 653.853 834.102Z" fill="#294D6D"/>
<path d="M369.64 844.557C369.64 845.033 370.828 846.577 372.254 848.122L374.749 850.855L369.759 867.489C364.412 885.55 364.174 889.114 368.808 893.392C375.818 899.689 389.601 902.778 395.186 899.095C399.701 896.125 401.364 892.917 405.998 877.589C408.375 869.747 410.751 862.855 411.226 862.261C411.82 861.667 413.603 861.192 415.266 861.192C421.088 861.192 418.355 858.459 410.038 855.964C405.523 854.657 401.483 853.825 401.246 854.182C400.889 854.419 402.196 856.202 404.097 857.984L407.543 861.192L403.265 875.331C397.087 896.243 395.542 898.382 386.987 898.382C381.641 898.382 375.581 893.511 375.581 889.114C375.581 886.025 384.017 857.152 385.562 854.538C386.037 853.825 387.938 853.231 389.958 853.231C396.374 853.231 393.522 850.974 383.066 847.884C377.244 846.221 371.897 844.557 371.184 844.32C370.353 844.082 369.64 844.201 369.64 844.557Z" fill="#294D6D"/>
<path d="M597.53 854.063C591.708 855.726 587.074 857.509 587.074 858.103C587.074 858.578 588.856 859.172 590.876 859.41L594.797 859.766L599.788 878.183C602.639 888.283 604.897 897.55 604.897 898.739C604.897 899.808 603.59 901.353 601.927 902.184C596.223 904.679 600.263 905.274 608.224 903.016C612.62 901.709 618.205 900.164 620.7 899.451C625.334 898.263 626.997 895.53 622.482 896.6C620.937 896.956 619.036 896.837 618.205 896.243C617.492 895.649 614.402 886.738 611.551 876.282C606.323 857.271 606.085 853.231 610.244 853.231C611.194 853.231 612.026 852.637 612.026 852.043C612.026 850.261 609.056 850.736 597.53 854.063Z" fill="#294D6D"/>
<path d="M570.798 860.598C566.639 861.192 563.312 862.143 563.312 862.618C563.312 863.212 565.094 864.044 567.233 864.638C570.798 865.707 571.154 866.182 572.461 874.024C573.174 878.658 574.125 885.193 574.6 888.758L575.432 895.293L560.579 879.847L545.608 864.4L537.291 865.469C528.379 866.658 526.597 867.965 532.3 869.034C536.459 869.866 536.34 869.391 539.667 892.322C542.162 909.908 542.162 910.739 540.143 912.165C538.954 912.997 537.41 913.947 536.697 914.185C535.984 914.423 535.746 915.017 536.103 915.492C537.172 916.561 554.995 913.71 554.995 912.522C554.995 911.928 553.569 911.452 551.787 911.452C549.886 911.452 547.866 910.977 547.034 910.502C545.727 909.67 540.499 878.183 541.568 876.995C541.806 876.757 549.292 884.124 558.084 893.392C571.629 907.531 574.719 910.264 577.689 910.264C579.59 910.264 581.135 909.908 581.135 909.314C581.135 908.838 579.709 898.857 578.046 887.213L574.837 865.826L578.046 863.331C579.709 862.024 581.135 860.479 581.135 860.004C581.135 859.053 580.778 859.053 570.798 860.598Z" fill="#294D6D"/>
<path d="M474.199 867.371C474.199 868.083 475.506 869.272 477.051 869.866C479.903 870.935 480.021 871.054 480.378 889.946C480.734 907.888 480.853 909.076 483.586 911.809C488.814 917.512 502.597 918.7 511.271 914.304C516.855 911.452 518.162 906.581 518.162 888.164V872.004L521.727 870.697C527.549 868.44 525.885 867.489 516.38 867.489C506.874 867.489 505.211 868.44 511.033 870.697L514.597 872.004V888.877C514.597 908.719 513.647 911.809 506.28 913.947C502.24 915.136 500.815 915.136 497.369 913.472C491.547 910.62 490.477 906.105 491.666 886.5L492.616 870.46L495.943 870.103C502.597 869.272 498.795 867.489 490.359 867.489C485.606 867.489 479.903 867.133 477.883 866.776C475.506 866.301 474.199 866.42 474.199 867.371Z" fill="#294D6D"/>
</svg>
