<svg width="600" height="600" viewBox="0 0 600 600" fill="none" xmlns="http://www.w3.org/2000/svg">
<path d="M0 300C0 134.315 134.315 0 300 0C465.685 0 600 134.315 600 300C600 465.685 465.685 600 300 600C134.315 600 0 465.685 0 300Z" fill="#AD3E2C"/>
<path d="M124.69 224.535C134.57 224.535 139.51 227.677 139.51 233.96C139.51 236.907 138.838 239.42 137.495 241.5C136.152 243.537 133.747 245.14 130.28 246.31C126.813 247.437 122.003 248 115.85 248H86.6C86.9467 239.593 87.12 231.728 87.12 224.405C87.12 217.082 86.9467 209.217 86.6 200.81H101.875V200.875H115.72C121.093 200.875 125.318 201.33 128.395 202.24C131.515 203.107 133.703 204.385 134.96 206.075C136.26 207.765 136.91 209.91 136.91 212.51C136.91 215.153 135.978 217.515 134.115 219.595C132.295 221.632 129.153 223.278 124.69 224.535ZM101.875 212.705V218.75H114.355C117.042 218.75 118.905 218.512 119.945 218.035C121.028 217.558 121.57 216.692 121.57 215.435C121.57 214.438 121.007 213.745 119.88 213.355C118.797 212.922 116.955 212.705 114.355 212.705H101.875ZM114.355 236.105C116.608 236.105 118.32 236.018 119.49 235.845C120.703 235.628 121.57 235.282 122.09 234.805C122.61 234.285 122.87 233.592 122.87 232.725C122.87 231.598 122.242 230.797 120.985 230.32C119.772 229.8 117.562 229.54 114.355 229.54H101.875V236.105H114.355ZM160.606 200.875L159.501 237.34L175.296 200.875H199.216C198.913 208.198 198.761 216.042 198.761 224.405C198.761 232.812 198.913 240.677 199.216 248H182.511L183.681 212.51L167.951 248H144.681C145.028 239.593 145.201 231.728 145.201 224.405C145.201 217.125 145.028 209.282 144.681 200.875H160.606ZM240.683 224.08C242.243 223.777 243.781 223.625 245.298 223.625C247.941 223.625 250.086 224.08 251.733 224.99C253.423 225.857 254.636 226.983 255.373 228.37C256.109 229.713 256.478 231.122 256.478 232.595C256.478 236.018 255.351 238.943 253.098 241.37C250.844 243.753 247.789 245.573 243.933 246.83C240.076 248.043 235.786 248.65 231.063 248.65C217.369 248.65 208.508 243.883 204.478 234.35L208.118 233.44C210.804 232.79 213.079 232.183 214.943 231.62C216.849 231.013 218.518 230.342 219.948 229.605C220.814 231.772 222.049 233.332 223.653 234.285C225.299 235.195 227.553 235.65 230.413 235.65C233.446 235.65 235.916 235.303 237.823 234.61C239.729 233.917 240.683 232.877 240.683 231.49C240.683 230.753 240.314 230.19 239.578 229.8C238.841 229.41 237.671 229.15 236.068 229.02C234.464 228.847 232.211 228.76 229.308 228.76H224.368V217.385H227.358C230.651 217.385 233.338 217.255 235.418 216.995C237.498 216.692 238.537 216.063 238.537 215.11C238.537 214.027 237.974 213.16 236.848 212.51C235.764 211.817 234.053 211.47 231.713 211.47C228.679 211.47 226.209 212.098 224.303 213.355C222.439 214.612 220.988 216.432 219.948 218.815C215.311 216.952 210.371 215.63 205.128 214.85C207.208 210.17 210.393 206.552 214.683 203.995C219.016 201.438 224.584 200.16 231.388 200.16C235.808 200.16 239.773 200.745 243.283 201.915C246.836 203.042 249.609 204.623 251.603 206.66C253.639 208.697 254.658 210.972 254.658 213.485C254.658 214.958 254.311 216.28 253.618 217.45C252.924 218.577 251.559 219.703 249.523 220.83C247.486 221.913 244.539 222.997 240.683 224.08ZM290.593 248.65C280.67 248.65 273.368 246.505 268.688 242.215C264.008 237.882 261.668 231.815 261.668 224.015C261.668 216.302 263.987 210.278 268.623 205.945C273.303 201.612 280.627 199.445 290.593 199.445C300.603 199.445 307.927 201.612 312.563 205.945C317.243 210.278 319.583 216.302 319.583 224.015C319.583 231.858 317.265 237.925 312.628 242.215C307.992 246.505 300.647 248.65 290.593 248.65ZM290.593 235.39C295.403 235.39 298.87 234.48 300.993 232.66C303.117 230.797 304.178 227.915 304.178 224.015C304.178 220.202 303.117 217.363 300.993 215.5C298.87 213.637 295.403 212.705 290.593 212.705C285.827 212.705 282.382 213.637 280.258 215.5C278.135 217.363 277.073 220.202 277.073 224.015C277.073 227.872 278.135 230.732 280.258 232.595C282.382 234.458 285.827 235.39 290.593 235.39ZM362.854 224.535C372.734 224.535 377.674 227.677 377.674 233.96C377.674 236.907 377.002 239.42 375.659 241.5C374.316 243.537 371.911 245.14 368.444 246.31C364.977 247.437 360.167 248 354.014 248H324.764C325.111 239.593 325.284 231.728 325.284 224.405C325.284 217.082 325.111 209.217 324.764 200.81H340.039V200.875H353.884C359.257 200.875 363.482 201.33 366.559 202.24C369.679 203.107 371.867 204.385 373.124 206.075C374.424 207.765 375.074 209.91 375.074 212.51C375.074 215.153 374.142 217.515 372.279 219.595C370.459 221.632 367.317 223.278 362.854 224.535ZM340.039 212.705V218.75H352.519C355.206 218.75 357.069 218.512 358.109 218.035C359.192 217.558 359.734 216.692 359.734 215.435C359.734 214.438 359.171 213.745 358.044 213.355C356.961 212.922 355.119 212.705 352.519 212.705H340.039ZM352.519 236.105C354.772 236.105 356.484 236.018 357.654 235.845C358.867 235.628 359.734 235.282 360.254 234.805C360.774 234.285 361.034 233.592 361.034 232.725C361.034 231.598 360.406 230.797 359.149 230.32C357.936 229.8 355.726 229.54 352.519 229.54H340.039V236.105H352.519ZM452.07 222C452.027 224.6 452.005 228.587 452.005 233.96C452.005 240.417 452.048 245.097 452.135 248H436.795L436.86 240.655C436.947 232.595 436.99 226.377 436.99 222C436.99 217.84 436.947 211.947 436.86 204.32L436.795 197.3H452.135C452.092 198.687 452.07 200.853 452.07 203.8V215.955V222ZM410.405 212.25C416.342 212.25 421 213.008 424.38 214.525C427.76 215.998 430.122 218.078 431.465 220.765C432.808 223.408 433.48 226.637 433.48 230.45C433.48 235.997 431.79 240.308 428.41 243.385C425.03 246.418 419.028 247.935 410.405 247.935H398.835V248H382.845C383.192 239.593 383.365 231.728 383.365 224.405C383.365 217.082 383.192 209.217 382.845 200.81H398.835V212.25H410.405ZM407.805 235.065C410.838 235.065 413.113 234.935 414.63 234.675C416.19 234.372 417.273 233.873 417.88 233.18C418.487 232.487 418.79 231.425 418.79 229.995C418.79 228.565 418.465 227.482 417.815 226.745C417.165 226.008 416.06 225.51 414.5 225.25C412.983 224.947 410.752 224.795 407.805 224.795H398.835V235.065H407.805ZM484.602 199.12C482.565 199.12 480.68 198.665 478.947 197.755C477.257 196.845 475.913 195.545 474.917 193.855C473.92 192.165 473.422 190.193 473.422 187.94H479.857C479.857 189.63 480.29 190.887 481.157 191.71C482.067 192.49 483.215 192.88 484.602 192.88C485.988 192.88 487.115 192.49 487.982 191.71C488.892 190.887 489.347 189.63 489.347 187.94H495.782C495.782 190.193 495.283 192.165 494.287 193.855C493.29 195.545 491.925 196.845 490.192 197.755C488.502 198.665 486.638 199.12 484.602 199.12ZM473.292 200.875L472.187 237.34L487.982 200.875H511.902C511.598 208.198 511.447 216.042 511.447 224.405C511.447 232.812 511.598 240.677 511.902 248H495.197L496.367 212.51L480.637 248H457.367C457.713 239.593 457.887 231.728 457.887 224.405C457.887 217.125 457.713 209.282 457.367 200.875H473.292ZM141.785 314.74V340.675H127.68V328H86.6C86.9467 319.593 87.12 311.728 87.12 304.405C87.12 297.082 86.9467 289.217 86.6 280.81H101.875V314.87H123.845V280.81H139.12C138.817 288.22 138.665 296.128 138.665 304.535C138.665 309.085 138.687 312.487 138.73 314.74H141.785ZM161.671 316.105C178.138 316.018 190.076 315.78 197.486 315.39C197.183 317.167 196.988 319.008 196.901 320.915C196.858 322.778 196.836 325.14 196.836 328H146.331C146.678 319.593 146.851 311.728 146.851 304.405C146.851 297.082 146.678 289.217 146.331 280.81H196.836V292.575H161.671V298.815C163.751 298.858 166.828 298.88 170.901 298.88C177.791 298.88 184.92 298.75 192.286 298.49V309.67C184.92 309.41 177.791 309.28 170.901 309.28C166.828 309.28 163.751 309.302 161.671 309.345V316.105ZM257.169 280.81C256.865 288.133 256.714 295.998 256.714 304.405C256.714 312.812 256.865 320.677 257.169 328H241.894V310.32H217.974V328H202.699C203.045 319.593 203.219 311.728 203.219 304.405C203.219 297.082 203.045 289.217 202.699 280.81H217.974V298.49H241.894V280.81H257.169ZM318.202 294.46C311.398 294.243 304.79 294.113 298.377 294.07V328H282.127V294.07C275.67 294.113 269.083 294.243 262.367 294.46V280.81H318.202V294.46ZM352.941 280.875C361.564 280.875 367.566 282.413 370.946 285.49C374.326 288.523 376.016 292.813 376.016 298.36C376.016 302.173 375.344 305.423 374.001 308.11C372.658 310.753 370.296 312.833 366.916 314.35C363.536 315.823 358.878 316.56 352.941 316.56H339.421V328H323.431C323.778 319.593 323.951 311.728 323.951 304.405C323.951 297.082 323.778 289.217 323.431 280.81H339.421V280.875H352.941ZM348.391 304.015C351.988 304.015 354.674 303.885 356.451 303.625C358.271 303.322 359.528 302.802 360.221 302.065C360.958 301.328 361.326 300.245 361.326 298.815C361.326 297.385 360.979 296.323 360.286 295.63C359.636 294.893 358.401 294.395 356.581 294.135C354.804 293.875 352.074 293.745 348.391 293.745H339.421V304.015H348.391ZM128.46 385.445C131.017 387.525 132.967 389.843 134.31 392.4C135.697 394.913 137.04 398.012 138.34 401.695C139.423 404.685 140.29 406.787 140.94 408H121.83C121.57 407.263 121.223 405.985 120.79 404.165C120.357 402.172 119.88 400.503 119.36 399.16C118.883 397.817 118.19 396.647 117.28 395.65C115.807 394.09 113.965 393.093 111.755 392.66C109.588 392.183 106.598 391.945 102.785 391.945V408H86.6C86.9467 399.593 87.12 391.728 87.12 384.405C87.12 377.082 86.9467 369.217 86.6 360.81H102.785V377.775C103.218 377.818 103.868 377.84 104.735 377.84C111.495 371.167 116.522 365.49 119.815 360.81H140.875L120.66 380.96C123.52 382.087 126.12 383.582 128.46 385.445ZM162.066 360.875L160.961 397.34L176.756 360.875H200.676C200.373 368.198 200.221 376.042 200.221 384.405C200.221 392.812 200.373 400.677 200.676 408H183.971L185.141 372.51L169.411 408H146.141C146.488 399.593 146.661 391.728 146.661 384.405C146.661 377.125 146.488 369.282 146.141 360.875H162.066ZM261.707 374.46C254.904 374.243 248.296 374.113 241.882 374.07V408H225.632V374.07C219.176 374.113 212.589 374.243 205.872 374.46V360.81H261.707V374.46ZM307.952 408C307.129 405.53 306.024 402.432 304.637 398.705H283.902L280.652 408H264.337L282.537 360.81H306.457L324.787 408H307.952ZM300.932 388.565C299.285 384.015 297.595 379.465 295.862 374.915L294.302 370.69C292.785 374.633 290.554 380.592 287.607 388.565H300.932ZM380.45 360.81C380.147 368.133 379.995 375.998 379.995 384.405C379.995 392.812 380.147 400.677 380.45 408H365.11V392.92H355.555C351.439 399.42 348.427 404.447 346.52 408H328.84L339.37 393.375C339.587 392.985 339.955 392.443 340.475 391.75C336.012 390.58 332.849 388.695 330.985 386.095C329.165 383.495 328.255 380.31 328.255 376.54C328.255 371.73 329.989 367.917 333.455 365.1C336.922 362.283 343.032 360.875 351.785 360.875H365.11V360.81H380.45ZM365.11 380.765V373.355H356.335C352.609 373.355 349.792 373.463 347.885 373.68C345.979 373.897 344.679 374.265 343.985 374.785C343.292 375.305 342.945 376.042 342.945 376.995C342.945 377.992 343.314 378.75 344.05 379.27C344.787 379.79 346.087 380.18 347.95 380.44C349.857 380.657 352.652 380.765 356.335 380.765H365.11Z" fill="white"/>
<path d="M506.643 481.687C506.428 481.928 506.215 482.169 506.002 482.409L505.927 482.493C502.448 486.038 499.195 489.501 496.036 492.956L495.956 493.037C492.518 496.423 489.182 499.804 485.802 503.252L485.701 503.343C482.252 506.511 478.759 509.739 475.087 513.085L474.96 513.187C471.415 516.092 467.712 519.089 463.742 522.217L463.595 522.324C460.167 524.745 456.55 527.248 452.681 529.851C452.362 530.065 452.047 530.277 451.735 530.486L451.583 530.584C446.785 533.453 442.761 535.812 439.174 537.888L439.028 537.972C434.236 540.42 430.204 542.429 426.166 544.455L426.037 544.521C421.918 546.324 417.793 548.144 412.885 550.39L412.77 550.441C408.918 551.965 404.592 553.716 399.431 555.86L399.319 555.903C396.961 556.741 394.431 557.648 391.697 558.639C389.722 559.355 387.745 560.067 385.771 560.775L385.653 560.813C381.015 562.207 376.396 563.576 371.851 564.911L371.731 564.943C366.956 566.078 362.263 567.181 357.717 568.244L357.598 568.269C352.678 569.15 347.927 569.995 343.424 570.798L343.309 570.816C338.194 571.454 333.395 572.055 329.025 572.617L328.913 572.629C323.371 573.05 318.513 573.445 314.566 573.824L314.45 573.83C313.279 573.88 312.188 573.934 311.182 573.991C306.498 574.255 303.134 574.305 300.06 574.276H299.94C295.556 574.005 291.77 573.605 285.563 573.315L285.475 573.31C282.281 572.992 278.441 572.67 273.538 572.355C272.72 572.302 271.914 572.25 271.121 572.198L271.032 572.188C265.839 571.573 261.153 570.993 256.743 570.422L256.648 570.407C251.693 569.5 247.09 568.623 242.504 567.719L242.414 567.7C237.859 566.551 233.324 565.376 228.472 564.1L228.395 564.08C226.339 563.422 224.225 562.743 222.027 562.034C220.021 561.387 217.535 560.599 214.676 559.703L214.616 559.684C210.724 558.236 206.128 556.543 201.105 554.706L201.054 554.687C196.882 552.909 192.408 551.012 187.799 549.067L187.755 549.047C183.507 546.987 179.141 544.877 174.792 542.784L174.752 542.764C170.476 540.424 166.217 538.102 162.11 535.875L162.073 535.854C157.742 533.203 153.586 530.673 149.773 528.371L149.735 528.346C145.12 525.218 141.023 522.475 137.767 520.342L137.723 520.309C137.276 519.982 136.846 519.668 136.433 519.368C133.048 516.91 129.606 514.33 126.176 511.706L126.126 511.665C122.451 508.536 118.796 505.353 115.251 502.229L115.207 502.189C111.64 498.696 108.193 495.275 104.968 492.064L104.937 492.032C101.379 488.098 98.1068 484.464 95.2705 481.357L95.2529 481.338C94.7658 480.745 94.2923 480.17 93.8332 479.615C91.0276 476.223 88.8503 473.527 87.2009 471.444C86.5023 470.562 86.2313 470.109 86.2969 470.053C86.297 470.053 86.297 470.053 86.297 470.053C86.3792 469.983 86.983 470.527 87.9323 471.618C90.1155 474.126 92.8232 477.21 95.9557 480.737L95.941 480.721C98.9801 483.802 102.396 487.235 106.106 490.923L106.077 490.894C106.898 491.629 107.733 492.374 108.581 493.129C111.781 495.98 114.432 498.382 116.773 500.539L116.729 500.499C120.905 503.961 124.145 506.759 127.687 509.837L127.64 509.799C130.894 512.34 134.392 515.085 139.009 518.633L138.964 518.6C142.279 520.882 146.149 523.519 150.872 526.693L150.821 526.66C151.543 527.092 152.284 527.535 153.046 527.989C156.593 530.105 159.958 532.101 163.198 534.017L163.138 533.982C167.574 536.302 171.782 538.492 175.906 540.64L175.832 540.603C180.236 542.611 184.545 544.579 188.924 546.596L188.838 546.558C193.171 548.285 197.572 550.054 202.193 551.938L202.098 551.902C206.395 553.397 210.881 554.978 215.674 556.695L215.577 556.663C219.893 557.958 224.456 559.347 229.349 560.859L229.256 560.834C230.167 561.064 231.09 561.298 232.024 561.536C236.074 562.565 239.776 563.476 243.229 564.304L243.14 564.285C248.309 565.241 252.925 566.04 257.322 566.773L257.225 566.757C262.118 567.312 266.74 567.798 271.542 568.314L271.427 568.302C275.935 568.549 280.602 568.812 285.802 569.153L285.673 569.146C290.024 569.203 294.749 569.293 300.067 569.44H299.933C304.291 569.333 309.049 569.243 314.328 569.177L314.2 569.184C318.329 568.915 322.777 568.645 327.604 568.372C327.929 568.354 328.252 568.336 328.574 568.317L328.46 568.329C333.676 567.757 338.412 567.214 342.766 566.692L342.666 566.708C347.884 565.803 352.55 564.959 356.835 564.153L356.739 564.173C361.839 562.934 366.393 561.779 370.701 560.653L370.598 560.681C375.329 559.175 379.757 557.722 384.293 556.223L384.173 556.262C388.432 554.603 392.788 552.896 397.596 551.038L397.457 551.092C401.455 549.302 405.773 547.385 410.627 545.267L410.474 545.335C414.381 543.38 418.644 541.27 423.382 538.955L423.224 539.036C425.22 537.928 427.303 536.777 429.482 535.578C431.575 534.427 433.694 533.265 435.837 532.093L435.678 532.185C439.696 529.707 443.796 527.191 447.948 524.652L447.795 524.752C451.717 522.063 455.689 519.35 459.682 516.63L459.536 516.736C463.346 513.838 467.178 510.931 471.005 508.033L470.867 508.144C474.551 505.038 478.232 501.942 481.883 498.873L481.756 498.988C485.302 495.677 488.82 492.396 492.284 489.168L492.168 489.284C495.566 485.767 498.911 482.309 502.176 478.933L502.07 479.051C505.315 475.324 508.475 471.694 511.523 468.191L511.428 468.308C514.517 464.357 517.483 460.561 520.289 456.96L520.204 457.077C523.15 452.86 525.908 448.901 528.43 445.261L528.353 445.378C530.487 441.926 532.437 438.751 534.171 435.903C534.732 434.98 535.3 434.046 535.875 433.102L535.805 433.223C537.982 429.18 540.26 424.947 542.629 420.545L542.564 420.673C544.547 416.476 546.599 412.131 548.716 407.656L548.656 407.789C550.431 403.463 552.256 399.018 554.126 394.471L554.073 394.609C555.632 390.173 557.226 385.641 558.853 381.028L558.807 381.17C560.142 376.641 561.504 372.034 562.888 367.363L562.85 367.508C563.957 362.901 565.083 358.231 566.226 353.512L566.195 353.658C567.071 348.986 567.961 344.267 568.863 339.51L568.84 339.654C569.42 335.389 570.008 331.094 570.604 326.777C570.668 326.316 570.731 325.853 570.795 325.39L570.78 325.532C571.176 320.857 571.569 316.068 571.962 311.183L571.955 311.323C572.086 306.607 572.213 301.804 572.336 296.93V297.07C572.207 292.334 572.072 287.532 571.932 282.678L571.94 282.819C571.555 278.08 571.163 273.292 570.768 268.469L570.783 268.612C570.145 263.884 569.502 259.124 568.858 254.344L568.88 254.487C567.994 249.786 567.105 245.065 566.218 240.338L566.249 240.483C565.119 235.819 563.99 231.15 562.868 226.488L562.906 226.632C561.537 222.019 560.175 217.412 558.826 212.825L558.871 212.966C557.269 208.413 555.681 203.88 554.113 199.377L554.165 199.513C552.335 195.031 550.528 190.579 548.752 186.172L548.809 186.3C548.537 185.715 548.265 185.13 547.994 184.547C546.297 180.894 544.542 177.116 542.742 173.242L542.802 173.361C540.607 169.22 538.353 164.967 536.058 160.64L536.121 160.748C533.688 156.688 531.214 152.56 528.719 148.398L528.783 148.497C526.119 144.537 523.433 140.545 520.745 136.551L520.81 136.64C517.92 132.796 515.028 128.95 512.158 125.132L512.223 125.212C509.111 121.494 506.022 117.804 502.981 114.171L503.045 114.241C499.713 110.659 496.436 107.135 493.24 103.698L493.302 103.76C489.747 100.316 486.288 96.9644 482.962 93.7405L483.021 93.7939C479.225 90.4817 475.594 87.3115 472.175 84.3249L472.231 84.37C468.141 81.1586 464.342 78.1733 460.91 75.4727L460.961 75.5096C458.819 73.9983 456.814 72.5825 454.963 71.2741C452.928 69.8355 451.014 68.4821 449.201 67.2013L449.246 67.2302C444.645 64.3272 440.678 61.8272 437.063 59.5567L437.101 59.5786C428.053 54.6395 420.531 51.9452 410.566 50.0118C408.355 49.603 406.033 49.177 403.551 48.7244C399.761 48.0364 395.528 47.5881 390.726 47.6357C386.613 47.6776 382.133 48.0846 377.513 49.0075C365.827 51.2487 353.387 57.2544 343.967 65.8331C341.325 68.207 338.716 70.5351 336.176 72.7844C328.456 79.6199 329.902 77.7464 337.359 70.5309C339.352 68.6022 341.29 66.7464 343.157 64.9666C351.626 56.8999 360.467 52.6994 366.375 50.094C370.259 48.385 373.707 47.257 376.999 46.4291C385.057 44.5546 392.304 43.7362 404.056 46.0463C405.435 46.3394 406.883 46.6513 408.411 46.9841C409.306 47.1788 410.178 47.3656 411.031 47.5449C423.709 50.3165 431.569 53.416 438.591 56.833L438.695 56.8929C441.391 58.4204 443.984 59.9309 446.663 61.6199C448.296 62.6488 449.639 63.5201 450.98 64.3999L451.082 64.4656C453.958 66.5747 456.826 68.7249 462.752 72.9035L462.835 72.9638C465.735 75.2445 469.398 78.0909 474.214 81.7854L474.291 81.8477C477.407 84.5086 481.027 87.5831 485.267 91.1641L485.343 91.2318C488.476 94.1722 491.964 97.4352 495.858 101.067L495.933 101.142C497.492 102.757 499.12 104.441 500.82 106.197C502.561 107.996 504.269 109.761 505.943 111.492L506.019 111.576C509.302 115.346 512.45 118.963 515.471 122.437L515.547 122.531C518.641 126.488 521.592 130.266 524.412 133.876L524.487 133.98C527.383 138.118 530.13 142.046 532.738 145.778L532.811 145.89C535.504 150.207 538.037 154.273 540.426 158.11L540.496 158.23C542.977 162.724 545.289 166.914 547.452 170.836L547.518 170.965C549.782 175.634 551.866 179.934 553.797 183.921L553.857 184.057C555.896 188.898 557.745 193.288 559.446 197.326L559.501 197.469C560.022 198.915 560.528 200.317 561.02 201.679C562.011 204.421 563.128 207.562 564.349 211.026L564.397 211.174C565.63 215.36 566.986 220.009 568.434 224.994L568.474 225.142C569.515 229.582 570.613 234.284 571.752 239.161L571.783 239.307C572.604 243.901 573.453 248.649 574.32 253.479L574.342 253.621C574.934 258.327 575.539 263.109 576.15 267.905L576.165 268.045C576.522 272.838 576.886 277.645 577.254 282.401L577.261 282.539C577.382 287.411 577.51 292.232 577.648 296.931V297.069C577.584 299.82 577.525 302.53 577.473 305.185C577.434 307.17 577.39 309.267 577.343 311.464L577.336 311.606C577.009 316.026 576.645 320.848 576.255 325.963L576.24 326.107C575.652 330.66 575.031 335.445 574.388 340.385L574.365 340.529C573.517 345.136 572.644 349.877 571.757 354.688L571.726 354.832C570.621 359.454 569.499 364.141 568.376 368.835L568.338 368.978C566.975 373.593 565.61 378.214 564.261 382.786L564.215 382.927C562.592 387.525 560.989 392.071 559.427 396.505L559.374 396.644C557.484 401.228 555.647 405.689 553.893 409.958L553.832 410.096C551.655 414.693 549.591 419.063 547.684 423.115L547.614 423.252C545.079 427.981 542.792 432.266 540.838 435.956L540.759 436.094C540.202 437.025 539.669 437.917 539.163 438.768C536.942 442.499 535.032 445.673 533.348 448.439L533.257 448.578C529.832 453.591 527.276 457.207 524.985 460.363L524.892 460.492C521.81 464.302 519.186 467.409 515.725 471.606L515.642 471.709C513.181 474.394 510.32 477.547 506.643 481.687Z" fill="white"/>
<g clip-path="url(#clip0_675_63)">
<path d="M315.007 158.182L322.424 149.992L310.4 105.965C310.4 105.965 315.821 101.573 323.211 94.429C327.914 89.6084 330.572 83.5705 331.187 77.349L331.183 77.3799L330.696 76.8389C324.472 76.8017 318.19 78.8091 312.969 82.9284L312.904 82.9816C305.03 89.5817 300.092 94.5174 300.092 94.5174L257.566 77.9601L248.646 84.4799L273.249 99.4069L284.323 108.226C283.196 109.133 281.913 110.23 280.649 111.367C274.552 116.857 269.349 122.974 265.052 129.524L265.437 128.983L254.88 123.805L249.536 128.617L261.335 136.939C260.823 138.235 260.456 139.346 260.142 140.468L260.19 140.312L259.352 141.067C259.574 141.039 259.803 140.994 260.026 140.961C259.974 141.179 259.903 141.399 259.852 141.623L260.69 140.868C261.676 140.707 262.819 140.458 263.951 140.149L264.164 140.081L271.208 152.686L276.552 147.874L272.506 136.834C278.896 133.572 285.521 129.033 291.618 123.543C292.881 122.406 294.106 121.244 295.29 120.054L295.126 120.218L302.742 132.156L315.013 158.182L315.007 158.182Z" fill="#FFCC4D"/>
</g>
<path d="M468 275.438C506.418 275.438 537.562 306.582 537.562 345C537.562 383.418 506.418 414.562 468 414.562C429.582 414.562 398.438 383.418 398.438 345C398.438 306.582 429.582 275.438 468 275.438Z" fill="#AD3E2C" stroke="white" stroke-width="1.5"/>
<path d="M444.562 336.562L463.312 349.688L456.281 328.125L475.031 314.531H451.828L444.562 293.438L437.531 314.531H414.094L432.844 328.125L425.812 349.688L444.562 336.562Z" fill="#FFCC4D"/>
<path d="M475.734 352.734L470.344 353.906L475.5 356.016V361.406L479.016 357.422L484.172 359.297L481.125 354.844L484.406 350.625L479.016 351.797L475.734 347.344V352.734Z" fill="#FFCC4D"/>
<path d="M483.703 336.797L479.719 340.312L485.109 339.844L487.453 345L488.391 339.609L493.781 339.141L489.094 336.328L490.266 330.938L486.281 334.453L481.594 331.641L483.703 336.797Z" fill="#FFCC4D"/>
<path d="M485.109 318.516L486.75 323.906L488.391 318.75H493.781L489.563 315.469L491.203 310.078L486.75 313.359L482.531 309.844L484.172 315.234L479.719 318.281L485.109 318.516Z" fill="#FFCC4D"/>
<path d="M475.734 299.766V305.156L479.016 300.703L484.406 301.875L481.125 297.656L484.172 293.203L479.016 295.313L475.5 291.094V296.484L470.344 298.594L475.734 299.766Z" fill="#FFCC4D"/>
<path d="M100.68 423.32V425.9L100.74 428.48H104.04L107.4 428.54V428.12V427.7H108.72L110.04 427.76V431.72C110.04 434.44 110.02 435.94 109.98 436.22C109.94 436.5 109.88 436.78 109.8 437.06C109.68 437.3 109.5 437.56 109.26 437.84C109.02 438.08 108.78 438.24 108.54 438.32C108.3 438.4 108.06 438.44 107.82 438.44H107.4V437.78V437.12H104.04H100.68V441.08C100.68 442.68 100.68 443.75 100.68 444.29C100.68 444.83 100.66 445.2 100.62 445.4C100.54 445.64 100.46 445.86 100.38 446.06C100.26 446.22 100.14 446.38 100.02 446.54C99.86 446.7 99.64 446.86 99.36 447.02C99.08 447.14 98.8 447.2 98.52 447.2H98.1V442.16V437.12H94.56H91.02L90.84 437.42C90.76 437.58 90.64 437.74 90.48 437.9C90.32 438.02 90.14 438.13 89.94 438.23C89.74 438.33 89.48 438.4 89.16 438.44H88.68V433.1V427.7H89.94H91.26V428.12V428.54L94.68 428.48H98.04L98.1 425.9V423.32H99.42H100.68ZM91.26 435.98H94.68L98.04 435.92V429.62H91.26V435.98ZM100.68 435.98H107.4V429.62H100.68V435.98ZM122.232 422.78L122.292 423.32V423.92H130.032H137.772V423.44V422.96H139.152H140.472V434.06C140.472 441.46 140.432 445.32 140.352 445.64C140.272 445.96 140.172 446.22 140.052 446.42C139.972 446.66 139.852 446.87 139.692 447.05C139.532 447.23 139.332 447.38 139.092 447.5C138.852 447.62 138.572 447.68 138.252 447.68L137.832 447.74V446.6L137.772 445.46H129.972H122.232L122.112 445.88C122.032 446.08 121.912 446.3 121.752 446.54C121.592 446.78 121.432 446.96 121.272 447.08C121.112 447.2 120.912 447.31 120.672 447.41C120.432 447.51 120.212 447.56 120.012 447.56H119.652V435.14V422.78H120.972H122.232ZM130.032 425.12C124.872 425.12 122.282 425.14 122.262 425.18C122.242 425.22 122.252 428.42 122.292 434.78V444.32H130.032H137.772V434.72V425.12H130.032ZM136.752 427.46V428.06V428.6L134.112 428.66H131.472V430.82V432.98H133.632H135.792V433.58V434.18H133.632H131.532L131.472 436.4C131.472 437.88 131.422 438.77 131.322 439.07C131.222 439.37 131.132 439.56 131.052 439.64C130.972 439.72 130.932 439.78 130.932 439.82C130.932 439.86 131.892 439.88 133.812 439.88L136.752 439.94V440.48V441.08H129.912H123.132V440.48V439.94L125.952 439.88H128.832V437.06V434.18H126.552H124.272V433.58V432.98H126.552H128.832V430.82V428.66H125.952L123.132 428.6L123.072 428.12C123.072 427.8 123.082 427.6 123.102 427.52C123.122 427.44 125.392 427.42 129.912 427.46H136.752ZM135.132 436.28C136.052 436.28 136.512 436.3 136.512 436.34C136.512 436.38 136.472 436.56 136.392 436.88C136.312 437.2 136.212 437.46 136.092 437.66C136.012 437.9 135.872 438.12 135.672 438.32C135.512 438.48 135.322 438.62 135.102 438.74C134.882 438.86 134.612 438.92 134.292 438.92H133.812V437.6V436.28H135.132ZM152.605 423.8C153.605 423.8 154.105 423.82 154.105 423.86C154.105 423.9 154.005 424.14 153.805 424.58C153.565 425.06 153.445 425.31 153.445 425.33C153.445 425.35 154.345 425.36 156.145 425.36L158.845 425.42V426.08L158.905 426.74H156.145C155.345 426.74 154.705 426.75 154.225 426.77C153.745 426.79 153.525 426.8 153.565 426.8C153.605 426.8 153.805 426.86 154.165 426.98C154.445 427.06 154.765 427.2 155.125 427.4C155.485 427.56 155.805 427.74 156.085 427.94C156.365 428.1 156.685 428.34 157.045 428.66C157.325 428.98 157.545 429.24 157.705 429.44L157.945 429.68H156.505H155.125L154.825 429.14C154.625 428.74 154.385 428.4 154.105 428.12C153.865 427.84 153.645 427.66 153.445 427.58C153.245 427.46 153.045 427.4 152.845 427.4L152.485 427.34L151.885 427.94C151.525 428.3 151.165 428.6 150.805 428.84C150.485 429.04 150.105 429.22 149.665 429.38C149.305 429.54 149.015 429.65 148.795 429.71C148.575 429.77 148.305 429.78 147.985 429.74H147.505L148.165 428.9C148.605 428.34 148.945 427.9 149.185 427.58C149.385 427.3 149.605 426.94 149.845 426.5C150.045 426.22 150.305 425.68 150.625 424.88L151.105 423.8H152.605ZM164.845 423.8C165.845 423.8 166.345 423.82 166.345 423.86C166.345 423.9 166.245 424.15 166.045 424.61C165.845 425.07 165.745 425.31 165.745 425.33C165.745 425.35 166.625 425.36 168.385 425.36L171.085 425.42V426.08L171.145 426.74H168.385L165.985 426.8L166.045 426.86C166.285 426.94 166.605 427.05 167.005 427.19C167.405 427.33 167.825 427.56 168.265 427.88C168.705 428.16 169.105 428.5 169.465 428.9C169.865 429.26 170.085 429.48 170.125 429.56C170.125 429.6 170.085 429.64 170.005 429.68C169.885 429.68 169.465 429.68 168.745 429.68H167.365L167.125 429.26C166.965 428.94 166.805 428.68 166.645 428.48C166.485 428.24 166.305 428.04 166.105 427.88C165.905 427.72 165.705 427.6 165.505 427.52C165.305 427.4 165.125 427.34 164.965 427.34C164.805 427.34 164.575 427.5 164.275 427.82C163.975 428.14 163.625 428.42 163.225 428.66C162.825 428.94 162.505 429.14 162.265 429.26C162.065 429.34 161.765 429.46 161.365 429.62C161.045 429.7 160.705 429.74 160.345 429.74C159.985 429.74 159.805 429.74 159.805 429.74C159.805 429.74 160.025 429.45 160.465 428.87C160.905 428.29 161.305 427.74 161.665 427.22C161.985 426.74 162.205 426.38 162.325 426.14C162.445 425.98 162.645 425.54 162.925 424.82L163.345 423.8H164.845ZM160.705 430.28C162.185 430.28 162.925 430.3 162.925 430.34C162.925 430.38 162.665 430.66 162.145 431.18L161.365 432.02L161.605 432.2C161.725 432.28 162.565 432.9 164.125 434.06C165.605 435.14 166.605 435.82 167.125 436.1C167.645 436.38 168.165 436.62 168.685 436.82C169.165 437.02 169.765 437.24 170.485 437.48C171.045 437.68 171.685 437.88 172.405 438.08C173.045 438.28 173.555 438.43 173.935 438.53C174.315 438.63 174.525 438.68 174.565 438.68C174.565 438.72 174.505 438.82 174.385 438.98L174.265 439.28L173.785 439.22C173.665 439.22 173.425 439.2 173.065 439.16C172.705 439.12 172.445 439.1 172.285 439.1C171.605 439.02 170.925 438.92 170.245 438.8C169.525 438.64 168.965 438.5 168.565 438.38C168.165 438.26 167.665 438.1 167.065 437.9C166.545 437.74 165.945 437.5 165.265 437.18C164.705 436.94 164.225 436.7 163.825 436.46C163.705 436.38 163.395 436.19 162.895 435.89C162.395 435.59 162.005 435.34 161.725 435.14C160.685 434.54 160.105 434.18 159.985 434.06L159.685 433.94L159.085 434.6C158.685 435.04 158.285 435.4 157.885 435.68C157.485 436 157.065 436.28 156.625 436.52C156.185 436.8 155.705 437.08 155.185 437.36C154.705 437.64 154.225 437.9 153.745 438.14C153.185 438.42 152.605 438.7 152.005 438.98C151.605 439.18 150.785 439.56 149.545 440.12L148.045 440.78L147.505 440.66L146.965 440.54L147.625 440.18C148.185 439.9 148.645 439.66 149.005 439.46C149.445 439.18 149.965 438.86 150.565 438.5C151.165 438.1 151.745 437.68 152.305 437.24C152.825 436.84 153.435 436.29 154.135 435.59C154.835 434.89 155.485 434.16 156.085 433.4C156.285 433.16 156.605 432.76 157.045 432.2C157.485 431.64 157.725 431.34 157.765 431.3L158.545 430.28H160.705ZM165.685 439.22C165.765 439.26 165.905 439.34 166.105 439.46C166.305 439.58 166.645 439.8 167.125 440.12C167.605 440.48 167.835 440.7 167.815 440.78C167.795 440.86 167.605 441.16 167.245 441.68C166.765 442.32 166.385 442.84 166.105 443.24C165.745 443.72 165.345 444.18 164.905 444.62C164.425 445.06 163.925 445.5 163.405 445.94C162.845 446.42 162.525 446.62 162.445 446.54C162.405 446.46 162.385 446.39 162.385 446.33C162.385 446.27 162.565 445.92 162.925 445.28C163.245 444.76 163.585 444.14 163.945 443.42C164.265 442.82 164.525 442.24 164.725 441.68C164.965 441.12 165.145 440.66 165.265 440.3C165.385 439.9 165.465 439.62 165.505 439.46C165.545 439.38 165.575 439.32 165.595 439.28C165.615 439.24 165.645 439.22 165.685 439.22ZM157.885 439.94C157.805 439.74 157.805 439.6 157.885 439.52C157.965 439.44 158.035 439.4 158.095 439.4C158.155 439.4 158.365 439.54 158.725 439.82C159.045 440.06 159.405 440.38 159.805 440.78C160.205 441.22 160.515 441.6 160.735 441.92C160.955 442.24 161.145 442.56 161.305 442.88C161.425 443.16 161.535 443.49 161.635 443.87C161.735 444.25 161.775 444.44 161.755 444.44C161.735 444.44 161.545 444.52 161.185 444.68C160.825 444.8 160.465 444.92 160.105 445.04C159.785 445.12 159.605 445.14 159.565 445.1C159.525 445.06 159.365 444.6 159.085 443.72C158.885 443 158.645 442.2 158.365 441.32C158.165 440.6 158.005 440.14 157.885 439.94ZM152.965 440.9C152.805 440.46 152.745 440.19 152.785 440.09C152.825 439.99 152.895 439.96 152.995 440C153.095 440.04 153.315 440.2 153.655 440.48C153.995 440.76 154.325 441.06 154.645 441.38C154.965 441.66 155.265 442 155.545 442.4C155.865 442.8 156.105 443.12 156.265 443.36C156.465 443.64 156.625 443.98 156.745 444.38C156.905 444.7 156.965 444.88 156.925 444.92C156.885 444.96 156.485 445.06 155.725 445.22C154.965 445.46 154.545 445.58 154.465 445.58C154.425 445.58 154.365 445.42 154.285 445.1C154.205 444.86 154.005 444.2 153.685 443.12C153.365 442.04 153.125 441.3 152.965 440.9ZM164.425 438.62H155.905V437.48H164.425V438.62ZM172.765 448.1H146.665V446.96H172.765V448.1ZM182.317 425.96C182.197 425.68 182.037 425.39 181.837 425.09C181.637 424.79 181.537 424.59 181.537 424.49C181.537 424.39 181.567 424.34 181.627 424.34C181.687 424.34 181.917 424.44 182.317 424.64C182.717 424.84 183.037 425.04 183.277 425.24C183.597 425.44 183.877 425.66 184.117 425.9C184.397 426.14 184.637 426.41 184.837 426.71C185.037 427.01 185.207 427.3 185.347 427.58C185.487 427.86 185.577 428.08 185.617 428.24C185.617 428.36 185.607 428.43 185.587 428.45C185.567 428.47 185.457 428.5 185.257 428.54C184.577 428.74 184.197 428.84 184.117 428.84C183.557 429 183.257 429.08 183.217 429.08C183.177 429.12 183.147 429.12 183.127 429.08C183.107 429.04 183.097 428.96 183.097 428.84C183.097 428.64 183.057 428.34 182.977 427.94C182.937 427.58 182.857 427.22 182.737 426.86C182.577 426.5 182.437 426.2 182.317 425.96ZM203.197 425.3V425.84V426.38H200.797H198.337V430.58V434.72H200.677H202.957V435.32V435.86H200.677H198.397L198.337 439.46V443L198.157 443.54C197.997 443.9 197.857 444.2 197.737 444.44C197.697 444.48 197.657 444.54 197.617 444.62C197.577 444.7 197.537 444.77 197.497 444.83C197.457 444.89 197.437 444.92 197.437 444.92L197.317 445.1H200.677H203.977V445.64L203.917 446.18H195.037H186.097L186.037 445.64V445.1H187.897H189.757V438.74V432.44H190.957C191.717 432.44 192.157 432.44 192.277 432.44L192.397 432.5V437.66C192.397 441.1 192.337 442.98 192.217 443.3C192.137 443.58 192.017 443.88 191.857 444.2C191.697 444.48 191.577 444.7 191.497 444.86L191.317 445.1H193.537H195.757V435.74V426.38H192.097H188.437V425.9C188.437 425.54 188.457 425.35 188.497 425.33C188.537 425.31 190.997 425.3 195.877 425.3H203.197ZM185.137 431.42L185.077 437.3C185.077 441.26 185.117 443.24 185.197 443.24C185.277 443.24 185.607 443.14 186.187 442.94C186.767 442.74 187.087 442.64 187.147 442.64C187.207 442.64 187.237 442.86 187.237 443.3V444.02L184.897 444.8C183.337 445.32 182.547 445.58 182.527 445.58C182.507 445.58 182.497 443.4 182.497 439.04V432.5H180.757H179.077V431.96V431.42H182.077H185.137ZM223.91 423.32V425.36V427.4H226.61H229.31V427.16V426.86L230.63 426.8H231.89V432.32C231.89 435.96 231.85 437.92 231.77 438.2C231.69 438.52 231.55 438.9 231.35 439.34C231.15 439.78 230.93 440.12 230.69 440.36C230.45 440.6 230.25 440.72 230.09 440.72C229.97 440.76 229.81 440.78 229.61 440.78L229.31 440.72V440V439.28H226.61H223.91V441.86C223.87 443.62 223.79 444.66 223.67 444.98C223.59 445.3 223.47 445.62 223.31 445.94C223.15 446.22 222.98 446.47 222.8 446.69C222.62 446.91 222.46 447.05 222.32 447.11C222.18 447.17 221.97 447.2 221.69 447.2H221.27V443.24V439.28H218.03H214.79L214.67 439.64C214.55 439.88 214.41 440.08 214.25 440.24C214.13 440.44 213.99 440.58 213.83 440.66C213.71 440.74 213.47 440.78 213.11 440.78L212.63 440.72V433.76V426.86L213.95 426.8H215.21V427.1V427.4H218.27H221.27V425.36V423.32H222.59H223.91ZM218.27 433.52C216.27 433.52 215.27 433.54 215.27 433.58C215.23 433.66 215.21 434.44 215.21 435.92L215.15 438.08H218.21H221.27V435.8V433.52H218.27ZM226.67 433.52C224.87 433.52 223.97 433.54 223.97 433.58C223.93 433.58 223.91 434.34 223.91 435.86V438.08H226.61H229.31V435.8V433.52H226.67ZM215.21 430.46L215.27 432.38H221.27V428.6H215.21V430.46ZM223.91 432.38H226.61L229.31 432.44V428.6H223.91V432.38ZM258.062 422.48L258.122 424.1V425.72H261.422H264.662V426.32V426.86H261.422H258.122V427.94V429.02H260.462H262.862V429.56V430.16H260.462H258.122L258.062 430.52C258.062 430.8 258.022 431.05 257.942 431.27C257.862 431.49 257.762 431.72 257.642 431.96L257.522 432.26H261.122H264.662V432.86V433.46H257.162L249.662 433.4V432.86V432.32H252.902L256.142 432.26V431.24V430.16H253.442H250.802V429.56V429.02H253.442H256.142V427.94V426.86H252.902H249.662V426.26L249.602 425.72H252.902H256.142V424.1C256.142 423.06 256.162 422.52 256.202 422.48C256.242 422.44 256.562 422.42 257.162 422.42L258.062 422.48ZM243.782 423.92C244.102 423.96 244.362 424 244.562 424.04C244.802 424.08 245.042 424.16 245.282 424.28C245.482 424.36 245.762 424.52 246.122 424.76C246.402 424.96 246.682 425.16 246.962 425.36C247.202 425.6 247.442 425.88 247.682 426.2C247.922 426.56 248.042 426.76 248.042 426.8C248.042 426.84 247.692 427.01 246.992 427.31C246.292 427.61 245.942 427.76 245.942 427.76C245.902 427.72 245.842 427.6 245.762 427.4C245.682 427.16 245.562 426.88 245.402 426.56C245.242 426.24 245.102 425.98 244.982 425.78C244.862 425.58 244.662 425.36 244.382 425.12C244.182 424.88 243.972 424.68 243.752 424.52C243.532 424.36 243.422 424.2 243.422 424.04V423.86L243.782 423.92ZM247.802 430.94L247.862 436.52C247.862 440.28 247.882 442.16 247.922 442.16C247.922 442.16 248.262 441.9 248.942 441.38C249.662 440.86 250.062 440.58 250.142 440.54L250.322 440.42V441.2V441.98L249.062 442.82L247.862 443.66V443.96C247.862 444.16 247.842 444.38 247.802 444.62C247.722 444.86 247.632 445.09 247.532 445.31C247.432 445.53 247.302 445.72 247.142 445.88C246.982 446.04 246.772 446.18 246.512 446.3C246.252 446.42 245.942 446.48 245.582 446.48L244.982 446.54V439.58L244.922 432.62L243.122 432.56H241.262V431.96V431.42H243.122H244.982V431.18V430.94H246.422H247.802ZM253.622 434.36L253.682 434.72V435.08H257.222H260.702V434.72V434.36H261.962H263.222L263.282 435.92C263.322 436.96 263.342 438.82 263.342 441.5C263.342 442.82 263.332 443.86 263.312 444.62C263.292 445.38 263.262 445.82 263.222 445.94C263.182 446.22 263.112 446.47 263.012 446.69C262.912 446.91 262.782 447.12 262.622 447.32C262.462 447.52 262.262 447.68 262.022 447.8C261.782 447.92 261.502 447.98 261.182 447.98H260.702V445.04V442.1H257.222H253.682V444.08C253.642 445.4 253.582 446.16 253.502 446.36C253.422 446.56 253.322 446.76 253.202 446.96C253.122 447.16 252.982 447.34 252.782 447.5C252.622 447.62 252.462 447.72 252.302 447.8C252.102 447.92 251.842 447.98 251.522 447.98H251.102V441.14V434.36H252.362H253.622ZM253.682 438.26H260.702V436.28H253.682V438.26ZM253.682 440.9H260.702V439.4H253.682V440.9ZM277.695 422.48V422.9L277.755 423.26H279.195H280.635V422.9V422.48H281.895H283.095V433.52V444.5L282.915 444.92C282.795 445.16 282.595 445.42 282.315 445.7C282.035 445.98 281.755 446.2 281.475 446.36C281.155 446.52 280.935 446.6 280.815 446.6L280.635 446.66V441.92V437.12H280.515C280.395 437.08 279.895 437.06 279.015 437.06L277.755 437.12L277.695 438.38C277.655 439.26 277.615 439.86 277.575 440.18C277.495 440.5 277.415 440.84 277.335 441.2C277.255 441.6 277.135 442.02 276.975 442.46C276.815 442.9 276.655 443.28 276.495 443.6C276.335 443.92 276.135 444.26 275.895 444.62C275.615 445.02 275.295 445.4 274.935 445.76C274.655 446.12 274.295 446.46 273.855 446.78C273.495 447.06 273.055 447.32 272.535 447.56L271.815 447.98V447.5V447.02L272.415 446.42C272.855 445.98 273.195 445.58 273.435 445.22C273.675 444.9 273.915 444.52 274.155 444.08C274.395 443.64 274.575 443.22 274.695 442.82C274.815 442.42 274.915 442.02 274.995 441.62C275.075 441.22 275.115 437.94 275.115 431.78V422.48H276.375H277.695ZM277.695 424.4V427.04L277.755 429.74H278.955C279.755 429.74 280.235 429.74 280.395 429.74L280.635 429.68V427.04V424.46L279.135 424.4H277.695ZM287.475 422.48V422.9L287.535 423.26H290.355H293.175L293.235 422.9V422.48H294.495H295.755V424.1C295.755 425.22 295.735 425.9 295.695 426.14C295.655 426.42 295.575 426.68 295.455 426.92C295.335 427.16 295.155 427.4 294.915 427.64C294.675 427.88 294.395 428.08 294.075 428.24C293.795 428.36 293.575 428.44 293.415 428.48L293.235 428.54V426.5V424.4H290.355L287.535 424.46L287.475 434.54V444.62L287.235 445.04C287.115 445.28 286.915 445.54 286.635 445.82C286.395 446.06 286.135 446.24 285.855 446.36C285.535 446.52 285.315 446.6 285.195 446.6L285.015 446.66V434.6V422.48H286.275H287.475ZM295.335 429.02V433.64V438.2L295.155 438.92C294.995 439.44 294.835 439.88 294.675 440.24C294.515 440.72 294.375 441.04 294.255 441.2C294.215 441.28 294.055 441.54 293.775 441.98C293.695 442.06 293.625 442.15 293.565 442.25C293.505 442.35 293.455 442.43 293.415 442.49C293.375 442.55 293.335 442.6 293.295 442.64C293.255 442.72 293.295 442.83 293.415 442.97C293.535 443.11 293.735 443.28 294.015 443.48C294.335 443.68 294.635 443.86 294.915 444.02L295.335 444.26V444.8C295.335 445.04 295.335 445.18 295.335 445.22C295.335 445.26 295.275 445.28 295.155 445.28C295.035 445.28 294.755 445.2 294.315 445.04C293.875 444.92 293.475 444.76 293.115 444.56C292.795 444.4 292.535 444.26 292.335 444.14L292.035 443.9L291.735 444.2C291.535 444.4 291.215 444.62 290.775 444.86C290.415 445.14 289.935 445.42 289.335 445.7C288.775 446.02 288.445 446.19 288.345 446.21C288.245 446.23 288.195 446.2 288.195 446.12C288.195 446.04 288.485 445.7 289.065 445.1C289.645 444.5 290.095 444 290.415 443.6L290.955 442.94L290.655 442.52C290.455 442.24 290.255 441.94 290.055 441.62C289.895 441.3 289.755 440.96 289.635 440.6C289.515 440.32 289.435 440 289.395 439.64C289.315 439.32 289.275 437.92 289.275 435.44V431.66H290.295H291.375V435.62C291.415 438.26 291.475 439.74 291.555 440.06C291.675 440.38 291.785 440.65 291.885 440.87C291.985 441.09 292.075 441.16 292.155 441.08C292.235 440.96 292.365 440.68 292.545 440.24C292.725 439.8 292.875 439.36 292.995 438.92L293.175 438.26V434.24V430.16H291.195H289.275V429.62V429.08L291.255 429.02C292.735 429.02 293.755 429.02 294.315 429.02H295.335ZM277.695 430.82V435.98H279.135L280.635 435.92V430.88H279.135L277.695 430.82ZM310.947 423.5C312.147 423.5 312.747 423.52 312.747 423.56C312.747 423.6 312.627 423.82 312.387 424.22C312.147 424.62 311.947 424.92 311.787 425.12L311.607 425.42H315.387H319.227L319.467 425.06L319.707 424.64H321.207C322.207 424.64 322.707 424.65 322.707 424.67C322.707 424.69 322.607 424.88 322.407 425.24C322.127 425.72 321.847 426.16 321.567 426.56C321.207 427 320.847 427.46 320.487 427.94C320.087 428.38 319.607 428.88 319.047 429.44C318.487 430 318.027 430.44 317.667 430.76C317.307 431.08 317.147 431.24 317.187 431.24C317.187 431.28 317.547 431.42 318.267 431.66C318.907 431.9 319.527 432.12 320.127 432.32C320.567 432.44 321.247 432.62 322.167 432.86C322.847 433.02 323.487 433.18 324.087 433.34C324.207 433.34 324.337 433.35 324.477 433.37C324.617 433.39 324.727 433.41 324.807 433.43C324.887 433.45 324.947 433.46 324.987 433.46C325.067 433.5 325.107 433.96 325.107 434.84C325.107 435.72 325.087 436.16 325.047 436.16C325.007 436.16 324.427 436.02 323.307 435.74C322.267 435.46 321.387 435.22 320.667 435.02C319.907 434.78 319.307 434.58 318.867 434.42C318.307 434.22 317.787 434 317.307 433.76C316.947 433.64 316.467 433.44 315.867 433.16C315.387 432.88 315.117 432.74 315.057 432.74C314.997 432.74 314.827 432.84 314.547 433.04C314.307 433.16 313.927 433.36 313.407 433.64L312.687 434.06H313.707H314.667V435.5V436.94H316.527H318.387L318.447 436.34V435.68H319.707H320.967L321.027 440.06C321.027 443.02 321.007 444.64 320.967 444.92C320.887 445.16 320.787 445.41 320.667 445.67C320.547 445.93 320.387 446.17 320.187 446.39C319.987 446.61 319.757 446.77 319.497 446.87C319.237 446.97 318.987 447 318.747 446.96H318.447V442.46V437.96H316.467L314.487 438.02L314.367 438.5C314.247 438.9 314.107 439.26 313.947 439.58C313.787 439.98 313.607 440.34 313.407 440.66C313.207 441.02 312.987 441.36 312.747 441.68C312.467 442.04 312.147 442.4 311.787 442.76C311.467 443.12 311.127 443.44 310.767 443.72C310.447 444 310.067 444.28 309.627 444.56C309.187 444.84 308.657 445.13 308.037 445.43C307.417 445.73 306.827 446 306.267 446.24C305.747 446.44 305.207 446.62 304.647 446.78C304.207 446.9 303.967 446.94 303.927 446.9C303.887 446.86 303.847 446.76 303.807 446.6L303.747 446.36L304.467 446C304.907 445.76 305.407 445.46 305.967 445.1C306.567 444.7 307.067 444.34 307.467 444.02C307.907 443.66 308.407 443.2 308.967 442.64C309.487 442.12 309.887 441.66 310.167 441.26C310.407 440.9 310.667 440.48 310.947 440C311.187 439.52 311.367 439.1 311.487 438.74C311.607 438.38 311.667 438.16 311.667 438.08C311.667 438 310.607 437.96 308.487 437.96H305.307V437.42V436.94H308.547H311.787V436.76C311.827 436.64 311.847 436.24 311.847 435.56V434.48L311.607 434.6C311.287 434.72 311.007 434.82 310.767 434.9C310.367 435.06 309.867 435.24 309.267 435.44C308.627 435.64 307.927 435.84 307.167 436.04C306.367 436.24 305.847 436.36 305.607 436.4C305.327 436.44 305.127 436.48 305.007 436.52C304.927 436.52 304.887 436.51 304.887 436.49C304.887 436.47 304.887 436.38 304.887 436.22V435.98L305.967 435.62C306.607 435.38 307.227 435.13 307.827 434.87C308.427 434.61 309.027 434.32 309.627 434C310.147 433.72 310.687 433.42 311.247 433.1C311.727 432.78 312.167 432.48 312.567 432.2C313.047 431.88 313.287 431.71 313.287 431.69C313.287 431.67 313.107 431.52 312.747 431.24C312.347 430.96 311.887 430.56 311.367 430.04C310.887 429.6 310.467 429.14 310.107 428.66C310.027 428.58 309.947 428.48 309.867 428.36C309.787 428.24 309.727 428.15 309.687 428.09C309.647 428.03 309.627 427.99 309.627 427.97C309.627 427.95 309.517 428.04 309.297 428.24C309.077 428.44 308.827 428.68 308.547 428.96C307.867 429.64 307.287 430.18 306.807 430.58C306.327 430.94 305.867 431.26 305.427 431.54C305.027 431.82 304.647 432.06 304.287 432.26C304.007 432.42 303.837 432.48 303.777 432.44C303.717 432.4 303.687 432.34 303.687 432.26C303.687 432.14 303.847 431.92 304.167 431.6C304.527 431.16 304.907 430.66 305.307 430.1C305.787 429.5 306.267 428.84 306.747 428.12C307.227 427.36 307.647 426.68 308.007 426.08C308.327 425.48 308.567 424.98 308.727 424.58C308.807 424.46 308.887 424.3 308.967 424.1C309.047 423.9 309.087 423.78 309.087 423.74L309.207 423.5H310.947ZM310.767 426.62L310.527 426.86C310.367 427.02 310.267 427.14 310.227 427.22C310.187 427.3 310.387 427.5 310.827 427.82C311.267 428.18 311.747 428.52 312.267 428.84C312.827 429.16 313.407 429.48 314.007 429.8L314.907 430.34L315.447 429.8C315.847 429.44 316.227 429.06 316.587 428.66C317.067 428.14 317.447 427.7 317.727 427.34C318.087 426.94 318.267 426.72 318.267 426.68C318.267 426.64 317.007 426.62 314.487 426.62H310.767ZM346.539 423.32V425.9L346.599 428.48H349.899L353.259 428.54V428.12V427.7H354.579L355.899 427.76V431.72C355.899 434.44 355.879 435.94 355.839 436.22C355.799 436.5 355.739 436.78 355.659 437.06C355.539 437.3 355.359 437.56 355.119 437.84C354.879 438.08 354.639 438.24 354.399 438.32C354.159 438.4 353.919 438.44 353.679 438.44H353.259V437.78V437.12H349.899H346.539V441.08C346.539 442.68 346.539 443.75 346.539 444.29C346.539 444.83 346.519 445.2 346.479 445.4C346.399 445.64 346.319 445.86 346.239 446.06C346.119 446.22 345.999 446.38 345.879 446.54C345.719 446.7 345.499 446.86 345.219 447.02C344.939 447.14 344.659 447.2 344.379 447.2H343.959V442.16V437.12H340.419H336.879L336.699 437.42C336.619 437.58 336.499 437.74 336.339 437.9C336.179 438.02 335.999 438.13 335.799 438.23C335.599 438.33 335.339 438.4 335.019 438.44H334.539V433.1V427.7H335.799H337.119V428.12V428.54L340.539 428.48H343.899L343.959 425.9V423.32H345.279H346.539ZM337.119 435.98H340.539L343.899 435.92V429.62H337.119V435.98ZM346.539 435.98H353.259V429.62H346.539V435.98ZM372.112 422.48V433.46C372.112 440.78 372.072 444.58 371.992 444.86C371.952 445.06 371.912 445.22 371.872 445.34C371.872 445.38 373.312 445.4 376.192 445.4H380.512L380.572 442.16L380.632 438.98H381.892H383.212V441.86V444.8L383.032 445.34C382.992 445.38 382.972 445.42 382.972 445.46C382.932 445.62 382.902 445.73 382.882 445.79C382.862 445.85 382.832 445.92 382.792 446C382.752 446.08 382.732 446.14 382.732 446.18C382.692 446.38 382.612 446.52 382.492 446.6C382.372 446.76 382.252 446.92 382.132 447.08C381.972 447.32 381.772 447.48 381.532 447.56C381.332 447.64 381.132 447.68 380.932 447.68L380.632 447.62L380.572 447.08V446.54H375.892H371.272L370.852 446.9C370.612 447.18 370.372 447.38 370.132 447.5C369.892 447.62 369.672 447.68 369.472 447.68L369.112 447.62V435.08L369.052 422.48H370.552H372.112ZM377.872 425.72V428.24C377.872 429.92 377.832 430.94 377.752 431.3C377.672 431.62 377.552 431.95 377.392 432.29C377.232 432.63 377.072 432.88 376.912 433.04C376.792 433.2 376.632 433.36 376.432 433.52C376.272 433.64 376.032 433.7 375.712 433.7H375.292V429.74V425.72H376.612H377.872ZM366.832 431.6V436.16C366.832 439.16 366.782 440.84 366.682 441.2C366.582 441.56 366.452 441.9 366.292 442.22C366.132 442.54 365.952 442.82 365.752 443.06C365.552 443.3 365.382 443.46 365.242 443.54C365.102 443.62 364.892 443.66 364.612 443.66H364.192V437.6V431.6H365.512H366.832ZM387.592 435.92V440.42C387.592 443.42 387.572 445.06 387.532 445.34C387.452 445.66 387.352 445.96 387.232 446.24C387.112 446.52 386.952 446.82 386.752 447.14C386.552 447.46 386.352 447.68 386.152 447.8C385.992 447.92 385.772 447.98 385.492 447.98H385.072L385.012 441.92V435.92H386.332H387.592Z" fill="white"/>
<defs>
<clipPath id="clip0_675_63">
<rect width="100" height="100" fill="white" transform="translate(300.471 39) rotate(49)"/>
</clipPath>
</defs>
</svg>
