<svg width="600" height="600" viewBox="0 0 600 600" fill="none" xmlns="http://www.w3.org/2000/svg">
<rect width="600" height="600" rx="300" fill="white"/>
<path d="M274.688 70.7812C235.875 76.1249 197.438 91.4062 167.906 113.344C133.875 138.469 106.5 173.437 90.75 211.875C80.625 236.531 75.0938 263.719 75 288.562V301.031L78.1875 302.344C82.125 304.031 87.5625 302.719 89.4375 299.719C90.2813 298.312 90.9375 293.156 91.2188 284.062C93.1875 233.812 115.688 184.875 154.688 146.25C185.531 115.687 223.688 95.9999 268.594 87.4687C280.5 85.2187 310.313 84.7499 324.938 86.6249C377.906 93.3749 425.625 119.906 460.875 162C492 199.312 507.656 238.687 509.906 285.375C510.469 298.406 510.656 299.437 512.719 301.031C515.344 303.187 522 303.375 524.625 301.5C526.219 300.281 526.406 299.062 526.125 289.031C525.656 265.125 521.438 241.781 513.75 220.687C496.125 172.219 464.531 132.937 419.625 103.687C392.813 86.2499 355.969 73.6874 322.125 70.4062C308.625 69.0937 285.844 69.2812 274.688 70.7812Z" fill="black"/>
<path d="M298.406 121.594C296.625 126.844 284.812 149.719 277.312 162.656C272.531 170.906 266.906 180.844 264.937 184.781L261.281 191.906L253.687 185.437C237.469 171.375 211.312 157.781 206.437 160.969C204.562 162.187 204.562 163.687 206.719 175.312C208.219 183.562 208.406 200.625 207.094 202.031C206.812 202.312 202.594 200.906 197.719 198.937C184.969 193.687 169.219 189.844 166.312 191.156C163.031 192.656 163.5 195.094 168.656 205.312C173.906 215.344 177.937 228.937 180.937 246.094C187.031 280.5 197.062 299.906 219.656 321.094C228.75 329.625 229.594 331.406 223.406 328.969C211.031 324.187 169.875 314.25 151.406 311.625C126.469 307.969 97.0312 310.125 78.75 316.875C55.3125 325.5 35.8125 342.094 24.375 363.187C21 369.562 20.8125 372.094 23.8125 374.906C26.8125 377.719 28.5937 377.25 38.9062 371.344C43.3125 368.812 50.5312 365.531 55.125 364.125C62.8125 361.594 64.125 361.406 78.75 361.5C92.625 361.5 95.0625 361.781 102.281 364.031C114.469 367.781 126.187 373.125 144.375 383.437C164.344 394.687 170.437 397.594 181.406 400.875C189.094 403.219 191.156 403.5 204.844 403.5C218.719 403.5 220.406 403.312 227.812 400.875C236.156 398.156 246.187 392.719 250.594 388.594C253.312 386.062 253.781 383.531 252.187 380.531C250.312 377.062 221.25 363.75 198.75 356.062C170.625 346.5 131.156 337.5 117.094 337.5C109.969 337.5 107.812 338.812 107.812 342.937C107.906 348.094 109.312 348.75 128.719 352.5C138.656 354.469 152.906 357.562 160.406 359.437C183.281 365.25 222.094 379.031 229.031 383.906C230.906 385.219 230.906 385.312 227.719 386.625C221.344 389.25 213 390.281 201.281 389.719C184.875 389.062 178.969 386.812 152.156 371.437C128.156 357.656 115.312 352.219 98.4375 348.75C89.9062 346.969 86.8125 346.781 75.4687 347.25C68.25 347.531 60.8437 348.094 59.0625 348.375L55.7812 348.844L61.0312 343.875C77.1562 328.687 106.406 321.937 140.719 325.312C157.594 327 187.969 333.562 212.812 340.969C243.094 349.969 253.031 353.344 261.375 357.562C267.187 360.469 277.5 368.25 277.5 369.75C277.5 371.531 254.25 393.937 246.281 399.844C224.156 415.969 202.406 422.719 175.781 421.594C156.281 420.75 143.062 416.812 130.594 408.094C122.906 402.75 118.875 397.687 112.312 385.5C105.937 373.781 103.5 371.25 98.5312 371.25C91.5937 371.25 90.2812 375.75 94.3125 386.062C109.969 425.437 144.187 462.937 186.562 487.219C219.75 506.156 263.156 517.5 302.25 517.5C328.875 517.406 357.469 511.781 385.781 500.906C394.688 497.437 416.438 486.844 420.75 483.844C422.156 482.906 426.375 480.094 430.219 477.656C447.844 466.5 468.469 446.812 483.281 427.031C492.375 414.844 504.75 392.906 508.594 381.844C510.375 376.969 510.375 376.875 508.406 374.344C507 372.375 505.594 371.625 502.781 371.437C498.094 371.062 495 373.875 490.781 382.125C480.281 402.656 470.531 411.469 452.438 417.094C432.094 423.375 406.594 423.375 387.844 417.094C375.188 412.875 352.5 400.125 352.5 397.125C352.5 395.625 355.031 394.312 357.188 394.594C357.938 394.781 361.125 396.094 364.219 397.594C374.25 402.375 384.938 404.344 398.906 403.781C417.656 403.125 431.438 398.25 455.625 383.812C483.094 367.406 502.313 360.937 523.5 360.937C539.25 360.937 547.969 363.562 567.281 374.156C572.812 377.156 575.156 377.25 577.969 374.437C580.875 371.437 579.188 366.094 571.594 354.937C566.906 348 556.125 336.562 549.188 331.312C529.875 316.406 500.438 308.156 472.125 309.75C465.844 310.031 459.281 310.594 457.5 310.875C428.156 315.375 418.594 317.531 390.75 325.406C381.562 328.031 373.688 329.812 373.125 329.531C372.656 329.25 374.625 326.906 377.625 324.469C400.781 304.875 413.344 282.375 419.625 249.375C423.75 227.719 426.469 217.594 430.313 209.25C432.469 204.844 434.719 200.531 435.469 199.687C436.125 198.937 436.969 197.156 437.344 195.75C437.813 193.781 437.531 192.937 435.656 191.719C433.781 190.5 432.563 190.406 429.281 191.156C421.5 193.031 412.031 195.937 403.312 199.312C398.531 201.187 394.312 202.406 393.938 202.031C392.531 200.625 393.375 177.656 395.156 169.875C397.219 160.312 396.75 159.375 390.188 161.062C378.844 164.062 360.094 175.031 347.062 186.375C341.719 191.062 339.938 192.187 339.281 191.156C338.812 190.406 338.438 189.562 338.438 189.187C338.438 188.437 331.406 175.5 326.062 166.406C313.781 145.406 311.625 141.375 305.25 127.219C301.969 120 299.625 118.125 298.406 121.594ZM302.062 155.344C303.281 156.75 309.469 166.594 317.625 180C321.844 186.937 328.031 200.437 329.812 206.719C333.188 218.719 333.75 222 333.75 231.937V241.687L330.281 246.281C328.406 248.719 325.125 252.75 322.969 255.187C317.156 261.656 308.062 275.625 305.062 282.656C303.656 286.031 302.062 288.656 301.5 288.469C300.937 288.281 298.781 285.187 296.719 281.625C291.562 272.531 283.875 261.75 274.781 250.875L267.187 241.687L267.562 230.812C268.219 213.094 274.219 194.531 284.812 178.125C286.312 175.781 290.156 169.406 293.531 163.875C296.812 158.25 299.812 153.75 300.094 153.75C300.375 153.75 301.312 154.5 302.062 155.344ZM230.625 185.906C236.062 189.562 246.937 198.469 251.437 202.875L254.906 206.25L254.344 217.312C254.062 223.312 253.5 228.656 253.125 229.031C252.75 229.5 248.531 226.875 243.656 223.219C238.875 219.562 232.125 215.156 228.656 213.281C225.187 211.5 222.187 209.437 222 208.875C221.625 207.937 221.812 186.656 222.094 182.531C222.187 181.312 226.031 182.812 230.625 185.906ZM379.125 182.625C379.312 183 379.688 189.281 379.781 196.406L379.969 209.531L376.781 211.312C365.438 217.594 359.812 221.156 355.125 225.187C352.219 227.625 349.406 229.687 348.938 229.687C347.625 229.687 345.562 205.781 346.781 203.719C349.219 199.125 358.875 191.812 370.781 185.437C378 181.687 378.469 181.5 379.125 182.625ZM198.75 215.719C205.781 217.875 220.219 224.812 227.812 229.5C251.25 244.312 271.312 265.312 284.906 289.312C291.281 300.656 294.75 310.687 296.906 324.75L297.469 328.312L294.375 326.719C288.937 323.906 281.25 315.844 273.469 304.875C269.344 299.062 265.875 294.469 265.687 294.562C265.125 295.219 267.375 303.187 269.156 306.844C272.531 313.406 280.406 323.719 285.562 328.125C288.281 330.469 290.531 332.625 290.531 333C290.625 333.469 288.094 333.75 285.094 333.75C266.812 333.75 242.156 323.25 226.969 309C210 293.062 201 273.656 194.062 238.125C192.375 229.594 190.406 221.062 189.75 219C189 217.031 188.437 214.781 188.437 214.031C188.437 212.531 188.344 212.531 198.75 215.719ZM412.125 217.594C411.281 219.375 409.125 228.187 407.344 237.187C402.281 261.937 399.75 270.469 394.688 280.781C381.188 308.062 358.594 326.156 330.938 331.875C326.062 332.906 319.312 333.75 316.031 333.75H310.031L316.594 327.375C320.25 323.906 325.312 317.906 327.844 313.969C332.25 307.125 336.188 297.469 335.438 295.219C335.25 294.562 332.531 297.844 329.438 302.437C323.062 312 314.531 321.469 308.719 325.406C305.062 327.937 304.594 328.031 304.031 326.531C303.656 325.687 304.5 320.531 305.906 315.094C315.187 279 346.969 242.344 386.25 222.656C393.656 218.906 411.844 212.719 412.781 213.656C413.156 214.031 412.875 215.812 412.125 217.594ZM493.594 325.406C513.094 327.75 529.312 334.125 539.531 343.594L545.156 348.844L539.062 348.094C526.875 346.594 508.313 347.344 498.75 349.687C482.813 353.531 466.969 360.562 445.406 373.312C422.25 387.187 413.719 390 395.812 390C386.25 390 376.125 388.312 372 386.156C370.125 385.125 370.125 385.125 372.188 383.719C378.469 379.312 412.406 367.125 436.969 360.469C443.906 358.594 458.813 355.219 470.063 352.969C482.25 350.531 491.156 348.281 492 347.437C493.875 345.656 493.688 340.687 491.719 338.812C487.875 334.875 461.813 339.187 424.688 349.781C388.031 360.281 371.25 367.406 351.375 380.625C339.938 388.312 334.688 392.812 312.469 413.812C274.781 449.531 250.219 464.906 220.406 471.281C205.5 474.469 197.625 474 189.844 469.594L184.219 466.406L189.844 465.844C192.937 465.469 198.187 465.187 201.375 465.094C215.25 464.906 237.562 458.156 250.781 450.187C268.594 439.5 281.437 426.562 304.031 396.375C313.031 384.375 323.062 372 326.344 368.812C336.469 359.25 347.625 353.156 363.75 348.469C368.156 347.25 378.281 344.25 386.25 341.906C438.75 326.625 467.25 322.219 493.594 325.406ZM296.25 346.687C296.25 348 288.75 358.125 287.812 358.125C287.344 358.125 284.156 355.875 280.781 353.156L274.594 348.281L283.969 347.719C289.125 347.437 293.719 346.969 294 346.594C294.937 345.656 296.25 345.75 296.25 346.687ZM318.188 347.719L327.469 348.281L321.562 353.625C318.375 356.625 315.375 359.062 315 359.062C313.969 359.062 305.625 347.906 305.625 346.687C305.625 346.125 306.281 346.031 307.312 346.5C308.156 346.875 313.125 347.437 318.188 347.719ZM304.312 368.812C305.719 371.062 305.531 371.437 291.937 389.719C259.781 432.937 237.187 448.406 201.562 451.5C187.219 452.719 163.031 447.656 154.219 441.562C149.531 438.375 144.281 433.031 144.844 432.187C145.125 431.812 149.156 432.281 153.937 433.312C166.687 436.031 191.812 436.031 204.844 433.219C217.781 430.5 224.437 428.156 235.781 422.344C254.344 412.875 273.562 396.844 291.562 375.656C296.156 370.312 300 366.562 301.031 366.562C301.969 366.562 303.469 367.594 304.312 368.812ZM348.75 412.594C362.812 422.719 376.219 428.719 393.562 432.75C403.312 435 406.406 435.281 420.938 435.281C433.875 435.281 439.406 434.812 447.094 433.312C452.531 432.187 457.031 431.437 457.219 431.625C457.406 431.812 455.625 433.875 453.281 436.219C440.25 449.25 411.562 454.781 384.844 449.437C372.656 447 358.031 440.344 345.844 431.531C340.031 427.406 336.75 426.75 334.031 429.375C330.938 432.187 331.219 435.937 334.969 439.312C346.031 449.625 365.25 459.375 380.719 462.562C390.75 464.625 407.25 466.031 413.344 465.281C418.125 464.719 418.5 464.812 417.281 466.219C416.625 467.062 413.719 468.937 410.719 470.344C405.938 472.687 404.531 472.969 395.625 472.875C375.75 472.781 353.062 464.25 330.562 448.5C324.281 444.094 322.688 443.344 320.25 443.812C314.25 445.031 313.406 450.094 318.188 455.437C322.312 459.937 335.344 468.75 345.094 473.625C352.594 477.281 368.812 483 375.375 484.219C377.25 484.594 378.656 485.344 378.469 485.906C377.531 488.719 342.844 498.187 326.25 500.25C313.312 501.75 291.187 501.937 278.625 500.531C273.656 500.062 263.812 498.375 256.875 496.781C242.719 493.687 220.969 486.844 221.719 485.625C222 485.25 223.312 484.687 224.719 484.406C238.594 481.969 261.187 471.844 277.5 460.875C294.094 449.625 305.438 440.062 330.188 416.437C336.75 410.25 340.781 407.062 341.531 407.437C342.094 407.906 345.375 410.156 348.75 412.594Z" fill="black"/>
<path d="M198.75 215.719C205.781 217.875 220.219 224.812 227.812 229.5C251.25 244.312 271.312 265.312 284.906 289.312C291.281 300.656 294.75 310.687 296.906 324.75L297.469 328.312L294.375 326.719C288.937 323.906 281.25 315.844 273.469 304.875C269.344 299.062 265.875 294.469 265.687 294.562C265.125 295.219 267.375 303.187 269.156 306.844C272.531 313.406 280.406 323.719 285.562 328.125C288.281 330.469 290.531 332.625 290.531 333C290.625 333.469 288.094 333.75 285.094 333.75C266.812 333.75 242.156 323.25 226.969 309C210 293.062 201 273.656 194.062 238.125C192.375 229.594 190.406 221.062 189.75 219C189 217.031 188.437 214.781 188.437 214.031C188.437 212.531 188.344 212.531 198.75 215.719Z" fill="#98E5FD"/>
<path d="M412.125 217.594C411.281 219.375 409.125 228.187 407.344 237.187C402.281 261.937 399.75 270.469 394.688 280.781C381.188 308.062 358.594 326.156 330.938 331.875C326.062 332.906 319.312 333.75 316.031 333.75H310.031L316.594 327.375C320.25 323.906 325.312 317.906 327.844 313.969C332.25 307.125 336.188 297.469 335.438 295.219C335.25 294.562 332.531 297.844 329.438 302.437C323.062 312 314.531 321.469 308.719 325.406C305.062 327.937 304.594 328.031 304.031 326.531C303.656 325.687 304.5 320.531 305.906 315.094C315.187 279 346.969 242.344 386.25 222.656C393.656 218.906 411.844 212.719 412.781 213.656C413.156 214.031 412.875 215.812 412.125 217.594Z" fill="#98E5FD"/>
<path d="M302.062 155.344C303.281 156.75 309.469 166.594 317.625 180C321.844 186.937 328.031 200.437 329.812 206.719C333.188 218.719 333.75 222 333.75 231.937V241.687L330.281 246.281C328.406 248.719 325.125 252.75 322.969 255.187C317.156 261.656 308.062 275.625 305.062 282.656C303.656 286.031 302.062 288.656 301.5 288.469C300.937 288.281 298.781 285.187 296.719 281.625C291.562 272.531 283.875 261.75 274.781 250.875L267.187 241.687L267.562 230.812C268.219 213.094 274.219 194.531 284.812 178.125C286.312 175.781 290.156 169.406 293.531 163.875C296.812 158.25 299.812 153.75 300.094 153.75C300.375 153.75 301.312 154.5 302.062 155.344Z" fill="#F4A4C1"/>
<path d="M379.125 182.625C379.312 183 379.688 189.281 379.781 196.406L379.969 209.531L376.781 211.312C365.438 217.594 359.812 221.156 355.125 225.187C352.219 227.625 349.406 229.687 348.938 229.687C347.625 229.687 345.562 205.781 346.781 203.719C349.219 199.125 358.875 191.812 370.781 185.437C378 181.687 378.469 181.5 379.125 182.625Z" fill="#FDFB49"/>
<path d="M230.625 185.906C236.062 189.562 246.937 198.469 251.437 202.875L254.906 206.25L254.344 217.312C254.062 223.312 253.5 228.656 253.125 229.031C252.75 229.5 248.531 226.875 243.656 223.219C238.875 219.562 232.125 215.156 228.656 213.281C225.187 211.5 222.187 209.437 222 208.875C221.625 207.937 221.812 186.656 222.094 182.531C222.187 181.312 226.031 182.812 230.625 185.906Z" fill="#FDFB49"/>
<path d="M252.375 125.906C249.562 128.906 249.75 132.563 252.844 134.906C258.844 139.688 266.063 130.875 260.438 125.625C257.719 123.188 254.906 123.281 252.375 125.906Z" fill="black"/>
<path d="M340.781 126.094C339.469 127.312 338.438 129.188 338.438 130.312C338.438 132.562 342.375 136.875 344.344 136.875C347.25 136.875 350.625 133.031 350.625 129.844C350.625 124.125 344.906 121.969 340.781 126.094Z" fill="black"/>
<path d="M146.063 253.125C143.625 255.656 143.25 256.5 143.719 259.406C144.563 264.188 147.281 266.719 151.781 266.719C156.938 266.719 160.313 263.438 160.313 258.562C160.313 250.688 151.781 247.406 146.063 253.125Z" fill="black"/>
<path d="M443.344 253.031C439.594 256.781 439.688 260.719 443.438 264.563C445.969 267 446.813 267.375 449.813 266.906C453.844 266.25 457.5 262.594 457.5 259.031C457.5 251.156 448.875 247.5 443.344 253.031Z" fill="black"/>
</svg>
