<svg width="1001" height="985" viewBox="0 0 1001 985" fill="none" xmlns="http://www.w3.org/2000/svg">
<path d="M468.769 23.145C353.657 30.4867 245.194 79.108 164.02 160.144C99.7453 224.279 53.3403 310.44 36.0251 398.402C28.1293 438.435 27.5752 444.53 27.5752 493.982C27.5752 534.985 27.9908 542.742 30.6227 559.919C39.7652 618.375 53.8944 663.395 78.2744 711.462C137.285 827.96 241.315 914.813 365.57 951.521C415.299 966.205 456.163 971.33 512.957 970.083C587.898 968.421 646.493 954.015 713.261 921.185C844.718 856.495 939.745 733.21 968.834 589.563C979.777 535.816 980.47 469.602 970.774 415.025C939.606 240.902 812.443 96.9774 642.614 43.9233C587.621 26.7466 526.394 19.4049 468.769 23.145ZM538.03 42.3996C670.319 53.7584 790.833 120.942 868.544 226.634C889.322 254.893 897.357 267.914 911.209 295.618C934.481 342.023 949.303 391.337 955.952 444.807C958.722 467.109 959.138 525.704 956.644 545.928C951.103 589.84 941.545 627.656 926.585 665.057C885.305 768.118 805.932 853.863 705.642 904.008C546.618 983.659 353.38 963.296 216.658 852.755C162.634 808.982 122.601 759.253 92.8192 698.303C62.6213 636.799 47.938 578.065 45.4446 509.22C41.7045 400.618 75.9195 296.727 144.211 210.566C160.003 190.618 198.235 152.802 217.766 137.564C288.967 82.7096 371.11 50.2953 459.072 42.5381C478.05 40.8758 519.468 40.8758 538.03 42.3996Z" fill="#0438A5"/>
<path d="M381.639 62.0698C379.838 63.5935 376.929 68.3033 375.128 72.459C369.31 85.6186 371.942 91.575 379.284 81.8785C383.44 76.4761 390.504 72.1819 391.89 74.1212C392.305 74.9524 392.028 78.1384 391.197 81.4629C390.504 84.7874 389.812 90.0513 389.812 93.0988C389.812 96.5618 388.981 99.6093 387.595 100.579C385.795 102.103 384.825 101.687 381.223 97.67C376.929 92.9603 376.929 92.9603 375.544 96.1463C374.436 98.6397 374.713 100.163 377.206 103.488C380.669 108.059 380.392 110.276 375.267 117.756C370.557 124.543 369.865 137.01 374.159 138.534C379.838 140.75 385.656 128.976 386.349 113.877C386.764 105.981 389.812 99.4708 393.69 98.0856C395.768 97.393 395.907 104.181 393.967 105.427C393.275 105.843 392.582 107.782 392.582 109.721C392.582 112.353 393.275 113.185 394.937 112.769C397.985 112.215 399.785 104.596 398.816 96.9774C398.262 92.6832 398.539 90.6054 400.201 88.9431C403.526 85.6186 404.634 86.1727 406.434 91.575C407.266 94.3455 409.62 98.3626 411.56 100.579C415.161 104.873 420.287 106.12 420.287 102.795C420.287 99.1938 418.624 96.5618 416.824 97.2544C414.884 98.0856 410.175 92.1291 408.512 87.0038C407.82 84.5104 408.374 82.8481 410.729 80.3547C412.391 78.5539 413.361 76.6146 412.806 76.0605C412.391 75.5064 408.512 78.4154 404.495 82.4326C396.461 90.3283 393.136 90.7439 394.522 83.8178C394.937 81.6014 396.876 77.4458 398.816 74.2597C400.755 71.2123 402.279 68.4418 402.279 67.8877C402.279 67.4722 400.062 67.4722 397.569 67.8877C393.552 68.7189 392.444 68.3033 391.197 65.9484C390.366 64.4247 390.089 63.178 390.643 63.178C391.058 63.178 390.781 62.2083 389.812 61.1001C387.457 58.1912 385.379 58.4682 381.639 62.0698Z" fill="#0438A5"/>
<path d="M418.624 80.7704C415.438 84.5105 414.469 90.3284 416.685 92.1292C417.655 92.9603 424.442 94.0685 431.507 94.4841C443.281 95.3152 444.805 95.1767 447.991 92.5448C453.394 88.112 450.346 86.4498 439.818 88.2506C429.983 90.0514 424.027 88.5276 424.581 84.2334C425.135 77.8614 422.503 76.3376 418.624 80.7704Z" fill="#0438A5"/>
<path d="M349.778 83.6793C348.532 86.1727 348.67 87.0038 351.302 89.4972C354.488 92.4062 359.336 93.2373 359.336 90.8824C359.336 90.1898 357.536 87.5579 355.319 85.0645C351.441 80.7703 351.441 80.6318 349.778 83.6793Z" fill="#0438A5"/>
<path d="M648.156 91.5751C645.109 93.5144 639.152 98.9168 634.997 103.488L627.239 111.799L620.036 109.029C611.032 105.427 607.154 105.427 602.998 108.752C598.565 112.353 601.059 115.124 610.894 117.34C615.049 118.31 618.235 119.695 617.958 120.526C617.681 121.357 611.863 126.344 604.937 131.747C598.011 137.01 591.916 142.274 591.501 143.244C588.592 149.893 612.556 141.859 624.192 132.162L632.226 125.513L640.676 129.669L649.126 133.963L652.45 130.915C656.052 127.452 656.745 125.513 654.113 125.513C650.511 125.513 637.767 118.587 637.767 116.786C637.767 115.816 643.169 109.86 649.68 103.627C656.191 97.393 661.316 91.4366 661.039 90.4669C659.931 87.4194 653.697 87.9735 648.156 91.5751Z" fill="#0438A5"/>
<path d="M352.412 104.873L352.551 113.739L355.183 110.414C358.784 106.258 358.646 101.687 355.183 98.5012C352.412 96.0078 352.412 96.1463 352.412 104.873Z" fill="#0438A5"/>
<path d="M418.624 111.245C417.378 112.631 416.131 116.371 415.715 119.695C415.023 125.929 413.36 128.838 412.391 126.067C412.114 125.236 411.005 123.297 409.897 121.912C408.097 119.418 407.819 119.557 403.941 123.989C399.924 128.838 396.738 128.976 396.738 124.128C396.738 120.803 394.244 119.141 392.166 121.219C390.366 123.02 393.275 140.196 397.015 148.923C398.954 153.633 399.924 154.741 401.17 153.495C402.417 152.248 402.279 150.032 400.893 144.075C397.984 132.301 402.694 126.898 407.958 135.764C410.313 139.781 411.283 140.474 412.806 139.227C413.914 138.396 414.746 136.456 414.746 135.071C414.746 132.162 418.624 121.634 420.702 119.003C422.78 116.232 426.936 119.418 428.598 125.236C429.29 128.006 429.983 134.656 429.983 139.919C429.983 152.386 432.338 150.447 433.585 137.01C434.693 124.682 433.585 118.448 429.152 113.046C425.135 108.336 421.672 107.782 418.624 111.245Z" fill="#0438A5"/>
<path d="M353.796 126.621C355.319 131.885 357.12 143.244 357.951 151.971C359.614 167.485 361.137 171.918 366.817 176.628C370.418 179.675 370.418 175.935 366.955 160.975C365.016 152.94 363.492 144.352 363.492 141.859C363.492 137.149 354.488 117.202 352.41 117.202C351.718 117.202 352.41 121.496 353.796 126.621Z" fill="#0438A5"/>
<path d="M632.504 145.183C630.288 147.4 630.426 152.248 632.92 158.343C637.075 168.317 639.569 168.594 644.14 159.867C646.079 156.127 645.941 155.573 641.923 149.755C637.491 143.383 635.413 142.274 632.504 145.183Z" fill="#0438A5"/>
<path d="M465.306 155.434C363.215 165.823 269.435 222.479 212.364 308.362C172.608 367.927 151.553 447.854 157.094 517.531C162.635 588.177 185.352 649.127 226.909 704.536C238.268 719.774 269.435 751.634 284.534 763.547C331.632 800.671 385.932 825.051 443.142 834.609C479.158 840.704 526.948 840.565 561.579 834.055C617.126 823.665 664.501 803.026 709.382 769.503C727.528 755.928 763.683 719.774 776.704 702.181C834.883 623.501 857.462 527.228 839.316 434.141C835.714 415.302 829.342 391.614 825.464 382.472C824.494 380.117 822.693 375.13 821.308 371.39C817.845 361.555 803.854 333.712 795.404 319.583C777.396 289.662 745.259 253.231 718.109 231.621C691.513 210.566 661.73 192.835 631.671 180.229C606.321 169.563 588.175 164.576 552.575 157.927C540.523 155.711 479.712 154.049 465.306 155.434ZM541.632 169.148C614.217 178.013 683.063 212.089 736.394 265.559C787.093 316.397 817.706 377.208 829.065 449.794C832.805 473.897 833.221 518.778 829.619 541.773C819.784 607.155 792.772 666.027 751.493 712.848C736.532 729.747 734.178 732.102 719.356 744.985C632.779 820.202 516.836 845.413 405.741 813.276C330.801 791.528 259.323 736.673 218.598 669.767C185.075 614.497 169.699 559.503 169.561 495.229C169.561 423.059 191.032 357.953 233.974 299.774C288.274 226.357 373.327 177.874 463.921 168.593C493.287 165.546 512.957 165.684 541.632 169.148Z" fill="#0438A5"/>
<path d="M515.451 206.41C508.664 208.903 506.586 210.843 503.123 217.492C500.907 221.648 500.214 225.942 500.075 233.56C499.937 246.859 502.569 251.707 512.681 256.694C518.914 259.603 521.408 260.157 529.027 259.603C539.97 258.91 544.403 256.14 548.974 246.859C553.268 238.132 553.684 223.587 549.528 216.661C544.264 207.518 526.81 202.254 515.451 206.41ZM534.429 217.353C536.645 219.985 536.922 222.063 536.23 232.037C535.399 245.75 532.767 250.599 525.702 251.291C516.56 252.261 513.235 244.919 515.867 229.405C517.945 217.076 521.546 212.228 527.503 213.336C529.858 213.752 532.905 215.553 534.429 217.353Z" fill="#0438A5"/>
<path d="M446.882 209.042C439.679 211.258 431.367 219.57 430.536 225.249C428.597 239.24 449.098 248.382 464.613 240.487L470.154 237.716V242.287C470.154 251.707 461.842 256.417 452.7 252.122C449.237 250.46 446.743 250.183 442.865 251.153C436.631 252.538 436.216 255.031 441.202 258.91C449.098 264.728 466.691 263.066 476.941 255.724C491.07 245.473 489.131 219.154 473.617 210.427C467.522 206.964 455.332 206.272 446.882 209.042ZM463.782 218.462C471.4 224.418 466.275 236.331 456.024 236.331C450.76 236.331 445.22 230.79 445.22 225.388C445.22 220.401 450.76 215.553 456.301 215.553C458.379 215.553 461.704 216.799 463.782 218.462Z" fill="#0438A5"/>
<path d="M574.323 217.63C573.353 219.57 572.661 221.509 572.661 221.648C572.661 222.063 588.868 228.851 601.75 233.838C604.936 235.084 604.659 235.361 594.963 240.487C584.297 246.166 573.907 255.031 570.444 261.542C567.674 266.806 567.951 267.776 572.384 269.299C574.462 269.992 577.093 271.1 578.34 271.516C579.864 272.208 581.665 270.407 584.989 265.559C587.483 261.681 592.054 256.417 595.24 253.785C600.919 249.214 614.633 241.733 620.728 239.933C623.637 238.963 626.407 234.115 624.884 232.729C624.191 232.037 584.712 216.938 578.756 214.999C576.539 214.306 575.57 214.999 574.323 217.63Z" fill="#0438A5"/>
<path d="M389.532 226.08C387.316 227.188 384.822 230.236 383.714 232.868C382.606 235.361 379.143 240.348 375.818 243.95C370.555 249.629 370.139 250.599 371.524 253.785C373.602 258.079 375.957 256.971 383.437 248.798L388.562 243.118L395.211 257.525C398.952 265.559 402.415 273.316 402.969 274.979C404.077 278.58 405.601 278.58 412.804 274.702L418.483 271.654L407.956 247.828C401.029 232.037 396.735 224.002 395.35 224.002C394.242 224.002 391.61 224.972 389.532 226.08Z" fill="#0438A5"/>
<path d="M622.526 268.607C623.635 269.853 629.037 273.039 634.301 275.948C647.599 283.013 656.187 289.801 669.901 303.93C690.125 324.985 711.181 353.936 722.262 376.238C726.834 385.381 733.76 402.696 733.067 403.112C706.748 420.011 696.359 435.526 692.065 464.062C690.264 476.667 689.848 491.905 689.848 550.361C689.848 589.424 689.71 621.146 689.571 621.007C689.433 620.869 687.355 615.605 684.861 609.233C682.507 602.861 679.043 596.212 677.381 594.273C674.472 590.671 674.195 590.671 662.144 591.918C655.356 592.61 648.153 592.887 645.937 592.61C642.335 592.056 641.919 591.502 641.919 586.931C641.919 578.758 644.967 562.966 655.079 519.332C655.495 517.67 657.988 515.038 660.62 513.376C666.992 509.497 668.377 502.848 664.36 495.645L661.59 490.519L668.239 467.525C671.979 454.781 676.689 439.82 678.905 434.279C682.368 424.998 683.338 423.752 688.74 421.258C691.926 419.596 695.528 417.38 696.774 416.133C698.714 414.194 698.714 413.778 696.636 411.839C690.402 405.605 670.04 405.328 657.295 411.285L649.815 414.886L645.798 408.653C640.257 399.926 629.868 390.229 622.803 387.182C616.154 384.273 604.518 383.719 600.224 385.935C596.761 387.874 593.16 395.077 594.129 398.263C595.237 401.865 609.228 408.099 616.293 408.099C619.894 408.099 639.149 417.657 639.149 419.319C639.149 420.011 637.071 421.535 634.716 422.782C626.128 427.215 609.367 439.128 602.164 445.915C596.761 450.902 592.19 457.828 584.571 471.68C547.586 539.833 541.214 564.49 549.802 606.878C552.711 621.146 556.728 629.734 565.594 640.677C575.706 653.006 578.615 659.378 577.784 666.581C576.675 676.97 561.577 693.732 557.698 688.883C555.897 686.805 552.988 676.139 548.971 657.716C545.924 643.586 545.785 643.309 538.443 636.66C534.426 633.059 524.591 625.856 516.557 620.592L502.012 611.311V604.8C502.012 597.181 505.475 579.728 512.263 552.577C514.895 542.05 517.526 530.829 517.942 527.643C518.496 523.765 519.743 521.548 521.267 520.994C522.652 520.579 525.007 518.916 526.392 517.393C528.608 514.899 528.747 513.93 527.223 506.449C525.561 498.554 525.699 497.584 530.963 479.853C540.66 447.854 547.586 428.461 550.633 425.275C552.296 423.475 556.867 420.981 560.745 419.734C570.442 416.548 571.412 415.579 569.611 411.562C567.395 406.713 561.577 405.19 543.569 404.358C529.993 403.804 526.253 404.081 518.635 406.575C513.648 408.237 504.228 410.176 497.579 411.146C483.45 413.085 484.004 413.362 472.645 397.986C461.979 383.719 450.066 379.009 443.971 386.766C440.647 390.922 440.093 399.372 442.863 402.973C443.833 404.22 448.681 406.159 454.083 407.267C464.749 409.484 470.567 413.778 470.567 419.596C470.567 423.613 468.49 426.661 453.114 446.192C439.4 463.507 437.461 466.832 425.548 493.567C405.462 538.587 405.878 560.058 428.18 602.03C432.474 610.064 437.461 619.484 439.261 622.947C443.417 630.981 446.465 646.911 444.387 650.236C442.586 653.006 437.045 654.53 426.933 654.945C417.375 655.361 415.713 653.699 413.358 642.201C408.648 618.929 406.432 616.713 387.038 616.298C379.835 616.159 372.494 616.021 370.831 616.021C368.338 615.882 367.645 615.051 367.645 612.003C367.645 607.294 373.879 581.528 383.16 547.868C390.086 522.657 390.363 522.102 394.519 520.856C400.752 519.055 402.553 511.852 398.12 507.142L394.934 503.817L403.661 476.39C415.02 440.79 414.05 442.729 420.422 442.729C431.366 442.729 433.305 433.033 423.47 427.769C421.531 426.661 412.25 426.106 397.428 426.106C368.615 426.106 368.061 425.829 364.044 412.67C361.689 404.497 355.732 399.649 347.698 399.372C341.603 399.233 338.556 401.865 338.556 406.99C338.556 412.947 340.634 415.856 347.421 419.873C354.624 424.167 357.118 429.431 354.347 434.556C353.378 436.357 341.88 448.132 328.721 460.737C315.561 473.204 303.094 485.948 300.878 488.996C293.259 499.523 284.532 534.154 284.532 553.547C284.532 565.321 288.965 584.576 293.813 594.688C299.077 605.493 311.959 618.098 324.565 624.886C330.244 627.933 335.093 631.119 335.37 632.089C335.785 633.059 332.045 633.89 323.734 634.583C317.085 635.137 307.942 636.799 303.648 638.184C299.215 639.569 294.644 640.816 293.259 640.816C289.242 640.816 276.913 629.18 270.264 618.929C262.645 607.571 259.598 598.844 259.598 588.87C259.598 579.174 263.892 557.426 269.572 537.894C273.727 523.765 274.143 520.994 273.866 505.341C273.727 496.06 272.204 472.096 270.541 452.287C267.632 416.41 267.632 415.994 270.264 412.393C276.636 403.804 292.705 399.233 303.233 402.973C306.28 404.081 311.821 406.99 315.7 409.345C323.872 414.471 324.288 414.609 326.227 410.453C329.413 403.25 321.517 388.013 310.99 381.087C308.081 379.009 302.263 376.515 298.246 375.546C290.211 373.329 286.748 370.836 287.995 367.789C288.411 366.68 292.428 363.217 296.86 359.893C301.432 356.707 306.003 351.997 307.25 349.365C311.959 339.392 308.496 324.293 300.046 318.198C291.874 312.38 276.359 308.917 274.143 312.518C273.727 313.211 275.251 317.644 277.744 322.215C282.454 331.219 283.285 338.976 280.376 346.595C278.437 351.72 275.944 354.49 267.217 361.417C263.477 364.326 255.719 371.113 250.178 376.377C233.971 391.753 231.339 401.034 235.218 429.57C241.867 479.853 241.729 524.319 234.803 566.014C229.539 597.32 229.816 609.648 236.188 626.964C243.114 645.664 272.204 684.589 303.094 716.726C308.496 722.267 313.483 727.947 314.176 729.055C315.007 730.578 314.591 733.764 312.929 738.474C309.882 747.478 310.436 750.803 315.284 751.357C319.024 751.772 323.18 747.478 326.089 739.998L327.474 736.258L335.37 741.383C347.006 748.863 373.74 761.884 385.792 766.04C396.597 769.642 408.094 771.581 427.487 773.105C442.586 774.351 443.279 775.183 439.815 786.264C437.184 794.714 437.045 795.407 439.261 797.069C445.079 801.363 449.512 797.623 452.56 785.849C453.806 781.278 454.914 777.399 455.33 777.122C455.607 776.845 483.45 776.291 517.111 776.014L578.476 775.598L577.645 778.507C574.044 791.39 575.29 795.268 582.355 793.606C587.342 792.498 589.004 789.727 590.112 781.278C590.528 777.26 591.636 773.382 592.606 772.689C593.437 771.997 600.086 769.78 607.289 767.702C631.253 760.915 653.417 749.695 675.857 732.795C685.693 725.453 727.388 684.312 734.175 675.447C740.686 666.858 750.937 643.309 756.2 625.024C762.711 602.584 762.434 597.597 752.599 566.014C726.418 481.931 723.786 465.585 734.452 453.395C737.5 449.932 742.21 450.486 747.058 455.058C752.183 459.767 752.045 458.798 752.045 496.06C752.045 520.994 752.322 525.15 754.123 525.15C756.616 525.15 761.88 515.038 764.65 504.787C765.758 500.77 767.282 488.719 767.975 478.052C769.499 457.413 771.022 447.439 774.347 436.911C776.84 429.431 775.593 420.427 770.053 403.25C762.988 381.502 752.183 365.988 721.293 332.742C684.584 293.402 651.478 270.269 627.513 267.36C621.141 266.529 620.587 266.667 622.526 268.607ZM532.21 418.072C535.119 420.981 534.011 432.478 529.162 447.854C526.669 456.027 522.098 471.542 519.327 482.208C513.371 504.095 511.293 509.22 507.83 509.358C493.701 510.189 485.805 506.449 479.017 495.783C463.78 472.096 462.533 457.413 474.723 442.314C482.896 432.478 493.424 425.552 508.245 420.704C521.544 416.271 529.578 415.44 532.21 418.072ZM665.745 420.15C669.208 423.336 668.931 425.552 662.836 446.054C659.789 456.027 655.772 471.265 653.832 479.992C649.261 500.493 648.014 502.294 639.149 502.294C633.193 502.294 631.53 501.601 626.682 497.307C616.57 488.026 613.799 466.416 621.28 454.226C627.652 443.837 646.629 426.106 657.85 420.15C662.975 417.38 662.698 417.38 665.745 420.15ZM735.838 423.613C740.686 428.461 735.838 439.82 724.063 450.209C719.63 454.226 716.306 458.659 715.198 461.845C712.981 469.048 711.319 470.849 708.964 468.91C706.471 466.832 706.471 456.443 708.964 450.348C711.596 444.253 720.739 430.678 725.725 425.691C729.881 421.674 733.206 420.981 735.838 423.613ZM404.631 440.928C404.215 444.668 400.06 459.075 395.488 473.204C390.779 487.333 387.038 500.354 387.038 502.294C387.038 507.281 385.376 509.081 379.974 510.605C374.294 512.267 366.814 511.021 361.966 507.696C360.027 506.311 354.763 499.523 350.33 492.597C342.711 480.546 342.434 479.576 342.988 472.511C343.958 460.737 349.499 453.118 362.797 445.223C374.571 438.158 385.93 434.695 397.982 434.556L405.462 434.418L404.631 440.928ZM337.448 500.493C355.455 520.717 356.425 521.41 369.723 522.657C376.788 523.349 378.727 523.903 378.727 525.704C378.727 529.721 373.186 551.054 368.477 566.014C365.845 574.048 362.382 586.1 360.581 592.749C358.918 599.536 356.425 606.324 355.178 607.986L352.685 610.895L346.729 608.263C339.387 604.939 326.92 592.61 320.963 582.498C315.7 573.771 310.851 556.179 310.851 546.067C310.851 536.786 314.591 507.003 315.977 504.372C317.916 500.909 326.504 495.368 329.829 495.368C331.63 495.368 334.816 497.445 337.448 500.493ZM453.529 499.108C455.468 500.354 461.009 504.926 465.996 509.22C470.983 513.376 476.108 517.808 477.494 518.778C478.879 519.886 485.251 521.133 491.761 521.687C498.133 522.241 503.813 522.934 504.228 523.488C506.306 525.427 494.809 588.039 490.515 598.151C487.883 604.523 485.666 604.662 476.385 599.398C453.668 586.377 436.907 557.703 436.907 532.076C436.907 513.376 442.309 496.753 448.404 496.753C449.374 496.753 451.728 497.861 453.529 499.108ZM610.198 503.956C631.807 517.116 632.638 517.531 638.179 516.562C644.413 515.592 644.274 513.93 639.703 539.002C637.902 549.668 635.686 562.135 634.993 566.707C630.284 595.381 629.73 596.489 618.648 597.597C610.198 598.29 597.454 595.796 593.16 592.333C591.359 590.948 588.034 586.515 585.818 582.36C582.078 575.711 581.662 573.91 581.801 562.551C582.078 541.496 593.714 498.138 599.116 498.138C599.947 498.138 604.934 500.77 610.198 503.956ZM721.431 535.816C730.158 559.365 733.898 586.654 731.959 612.142C730.574 632.643 728.496 640.677 721.985 652.175C712.704 668.243 696.913 685.42 693.311 683.065C691.51 681.957 694.419 674.477 699.129 668.243C705.086 660.209 711.042 646.911 714.782 632.92L718.384 619.345L717.414 574.602C716.86 546.067 716.999 529.998 717.968 529.998C718.661 529.998 720.185 532.63 721.431 535.816ZM673.364 610.618C679.598 617.544 687.632 639.154 687.632 649.404C687.632 656.192 680.844 673.646 675.026 681.68C665.884 694.424 644.967 708.553 626.128 715.064C614.077 719.081 613.938 719.081 611.86 716.311C608.674 712.016 610.613 698.026 618.371 672.676C619.202 670.044 621.695 659.101 623.912 648.573C630.145 618.791 633.885 613.666 651.893 609.648C665.053 606.878 670.04 607.017 673.364 610.618ZM616.847 616.713C619.756 618.791 620.033 619.761 619.34 626.825C617.955 640.677 615.462 649.266 611.445 653.837C608.12 657.439 607.012 657.854 604.934 656.608C601.055 654.253 593.714 640.816 592.744 634.305C591.497 626.964 592.744 623.224 598.008 618.375C603.133 613.804 611.583 613.112 616.847 616.713ZM477.355 624.47C480.957 626.964 484.281 629.734 484.558 630.704C485.251 632.366 480.403 658.131 479.017 660.348C477.771 662.425 474.446 661.733 473.061 659.101C470.567 654.391 466.55 625.579 467.797 622.116C469.044 619.207 469.875 619.484 477.355 624.47ZM389.532 629.873C392.718 630.981 394.796 633.197 397.289 638.461C401.999 648.019 405.739 662.841 404.631 667.274C403.523 671.845 392.302 686.528 382.329 696.502C371.94 706.891 367.091 707.999 358.918 702.181C355.732 699.827 351.023 696.918 348.668 695.671C342.573 692.623 342.711 688.745 349.083 669.629L353.932 654.807L359.888 655.499C364.321 656.192 366.122 655.776 367.645 653.976C369.308 652.036 369.031 650.79 366.399 644.556C359.611 629.18 360.027 628.349 374.294 628.349C380.389 628.349 387.177 629.042 389.532 629.873ZM513.509 640.955C519.466 644.833 525.284 649.404 526.392 651.344C527.639 653.144 529.439 659.517 530.548 665.334C531.656 672.122 534.426 680.295 538.028 687.637C544.954 701.766 544.815 703.428 534.426 714.233C525.561 723.514 514.34 729.886 501.873 732.933C474.308 739.444 465.581 730.856 474.308 705.921C478.186 694.84 487.744 661.179 490.376 649.266C492.592 638.877 495.917 633.89 500.35 633.89C501.735 633.89 507.691 637.076 513.509 640.955ZM331.63 648.296L340.634 649.82L340.495 655.361C340.356 662.564 336.339 676.001 333.569 678.771C331.63 680.71 330.937 680.71 326.366 678.771C319.44 676.001 311.405 667.966 307.25 659.932C303.51 652.59 303.233 650.374 305.587 648.019C307.665 645.941 319.44 646.08 331.63 648.296ZM445.633 674.754C449.651 676.555 455.884 680.018 459.624 682.373L466.412 686.667L465.581 696.086C464.749 706.06 460.732 718.527 456.854 722.683C453.806 726.007 449.096 726.007 446.049 722.683C444.802 721.297 441.339 713.956 438.43 706.476C435.521 698.857 431.366 688.468 429.149 683.204L425.271 673.784L428.318 671.152C431.781 668.382 432.751 668.52 445.633 674.754ZM606.458 683.065C606.319 691.792 598.146 721.575 594.545 726.007C591.082 730.44 584.71 730.578 575.29 726.561C567.533 723.098 564.347 718.666 564.347 710.77C564.347 702.597 567.533 698.58 583.879 686.667C595.376 678.356 600.501 675.447 603.133 675.724C606.319 676.139 606.596 676.693 606.458 683.065ZM417.375 694.147C419.037 697.61 420.284 700.796 420.284 701.35C420.284 701.766 422.223 706.476 424.578 711.601C430.95 725.176 430.257 725.869 413.219 724.899C398.397 723.929 392.164 721.99 391.471 717.834C390.086 711.185 406.432 687.914 412.527 687.914C413.635 687.914 415.713 690.684 417.375 694.147ZM552.988 723.652C553.265 726.561 552.573 729.332 551.187 730.855C548.694 733.487 537.335 736.95 535.119 735.704C532.487 734.042 534.011 729.332 539.274 723.929C543.569 719.358 545.508 718.25 548.694 718.666C552.019 719.081 552.573 719.774 552.988 723.652Z" fill="#0438A5"/>
<path d="M835.16 203.086C832.113 204.609 826.849 208.349 823.386 211.397C820.061 214.444 816.737 216.938 816.044 216.938C815.49 216.938 814.244 214.998 813.551 212.782C812.72 210.427 811.058 208.626 809.949 208.626C806.625 208.626 788.617 221.093 789.587 222.756C790.418 224.141 796.79 223.587 801.499 221.786C803.3 221.093 807.872 224.695 819.784 236.469C837.238 253.646 840.009 257.248 837.377 260.434C836.13 261.957 836.407 262.927 839.455 265.282C843.333 268.33 850.259 269.161 851.783 266.806C853.03 264.866 849.844 260.018 841.532 251.291C837.515 246.997 834.606 242.841 835.022 242.01C836.407 239.932 841.394 240.071 844.026 242.287C845.688 243.673 849.29 243.95 857.047 243.534C866.466 242.98 868.129 242.564 869.93 239.655C873.254 234.669 871.315 231.621 862.034 227.604C856.216 225.111 853.722 223.31 854.276 221.925C854.692 220.816 853.722 219.431 851.645 218.461C849.151 217.353 848.32 215.968 848.597 213.752C849.013 211.12 848.32 210.704 844.026 210.289C839.87 210.012 838.901 210.427 838.208 212.644C837.792 214.306 835.992 216.107 834.191 216.799C830.589 218.184 826.711 222.063 827.819 223.31C828.234 223.725 831.005 223.033 833.775 221.925C840.701 219.016 845.827 219.016 845.273 221.925C844.995 223.448 843.195 224.418 840.286 224.556C835.576 224.972 829.897 228.851 831.143 230.928C832.39 233.145 846.381 232.314 848.32 230.097C849.29 228.989 850.813 228.02 851.783 228.02C855.246 228.02 862.172 232.868 861.895 234.946C861.341 237.578 855.246 238.547 853.722 236.192C852.753 234.669 851.783 234.669 848.043 236.192C840.147 239.378 830.589 240.209 827.403 237.993C823.386 235.223 816.46 225.249 816.46 222.34C816.46 220.816 819.923 217.907 826.295 214.306C831.697 211.12 836.546 208.626 837.1 208.626C837.654 208.626 839.316 207.38 840.701 205.856C844.718 201.423 841.532 199.899 835.16 203.086Z" fill="#0438A5"/>
<path d="M171.777 206.133C170.531 207.795 169.561 210.704 169.561 212.505C169.561 214.86 166.513 218.877 159.172 225.803C153.354 231.206 147.397 236.608 145.735 237.855C143.519 239.378 142.965 240.902 143.657 243.534C145.319 249.768 156.54 263.204 174.132 279.688C191.586 296.034 197.681 300.19 200.59 297.281C201.698 296.172 199.62 293.402 193.11 287.169C176.21 270.961 158.479 250.045 158.479 246.443C158.479 243.118 169.561 225.526 176.348 217.907C182.859 210.704 189.093 213.475 209.178 232.591C221.23 243.95 223.446 247.828 219.983 251.707C218.736 253.092 218.044 255.17 218.459 256.417C219.567 258.91 228.71 263.62 230.095 262.235C231.203 260.988 228.294 248.659 224.831 240.625C223.308 237.301 217.905 230.236 212.226 224.556C193.11 205.579 177.18 198.376 171.777 206.133Z" fill="#0438A5"/>
<path d="M173.856 238.547C170.393 242.841 170.254 244.504 172.886 245.473C174.964 246.304 180.782 243.811 182.306 241.456C183.552 239.378 181.059 234.946 178.566 234.946C177.596 234.946 175.38 236.608 173.856 238.547Z" fill="#0438A5"/>
<path d="M799.283 240.348C797.067 242.703 797.205 243.118 801.915 247.274C804.685 249.629 807.733 251.568 808.841 251.568C811.334 251.568 811.611 254.477 809.256 256.832C806.209 259.879 801.222 258.633 795.266 253.092C788.755 247.135 781.829 244.365 781.829 247.69C781.829 250.321 784.184 252.953 791.249 258.356C798.59 264.035 798.867 267.637 791.941 270.407C785.569 273.178 778.643 271.931 775.041 267.498C771.717 263.204 771.301 263.204 768.808 267.914C765.76 273.87 767.977 275.948 778.92 277.887C788.617 279.55 792.772 278.58 800.253 273.455C802.469 271.931 803.3 272.208 806.625 276.364C809.256 279.55 811.196 280.796 812.858 280.242C815.906 278.996 815.629 275.81 812.165 270.961C807.871 265.282 809.395 262.927 817.429 262.373C827.403 261.68 826.987 258.771 815.351 247.274C810.088 242.01 804.824 237.716 803.716 237.716C802.607 237.716 800.53 238.824 799.283 240.348Z" fill="#0438A5"/>
<path d="M195.048 246.997C189.923 247.69 182.027 256.555 182.027 261.68C182.027 265.421 189.369 270.269 193.663 269.438C198.234 268.468 199.62 264.589 196.572 261.126L193.802 258.079L198.927 259.048C203.914 260.018 204.052 259.88 205.022 255.031C205.438 252.399 205.576 249.213 205.022 248.105C204.329 246.027 203.498 245.889 195.048 246.997Z" fill="#0438A5"/>
<path d="M870.483 485.671C870.483 487.61 870.067 492.597 869.651 496.753C868.82 504.094 868.82 504.233 871.037 501.185C872.422 499.523 874.5 498.138 875.885 498.138C878.932 498.138 902.481 514.761 901.512 516.284C900.68 517.808 875.331 531.383 873.53 531.383C872.699 531.383 871.037 529.721 869.929 527.505C867.851 523.765 867.851 523.903 867.712 532.076C867.712 536.647 867.297 542.881 866.881 545.928C866.188 551.469 866.188 551.469 868.266 547.867C869.513 545.651 877.409 540.249 889.045 533.6L907.607 523.072L917.857 523.903C930.186 525.011 932.402 526.119 933.233 530.968C933.51 533.323 933.926 531.937 934.064 527.92C934.064 524.042 934.48 517.531 934.895 513.375C935.173 509.22 935.173 507.003 934.757 508.527C933.095 514.068 931.432 514.761 919.104 514.761H907.052L891.122 503.263C880.456 495.506 874.5 490.381 872.976 487.056C870.621 482.623 870.483 482.485 870.483 485.671Z" fill="#0438A5"/>
<path d="M117.061 492.043C122.741 494.398 125.234 498.692 125.234 506.449C125.234 511.713 125.096 511.852 119.416 512.544C116.092 512.96 103.625 514.068 91.5732 514.899C68.3014 516.561 65.6695 516.146 65.6695 510.189C65.6695 508.666 65.3925 507.696 64.9769 508.112C64.5613 508.527 64.5613 514.761 65.1154 521.825C65.9465 532.769 66.3621 534.154 67.3318 530.275C68.0244 527.92 69.2711 525.842 70.2407 525.704C71.2104 525.704 83.4004 524.596 97.5296 523.211C111.659 521.964 123.849 520.994 124.68 521.41C128.559 522.656 127.866 541.08 123.849 541.08C123.433 541.08 121.91 541.911 120.524 542.881C118.446 544.404 119.001 544.543 124.819 543.989C132.714 543.019 132.16 546.205 129.528 513.652L127.589 489.827L119.832 489.965H112.074L117.061 492.043Z" fill="#0438A5"/>
<path d="M105.009 569.477C82.0144 574.602 71.4867 595.935 82.0144 616.02C87.5553 626.687 95.3126 631.535 107.641 632.228C127.311 633.336 142.549 621.838 145.458 603.692C146.427 597.32 143.241 586.238 138.809 580.559C131.467 571.139 117.615 566.707 105.009 569.477ZM132.575 580.836C140.886 584.991 144.627 598.982 139.64 607.432C133.545 617.821 109.442 626.41 96.5593 622.947C90.3258 621.284 82.9841 613.943 81.4603 608.263C78.6899 597.32 87.2783 586.238 101.823 581.528C116.091 576.819 124.402 576.68 132.575 580.836Z" fill="#0438A5"/>
<path d="M861.618 568.507C860.926 569.754 848.32 616.713 848.32 618.375C848.32 619.761 860.649 623.362 861.757 622.254C862.034 621.977 861.064 621.284 859.541 620.73C855.108 619.345 853.584 615.051 854.554 607.709C854.969 604.108 855.801 600.506 856.355 599.675C857.047 598.567 861.618 599.259 871.869 602.03C879.903 604.108 891.955 607.294 898.742 609.095C912.318 612.558 915.365 614.635 914.395 619.622C913.01 626.964 916.058 620.038 918.828 609.51C921.876 598.013 922.43 593.441 920.352 598.982C919.659 600.645 917.997 602.445 916.612 603C913.703 604.108 859.402 590.81 859.402 588.87C859.402 584.992 862.727 576.542 865.082 574.187C866.467 572.802 869.653 571.555 872.285 571.416C875.886 571.416 876.163 571.139 873.947 570.308C869.237 568.507 862.311 567.399 861.618 568.507Z" fill="#0438A5"/>
<path d="M158.064 642.34C158.48 646.218 158.064 649.266 156.817 650.651C154.601 653.422 112.49 675.447 109.581 675.447C108.335 675.447 106.395 674.061 105.287 672.399C100.854 666.027 102.101 671.152 107.365 680.295C111.382 687.498 112.49 688.883 111.936 685.697C111.244 682.096 111.659 680.988 115.122 678.633C121.217 674.338 151.831 658.547 152.523 659.378C152.939 659.655 147.536 673.507 140.472 689.992C133.546 706.614 128.005 720.605 128.282 721.159C128.559 721.713 139.918 716.311 153.631 709.108C182.583 694.009 184.937 693.178 188.123 697.749C191.587 702.874 190.755 699.55 186.046 690.684C181.751 682.373 177.734 677.525 180.92 684.451C182.167 687.36 182.167 688.329 180.505 689.992C177.873 692.623 143.242 710.493 142.411 709.8C141.857 709.108 146.428 697.472 159.311 667.412C162.635 659.517 165.406 652.452 165.406 651.482C165.406 650.513 163.605 646.773 161.389 643.032L157.372 636.245L158.064 642.34Z" fill="#0438A5"/>
<path d="M834.33 647.881C831.283 654.114 829.066 659.517 829.482 659.932C829.897 660.348 830.313 659.932 830.313 659.101C830.313 658.27 831.56 656.885 832.945 656.053C835.161 654.945 840.287 656.885 861.203 666.858C875.194 673.646 887.107 680.156 887.523 681.403C888.077 682.788 888.077 684.728 887.661 685.836C887.107 686.944 887.246 687.914 887.661 687.914C888.077 687.914 890.986 682.788 894.172 676.416C899.02 666.72 899.436 665.473 896.527 668.105C894.726 669.906 892.371 671.291 891.54 671.291C888.492 671.291 840.287 646.495 839.594 644.695C839.317 643.725 839.594 641.509 840.148 639.708C842.641 633.197 839.871 637.076 834.33 647.881Z" fill="#0438A5"/>
<path d="M813.136 688.606C813.69 689.853 811.058 693.316 806.487 697.887C797.344 706.752 795.82 711.739 799.699 720.466C804.686 731.687 813.828 732.518 832.667 723.652C846.52 717.142 852.476 716.449 856.909 720.882C863.419 727.254 858.848 739.305 848.182 744.015C843.195 746.37 841.533 746.231 832.39 743.876C829.897 743.184 840.425 751.495 845.827 754.543C847.628 755.512 847.905 755.235 847.351 753.157C846.935 751.357 848.597 749.14 853.03 745.539C859.402 740.136 864.943 730.994 864.943 725.453C864.943 723.791 863.973 720.466 862.727 717.973C856.909 706.475 848.32 705.783 828.096 714.925C820.616 718.388 812.72 721.159 810.781 721.159C805.932 721.159 802.331 716.865 802.192 710.908C801.915 700.519 815.352 693.177 826.711 697.61C828.65 698.303 830.312 698.718 830.312 698.441C830.312 697.749 814.105 686.528 813.136 686.528C812.72 686.528 812.72 687.498 813.136 688.606Z" fill="#0438A5"/>
<path d="M187.015 727.392C179.535 730.024 172.193 736.258 168.176 743.461C165.406 748.309 164.713 751.495 164.713 758.56C164.851 768.534 166.791 773.382 174.825 783.217C179.258 788.758 189.37 795.961 192.556 795.961C193.387 795.961 197.681 792.775 202.114 788.896C212.642 780.031 215.828 778.369 218.737 780.723C223.031 784.187 220.676 780.308 213.334 771.72L205.854 762.854L206.547 768.118C207.239 772.966 206.824 773.52 197.958 781.139C192.833 785.433 188.262 789.035 187.708 789.035C185.63 789.035 177.457 782.801 174.686 779.061C165.544 766.733 174.825 744.015 192.556 735.15C214.027 724.345 235.775 742.491 227.048 763.824L224.832 768.949L231.896 762.023C237.714 756.205 238.545 754.958 236.329 754.681C234.528 754.404 232.727 752.049 231.342 748.448C224.416 730.301 204.884 721.02 187.015 727.392Z" fill="#0438A5"/>
<path d="M763.127 752.465C760.911 753.573 753.431 759.807 746.505 766.179C736.392 775.737 734.869 777.538 738.609 776.291L743.041 774.629L763.266 794.576C780.858 812.168 783.351 815.077 782.797 818.402C782.52 820.618 782.659 822.28 783.213 822.28C783.629 822.28 787.646 818.402 792.217 813.83C796.788 809.121 799.143 806.073 797.481 806.904C792.078 809.675 789.446 808.567 780.442 799.424C771.577 790.42 771.577 790.42 774.209 787.788C776.979 785.156 777.256 785.156 795.68 788.342L814.38 791.528L820.614 785.433L826.847 779.2L821.445 781.416C816.458 783.494 814.796 783.494 800.667 781.278C792.217 780.031 784.875 778.507 784.321 778.092C783.767 777.676 784.321 774.352 785.706 770.75C787.923 764.378 787.923 763.962 785.291 759.114C780.858 750.803 771.854 748.032 763.127 752.465ZM775.179 762.3C780.304 767.287 780.442 775.183 775.594 782.524C773.655 785.295 771.3 787.65 770.33 787.65C769.361 787.65 764.235 783.356 758.972 777.953L749.413 768.257L753.431 763.962C755.786 761.608 758.833 759.114 760.357 758.421C764.651 756.621 770.884 758.283 775.179 762.3Z" fill="#0438A5"/>
<path d="M267.22 781.139C270.267 785.71 269.99 786.264 250.182 810.921C237.715 826.436 233.697 830.591 231.343 830.314C228.849 829.899 228.572 829.068 228.849 824.219C229.403 817.986 226.356 815.216 222.754 818.263C216.798 823.111 223.724 833.362 232.866 833.362C241.87 833.362 246.441 829.76 261.263 811.06C268.882 801.225 276.362 792.913 277.748 792.498C279.133 791.944 281.488 792.359 283.15 793.19C287.86 795.684 286.336 794.022 277.332 786.818C265.696 777.537 264.311 776.845 267.22 781.139Z" fill="#0438A5"/>
<path d="M692.481 805.935C673.503 818.54 671.564 820.064 677.936 817.57C679.321 817.016 681.537 818.125 683.754 820.479C687.771 825.051 713.952 863.421 713.952 865.084C713.952 865.776 712.566 867.993 710.904 870.07L707.995 873.811L713.398 870.486C716.307 868.547 726.142 862.313 735.007 856.495L751.214 845.968L749.136 838.626C746.227 829.206 745.812 828.791 745.812 836.271C745.812 843.89 743.595 847.214 734.314 853.309C722.125 861.205 722.263 861.205 714.09 848.877C710.212 842.92 707.026 837.379 707.026 836.548C707.026 835.855 710.904 832.808 715.614 829.899C723.925 824.774 724.202 824.635 728.081 826.851C730.159 828.098 731.96 828.791 731.96 828.375C731.96 827.544 721.986 812.584 721.293 812.584C721.016 812.584 721.155 814.107 721.709 816.047C722.263 818.54 721.847 820.479 720.047 822.557C717.415 825.605 705.917 833.362 704.117 833.362C703.008 833.362 690.403 813.415 690.403 811.753C690.403 810.367 705.779 800.117 710.212 798.316C712.012 797.623 714.506 798.177 717.692 800.117C720.324 801.64 721.986 802.056 721.432 801.225C718.938 797.208 714.783 791.805 714.09 791.944C713.675 791.944 703.978 798.316 692.481 805.935Z" fill="#0438A5"/>
<path d="M304.343 806.489C305.59 808.151 306.698 810.783 306.698 812.445C306.698 816.324 281.902 859.404 278.716 861.205C277.054 862.036 275.253 862.036 273.314 860.928C271.513 860.097 270.682 859.958 271.236 860.789C272.206 862.313 292.014 873.533 293.815 873.533C294.369 873.533 293.4 872.564 291.599 871.317C286.889 867.993 288.136 864.807 302.819 839.595C315.286 818.263 315.979 817.432 320.273 817.432C322.628 817.432 324.706 817.293 324.706 817.293C324.706 817.155 321.797 815.354 318.195 813.276C314.455 811.198 309.33 808.151 306.698 806.627C301.85 803.857 301.85 803.857 304.343 806.489Z" fill="#0438A5"/>
<path d="M649.956 830.453L643.446 832.808L647.74 834.47L651.895 835.994L650.926 859.958C650.372 873.118 649.541 884.2 649.264 884.615C648.155 885.862 617.126 852.201 616.157 848.738C615.464 846.383 615.88 844.859 617.819 843.474C620.312 841.673 620.174 841.535 616.849 842.366C614.91 842.92 609.231 844.721 604.382 846.522C597.733 849.015 596.487 849.846 599.396 849.846C603.413 849.985 604.798 851.37 637.905 886.831C645.108 894.589 651.341 900.545 651.757 899.991C652.173 899.576 653.281 884.477 654.25 866.607C655.497 842.366 656.328 833.362 657.99 831.007C660.484 827.128 659.237 827.128 649.956 830.453Z" fill="#0438A5"/>
<path d="M384.688 845.136C389.536 847.907 389.536 850.816 384.272 872.425C379.562 891.68 379.147 898.19 382.333 904.285C385.519 910.38 389.397 913.289 397.293 915.783C411.145 920.077 421.396 917.168 426.798 907.333C428.322 904.424 431.647 893.896 434.002 883.923C438.85 864.252 440.928 859.681 445.637 859.543C447.3 859.543 444.391 858.296 438.988 856.911C428.738 854.002 424.028 853.448 430.262 855.664C432.201 856.495 434.279 858.019 434.694 859.266C435.802 861.898 427.907 895.697 424.444 903.593C420.288 913.012 408.791 916.475 397.432 911.766C387.043 907.333 386.35 898.606 394.107 869.378C398.678 852.062 399.787 850.123 404.219 849.846C405.743 849.708 402.834 848.599 397.432 847.214C392.168 845.967 386.211 844.444 384.272 843.89C380.948 843.058 380.948 843.058 384.688 845.136Z" fill="#0438A5"/>
<path d="M558.53 856.08C554.236 856.911 550.218 858.019 549.803 858.573C549.249 859.127 549.941 859.127 551.465 858.85C556.729 857.465 558.391 861.205 563.517 886.278C569.196 913.982 569.473 918.553 566.287 919.8C560.885 921.878 565.871 921.601 576.815 919.246C583.325 917.861 586.927 916.752 584.987 916.614C582.91 916.475 580.555 915.644 579.724 914.536C578.754 913.428 575.568 900.545 572.52 886C567.257 860.789 567.118 859.266 569.334 856.772C571.551 854.279 571.551 854.14 569.057 854.279C567.672 854.417 562.824 855.249 558.53 856.08Z" fill="#0438A5"/>
<path d="M463.645 859.958C463.368 860.651 464.061 861.066 465.169 861.066C466.416 861.066 469.047 862.729 471.264 864.807L475.142 868.685L474.311 893.758C473.619 920.077 472.926 922.709 466.97 923.817C465.307 924.094 467.939 924.51 472.788 924.648C481.514 924.787 481.653 924.787 479.298 922.155C477.082 919.8 476.943 917.307 477.913 897.221C479.021 870.624 477.082 870.486 498.83 899.022C507.003 909.688 515.314 920.631 517.53 923.124C521.27 927.419 521.409 927.557 521.963 924.51C522.379 922.709 522.933 908.857 523.348 893.619C524.041 867.3 524.179 865.776 527.088 863.421C529.997 861.066 529.859 861.066 522.24 861.066H514.483L517.253 863.837C519.608 866.192 520.024 868.27 519.885 878.659C519.747 885.446 519.331 895.143 518.777 900.407L517.946 909.965L511.712 901.792C508.249 897.221 499.661 886 492.596 876.719L479.852 859.958L472.095 859.404C467.801 859.266 464.061 859.404 463.645 859.958Z" fill="#0438A5"/>
</svg>
