<svg width="1920" height="1080" viewBox="0 0 1920 1080" fill="none" xmlns="http://www.w3.org/2000/svg">
<rect width="1920" height="1080" fill="#E53C21"/>
<rect x="843" width="1077" height="740" fill="black"/>
<path d="M1101.67 138.638L1109.67 141.761L1105.04 148.988C1103.5 151.381 1104.1 154.553 1106.4 156.226C1107.35 156.917 1108.45 157.251 1109.55 157.251C1111.11 157.251 1112.65 156.576 1113.7 155.287L1119.15 148.648L1124.59 155.287C1125.66 156.593 1127.24 157.236 1128.8 157.251C1131.75 157.229 1134.13 154.835 1134.13 151.885C1134.13 150.641 1133.7 149.497 1132.99 148.586L1128.62 141.763L1136.62 138.639C1139.26 137.606 1140.64 134.686 1139.77 131.983C1138.89 129.281 1136.06 127.742 1133.3 128.451L1125 130.623L1124.5 122.053C1124.34 119.216 1121.99 117 1119.15 117C1116.3 117 1113.95 119.216 1113.79 122.053L1113.29 130.623L1104.99 128.451C1102.24 127.74 1099.4 129.279 1098.52 131.983C1097.65 134.685 1099.03 137.603 1101.67 138.638Z" fill="#E53C21"/>
<path d="M1199.62 740V629.431V640.162V690.5V740Z" fill="#E53C21"/>
<path d="M895.149 740H1038H940.872H895.149Z" fill="#E53C21"/>
<path d="M1038 629.431H1064.49C1070 629.431 1067.04 629.431 1070 629.431C1072.96 629.431 1070 629.431 1075.22 629.431H1113.44C1118.96 629.431 1115.99 629.431 1118.96 629.431C1121.92 629.431 1118.96 629.431 1124.17 629.431H1162.4C1167.91 629.431 1164.95 629.431 1167.91 629.431C1170.88 629.431 1167.91 629.431 1173.13 629.431H1199.62H1188.89H1113.44H1038Z" fill="#E53C21"/>
<path d="M1119.14 163L1124.42 167.37L1153.4 320.937L1084.89 320.936L1113.87 167.37L1119.14 163Z" fill="#E53C21"/>
<path d="M1094.33 331.666V405.437H1079.58V331.666H1094.33Z" fill="#E53C21"/>
<path d="M1133.23 331.666V405.437H1105.06V331.666H1133.23Z" fill="#E53C21"/>
<path d="M1158.71 405.437H1143.96V331.666H1158.71V405.437Z" fill="#E53C21"/>
<path d="M1124.42 167.37C1123.94 164.835 1121.72 163 1119.14 163C1116.57 163 1114.35 164.835 1113.87 167.37L1119.14 163L1124.42 167.37Z" fill="#E53C21"/>
<path d="M1068.85 416.167V449.028L1169.44 449.03V416.167H1068.85Z" fill="#E53C21"/>
<path d="M1210.35 640.162V560.356C1210.35 557.393 1207.95 554.991 1204.99 554.991H1202.3H1191.57H1184.2H1204.99L1210.35 560.356V640.162H1232.05V604.618L1234.98 599.837L1240.57 600.278L1254.91 610.704L1269.24 600.278L1274.84 599.837L1277.77 604.618V640.162H1299.43V604.618L1302.36 599.837L1307.95 600.277L1322.3 610.702L1336.63 600.277L1342.22 599.835L1345.15 604.616L1345.18 640.161L1345.26 740H1232.05H1210.35H1199.62V629.431H1118.96H1038V740H895.149L895.149 640.162L895.149 604.616L898.08 599.834L903.671 600.275L918.006 610.701L932.354 600.275L937.943 599.835L940.872 604.617V640.161H962.534V604.617L965.465 599.835L971.055 600.277L985.391 610.702L999.726 600.277L1005.32 599.835L1008.25 604.617V640.161H1027.27V629.431V560.355L1032.63 554.99H1054.09H1046.04H1035.31H1032.63C1029.67 554.99 1027.27 557.392 1027.27 560.355V640.161H1008.25V604.617L1005.32 599.835L999.726 600.277L985.391 610.702L971.055 600.277L965.465 599.835L962.534 604.617V640.161H940.872V604.617L937.943 599.835L932.354 600.275L918.006 610.701L903.671 600.275L898.08 599.834L895.149 604.616L895.149 740H940.872H1038V629.431H1064.49C1070 629.431 1067.04 629.431 1070 629.431C1072.96 629.431 1070 629.431 1075.22 629.431H1113.44C1118.96 629.431 1115.99 629.431 1118.96 629.431C1121.92 629.431 1118.96 629.431 1124.17 629.431H1162.4C1167.91 629.431 1164.95 629.431 1167.91 629.431C1170.88 629.431 1167.91 629.431 1173.13 629.431H1199.62V640.162V740H1210.35H1232.05H1345.26L1345.15 604.616L1342.22 599.835L1336.63 600.277L1322.3 610.702L1307.95 600.277L1302.36 599.837L1299.43 604.618V640.162H1277.77V604.618L1274.84 599.837L1269.24 600.278L1254.91 610.704L1240.57 600.278L1234.98 599.837L1232.05 604.618V640.162H1210.35Z" fill="#E53C21"/>
<path d="M1046.04 554.99V529.415C1046.04 526.452 1043.64 524.05 1040.68 524.05C1037.72 524.05 1035.31 526.452 1035.31 529.415V554.99H1046.04Z" fill="white"/>
<path d="M1202.3 554.991V529.417C1202.3 526.454 1199.9 524.052 1196.94 524.052C1193.98 524.052 1191.57 526.454 1191.57 529.417V554.991H1202.3Z" fill="white"/>
<path fill-rule="evenodd" clip-rule="evenodd" d="M1008.25 604.617L1005.32 599.835L999.726 600.277L985.391 610.702L971.055 600.277L965.465 599.835L962.534 604.617V640.161H940.872V604.617L937.943 599.835L932.354 600.275C933.986 599.091 936.146 598.921 937.943 599.835C939.74 600.753 940.872 602.6 940.872 604.617V640.161H962.534V604.617C962.534 602.598 963.667 600.751 965.465 599.835C967.265 598.921 969.424 599.09 971.055 600.277L985.391 610.702L999.726 600.277C1001.36 599.088 1003.52 598.919 1005.32 599.835C1007.12 600.751 1008.25 602.598 1008.25 604.617Z" fill="#E53C21"/>
<path fill-rule="evenodd" clip-rule="evenodd" d="M1336.63 600.277C1338.26 599.088 1340.42 598.919 1342.22 599.835C1344.02 600.751 1345.15 602.598 1345.15 604.616L1345.26 740H1232.05H1199.62V690.5V640.162V740H1210.35H1232.05H1345.26L1345.15 604.616L1342.22 599.835L1336.63 600.277L1322.3 610.702L1307.95 600.277L1302.36 599.837L1299.43 604.618V640.162H1277.77V604.618L1274.84 599.837L1269.24 600.278L1254.91 610.704L1240.57 600.278L1234.98 599.837L1232.05 604.618C1232.05 602.6 1233.19 600.753 1234.98 599.837C1236.78 598.922 1238.94 599.091 1240.57 600.278L1254.91 610.704L1269.24 600.278C1270.88 599.09 1273.04 598.921 1274.84 599.837C1276.63 600.753 1277.77 602.6 1277.77 604.618V640.162H1299.43V604.618C1299.43 602.601 1300.56 600.754 1302.36 599.837C1304.16 598.919 1306.31 599.091 1307.95 600.277L1322.3 610.702L1336.63 600.277Z" fill="#E53C21"/>
<path d="M1074.15 740H1083.77V705C1083.77 693.954 1092.72 685 1103.77 685H1133.85C1144.9 685 1153.85 693.954 1153.85 705V740H1163.65V696.5C1163.65 685.454 1154.7 676.5 1143.65 676.5H1094.15C1083.1 676.5 1074.15 685.454 1074.15 696.5V740Z" fill="white"/>
<path fill-rule="evenodd" clip-rule="evenodd" d="M1048.72 740V640.161H1188.89V740H1163.65V696.5C1163.65 685.454 1154.7 676.5 1143.65 676.5H1094.15C1083.1 676.5 1074.15 685.454 1074.15 696.5V740H1048.72Z" fill="#E53C21"/>
<path fill-rule="evenodd" clip-rule="evenodd" d="M1054.09 459.759V554.99H1032.63L1027.27 560.355V629.431V640.161H1008.25V604.617L1005.32 599.835L999.726 600.277L985.391 610.702L971.055 600.277L965.465 599.835L962.534 604.617V640.161H940.872V604.617L937.943 599.835L932.354 600.275L918.006 610.701L903.671 600.275L898.08 599.834L895.149 604.616L895.149 640.162L895.149 740H1038V629.431H1118.96H1199.62V740H1210.35H1232.05H1345.26L1345.18 640.161L1345.15 604.616L1342.22 599.835L1336.63 600.277L1322.3 610.702L1307.95 600.277L1302.36 599.837L1299.43 604.618V640.162H1277.77V604.618L1274.84 599.837L1269.24 600.278L1254.91 610.704L1240.57 600.278L1234.98 599.837L1232.05 604.618V640.162H1210.35V560.356L1204.99 554.991H1184.2V459.759H1054.09Z" fill="#E53C21"/>
<path d="M1184.2 454.395C1184.2 451.432 1181.79 449.03 1178.83 449.03H1169.44L1068.85 449.028H1059.46C1056.49 449.028 1054.09 451.431 1054.09 454.393V459.759H1184.2V454.395Z" fill="white"/>
<path d="M1199.62 740H1210.35H1345.26H1232.05H1199.62Z" fill="#E53C21"/>
<path fill-rule="evenodd" clip-rule="evenodd" d="M1199.62 740V629.431H1188.89H1113.44H1038V740H1048.72V640.161H1188.89V740H1199.62ZM1068.85 416.167H1169.44V326.302C1169.44 323.339 1167.04 320.937 1164.08 320.937H1153.4L1084.89 320.936H1074.21C1071.25 320.936 1068.85 323.338 1068.85 326.301V416.167ZM1143.96 405.437H1158.71V331.666H1143.96V405.437ZM1094.33 405.437V331.666H1079.58V405.437H1094.33ZM1105.06 405.437H1133.23V331.666H1105.06V405.437Z" fill="white"/>
<path fill-rule="evenodd" clip-rule="evenodd" d="M903.671 600.275C902.04 599.088 899.88 598.919 898.08 599.834L903.671 600.275Z" fill="#E53C21"/>
<path d="M898.08 599.834C896.283 600.75 895.149 602.597 895.149 604.616L898.08 599.834Z" fill="#E53C21"/>
<path d="M1057.45 583.15C1054.48 583.15 1052.08 585.552 1052.08 588.515V604.611C1052.08 607.573 1054.48 609.976 1057.45 609.976C1060.41 609.976 1062.81 607.573 1062.81 604.611V588.515C1062.81 585.552 1060.41 583.15 1057.45 583.15Z" fill="white"/>
<path d="M1088.63 583.15C1085.67 583.15 1083.27 585.552 1083.27 588.515V604.611C1083.27 607.573 1085.67 609.976 1088.63 609.976C1091.59 609.976 1094 607.573 1094 604.611V588.515C1094 585.552 1091.59 583.15 1088.63 583.15Z" fill="white"/>
<path d="M1119.82 583.15C1116.85 583.15 1114.45 585.552 1114.45 588.515V604.611C1114.45 607.573 1116.85 609.976 1119.82 609.976C1122.78 609.976 1125.18 607.573 1125.18 604.611V588.515C1125.18 585.552 1122.78 583.15 1119.82 583.15Z" fill="white"/>
<path d="M1151 583.15C1148.04 583.15 1145.63 585.552 1145.63 588.515V604.611C1145.63 607.573 1148.04 609.976 1151 609.976C1153.96 609.976 1156.36 607.573 1156.36 604.611V588.515C1156.36 585.552 1153.96 583.15 1151 583.15Z" fill="white"/>
<path d="M1182.18 583.15C1179.22 583.15 1176.82 585.552 1176.82 588.515V604.611C1176.82 607.573 1179.22 609.976 1182.18 609.976C1185.15 609.976 1187.55 607.573 1187.55 604.611V588.515C1187.55 585.552 1185.15 583.15 1182.18 583.15Z" fill="white"/>
<path d="M1119.14 468.876C1097.7 468.876 1080.25 486.326 1080.25 507.773C1080.25 529.22 1097.7 546.67 1119.14 546.67C1140.59 546.67 1158.04 529.22 1158.04 507.773C1158.04 486.326 1140.59 468.876 1119.14 468.876ZM1119.14 535.94C1103.61 535.94 1090.98 523.304 1090.98 507.773C1090.98 492.242 1103.61 479.606 1119.14 479.606C1134.68 479.606 1147.31 492.242 1147.31 507.773C1147.31 523.304 1134.68 535.94 1119.14 535.94Z" fill="white"/>
<path d="M1132.56 502.408H1124.51V494.192C1124.51 491.23 1122.11 488.827 1119.14 488.827C1116.18 488.827 1113.78 491.23 1113.78 494.192V507.773C1113.78 510.736 1116.18 513.138 1119.14 513.138H1132.56C1135.52 513.138 1137.92 510.736 1137.92 507.773C1137.92 504.81 1135.52 502.408 1132.56 502.408Z" fill="white"/>
<rect x="1403" y="205" width="450" height="329.896" rx="20" fill="#E53C21"/>
<path d="M1452.91 257.253L1460.79 281.503H1486.29L1465.66 296.491L1473.54 320.741L1452.91 305.754L1432.28 320.741L1440.16 296.491L1419.54 281.503H1445.03L1452.91 257.253Z" fill="#FFDE02"/>
<path d="M1524.35 262.402L1526.98 270.486H1535.48L1528.6 275.481L1531.23 283.565L1524.35 278.569L1517.48 283.565L1520.1 275.481L1513.23 270.486H1521.73L1524.35 262.402Z" fill="#FFDE02"/>
<path d="M1530.65 302.178L1528.16 310.306L1535.12 315.181L1526.62 315.329L1524.14 323.457L1521.37 315.421L1512.87 315.569L1519.66 310.454L1516.9 302.418L1523.86 307.293L1530.65 302.178Z" fill="#FFDE02"/>
<path d="M1506.69 323.317L1506.54 331.815L1514.58 334.582L1506.45 337.067L1506.3 345.565L1501.42 338.603L1493.3 341.088L1498.41 334.3L1493.54 327.337L1501.57 330.105L1506.69 323.317Z" fill="#FFDE02"/>
<path d="M1507.92 239.987L1507.18 248.454L1515 251.775L1506.72 253.687L1505.98 262.154L1501.6 254.869L1493.32 256.78L1498.9 250.366L1494.52 243.08L1502.34 246.401L1507.92 239.987Z" fill="#FFDE02"/>
</svg>
