<svg width="668" height="668" viewBox="0 0 668 668" fill="none" xmlns="http://www.w3.org/2000/svg">
<path d="M617.333 67.3332H534V17.3332C534 12.9129 532.244 8.67367 529.118 5.54806C525.993 2.42245 521.753 0.666504 517.333 0.666504C512.913 0.666504 508.674 2.42245 505.548 5.54806C502.422 8.67367 500.666 12.9129 500.666 17.3332V67.3332H167.333V17.3332C167.333 12.9129 165.577 8.67367 162.452 5.54806C159.326 2.42245 155.087 0.666504 150.666 0.666504C146.246 0.666504 142.007 2.42245 138.881 5.54806C135.756 8.67367 134 12.9129 134 17.3332V67.3332H50.6665C37.4057 67.3332 24.688 72.601 15.3112 81.9778C5.93435 91.3546 0.666504 104.072 0.666504 117.333V617.333C0.666504 630.594 5.93435 643.312 15.3112 652.688C24.688 662.065 37.4057 667.333 50.6665 667.333H617.333C630.594 667.333 643.312 662.065 652.688 652.688C662.065 643.312 667.333 630.594 667.333 617.333V117.333C667.333 104.072 662.065 91.3546 652.688 81.9778C643.312 72.601 630.594 67.3332 617.333 67.3332ZM634 617.333C634 621.753 632.244 625.993 629.118 629.118C625.993 632.244 621.753 634 617.333 634H50.6665C46.2462 634 42.007 632.244 38.8814 629.118C35.7558 625.993 33.9998 621.753 33.9998 617.333V117.333C33.9998 112.913 35.7558 108.674 38.8814 105.548C42.007 102.422 46.2462 100.667 50.6665 100.667H134V117.333C134 121.753 135.756 125.993 138.881 129.118C142.007 132.244 146.246 134 150.666 134C155.087 134 159.326 132.244 162.452 129.118C165.577 125.993 167.333 121.753 167.333 117.333V100.667H500.666V117.333C500.666 121.753 502.422 125.993 505.548 129.118C508.674 132.244 512.913 134 517.333 134C521.753 134 525.993 132.244 529.118 129.118C532.244 125.993 534 121.753 534 117.333V100.667H617.333C621.753 100.667 625.993 102.422 629.118 105.548C632.244 108.674 634 112.913 634 117.333V617.333Z" fill="white"/>
<path d="M217.333 200.667H117.333C112.913 200.667 108.674 202.422 105.548 205.548C102.422 208.674 100.667 212.913 100.667 217.333V317.333C100.667 321.753 102.422 325.993 105.548 329.118C108.674 332.244 112.913 334 117.333 334H217.333C221.753 334 225.993 332.244 229.118 329.118C232.244 325.993 234 321.753 234 317.333V217.333C234 212.913 232.244 208.674 229.118 205.548C225.993 202.422 221.753 200.667 217.333 200.667ZM200.667 300.667H134V234H200.667V300.667Z" fill="white"/>
<path d="M550.667 200.667H450.667C446.246 200.667 442.007 202.422 438.882 205.548C435.756 208.674 434 212.913 434 217.333V317.333C434 321.753 435.756 325.993 438.882 329.118C442.007 332.244 446.246 334 450.667 334H550.667C555.087 334 559.326 332.244 562.452 329.118C565.577 325.993 567.333 321.753 567.333 317.333V217.333C567.333 212.913 565.577 208.674 562.452 205.548C559.326 202.422 555.087 200.667 550.667 200.667ZM534 300.667H467.333V234H534V300.667Z" fill="white"/>
<path d="M384 200.667H284C279.579 200.667 275.34 202.422 272.215 205.548C269.089 208.674 267.333 212.913 267.333 217.333V317.333C267.333 321.753 269.089 325.993 272.215 329.118C275.34 332.244 279.579 334 284 334H384C388.42 334 392.659 332.244 395.785 329.118C398.91 325.993 400.666 321.753 400.666 317.333V217.333C400.666 212.913 398.91 208.674 395.785 205.548C392.659 202.422 388.42 200.667 384 200.667ZM367.333 300.667H300.666V234H367.333V300.667Z" fill="white"/>
<path d="M217.333 434H117.333C112.913 434 108.674 435.756 105.548 438.882C102.422 442.007 100.667 446.246 100.667 450.667V550.667C100.667 555.087 102.422 559.326 105.548 562.452C108.674 565.577 112.913 567.333 117.333 567.333H217.333C221.753 567.333 225.993 565.577 229.118 562.452C232.244 559.326 234 555.087 234 550.667V450.667C234 446.246 232.244 442.007 229.118 438.882C225.993 435.756 221.753 434 217.333 434ZM200.667 534H134V467.333H200.667V534Z" fill="white"/>
<path d="M550.667 434H450.667C446.246 434 442.007 435.756 438.882 438.882C435.756 442.007 434 446.246 434 450.667V550.667C434 555.087 435.756 559.326 438.882 562.452C442.007 565.577 446.246 567.333 450.667 567.333H550.667C555.087 567.333 559.326 565.577 562.452 562.452C565.577 559.326 567.333 555.087 567.333 550.667V450.667C567.333 446.246 565.577 442.007 562.452 438.882C559.326 435.756 555.087 434 550.667 434ZM534 534H467.333V467.333H534V534Z" fill="white"/>
<path d="M384 434H284C279.579 434 275.34 435.756 272.215 438.882C269.089 442.007 267.333 446.246 267.333 450.667V550.667C267.333 555.087 269.089 559.326 272.215 562.452C275.34 565.577 279.579 567.333 284 567.333H384C388.42 567.333 392.659 565.577 395.785 562.452C398.91 559.326 400.666 555.087 400.666 550.667V450.667C400.666 446.246 398.91 442.007 395.785 438.882C392.659 435.756 388.42 434 384 434ZM367.333 534H300.666V467.333H367.333V534Z" fill="white"/>
</svg>
