<svg width="246" height="180" viewBox="0 0 246 180" fill="none" xmlns="http://www.w3.org/2000/svg">
<rect width="245.532" height="180" rx="10" fill="#E53C21"/>
<path d="M38.1489 29.9149L42.4481 43.1465H56.3607L45.1052 51.3241L49.4044 64.5557L38.1489 56.3781L26.8935 64.5557L31.1927 51.3241L19.9372 43.1465H33.8497L38.1489 29.9149Z" fill="#FFFF00"/>
<path d="M77.1288 32.7244L78.5619 37.1349H83.1994L79.4476 39.8608L80.8806 44.2713L77.1288 41.5455L73.377 44.2713L74.8101 39.8608L71.0583 37.1349H75.6958L77.1288 32.7244Z" fill="#FFFF00"/>
<path d="M80.5616 54.4271L79.2058 58.862L83.0046 61.5219L78.3678 61.6029L77.0119 66.0378L75.5021 61.6529L70.8653 61.7338L74.569 58.9429L73.0591 54.5581L76.858 57.218L80.5616 54.4271Z" fill="#FFFF00"/>
<path d="M67.4898 65.961L67.4089 70.5978L71.7937 72.1076L67.3589 73.4635L67.2779 78.1003L64.618 74.3014L60.1831 75.6573L62.974 71.9536L60.314 68.1548L64.6989 69.6646L67.4898 65.961Z" fill="#FFFF00"/>
<path d="M68.1615 20.494L67.7573 25.1139L72.0261 26.9259L67.5075 27.9691L67.1033 32.589L64.7148 28.6139L60.1961 29.6571L63.2386 26.1571L60.8501 22.182L65.119 23.994L68.1615 20.494Z" fill="#FFFF00"/>
</svg>
