<svg width="600" height="600" viewBox="0 0 600 600" fill="none" xmlns="http://www.w3.org/2000/svg">
<rect width="600" height="600" rx="300" fill="#F2E6D3"/>
<path d="M305.16 361V314.333H340.36V320H311.76V333.333H326.293C331.848 333.333 336.071 334.489 338.96 336.8C341.848 339.111 343.293 342.467 343.293 346.867C343.293 351.4 341.715 354.889 338.56 357.333C335.448 359.778 330.982 361 325.16 361H305.16ZM311.76 355.733H324.893C328.76 355.733 331.671 355 333.626 353.533C335.626 352.067 336.626 349.889 336.626 347C336.626 341.4 332.715 338.6 324.893 338.6H311.76V355.733ZM389.256 361.533C385.878 361.533 382.745 360.956 379.856 359.8C376.967 358.6 374.456 356.933 372.323 354.8C370.189 352.622 368.523 350.089 367.323 347.2C366.167 344.311 365.589 341.133 365.589 337.667C365.589 334.2 366.167 331.022 367.323 328.133C368.523 325.244 370.189 322.733 372.323 320.6C374.456 318.422 376.967 316.756 379.856 315.6C382.745 314.4 385.878 313.8 389.256 313.8C392.634 313.8 395.767 314.4 398.656 315.6C401.589 316.756 404.123 318.422 406.256 320.6C408.389 322.733 410.034 325.244 411.189 328.133C412.389 331.022 412.989 334.2 412.989 337.667C412.989 341.133 412.389 344.311 411.189 347.2C410.034 350.089 408.389 352.622 406.256 354.8C404.123 356.933 401.589 358.6 398.656 359.8C395.767 360.956 392.634 361.533 389.256 361.533ZM350.589 361V314.333H357.189V334.333H369.256V340.333H357.189V361H350.589ZM389.256 355.533C391.7 355.533 393.945 355.111 395.989 354.267C398.078 353.378 399.878 352.133 401.389 350.533C402.945 348.933 404.145 347.044 404.989 344.867C405.878 342.689 406.323 340.289 406.323 337.667C406.323 335.044 405.878 332.644 404.989 330.467C404.145 328.289 402.945 326.4 401.389 324.8C399.878 323.2 398.078 321.978 395.989 321.133C393.945 320.244 391.723 319.8 389.323 319.8C386.923 319.8 384.678 320.244 382.589 321.133C380.545 321.978 378.745 323.2 377.189 324.8C375.678 326.4 374.478 328.289 373.589 330.467C372.745 332.644 372.323 335.044 372.323 337.667C372.323 340.289 372.745 342.689 373.589 344.867C374.478 347.044 375.678 348.933 377.189 350.533C378.745 352.133 380.545 353.378 382.589 354.267C384.678 355.111 386.9 355.533 389.256 355.533ZM420.498 361V314.333H438.698C442.787 314.333 446.276 314.978 449.165 316.267C452.054 317.556 454.276 319.422 455.831 321.867C457.387 324.311 458.165 327.222 458.165 330.6C458.165 333.978 457.387 336.889 455.831 339.333C454.276 341.733 452.054 343.6 449.165 344.933C446.276 346.222 442.787 346.867 438.698 346.867H424.165L427.165 343.733V361H420.498ZM427.165 344.4L424.165 341.067H438.498C442.765 341.067 445.987 340.156 448.165 338.333C450.387 336.511 451.498 333.933 451.498 330.6C451.498 327.267 450.387 324.689 448.165 322.867C445.987 321.044 442.765 320.133 438.498 320.133H424.165L427.165 316.8V344.4ZM485.756 361.533C482.2 361.533 478.889 360.933 475.823 359.733C472.8 358.533 470.178 356.867 467.956 354.733C465.734 352.556 464 350.022 462.756 347.133C461.511 344.244 460.889 341.089 460.889 337.667C460.889 334.244 461.511 331.089 462.756 328.2C464 325.311 465.734 322.8 467.956 320.667C470.178 318.489 472.8 316.8 475.823 315.6C478.845 314.4 482.156 313.8 485.756 313.8C489.311 313.8 492.578 314.4 495.556 315.6C498.578 316.756 501.2 318.422 503.423 320.6C505.689 322.733 507.423 325.244 508.623 328.133C509.867 331.022 510.489 334.2 510.489 337.667C510.489 341.133 509.867 344.311 508.623 347.2C507.423 350.089 505.689 352.622 503.423 354.8C501.2 356.933 498.578 358.6 495.556 359.8C492.578 360.956 489.311 361.533 485.756 361.533ZM485.756 355.6C488.334 355.6 490.711 355.156 492.889 354.267C495.111 353.378 497.023 352.133 498.623 350.533C500.267 348.889 501.534 346.978 502.423 344.8C503.356 342.622 503.823 340.244 503.823 337.667C503.823 335.089 503.356 332.711 502.423 330.533C501.534 328.356 500.267 326.467 498.623 324.867C497.023 323.222 495.111 321.956 492.889 321.067C490.711 320.178 488.334 319.733 485.756 319.733C483.134 319.733 480.711 320.178 478.489 321.067C476.311 321.956 474.4 323.222 472.756 324.867C471.111 326.467 469.823 328.356 468.889 330.533C468 332.711 467.556 335.089 467.556 337.667C467.556 340.244 468 342.622 468.889 344.8C469.823 346.978 471.111 348.889 472.756 350.533C474.4 352.133 476.311 353.378 478.489 354.267C480.711 355.156 483.134 355.6 485.756 355.6ZM92.6595 421V374.333H132.86V421H126.326V378.4L127.926 380.133H97.5929L99.2595 378.4V421H92.6595ZM144.079 421V374.333H177.012V380.133H150.745V415.2H177.945V421H144.079ZM150.145 400.133V394.467H174.145V400.133H150.145ZM185.081 421V374.333H203.281C207.37 374.333 210.859 374.978 213.748 376.267C216.637 377.556 218.859 379.422 220.415 381.867C221.97 384.311 222.748 387.222 222.748 390.6C222.748 393.978 221.97 396.889 220.415 399.333C218.859 401.733 216.637 403.6 213.748 404.933C210.859 406.222 207.37 406.867 203.281 406.867H188.748L191.748 403.733V421H185.081ZM191.748 404.4L188.748 401.067H203.081C207.348 401.067 210.57 400.156 212.748 398.333C214.97 396.511 216.081 393.933 216.081 390.6C216.081 387.267 214.97 384.689 212.748 382.867C210.57 381.044 207.348 380.133 203.081 380.133H188.748L191.748 376.8V404.4ZM228.688 421V374.333H261.622V380.133H235.355V415.2H262.555V421H228.688ZM234.755 400.133V394.467H258.755V400.133H234.755ZM269.691 421V374.333H289.757C294.824 374.333 298.802 375.356 301.691 377.4C304.58 379.444 306.024 382.422 306.024 386.333C306.024 390.156 304.646 393.089 301.891 395.133C299.135 397.133 295.513 398.133 291.024 398.133L292.224 396.133C297.424 396.133 301.402 397.178 304.157 399.267C306.957 401.311 308.357 404.311 308.357 408.267C308.357 412.267 306.891 415.4 303.957 417.667C301.069 419.889 296.757 421 291.024 421H269.691ZM276.291 415.733H290.891C294.446 415.733 297.113 415.089 298.891 413.8C300.713 412.467 301.624 410.444 301.624 407.733C301.624 405.022 300.713 403.044 298.891 401.8C297.113 400.556 294.446 399.933 290.891 399.933H276.291V415.733ZM276.291 394.867H289.291C292.535 394.867 295.002 394.222 296.691 392.933C298.424 391.644 299.291 389.756 299.291 387.267C299.291 384.733 298.424 382.822 296.691 381.533C295.002 380.244 292.535 379.6 289.291 379.6H276.291V394.867ZM337.162 421.533C333.607 421.533 330.295 420.933 327.229 419.733C324.207 418.533 321.584 416.867 319.362 414.733C317.14 412.556 315.407 410.022 314.162 407.133C312.918 404.244 312.295 401.089 312.295 397.667C312.295 394.244 312.918 391.089 314.162 388.2C315.407 385.311 317.14 382.8 319.362 380.667C321.584 378.489 324.207 376.8 327.229 375.6C330.251 374.4 333.562 373.8 337.162 373.8C340.718 373.8 343.984 374.4 346.962 375.6C349.984 376.756 352.607 378.422 354.829 380.6C357.095 382.733 358.829 385.244 360.029 388.133C361.273 391.022 361.895 394.2 361.895 397.667C361.895 401.133 361.273 404.311 360.029 407.2C358.829 410.089 357.095 412.622 354.829 414.8C352.607 416.933 349.984 418.6 346.962 419.8C343.984 420.956 340.718 421.533 337.162 421.533ZM337.162 415.6C339.74 415.6 342.118 415.156 344.295 414.267C346.518 413.378 348.429 412.133 350.029 410.533C351.673 408.889 352.94 406.978 353.829 404.8C354.762 402.622 355.229 400.244 355.229 397.667C355.229 395.089 354.762 392.711 353.829 390.533C352.94 388.356 351.673 386.467 350.029 384.867C348.429 383.222 346.518 381.956 344.295 381.067C342.118 380.178 339.74 379.733 337.162 379.733C334.54 379.733 332.118 380.178 329.895 381.067C327.718 381.956 325.807 383.222 324.162 384.867C322.518 386.467 321.229 388.356 320.295 390.533C319.407 392.711 318.962 395.089 318.962 397.667C318.962 400.244 319.407 402.622 320.295 404.8C321.229 406.978 322.518 408.889 324.162 410.533C325.807 412.133 327.718 413.378 329.895 414.267C332.118 415.156 334.54 415.6 337.162 415.6ZM370.504 416.4L363.304 415.2C365.037 415.333 366.459 414.756 367.57 413.467C368.726 412.133 369.615 410.289 370.237 407.933C370.904 405.533 371.393 402.756 371.704 399.6C372.015 396.4 372.237 392.978 372.37 389.333L372.837 374.333H405.637V417.867H399.037V380.133H378.57L378.237 389.933C378.104 393.222 377.882 396.378 377.57 399.4C377.304 402.422 376.904 405.156 376.37 407.6C375.837 410 375.082 411.978 374.104 413.533C373.17 415.089 371.97 416.044 370.504 416.4ZM361.637 431.2L361.704 415.2H412.504V431.2H406.304V421H367.904L367.837 431.2H361.637ZM439.285 421.533C435.729 421.533 432.418 420.933 429.351 419.733C426.329 418.533 423.707 416.867 421.485 414.733C419.262 412.556 417.529 410.022 416.285 407.133C415.04 404.244 414.418 401.089 414.418 397.667C414.418 394.244 415.04 391.089 416.285 388.2C417.529 385.311 419.262 382.8 421.485 380.667C423.707 378.489 426.329 376.8 429.351 375.6C432.373 374.4 435.685 373.8 439.285 373.8C442.84 373.8 446.107 374.4 449.085 375.6C452.107 376.756 454.729 378.422 456.951 380.6C459.218 382.733 460.951 385.244 462.151 388.133C463.396 391.022 464.018 394.2 464.018 397.667C464.018 401.133 463.396 404.311 462.151 407.2C460.951 410.089 459.218 412.622 456.951 414.8C454.729 416.933 452.107 418.6 449.085 419.8C446.107 420.956 442.84 421.533 439.285 421.533ZM439.285 415.6C441.862 415.6 444.24 415.156 446.418 414.267C448.64 413.378 450.551 412.133 452.151 410.533C453.796 408.889 455.062 406.978 455.951 404.8C456.885 402.622 457.351 400.244 457.351 397.667C457.351 395.089 456.885 392.711 455.951 390.533C455.062 388.356 453.796 386.467 452.151 384.867C450.551 383.222 448.64 381.956 446.418 381.067C444.24 380.178 441.862 379.733 439.285 379.733C436.662 379.733 434.24 380.178 432.018 381.067C429.84 381.956 427.929 383.222 426.285 384.867C424.64 386.467 423.351 388.356 422.418 390.533C421.529 392.711 421.085 395.089 421.085 397.667C421.085 400.244 421.529 402.622 422.418 404.8C423.351 406.978 424.64 408.889 426.285 410.533C427.929 412.133 429.84 413.378 432.018 414.267C434.24 415.156 436.662 415.6 439.285 415.6ZM471.462 421V374.333H491.528C496.595 374.333 500.573 375.356 503.462 377.4C506.351 379.444 507.795 382.422 507.795 386.333C507.795 390.156 506.417 393.089 503.662 395.133C500.906 397.133 497.284 398.133 492.795 398.133L493.995 396.133C499.195 396.133 503.173 397.178 505.928 399.267C508.728 401.311 510.128 404.311 510.128 408.267C510.128 412.267 508.662 415.4 505.728 417.667C502.839 419.889 498.528 421 492.795 421H471.462ZM478.062 415.733H492.662C496.217 415.733 498.884 415.089 500.662 413.8C502.484 412.467 503.395 410.444 503.395 407.733C503.395 405.022 502.484 403.044 500.662 401.8C498.884 400.556 496.217 399.933 492.662 399.933H478.062V415.733ZM478.062 394.867H491.062C494.306 394.867 496.773 394.222 498.462 392.933C500.195 391.644 501.062 389.756 501.062 387.267C501.062 384.733 500.195 382.822 498.462 381.533C496.773 380.244 494.306 379.6 491.062 379.6H478.062V394.867Z" fill="black"/>
<g clip-path="url(#clip0_465_62)">
<path d="M223.67 291.334H166.483V309.459H223.67V291.334Z" fill="#A7ECFF"/>
<path d="M199.919 270.086C199.919 270.086 230.544 261.961 237.107 232.586C238.669 224.773 234.607 217.586 248.669 206.023C258.357 197.898 260.857 182.273 261.169 174.773C226.794 174.773 208.357 197.586 198.982 216.023C182.107 249.773 199.919 270.086 199.919 270.086Z" fill="#FFEEA9"/>
<path d="M253.983 357.896H136.483V317.896C136.483 313.209 149.383 309.459 154.07 309.459H239.47C244.158 309.459 253.983 313.209 253.983 317.896V357.896Z" fill="black"/>
<path d="M192.42 290.125C192.107 292 193.045 293.875 194.92 294.187C195.232 294.187 195.545 294.187 195.545 294.187C197.107 294.187 198.67 293.25 198.982 291.375C200.545 284.5 202.107 278.562 203.67 272.938C212.107 269.812 234.607 259.5 239.92 233.875C240.545 231.687 240.545 229.5 240.545 227.625C240.857 222 240.857 217 250.232 209.5C259.92 201.375 263.67 186.062 263.982 175.438C263.982 174.5 263.67 173.562 263.045 172.938C262.42 172.313 261.795 172 260.857 172C224.607 172 205.232 195.437 195.545 215.438C179.295 248.25 193.982 269.188 196.795 272.625C195.232 277.938 193.982 283.562 192.42 290.125ZM201.795 218.25C210.232 201.062 226.795 180.438 257.107 178.875C256.482 186.688 253.357 197.938 246.17 204.188C234.607 213.875 234.295 221.375 233.982 227.625C233.982 229.5 233.982 231.062 233.357 232.625C229.607 250.75 215.232 260.125 206.17 264.5C214.607 237.312 221.795 225.75 222.107 225.75C223.045 224.188 222.732 222 221.17 221.062C219.607 220.125 217.42 220.438 216.482 222C216.17 222.625 208.045 234.812 199.295 263.875C195.545 256.375 190.857 240.438 201.795 218.25Z" fill="black"/>
<path d="M235.234 306.021H227.109V291.334C227.109 289.459 225.546 287.896 223.671 287.896H166.484C164.609 287.896 163.046 289.459 163.046 291.334V306.021H154.921C142.734 306.021 133.046 316.021 133.046 327.896V357.584C133.046 359.459 134.609 361.021 136.484 361.021H253.671C255.546 361.021 257.109 359.459 257.109 357.584V327.896C257.421 316.021 247.421 306.021 235.234 306.021ZM169.921 294.771H220.546V306.021H169.921V294.771ZM250.546 354.459H139.921V328.209C139.921 319.771 146.796 313.209 154.921 313.209H166.484H223.671H235.234C243.671 313.209 250.234 320.084 250.234 328.209V354.459H250.546Z" fill="black"/>
</g>
<path d="M348.98 273.34C349.127 272.949 350.007 273.01 351.62 273.523C352.549 273.841 353.148 274.122 353.417 274.367C353.71 274.587 353.82 274.917 353.747 275.357C353.673 275.772 353.563 276.151 353.417 276.493C353.27 276.836 353.123 277.019 352.977 277.043C352.61 277.19 352.023 276.897 351.217 276.163C350.801 275.797 350.544 275.613 350.447 275.613C350.373 275.613 350.104 275.393 349.64 274.953C349.004 274.391 348.784 273.853 348.98 273.34ZM341.72 269.05C341.818 268.83 341.903 268.72 341.977 268.72C342.05 268.696 342.221 268.744 342.49 268.867C343.126 269.111 343.504 269.368 343.627 269.637C343.749 269.881 343.651 270.248 343.333 270.737C343.162 271.054 342.979 271.238 342.783 271.287C342.588 271.336 342.429 271.238 342.307 270.993L341.793 270.077C341.622 269.759 341.537 269.551 341.537 269.453C341.537 269.356 341.598 269.221 341.72 269.05ZM346.267 268.097C346.316 266.899 346.462 266.08 346.707 265.64C346.951 265.176 347.122 264.943 347.22 264.943C347.342 264.943 347.623 265.09 348.063 265.383C348.381 265.603 348.589 265.836 348.687 266.08C348.784 266.324 348.76 266.557 348.613 266.777C348.516 266.874 348.43 267.131 348.357 267.547C348.308 267.889 348.296 268.072 348.32 268.097C348.344 268.097 348.418 268.06 348.54 267.987C348.736 267.889 349.286 267.376 350.19 266.447C350.899 265.738 351.363 265.347 351.583 265.273C351.828 265.176 352.121 265.286 352.463 265.603C352.708 265.823 352.964 266.019 353.233 266.19C353.527 266.337 353.673 266.532 353.673 266.777C353.673 266.997 353.453 267.327 353.013 267.767C352.573 268.207 352.231 268.427 351.987 268.427C351.816 268.427 351.29 268.671 350.41 269.16C349.53 269.624 349.09 269.893 349.09 269.967C349.09 269.967 349.2 269.979 349.42 270.003C349.64 270.003 349.946 270.003 350.337 270.003C350.752 269.979 351.192 269.954 351.657 269.93C353.148 269.906 354.077 269.942 354.443 270.04C354.81 270.113 355.03 270.37 355.103 270.81C355.128 271.152 355.006 271.446 354.737 271.69C354.346 272.057 353.771 272.142 353.013 271.947C352.647 271.824 351.742 271.8 350.3 271.873C349.2 271.922 348.552 271.971 348.357 272.02C348.161 272.069 348.014 272.203 347.917 272.423C347.843 272.594 347.782 273.597 347.733 275.43C347.684 277.239 347.684 278.241 347.733 278.437C347.807 278.534 348.137 278.583 348.723 278.583C349.286 278.632 349.97 278.718 350.777 278.84C351.583 278.962 352.109 279.097 352.353 279.243C352.867 279.512 353.209 279.439 353.38 279.023C353.478 278.779 353.979 278.4 354.883 277.887C356.154 277.104 357.352 276.286 358.477 275.43C358.672 275.259 358.746 274.953 358.697 274.513L358.55 273.853L358.037 274.403C357.694 274.77 357.389 274.953 357.12 274.953C356.851 274.953 356.484 274.856 356.02 274.66C355.58 274.464 355.25 274.257 355.03 274.037C354.908 273.866 354.859 273.756 354.883 273.707C354.908 273.633 355.042 273.474 355.287 273.23C355.629 272.888 356.081 272.668 356.643 272.57C357.23 272.448 357.707 272.472 358.073 272.643L358.587 272.9V270.993V269.123L358.183 269.05C357.89 268.977 357.633 269.001 357.413 269.123C357.267 269.197 356.851 269.246 356.167 269.27C355.482 269.294 355.091 269.27 354.993 269.197C354.822 269.001 355.067 268.561 355.727 267.877L356.387 267.217L357.743 267.18C358.403 267.18 358.856 267.217 359.1 267.29C359.369 267.339 359.76 267.486 360.273 267.73C361.031 268.121 361.459 268.317 361.557 268.317C361.654 268.317 361.764 268.451 361.887 268.72C362.009 268.964 361.984 269.307 361.813 269.747C361.569 270.504 361.532 272.008 361.703 274.257C361.801 275.528 361.85 276.457 361.85 277.043C361.85 277.606 361.911 277.899 362.033 277.923C362.204 277.972 362.889 277.581 364.087 276.75C365.284 275.919 365.92 275.406 365.993 275.21C366.042 274.99 366.067 274.733 366.067 274.44V274L364.857 274.037C364.074 274.11 363.476 274.049 363.06 273.853C362.571 273.609 362.302 273.413 362.253 273.267C362.204 273.096 362.314 272.9 362.583 272.68C363.146 272.289 363.561 272.032 363.83 271.91C364.123 271.763 364.514 271.678 365.003 271.653L365.993 271.58L366.03 269.123L366.067 266.703L365.48 266.557C364.967 266.41 364.136 266.459 362.987 266.703C362.864 266.703 362.706 266.703 362.51 266.703C362.388 266.703 362.327 266.679 362.327 266.63C362.327 266.581 362.4 266.434 362.547 266.19C362.742 265.823 362.938 265.591 363.133 265.493C363.353 265.396 363.757 265.322 364.343 265.273C365.541 265.151 366.8 265.322 368.12 265.787C369.44 266.227 370.149 266.728 370.247 267.29C370.271 267.486 370.112 267.987 369.77 268.793C369.526 269.356 369.379 269.796 369.33 270.113C369.281 270.431 369.257 270.981 369.257 271.763C369.257 272.643 369.269 273.157 369.293 273.303C369.318 273.45 369.416 273.511 369.587 273.487C369.904 273.438 370.014 273.523 369.917 273.743C369.892 273.914 369.758 274.147 369.513 274.44L368.927 275.027V277.263C368.927 278.754 368.976 279.793 369.073 280.38C369.196 280.967 369.293 282.189 369.367 284.047C369.44 285.88 369.379 286.98 369.183 287.347C369.086 287.616 368.78 288.031 368.267 288.593C367.753 289.131 367.436 289.4 367.313 289.4C367.191 289.4 366.873 289.583 366.36 289.95C365.847 290.341 365.504 290.537 365.333 290.537C365.187 290.537 364.991 290.329 364.747 289.913C364.551 289.644 364.209 289.253 363.72 288.74C363.231 288.251 362.926 288.007 362.803 288.007C362.681 288.007 362.376 287.836 361.887 287.493C361.422 287.151 361.202 286.943 361.227 286.87C361.276 286.772 361.911 286.736 363.133 286.76C364.38 286.76 365.077 286.699 365.223 286.577C365.639 286.21 365.883 284.364 365.957 281.04C366.006 279.011 365.981 277.997 365.883 277.997C365.712 277.997 365.358 278.412 364.82 279.243C364.282 280.05 364.013 280.576 364.013 280.82C364.013 280.991 363.879 281.248 363.61 281.59C363.341 281.932 363.133 282.103 362.987 282.103C362.84 282.103 362.632 282.006 362.363 281.81C362.119 281.59 361.96 281.48 361.887 281.48C361.838 281.48 361.777 281.896 361.703 282.727C361.63 283.558 361.459 284.206 361.19 284.67C360.946 285.134 360.787 285.464 360.713 285.66C360.64 285.856 360.53 285.953 360.383 285.953C360.261 285.953 359.894 286.247 359.283 286.833C358.697 287.396 358.269 287.652 358 287.603C357.438 287.457 357.083 287.139 356.937 286.65C356.839 286.381 356.619 286.063 356.277 285.697C355.959 285.306 355.739 285.11 355.617 285.11C355.446 285.11 355.36 284.914 355.36 284.523L355.397 283.937L356.24 283.863C357.267 283.814 357.78 283.619 357.78 283.277C357.78 283.106 357.866 282.934 358.037 282.763C358.208 282.543 358.367 281.639 358.513 280.05C358.684 278.437 358.684 277.544 358.513 277.373C358.489 277.324 358.269 277.508 357.853 277.923C357.438 278.314 357.01 278.754 356.57 279.243C356.154 279.708 355.898 280.026 355.8 280.197C355.678 280.466 355.433 280.661 355.067 280.783C354.7 280.881 354.419 280.857 354.223 280.71C354.077 280.563 353.991 280.514 353.967 280.563C353.967 280.588 353.942 280.832 353.893 281.297C353.869 281.761 353.796 282.091 353.673 282.287C353.551 282.482 353.49 282.849 353.49 283.387C353.49 284.389 353.246 285.257 352.757 285.99C352.634 286.21 352.573 286.406 352.573 286.577C352.573 287.188 352.011 288.043 350.887 289.143C350.178 289.877 349.75 290.243 349.603 290.243C349.457 290.243 349.298 290.084 349.127 289.767C348.98 289.449 348.907 289.156 348.907 288.887C348.907 288.3 348.491 288.007 347.66 288.007C347.122 288.007 346.536 288.068 345.9 288.19C345.264 288.312 344.837 288.459 344.617 288.63C344.397 288.826 344.152 288.923 343.883 288.923C343.639 288.923 343.517 288.984 343.517 289.107C343.517 289.229 343.443 289.29 343.297 289.29C343.126 289.29 342.881 289.046 342.563 288.557C342.246 288.068 342.013 287.591 341.867 287.127L341.097 284.56C340.803 283.509 340.669 282.739 340.693 282.25C340.718 281.737 340.901 281.321 341.243 281.003C341.586 280.686 342.16 280.319 342.967 279.903C343.773 279.463 344.421 279.17 344.91 279.023L345.827 278.803V278.143C345.851 277.679 345.912 276.921 346.01 275.87C346.059 274.868 346.022 274.367 345.9 274.367C345.827 274.318 345.643 274.44 345.35 274.733L344.58 275.613C344.287 275.907 343.822 276.322 343.187 276.86C342.576 277.398 342.148 277.716 341.903 277.813C341.659 277.96 341.084 278.327 340.18 278.913C339.3 279.476 338.823 279.744 338.75 279.72C338.603 279.671 339.654 278.4 341.903 275.907C342.417 275.32 342.832 274.856 343.15 274.513C343.492 274.147 343.761 273.841 343.957 273.597C344.152 273.352 344.274 273.181 344.323 273.083C344.372 272.986 344.384 272.937 344.36 272.937C344.116 272.863 343.37 273.059 342.123 273.523C340.901 273.963 340.143 274.306 339.85 274.55C339.312 275.088 338.884 275.076 338.567 274.513C338.371 274.196 338.334 273.878 338.457 273.56C338.579 273.242 338.75 273.022 338.97 272.9C339.214 272.778 339.887 272.533 340.987 272.167C342.087 271.776 342.893 271.507 343.407 271.36C344.067 271.164 344.69 270.859 345.277 270.443L346.157 269.857L346.267 268.097ZM346.303 280.417C346.034 280.294 345.839 280.246 345.717 280.27C345.619 280.27 345.289 280.356 344.727 280.527C344.164 280.698 343.59 280.954 343.003 281.297C342.417 281.614 342.099 281.859 342.05 282.03C341.928 282.299 342.026 282.788 342.343 283.497C342.49 283.839 342.563 284.096 342.563 284.267C342.563 284.56 342.649 284.988 342.82 285.55C343.016 286.112 343.187 286.491 343.333 286.687C343.504 286.882 343.639 286.992 343.737 287.017C343.834 287.017 344.103 286.943 344.543 286.797L345.423 286.54V285.367C345.423 284.584 345.399 284.193 345.35 284.193C345.301 284.193 345.154 284.254 344.91 284.377C344.69 284.474 344.384 284.462 343.993 284.34C343.7 284.267 343.517 284.206 343.443 284.157C343.394 284.083 343.394 283.961 343.443 283.79C343.566 283.399 344.006 283.093 344.763 282.873C345.203 282.751 345.423 282.568 345.423 282.323C345.423 282.079 345.521 281.773 345.717 281.407C345.912 281.016 346.096 280.796 346.267 280.747C346.462 280.698 346.658 280.747 346.853 280.893C347.073 281.016 347.257 281.236 347.403 281.553C347.501 281.798 347.599 281.957 347.697 282.03C347.794 282.079 347.953 282.103 348.173 282.103C348.442 282.103 348.674 282.189 348.87 282.36C349.09 282.507 349.2 282.678 349.2 282.873C349.2 282.996 349.053 283.167 348.76 283.387C348.491 283.607 348.283 283.717 348.137 283.717C347.941 283.717 347.807 283.998 347.733 284.56C347.684 285.098 347.623 285.489 347.55 285.733C347.501 285.904 347.513 286.002 347.587 286.027C347.684 286.051 347.978 286.063 348.467 286.063C348.98 286.063 349.298 286.051 349.42 286.027C349.542 285.978 349.689 285.807 349.86 285.513C350.031 285.22 350.178 284.682 350.3 283.9C350.422 283.118 350.483 282.348 350.483 281.59C350.483 281.15 350.459 280.881 350.41 280.783C350.386 280.661 350.227 280.551 349.933 280.453C349.591 280.307 349.029 280.233 348.247 280.233C347.489 280.209 347.037 280.258 346.89 280.38C346.768 280.502 346.572 280.514 346.303 280.417ZM345.277 263.183C345.839 262.719 346.413 262.206 347 261.643C347.587 261.081 348.002 260.837 348.247 260.91C348.516 260.983 348.723 261.032 348.87 261.057C349.017 261.057 349.359 261.313 349.897 261.827L350.703 262.56L350.19 263.147C349.799 263.587 349.53 263.843 349.383 263.917C349.261 263.99 349.029 263.99 348.687 263.917C348.271 263.892 347.599 264.051 346.67 264.393C345.081 265.004 343.957 265.493 343.297 265.86C343.101 265.933 342.893 266.019 342.673 266.117C342.453 266.19 342.282 266.251 342.16 266.3C342.038 266.324 341.952 266.324 341.903 266.3C341.903 266.227 342.27 265.848 343.003 265.163C343.761 264.479 344.519 263.819 345.277 263.183ZM393.09 269.93C393.603 269.612 394.202 269.551 394.887 269.747C395.058 269.771 395.302 269.979 395.62 270.37C395.938 270.761 396.158 271.103 396.28 271.397C396.329 271.592 396.561 271.69 396.977 271.69C397.417 271.69 397.844 271.776 398.26 271.947C398.7 272.118 398.957 272.313 399.03 272.533C399.128 272.802 399.177 273.144 399.177 273.56C399.177 273.976 399.042 274.244 398.773 274.367C398.529 274.464 398.04 274.452 397.307 274.33C396.598 274.232 396.194 274.208 396.097 274.257C396.023 274.306 395.974 274.623 395.95 275.21C395.95 275.772 395.987 276.139 396.06 276.31C396.182 276.481 397.05 276.591 398.663 276.64C400.472 276.738 401.572 276.884 401.963 277.08C402.379 277.276 402.574 277.777 402.55 278.583C402.55 279.194 402.342 279.598 401.927 279.793C401.536 279.989 400.998 279.916 400.313 279.573C399.996 279.402 399.384 279.256 398.48 279.133C397.6 278.987 396.952 278.926 396.537 278.95L395.987 279.023L395.913 280.343C395.816 281.223 395.718 282.494 395.62 284.157C395.547 285.794 395.473 286.674 395.4 286.797C395.351 286.919 395.29 287.334 395.217 288.043C395.168 288.728 395.07 289.302 394.923 289.767C394.801 290.28 394.593 290.769 394.3 291.233C394.031 291.698 393.799 291.93 393.603 291.93C393.261 291.93 392.956 291.404 392.687 290.353C392.442 289.302 392.344 288.178 392.393 286.98C392.418 286.222 392.418 284.768 392.393 282.617L392.357 279.39H391.917C391.599 279.39 391.073 279.488 390.34 279.683C389.607 279.879 389.13 280.062 388.91 280.233C388.519 280.527 388.006 280.502 387.37 280.16C387.126 279.989 386.967 279.854 386.893 279.757C386.82 279.659 386.783 279.488 386.783 279.243C386.783 278.852 386.869 278.583 387.04 278.437C387.284 278.241 387.847 278.021 388.727 277.777C389.631 277.508 390.56 277.288 391.513 277.117L392.247 276.97L392.467 276.237C392.589 275.699 392.65 275.296 392.65 275.027C392.674 274.856 392.65 274.746 392.577 274.697C392.528 274.623 392.418 274.587 392.247 274.587C391.953 274.587 391.684 274.684 391.44 274.88C390.902 275.296 390.352 275.332 389.79 274.99C389.546 274.819 389.423 274.538 389.423 274.147C389.448 273.756 389.497 273.499 389.57 273.377C389.668 273.254 390.193 273.022 391.147 272.68C391.929 272.436 392.369 272.252 392.467 272.13C392.564 271.983 392.626 271.543 392.65 270.81C392.674 270.419 392.821 270.126 393.09 269.93ZM380.147 269.233C380.562 269.013 381.063 269.013 381.65 269.233C382.09 269.429 382.383 269.624 382.53 269.82C382.701 270.016 382.787 270.309 382.787 270.7C382.787 271.164 382.628 271.556 382.31 271.873C382.09 272.167 381.919 272.558 381.797 273.047C381.674 273.536 381.528 274.354 381.357 275.503C381.259 276.237 381.198 277.508 381.173 279.317C381.173 281.126 381.222 282.079 381.32 282.177C381.369 282.226 381.858 281.773 382.787 280.82C383.716 279.842 384.204 279.39 384.253 279.463C384.327 279.512 384.363 279.806 384.363 280.343C384.363 280.881 384.131 281.627 383.667 282.58C382.664 284.438 381.943 285.538 381.503 285.88C381.43 285.929 381.308 286.21 381.137 286.723C380.892 287.383 380.55 287.652 380.11 287.53C379.694 287.408 379.267 286.919 378.827 286.063C378.607 285.574 378.448 285.306 378.35 285.257C378.228 285.183 378.203 284.792 378.277 284.083C378.35 283.35 378.46 282.91 378.607 282.763C379.022 282.226 379.254 280.844 379.303 278.62C379.352 276.909 379.426 275.674 379.523 274.917C379.743 273.206 379.731 272.289 379.487 272.167C379.34 272.118 378.949 272.301 378.313 272.717C377.36 273.279 376.761 273.584 376.517 273.633C376.297 273.682 375.967 273.584 375.527 273.34C375.282 273.193 375.099 272.961 374.977 272.643C374.879 272.326 374.903 272.069 375.05 271.873C375.123 271.776 375.918 271.348 377.433 270.59C378.949 269.832 379.853 269.38 380.147 269.233ZM380.477 260.213C380.574 260.116 380.88 260.067 381.393 260.067C381.931 260.067 382.64 260.323 383.52 260.837C384.278 261.252 384.779 261.631 385.023 261.973C385.268 262.291 385.39 262.682 385.39 263.147C385.39 263.709 385.011 264.344 384.253 265.053C383.716 265.518 383.251 265.713 382.86 265.64C382.469 265.542 382.2 265.188 382.053 264.577C382.004 264.234 381.846 263.868 381.577 263.477C381.332 263.086 381.21 262.792 381.21 262.597C381.21 262.377 381.063 262.132 380.77 261.863C380.526 261.594 380.367 261.301 380.293 260.983C380.244 260.666 380.306 260.409 380.477 260.213ZM394.52 259.59C395.596 259.517 396.194 259.48 396.317 259.48C396.463 259.456 396.586 259.517 396.683 259.663C396.806 259.81 396.916 259.883 397.013 259.883C397.136 259.883 397.368 260.018 397.71 260.287C398.052 260.556 398.211 260.849 398.187 261.167C398.187 261.484 397.991 261.949 397.6 262.56C397.184 263.196 396.977 263.562 396.977 263.66C396.977 263.758 396.793 264.112 396.427 264.723C396.084 265.31 395.938 265.664 395.987 265.787C396.084 265.982 396.989 266.459 398.7 267.217C400.436 267.95 401.939 268.524 403.21 268.94C403.772 269.136 404.151 269.331 404.347 269.527C404.567 269.698 404.909 269.832 405.373 269.93C405.887 269.979 406.29 270.101 406.583 270.297C406.901 270.492 407.06 270.712 407.06 270.957C407.06 271.274 406.987 271.556 406.84 271.8C406.718 272.02 406.534 272.154 406.29 272.203C404.97 272.497 403.992 272.802 403.357 273.12C403.088 273.267 402.672 273.242 402.11 273.047C400.912 272.656 399.776 272.118 398.7 271.433C398.26 271.116 397.857 270.859 397.49 270.663C396.732 270.272 395.852 269.637 394.85 268.757C394.483 268.414 394.239 268.243 394.117 268.243C394.019 268.243 393.664 268.5 393.053 269.013C391.416 270.309 389.876 271.25 388.433 271.837C385.573 272.961 384.143 273.328 384.143 272.937C384.143 272.814 384.84 272.228 386.233 271.177C386.967 270.639 387.358 270.333 387.407 270.26C387.456 270.187 387.688 270.003 388.103 269.71C388.519 269.392 388.751 269.221 388.8 269.197C388.849 269.148 389.081 268.964 389.497 268.647C389.888 268.378 390.328 267.987 390.817 267.473C391.33 266.936 391.587 266.606 391.587 266.483C391.587 266.337 391.403 266.129 391.037 265.86C390.377 265.371 390.047 264.76 390.047 264.027C390.047 263.611 390.181 263.391 390.45 263.367C390.743 263.342 391.232 263.489 391.917 263.807C392.65 264.198 393.09 264.393 393.237 264.393C393.506 264.393 393.86 263.953 394.3 263.073C394.764 262.169 394.899 261.619 394.703 261.423C394.63 261.35 394.117 261.374 393.163 261.497C392.234 261.594 391.611 261.717 391.293 261.863C390.536 262.157 389.998 262.132 389.68 261.79C389.533 261.668 389.448 261.558 389.423 261.46C389.423 261.362 389.472 261.191 389.57 260.947C389.668 260.678 390.059 260.433 390.743 260.213C391.892 259.871 393.151 259.663 394.52 259.59ZM425.247 274.697C425.296 274.648 425.418 274.636 425.613 274.66C425.833 274.66 425.992 274.697 426.09 274.77C426.188 274.819 426.42 274.904 426.787 275.027C427.178 275.149 427.496 275.222 427.74 275.247C427.96 275.271 428.168 275.454 428.363 275.797C428.559 276.139 428.632 276.481 428.583 276.823C428.51 277.386 428.107 277.972 427.373 278.583C426.958 278.926 426.75 279.133 426.75 279.207C426.75 279.256 426.628 279.414 426.383 279.683C425.87 280.221 425.858 280.49 426.347 280.49C426.909 280.49 427.202 280.844 427.227 281.553C427.251 282.36 427.153 282.886 426.933 283.13C426.713 283.374 426.273 283.497 425.613 283.497C425.076 283.472 424.403 283.533 423.597 283.68C422.79 283.827 422.24 283.986 421.947 284.157C421.727 284.303 421.58 284.426 421.507 284.523C421.458 284.621 421.433 284.792 421.433 285.037C421.433 285.403 421.372 285.611 421.25 285.66C421.128 285.709 420.908 285.599 420.59 285.33C420.272 285.037 420.113 284.817 420.113 284.67C420.113 284.572 419.918 284.303 419.527 283.863C419.136 283.423 418.891 283.106 418.793 282.91C418.696 282.714 418.61 282.543 418.537 282.397C418.146 281.688 417.95 281.15 417.95 280.783C417.95 280.637 417.816 280.16 417.547 279.353C417.327 278.644 417.204 278.168 417.18 277.923C417.18 277.654 417.278 277.386 417.473 277.117C417.669 276.848 417.877 276.738 418.097 276.787C418.341 276.811 418.696 276.726 419.16 276.53C420.969 275.748 422.13 275.357 422.643 275.357C422.863 275.357 423.328 275.271 424.037 275.1C424.746 274.904 425.149 274.77 425.247 274.697ZM424.367 276.97C424.367 276.897 424.342 276.86 424.293 276.86C424.244 276.836 424.159 276.836 424.037 276.86C423.939 276.884 423.841 276.933 423.743 277.007C423.572 277.104 423.242 277.19 422.753 277.263C422.191 277.337 421.617 277.459 421.03 277.63C420.443 277.801 420.101 277.948 420.003 278.07C419.71 278.339 419.796 279.048 420.26 280.197C420.48 280.832 420.688 281.199 420.883 281.297C421.079 281.394 421.446 281.321 421.983 281.077C422.326 280.93 422.619 280.734 422.863 280.49C423.108 280.221 423.23 279.977 423.23 279.757C423.23 279.659 423.303 279.439 423.45 279.097C423.621 278.73 423.756 278.461 423.853 278.29C423.927 278.217 424.024 277.997 424.147 277.63C424.293 277.263 424.367 277.043 424.367 276.97ZM417.987 267.437C418.06 267.314 418.268 267.29 418.61 267.363C419.246 267.486 419.881 267.84 420.517 268.427C420.81 268.671 420.981 268.879 421.03 269.05C421.103 269.197 421.177 269.49 421.25 269.93C421.274 270.394 421.262 270.7 421.213 270.847C421.189 270.993 421.103 271.152 420.957 271.323C420.712 271.592 420.48 271.702 420.26 271.653C419.967 271.58 419.624 271.348 419.233 270.957C418.842 270.566 418.549 270.162 418.353 269.747C418.133 269.356 417.987 268.928 417.913 268.463C417.864 267.974 417.889 267.632 417.987 267.437ZM438.373 262.67C440.769 262.206 441.991 262.633 442.04 263.953C442.04 264.247 441.954 264.54 441.783 264.833C441.612 265.102 441.38 265.31 441.087 265.457C440.867 265.579 440.647 265.738 440.427 265.933C440.207 266.129 440.097 266.263 440.097 266.337C440.097 266.386 439.95 266.618 439.657 267.033C439.363 267.424 439.217 267.706 439.217 267.877C439.217 268.048 439.131 268.194 438.96 268.317C438.813 268.414 438.74 268.512 438.74 268.61C438.74 268.708 438.618 268.928 438.373 269.27C438.349 269.294 438.324 269.331 438.3 269.38C438.104 269.6 438.056 269.796 438.153 269.967C438.276 270.113 438.703 270.578 439.437 271.36C439.632 271.531 439.767 271.666 439.84 271.763C440.524 272.472 440.952 272.961 441.123 273.23C441.319 273.499 441.49 273.866 441.637 274.33C442.223 276.212 442.468 277.691 442.37 278.767C442.321 279.598 442.162 280.233 441.893 280.673C441.649 281.113 441.038 281.834 440.06 282.837L438.923 284.01L437.97 283.9C437.383 283.778 436.956 283.668 436.687 283.57C436.442 283.448 436.186 283.277 435.917 283.057C435.648 282.812 435.513 282.666 435.513 282.617C435.513 282.519 435.342 282.262 435 281.847C434.682 281.431 434.487 281.236 434.413 281.26C434.34 281.284 434.291 282.054 434.267 283.57C434.242 284.694 434.157 285.843 434.01 287.017C433.888 288.166 433.766 288.874 433.643 289.143C433.521 289.339 433.46 289.669 433.46 290.133C433.46 290.622 433.301 291.184 432.983 291.82C432.568 292.651 432.262 292.896 432.067 292.553C431.944 292.284 431.822 291.49 431.7 290.17C431.553 288.826 431.59 284.193 431.81 276.273L431.92 272.57L431.48 272.79C431.26 272.937 430.979 273.022 430.637 273.047C430.319 273.047 430.111 272.986 430.013 272.863C429.891 272.643 428.669 272.68 426.347 272.973C424.049 273.242 422.289 273.56 421.067 273.927C420.309 274.196 419.82 274.33 419.6 274.33C419.404 274.33 419.099 274.416 418.683 274.587C417.534 275.051 416.813 275.369 416.52 275.54C415.64 276.029 414.98 276.322 414.54 276.42C414.1 276.518 413.709 276.444 413.367 276.2C413.049 275.98 412.902 275.748 412.927 275.503C412.951 275.234 413.037 275.039 413.183 274.917C413.33 274.77 413.636 274.574 414.1 274.33C414.564 274.11 415.554 273.743 417.07 273.23C418.61 272.692 419.6 272.399 420.04 272.35C420.431 272.277 420.981 271.922 421.69 271.287C422.423 270.627 422.973 269.979 423.34 269.343C424.367 267.608 424.917 266.214 424.99 265.163C425.014 264.87 425.149 264.711 425.393 264.687C426.053 264.564 426.701 264.797 427.337 265.383C427.557 265.603 427.691 265.787 427.74 265.933C427.789 266.056 427.813 266.276 427.813 266.593C427.789 267.058 427.544 267.669 427.08 268.427C426.616 269.184 426.212 269.747 425.87 270.113C425.357 270.676 425.234 270.993 425.503 271.067C425.528 271.091 425.589 271.091 425.687 271.067C425.833 270.993 426.713 270.834 428.327 270.59C429.647 270.37 430.478 270.284 430.82 270.333C431.187 270.358 431.456 270.541 431.627 270.883C431.871 271.494 432.042 271.323 432.14 270.37C432.164 269.954 432.177 269.38 432.177 268.647C432.177 267.327 432.091 266.581 431.92 266.41C431.822 266.288 431.786 266.068 431.81 265.75C431.834 265.408 431.896 265.237 431.993 265.237C432.116 265.237 432.177 265.176 432.177 265.053C432.177 264.907 432.36 264.748 432.727 264.577L433.497 264.173C433.912 263.978 434.682 263.709 435.807 263.367C436.931 263 437.787 262.768 438.373 262.67ZM436.577 267.657C436.968 266.874 437.273 266.288 437.493 265.897C437.713 265.506 437.848 265.176 437.897 264.907C437.97 264.638 437.97 264.491 437.897 264.467C437.799 264.418 437.42 264.491 436.76 264.687C436.1 264.858 435.648 265.029 435.403 265.2L434.89 265.493L434.853 267.73C434.804 269.197 434.804 269.93 434.853 269.93C434.976 269.93 435.22 269.673 435.587 269.16C435.978 268.647 436.308 268.146 436.577 267.657ZM435.11 272.497C435.11 272.277 435.049 272.154 434.927 272.13C434.829 272.13 434.768 272.191 434.743 272.313C434.572 272.802 434.438 274.782 434.34 278.253C434.316 278.987 434.316 279.439 434.34 279.61C434.364 279.757 434.462 279.903 434.633 280.05C434.853 280.246 435.318 280.343 436.027 280.343C436.564 280.343 436.907 280.319 437.053 280.27C437.2 280.221 437.432 280.038 437.75 279.72C438.581 278.889 438.936 277.972 438.813 276.97C438.691 275.674 438.239 274.648 437.457 273.89C436.674 273.108 436.088 272.814 435.697 273.01C435.526 273.083 435.379 273.071 435.257 272.973C435.159 272.876 435.11 272.717 435.11 272.497ZM420.517 258.82C420.712 258.698 420.92 258.661 421.14 258.71C421.384 258.759 421.788 258.832 422.35 258.93C422.937 259.003 423.474 259.26 423.963 259.7C424.403 260.067 424.697 260.397 424.843 260.69C425.014 260.983 425.1 261.35 425.1 261.79V262.487L426.017 262.377C427.068 262.23 427.813 262.206 428.253 262.303C428.693 262.377 428.999 262.597 429.17 262.963C429.341 263.452 429.341 263.856 429.17 264.173C428.999 264.491 428.706 264.65 428.29 264.65C427.972 264.65 427.703 264.577 427.483 264.43C427.288 264.283 426.579 264.259 425.357 264.357C423.377 264.528 421.776 264.833 420.553 265.273C419.844 265.542 419.221 265.701 418.683 265.75C418.146 265.774 417.779 265.689 417.583 265.493C417.437 265.371 417.437 265.163 417.583 264.87C417.73 264.552 417.987 264.32 418.353 264.173C419.698 263.611 420.419 263.33 420.517 263.33C420.614 263.33 420.859 263.257 421.25 263.11L421.763 262.853L421.47 262.34C421.274 261.973 421.116 261.619 420.993 261.277C420.871 260.934 420.7 260.617 420.48 260.323C420.284 260.054 420.187 259.773 420.187 259.48C420.187 259.187 420.297 258.967 420.517 258.82ZM454.177 267.18C454.348 266.838 454.47 266.667 454.543 266.667C454.69 266.667 454.91 266.813 455.203 267.107C455.497 267.376 455.643 267.583 455.643 267.73C455.643 267.852 455.729 268.084 455.9 268.427C456.071 268.769 456.083 269.038 455.937 269.233C455.741 269.576 455.57 270.614 455.423 272.35C455.374 273.083 455.289 273.707 455.167 274.22C455.069 274.733 454.996 276.041 454.947 278.143C454.898 280.221 454.849 281.663 454.8 282.47C454.751 283.277 454.776 283.802 454.873 284.047C455.02 284.487 454.788 285.293 454.177 286.467C453.834 287.176 453.333 287.09 452.673 286.21C452.429 285.892 452.27 285.648 452.197 285.477C452.148 285.281 452.148 284.902 452.197 284.34C452.197 283.582 452.111 283.081 451.94 282.837C451.793 282.568 451.793 282.348 451.94 282.177C452.209 281.834 452.441 281.052 452.637 279.83C452.857 278.583 452.967 277.3 452.967 275.98C452.967 275.027 453.04 274.244 453.187 273.633C453.358 272.998 453.443 272.35 453.443 271.69C453.468 270.957 453.553 270.089 453.7 269.087C453.871 268.084 454.03 267.449 454.177 267.18ZM465.617 262.01C466.594 261.839 467.902 261.766 469.54 261.79C471.178 261.814 472.253 261.888 472.767 262.01L473.977 262.45C474.906 262.719 475.639 263.122 476.177 263.66C476.739 264.198 476.934 264.687 476.763 265.127C476.494 265.86 476.336 266.703 476.287 267.657C476.238 268.61 476.274 271.299 476.397 275.723C476.421 277.972 476.446 280.038 476.47 281.92C476.494 283.778 476.556 284.89 476.653 285.257C476.824 286.014 476.372 287.432 475.297 289.51C475.199 289.681 475.15 289.852 475.15 290.023C475.15 290.341 474.673 290.72 473.72 291.16C472.522 291.673 471.911 291.869 471.887 291.747C471.887 291.624 471.801 291.441 471.63 291.197C471.459 290.952 471.361 290.732 471.337 290.537C471.312 290.097 470.86 289.669 469.98 289.253C469.198 288.862 468.147 288.043 466.827 286.797C466.387 286.357 466.24 286.112 466.387 286.063C466.607 286.039 467.022 286.088 467.633 286.21C468.856 286.528 469.748 286.662 470.31 286.613C470.897 286.54 471.422 286.283 471.887 285.843C472.327 285.403 472.608 285.049 472.73 284.78C472.803 284.511 472.84 283.411 472.84 281.48C472.84 279.524 472.791 278.131 472.693 277.3C472.571 276.42 472.51 275.283 472.51 273.89C472.51 272.472 472.461 271.177 472.363 270.003C472.266 268.83 472.204 267.681 472.18 266.557C472.18 265.432 472.119 264.736 471.997 264.467C471.85 264.149 471.508 263.929 470.97 263.807C470.432 263.684 469.516 263.636 468.22 263.66C466.044 263.709 464.614 263.99 463.93 264.503C463.661 264.699 463.441 264.772 463.27 264.723C463.123 264.674 462.989 264.503 462.867 264.21C462.744 263.892 462.683 263.611 462.683 263.367C462.683 263.122 462.952 262.878 463.49 262.633C464.052 262.364 464.761 262.157 465.617 262.01ZM456.817 259.773C457.134 259.7 457.416 259.663 457.66 259.663C457.856 259.663 458.259 259.81 458.87 260.103C459.506 260.372 459.994 260.641 460.337 260.91L461.07 261.46C461.363 261.656 461.522 262.071 461.547 262.707C461.596 263.318 461.51 263.831 461.29 264.247C460.923 264.907 460.447 265.249 459.86 265.273C459.567 265.273 459.102 264.956 458.467 264.32C457.856 263.684 457.55 263.318 457.55 263.22C457.55 263.098 457.306 262.731 456.817 262.12C456.67 261.973 456.548 261.827 456.45 261.68C456.352 261.509 456.279 261.387 456.23 261.313C456.181 261.24 456.157 261.203 456.157 261.203C456.181 261.179 456.193 261.154 456.193 261.13C456.193 261.081 456.181 261.02 456.157 260.947C456.157 260.849 456.144 260.751 456.12 260.653C456.047 260.36 456.047 260.164 456.12 260.067C456.193 259.969 456.426 259.871 456.817 259.773Z" fill="black"/>
<defs>
<clipPath id="clip0_465_62">
<rect width="200" height="200" fill="white" transform="translate(98.667 161.333)"/>
</clipPath>
</defs>
</svg>
