<svg width="100" height="100" viewBox="0 0 100 100" fill="none" xmlns="http://www.w3.org/2000/svg">
<rect width="100" height="100" rx="50" fill="white"/>
<path d="M45.6717 3.60941C44.0624 3.73441 40.4061 4.29691 40.1405 4.46879C40.0467 4.51566 40.3592 4.96879 40.8124 5.45316C43.6405 8.48441 45.3749 11.1094 46.6092 14.2188C49.4842 21.4844 50.7655 27.7813 50.828 34.9219C50.8905 41.6719 50.2499 48.4219 48.7499 56.7969C48.0467 60.7344 46.6717 66.3125 45.7655 68.9063C45.4217 69.8907 44.8905 71.4375 44.578 72.3438C42.2967 79.0938 40.5936 83 38.0624 87.3282C36.7655 89.5313 35.578 91.125 34.0936 92.6407C33.2655 93.5 33.0155 93.8438 33.1717 93.9219C33.7186 94.2344 37.7811 95.4688 39.453 95.8594C45.7342 97.2657 52.3905 97.3907 58.5155 96.2344C59.4686 96.0625 60.2967 95.8594 60.3749 95.7813C60.453 95.6875 60.2655 95.3438 59.9061 94.9063C57.7967 92.3907 56.9217 91.1407 55.8436 89.0938C54.4061 86.3438 53.9999 85.3438 52.9061 81.7657C51.578 77.4375 51.1874 75.5625 50.703 71.0157C50.4217 68.375 50.3749 62.8438 50.6249 60.4688C50.703 59.6563 50.8905 57.8907 51.0311 56.5625C51.953 47.5313 54.7499 35.375 57.2655 29.4532C57.6249 28.5938 57.9842 27.7188 58.0467 27.5C58.3749 26.4219 60.2655 21.8125 61.2967 19.5938C63.5311 14.8125 65.7655 11.3125 68.4999 8.32816L69.0936 7.65629L68.078 7.20316C66.3592 6.42191 63.0936 5.35941 60.7499 4.78129C55.8124 3.57816 50.9061 3.20316 45.6717 3.60941Z" fill="#FC0001"/>
<path d="M27.5 9.07816C20.3906 12.8907 14.25 18.6875 9.9062 25.7032C8.99995 27.1719 6.7187 31.5313 6.7187 31.7969C6.7187 31.8594 6.57808 32.1875 6.42183 32.5469C4.9687 35.7657 3.49995 41.7657 3.14058 45.9844C2.0937 58.25 5.70308 69.9844 13.5 79.7032C15.6718 82.4219 19.0625 85.7032 21.4375 87.3907L22.4843 88.1407L23.4687 87.7188C26.9375 86.2657 30.7187 82.6094 34.0781 77.4219C35.6718 74.9844 37.4375 71.7188 38.0156 70.1407C38.8437 67.9219 38.7187 67 37.3437 65.1719C36.0312 63.4063 35.1406 62.7657 33 62C30.7187 61.1875 28.7812 61.375 25.9687 62.7344C24.1093 63.625 22.75 64.6094 21.5781 65.875C21.0625 66.4375 20.5156 66.8907 20.3593 66.9063C19.5468 66.9219 17.6718 66.5157 17.1093 66.1875C16.4375 65.7813 16.25 65.5157 15.8593 64.375C15.7187 63.9844 15.3593 63.4219 15.0468 63.0938C14.0625 62.0938 14.1875 60.6719 15.3125 60.125C16.3437 59.6094 18 57.5469 19.2031 55.2813C20.6718 52.5313 22.1718 47.6094 22.75 43.6719C23.1093 41.2188 23.1093 36.4219 22.75 34.7813C22.4218 33.2969 21.9218 32.2657 21.25 31.6719C20.6093 31.0938 20.2656 30.2657 20.4062 29.6407C20.6562 28.5 21.375 27.9688 22.6718 27.9688C23.25 27.9688 23.8125 27.8282 24.6875 27.4219C25.7031 26.9688 26.0781 26.875 26.9843 26.875C28.2187 26.875 28.625 27.1407 28.8281 28.1094C29.0468 29.1407 29.8125 30.5469 30.5625 31.3438C34.1406 35.0625 42.6406 35.75 44.7968 32.4844L45.2187 31.8594L44.8437 30.3438C42.9687 22.5625 38.1093 13.8438 33.7031 10.3438C32.5156 9.39066 31.4687 8.85941 30.1875 8.53128C29.6406 8.39066 29.1406 8.28128 29.0937 8.28128C29.0312 8.28128 28.3125 8.64066 27.5 9.07816Z" fill="#FC0001"/>
<path d="M77.1874 14.1406C73.2186 16.5938 69.2186 21.2188 65.6405 27.5C64.3592 29.7344 63.9842 30.6719 63.828 31.8906C63.6874 32.9844 63.9061 33.5156 65.0936 35.0938C66.2186 36.5938 67.2499 37.3594 69.1717 38.1563C70.6874 38.7813 70.7186 38.7813 72.1874 38.7031C73.8749 38.5938 74.6092 38.3906 76.4686 37.5313C78.203 36.7188 79.5624 35.7656 80.6717 34.625L81.578 33.6875L82.7811 33.8906C84.1561 34.1094 85.1874 34.5469 85.6092 35.0938C85.7655 35.2969 85.9999 35.8438 86.0936 36.2969C86.2342 36.8594 86.4842 37.3125 86.8905 37.7656C87.3592 38.2813 87.4999 38.5625 87.4999 38.9844C87.4999 39.7656 87.1092 40.4531 86.5155 40.7031C85.8124 41 84.078 42.8281 83.2186 44.1719C79.9374 49.2969 77.703 57.8594 78.1249 63.7188C78.2967 66.1875 78.6874 67.5157 79.4999 68.4532C80.5155 69.6094 80.6874 70.2032 80.2499 71.0625C79.8124 71.9063 79.4374 72.1094 78.0624 72.2032C77.203 72.2657 76.5467 72.4063 76.0155 72.6563C75.0936 73.0938 73.4842 73.25 72.8124 72.9688C72.3436 72.7813 72.2342 72.5469 71.6405 70.7032C71.328 69.7344 70.4217 68.3907 69.6717 67.7969C67.6249 66.1875 64.1561 65 61.453 65C60.3592 65 58.4686 65.375 57.7342 65.7344C57.1249 66.0469 56.4374 66.6875 56.1561 67.2188C55.9686 67.5782 55.9686 67.7969 56.1874 68.7813C56.328 69.4063 56.4686 70.0938 56.5155 70.3125C56.7967 71.7657 58.2967 76.1875 59.2186 78.2813C61.0467 82.4219 63.3436 86.0157 65.6092 88.2969C67.078 89.7657 68.2342 90.5469 69.4999 90.9375C70.0467 91.1094 70.6717 91.3907 70.8905 91.5625L71.2967 91.875L72.4842 91.2344C80.5624 86.8125 87.2967 79.8907 91.6092 71.5469C93.6717 67.5313 95.453 62.0625 96.1561 57.5C96.8905 52.875 96.8905 48.0782 96.1717 43.3594C95.9061 41.6719 95.8124 41.2188 95.2342 38.8281C93.4061 31.2813 89.1405 23.6406 83.5155 17.8281C81.7499 16 78.8436 13.4375 78.5467 13.4375C78.4374 13.4375 77.828 13.75 77.1874 14.1406Z" fill="#FC0001"/>
<path d="M29.0625 38.5625C29.0625 41.9063 28.5156 45.1407 27.3125 48.9063C26.7343 50.7188 25.5156 53.5938 24.6718 55.125C24.3281 55.7657 24.0781 56.3125 24.1093 56.3438C24.1562 56.3907 25.0156 56.1407 26.0312 55.7969C28.7343 54.875 30.375 54.6407 33.125 54.7344C34.5 54.7813 35.7656 54.9219 36.3281 55.0782C37.6718 55.4532 39.7031 56.4844 40.5312 57.2032L41.2343 57.8282L41.4687 57.4688C41.8281 56.9063 43.0625 54.2344 43.3593 53.3594C44.2968 50.5938 44.9218 47.25 45.375 42.5782C45.75 38.75 45.7968 37.8125 45.6093 37.8125C45.5156 37.8125 45.1093 38.0469 44.7031 38.3438C43.7656 39.0157 42.6562 39.5782 41.4843 39.9375C40.0468 40.375 36.875 40.3438 35.3125 39.8594C33.7656 39.375 31.75 38.3282 30.3593 37.2657C29.7343 36.7969 29.1875 36.4063 29.1406 36.4063C29.0937 36.4063 29.0625 37.375 29.0625 38.5625Z" fill="#FC0001"/>
<path d="M59.6406 44.0157C58.1093 47.0313 57.3593 49.5 56.5781 54.2188C56.0312 57.4688 55.5625 61.3438 55.7031 61.5625C55.75 61.6407 56.1718 61.4532 56.6875 61.1094C59.1562 59.4688 62.3906 58.9688 65.3906 59.7657C66.9531 60.1719 69.3437 61.4375 70.6875 62.5625C71.375 63.1407 71.9531 63.5625 72 63.5313C72.0312 63.4844 72.0937 62.8438 72.125 62.0782C72.2812 58.5469 72.6406 56.4219 73.5781 53.375C74.4218 50.6719 76 47.1094 77.375 44.8125C77.5625 44.4844 77.6718 44.1875 77.6093 44.125C77.5625 44.0782 76.9687 44.2032 76.2968 44.4375C73.8125 45.25 72.9062 45.3907 70.0781 45.3907C67.8593 45.375 67.2031 45.3282 66.1562 45.0469C64.375 44.5782 62.5625 43.6563 61.6718 42.7657C61.2656 42.3594 60.8593 42.0313 60.7968 42.0313C60.7187 42.0313 60.2031 42.9219 59.6406 44.0157Z" fill="#FC0001"/>
</svg>
