<svg width="600" height="600" viewBox="0 0 600 600" fill="none" xmlns="http://www.w3.org/2000/svg">
<rect width="600" height="600" rx="300" fill="white"/>
<path d="M274.032 21.6561C264.375 22.4061 242.438 25.7811 240.844 26.8123C240.282 27.0936 242.157 29.8123 244.875 32.7186C261.844 50.9061 272.25 66.6561 279.657 85.3123C296.907 128.906 304.594 166.687 304.969 209.531C305.344 250.031 301.5 290.531 292.5 340.781C288.282 364.406 280.032 397.875 274.594 413.437C272.532 419.344 269.344 428.625 267.469 434.062C253.782 474.562 243.563 498 228.375 523.969C220.594 537.187 213.469 546.75 204.563 555.844C199.594 561 198.094 563.062 199.032 563.531C202.313 565.406 226.688 572.812 236.719 575.156C274.407 583.594 314.344 584.344 351.094 577.406C356.813 576.375 361.782 575.156 362.25 574.687C362.719 574.125 361.594 572.062 359.438 569.437C346.782 554.344 341.532 546.844 335.063 534.562C326.438 518.062 324 512.062 317.438 490.594C309.469 464.625 307.125 453.375 304.219 426.094C302.532 410.25 302.25 377.062 303.75 362.812C304.219 357.937 305.344 347.344 306.188 339.375C311.719 285.187 328.5 212.25 343.594 176.719C345.75 171.562 347.907 166.312 348.282 165C350.25 158.531 361.594 130.875 367.782 117.562C381.188 88.8748 394.594 67.8748 411 49.9686L414.563 45.9373L408.469 43.2186C398.157 38.5311 378.563 32.1561 364.5 28.6873C334.875 21.4686 305.438 19.2186 274.032 21.6561Z" fill="#FC0001"/>
<path d="M165 54.4687C122.344 77.3437 85.5002 112.125 59.4377 154.219C54.0002 163.031 40.3127 189.187 40.3127 190.781C40.3127 191.156 39.469 193.125 38.5315 195.281C29.8127 214.594 21.0002 250.594 18.844 275.906C12.5627 349.5 34.219 419.906 81.0002 478.219C94.0315 494.531 114.375 514.219 128.625 524.344L134.906 528.844L140.813 526.312C161.625 517.594 184.313 495.656 204.469 464.531C214.031 449.906 224.625 430.312 228.094 420.844C233.063 407.531 232.313 402 224.063 391.031C216.188 380.437 210.844 376.594 198 372C184.313 367.125 172.688 368.25 155.813 376.406C144.656 381.75 136.5 387.656 129.469 395.25C126.375 398.625 123.094 401.344 122.156 401.437C117.281 401.531 106.031 399.094 102.656 397.125C98.6252 394.687 97.5002 393.094 95.1565 386.25C94.3127 383.906 92.1565 380.531 90.2815 378.562C84.3752 372.562 85.1252 364.031 91.8752 360.75C98.0627 357.656 108 345.281 115.219 331.687C124.031 315.187 133.031 285.656 136.5 262.031C138.656 247.312 138.656 218.531 136.5 208.687C134.531 199.781 131.531 193.594 127.5 190.031C123.656 186.562 121.594 181.594 122.438 177.844C123.938 171 128.25 167.812 136.031 167.812C139.5 167.812 142.875 166.969 148.125 164.531C154.219 161.812 156.469 161.25 161.906 161.25C169.313 161.25 171.75 162.844 172.969 168.656C174.281 174.844 178.875 183.281 183.375 188.062C204.844 210.375 255.844 214.5 268.781 194.906L271.313 191.156L269.063 182.062C257.813 135.375 228.656 83.0625 202.219 62.0625C195.094 56.3437 188.813 53.1562 181.125 51.1875C177.844 50.3437 174.844 49.6875 174.563 49.6875C174.188 49.6875 169.875 51.8437 165 54.4687Z" fill="#FC0001"/>
<path d="M463.125 84.8437C439.313 99.5625 415.313 127.312 393.844 165C386.157 178.406 383.907 184.031 382.969 191.344C382.125 197.906 383.438 201.094 390.563 210.562C397.313 219.562 403.5 224.156 415.032 228.937C424.125 232.687 424.313 232.687 433.125 232.219C443.25 231.562 447.657 230.344 458.813 225.187C469.219 220.312 477.375 214.594 484.032 207.75L489.469 202.125L496.688 203.344C504.938 204.656 511.125 207.281 513.657 210.562C514.594 211.781 516 215.062 516.563 217.781C517.407 221.156 518.907 223.875 521.344 226.594C524.157 229.687 525 231.375 525 233.906C525 238.594 522.657 242.719 519.094 244.219C514.875 246 504.469 256.969 499.313 265.031C479.625 295.781 466.219 347.156 468.75 382.312C469.782 397.125 472.125 405.094 477 410.719C483.094 417.656 484.125 421.219 481.5 426.375C478.875 431.437 476.625 432.656 468.375 433.219C463.219 433.594 459.282 434.437 456.094 435.937C450.563 438.562 440.907 439.5 436.875 437.812C434.063 436.687 433.407 435.281 429.844 424.219C427.969 418.406 422.532 410.344 418.032 406.781C405.75 397.125 384.938 390 368.719 390C362.157 390 350.813 392.25 346.407 394.406C342.75 396.281 338.625 400.125 336.938 403.312C335.813 405.469 335.813 406.781 337.125 412.687C337.969 416.437 338.813 420.562 339.094 421.875C340.782 430.594 349.782 457.125 355.313 469.687C366.282 494.531 380.063 516.094 393.657 529.781C402.469 538.594 409.407 543.281 417 545.625C420.282 546.656 424.032 548.344 425.344 549.375L427.782 551.25L434.907 547.406C483.375 520.875 523.782 479.344 549.657 429.281C562.032 405.187 572.719 372.375 576.938 345C581.344 317.25 581.344 288.469 577.032 260.156C575.438 250.031 574.875 247.312 571.407 232.969C560.438 187.687 534.844 141.844 501.094 106.969C490.5 96 473.063 80.625 471.282 80.625C470.625 80.625 466.969 82.5 463.125 84.8437Z" fill="#FC0001"/>
<path d="M174.375 231.375C174.375 251.437 171.094 270.843 163.875 293.437C160.406 304.312 153.094 321.562 148.031 330.75C145.969 334.594 144.469 337.875 144.656 338.062C144.938 338.344 150.094 336.844 156.188 334.781C172.406 329.25 182.25 327.844 198.75 328.406C207 328.687 214.594 329.531 217.969 330.469C226.031 332.719 238.219 338.906 243.188 343.219L247.406 346.969L248.813 344.812C250.969 341.437 258.375 325.406 260.156 320.156C265.781 303.562 269.531 283.5 272.25 255.468C274.5 232.5 274.781 226.875 273.656 226.875C273.094 226.875 270.656 228.281 268.219 230.062C262.594 234.093 255.938 237.468 248.906 239.625C240.281 242.25 221.25 242.062 211.875 239.156C202.594 236.25 190.5 229.968 182.156 223.593C178.406 220.781 175.125 218.437 174.844 218.437C174.563 218.437 174.375 224.25 174.375 231.375Z" fill="#FC0001"/>
<path d="M357.844 264.093C348.656 282.187 344.156 297 339.469 325.312C336.187 344.812 333.375 368.062 334.219 369.375C334.5 369.843 337.031 368.718 340.125 366.656C354.937 356.812 374.344 353.812 392.344 358.593C401.719 361.031 416.062 368.625 424.125 375.375C428.25 378.843 431.719 381.375 432 381.187C432.187 380.906 432.562 377.062 432.75 372.468C433.687 351.281 435.844 338.531 441.469 320.25C446.531 304.031 456 282.656 464.25 268.875C465.375 266.906 466.031 265.125 465.656 264.75C465.375 264.468 461.812 265.218 457.781 266.625C442.875 271.5 437.437 272.343 420.469 272.343C407.156 272.25 403.219 271.968 396.937 270.281C386.25 267.468 375.375 261.937 370.031 256.593C367.594 254.156 365.156 252.187 364.781 252.187C364.312 252.187 361.219 257.531 357.844 264.093Z" fill="#FC0001"/>
</svg>
