<svg width="1920" height="1080" viewBox="0 0 1920 1080" fill="none" xmlns="http://www.w3.org/2000/svg">
<rect width="1920" height="1080" fill="#E53C21"/>
<path d="M0 0H1200V300C1200 322.091 1182.09 340 1160 340H0V0Z" fill="black"/>
<rect x="112" y="419" width="848" height="300" rx="40" fill="white"/>
<rect x="960" y="419" width="424" height="300" rx="40" fill="black"/>
<rect x="1384" y="419" width="424" height="300" rx="40" fill="white"/>
<rect x="112" y="719" width="848" height="300" rx="40" fill="black"/>
<rect x="962.5" y="721.5" width="843" height="295" rx="37.5" fill="#E53C21" stroke="black" stroke-width="5"/>
<path d="M1375 160C1375 259.411 1455.59 340 1555 340V340C1654.41 340 1735 259.411 1735 160V-1.17719e-05H1375V160Z" fill="white"/>
<rect x="1419.5" y="34.5" width="270" height="270" rx="135" fill="white"/>
<rect x="1419.5" y="34.5" width="270" height="270" rx="135" stroke="black" stroke-width="5"/>
<path d="M1542.6 41.9255C1538.17 42.2693 1528.12 43.8162 1527.39 44.2888C1527.13 44.4177 1527.99 45.6638 1529.23 46.9958C1537.01 55.3318 1541.78 62.5505 1545.18 71.1013C1553.08 91.0818 1556.61 108.398 1556.78 128.035C1556.95 146.597 1555.19 165.16 1551.06 188.191C1549.13 199.019 1545.35 214.359 1542.86 221.492C1541.91 224.199 1540.45 228.453 1539.59 230.945C1533.32 249.508 1528.63 260.25 1521.67 272.152C1518.11 278.211 1514.84 282.594 1510.76 286.761C1508.48 289.125 1507.79 290.07 1508.22 290.285C1509.73 291.144 1520.9 294.539 1525.5 295.613C1542.77 299.48 1561.07 299.824 1577.92 296.644C1580.54 296.172 1582.82 295.613 1583.03 295.398C1583.25 295.14 1582.73 294.195 1581.74 292.992C1575.94 286.074 1573.54 282.636 1570.57 277.008C1566.62 269.445 1565.5 266.695 1562.49 256.855C1558.84 244.953 1557.77 239.797 1556.43 227.293C1555.66 220.031 1555.53 204.82 1556.22 198.289C1556.43 196.054 1556.95 191.199 1557.34 187.547C1559.87 162.711 1567.56 129.281 1574.48 112.996C1575.47 110.633 1576.46 108.226 1576.63 107.625C1577.53 104.66 1582.73 91.9841 1585.57 85.8826C1591.71 72.7341 1597.86 63.1091 1605.38 54.9021L1607.01 53.0544L1604.22 51.8083C1599.49 49.6599 1590.51 46.738 1584.06 45.1482C1570.48 41.8396 1556.99 40.8083 1542.6 41.9255Z" fill="#FC0001"/>
<path d="M1492.63 56.9646C1473.07 67.449 1456.19 83.3904 1444.24 102.683C1441.75 106.722 1435.48 118.711 1435.48 119.441C1435.48 119.613 1435.09 120.515 1434.66 121.504C1430.66 130.355 1426.63 146.855 1425.64 158.457C1422.76 192.187 1432.68 224.457 1454.13 251.183C1460.1 258.66 1469.42 267.683 1475.95 272.324L1478.83 274.386L1481.54 273.226C1491.08 269.23 1501.48 259.176 1510.72 244.91C1515.1 238.207 1519.95 229.226 1521.54 224.886C1523.82 218.785 1523.48 216.25 1519.7 211.222C1516.09 206.367 1513.64 204.605 1507.75 202.5C1501.48 200.265 1496.15 200.781 1488.41 204.519C1483.3 206.969 1479.56 209.676 1476.34 213.156C1474.92 214.703 1473.42 215.949 1472.99 215.992C1470.75 216.035 1465.6 214.918 1464.05 214.015C1462.2 212.898 1461.69 212.168 1460.61 209.031C1460.23 207.957 1459.24 206.41 1458.38 205.508C1455.67 202.758 1456.02 198.847 1459.11 197.343C1461.95 195.926 1466.5 190.254 1469.81 184.023C1473.85 176.461 1477.97 162.926 1479.56 152.097C1480.55 145.351 1480.55 132.16 1479.56 127.648C1478.66 123.566 1477.29 120.73 1475.44 119.097C1473.68 117.508 1472.73 115.23 1473.12 113.511C1473.8 110.375 1475.78 108.914 1479.35 108.914C1480.94 108.914 1482.48 108.527 1484.89 107.41C1487.68 106.164 1488.72 105.906 1491.21 105.906C1494.6 105.906 1495.72 106.636 1496.28 109.301C1496.88 112.136 1498.98 116.004 1501.05 118.195C1510.89 128.422 1534.26 130.312 1540.19 121.332L1541.35 119.613L1540.32 115.445C1535.16 94.0466 1521.8 70.0701 1509.68 60.445C1506.42 57.824 1503.54 56.363 1500.02 55.4607C1498.51 55.074 1497.14 54.7732 1497.01 54.7732C1496.84 54.7732 1494.86 55.7615 1492.63 56.9646Z" fill="#FC0001"/>
<path d="M1629.27 70.8865C1618.35 77.6326 1607.35 90.3513 1597.51 107.625C1593.99 113.769 1592.96 116.347 1592.53 119.699C1592.14 122.707 1592.74 124.168 1596.01 128.508C1599.1 132.633 1601.94 134.738 1607.22 136.929C1611.39 138.648 1611.48 138.648 1615.52 138.433C1620.16 138.133 1622.18 137.574 1627.29 135.211C1632.06 132.976 1635.8 130.355 1638.85 127.218L1641.34 124.64L1644.65 125.199C1648.43 125.801 1651.27 127.004 1652.43 128.508C1652.86 129.066 1653.5 130.57 1653.76 131.816C1654.14 133.363 1654.83 134.609 1655.95 135.855C1657.24 137.273 1657.63 138.047 1657.63 139.207C1657.63 141.355 1656.55 143.246 1654.92 143.933C1652.98 144.75 1648.21 149.777 1645.85 153.472C1636.83 167.566 1630.68 191.113 1631.84 207.226C1632.32 214.015 1633.39 217.668 1635.63 220.246C1638.42 223.426 1638.89 225.058 1637.69 227.422C1636.48 229.742 1635.45 230.301 1631.67 230.558C1629.31 230.73 1627.5 231.117 1626.04 231.804C1623.51 233.008 1619.08 233.437 1617.23 232.664C1615.95 232.148 1615.64 231.504 1614.01 226.433C1613.15 223.769 1610.66 220.074 1608.6 218.441C1602.97 214.015 1593.43 210.75 1586 210.75C1582.99 210.75 1577.79 211.781 1575.77 212.769C1574.09 213.629 1572.2 215.39 1571.43 216.851C1570.91 217.84 1570.91 218.441 1571.52 221.148C1571.9 222.867 1572.29 224.758 1572.42 225.359C1573.19 229.355 1577.32 241.515 1579.85 247.273C1584.88 258.66 1591.2 268.543 1597.43 274.816C1601.46 278.855 1604.64 281.004 1608.13 282.078C1609.63 282.551 1611.35 283.324 1611.95 283.797L1613.07 284.656L1616.33 282.894C1638.55 270.734 1657.07 251.699 1668.93 228.754C1674.6 217.711 1679.5 202.672 1681.43 190.125C1683.45 177.406 1683.45 164.215 1681.47 151.238C1680.74 146.597 1680.48 145.351 1678.89 138.777C1673.87 118.023 1662.14 97.0115 1646.67 81.0271C1641.81 75.9997 1633.82 68.9529 1633 68.9529C1632.7 68.9529 1631.03 69.8122 1629.27 70.8865Z" fill="#FC0001"/>
<path d="M1496.92 138.046C1496.92 147.242 1495.42 156.136 1492.11 166.492C1490.52 171.476 1487.17 179.382 1484.85 183.593C1483.9 185.355 1483.22 186.859 1483.3 186.945C1483.43 187.074 1485.79 186.386 1488.59 185.441C1496.02 182.906 1500.53 182.261 1508.09 182.519C1511.88 182.648 1515.36 183.035 1516.9 183.464C1520.6 184.496 1526.18 187.332 1528.46 189.308L1530.39 191.027L1531.04 190.039C1532.03 188.492 1535.42 181.144 1536.24 178.738C1538.82 171.132 1540.54 161.937 1541.78 149.089C1542.81 138.562 1542.94 135.984 1542.43 135.984C1542.17 135.984 1541.05 136.628 1539.93 137.445C1537.36 139.292 1534.3 140.839 1531.08 141.828C1527.13 143.031 1518.41 142.945 1514.11 141.613C1509.86 140.281 1504.31 137.402 1500.49 134.48C1498.77 133.191 1497.27 132.117 1497.14 132.117C1497.01 132.117 1496.92 134.781 1496.92 138.046Z" fill="#FC0001"/>
<path d="M1581.01 153.043C1576.8 161.336 1574.74 168.125 1572.59 181.101C1571.09 190.039 1569.8 200.695 1570.18 201.297C1570.31 201.511 1571.47 200.996 1572.89 200.05C1579.68 195.539 1588.57 194.164 1596.82 196.355C1601.12 197.472 1607.7 200.953 1611.39 204.047C1613.28 205.636 1614.87 206.797 1615 206.711C1615.09 206.582 1615.26 204.82 1615.34 202.715C1615.77 193.004 1616.76 187.16 1619.34 178.781C1621.66 171.347 1626 161.55 1629.78 155.234C1630.3 154.332 1630.6 153.515 1630.43 153.343C1630.3 153.215 1628.66 153.558 1626.82 154.203C1619.98 156.437 1617.49 156.824 1609.72 156.824C1603.61 156.781 1601.81 156.652 1598.93 155.879C1594.03 154.59 1589.05 152.054 1586.6 149.605C1585.48 148.488 1584.36 147.586 1584.19 147.586C1583.98 147.586 1582.56 150.035 1581.01 153.043Z" fill="#FC0001"/>
</svg>
