<svg width="600" height="830" viewBox="0 0 600 830" fill="none" xmlns="http://www.w3.org/2000/svg">
<path d="M275.296 28.8427L285.954 33.0068L279.778 42.6401C277.735 45.8298 278.53 50.0582 281.597 52.2877C282.862 53.2085 284.334 53.6537 285.796 53.6537C287.87 53.6537 289.923 52.7544 291.332 51.0362L298.585 42.186L305.839 51.0362C307.268 52.7776 309.376 53.634 311.458 53.6537C315.385 53.6251 318.558 50.4337 318.558 46.502C318.558 44.8428 317.993 43.3177 317.046 42.1037L311.215 33.0086L321.873 28.8445C325.402 27.4678 327.242 23.5755 326.073 19.9729C324.902 16.3702 321.129 14.3195 317.46 15.2635L306.391 18.1599L305.725 6.73511C305.505 2.95366 302.374 1.52588e-05 298.585 1.52588e-05C294.797 1.52588e-05 291.666 2.95366 291.446 6.73511L290.779 18.1599L279.71 15.2635C276.045 14.3159 272.267 16.3684 271.098 19.9729C269.927 23.5737 271.768 27.4642 275.296 28.8427Z" fill="#E53C21"/>
<path d="M405.86 830.455V683.067V697.372V764.472V830.455Z" fill="#E53C21"/>
<path d="M190.416 683.067H225.727C233.075 683.067 229.126 683.067 233.075 683.067C237.025 683.067 233.075 683.067 240.031 683.067H290.986C298.334 683.067 294.385 683.067 298.334 683.067C302.284 683.067 298.334 683.067 305.29 683.067H356.245C363.593 683.067 359.644 683.067 363.593 683.067C367.543 683.067 363.593 683.067 370.549 683.067H405.86H391.557H290.986H190.416Z" fill="#E53C21"/>
<path d="M298.585 61.3177L305.613 67.1428L344.25 271.847L252.92 271.845L291.557 67.1428L298.585 61.3177Z" fill="#E53C21"/>
<path d="M265.509 286.149V384.484H245.841V286.149H265.509Z" fill="#E53C21"/>
<path d="M317.358 286.149V384.484H279.812V286.149H317.358Z" fill="#E53C21"/>
<path d="M351.329 384.484H331.662V286.149H351.329V384.484Z" fill="#E53C21"/>
<path d="M305.613 67.1428C304.975 63.7636 302.023 61.3177 298.585 61.3177C295.147 61.3177 292.195 63.7636 291.557 67.1428L298.585 61.3177L305.613 67.1428Z" fill="#E53C21"/>
<path d="M231.538 398.788V442.591L365.632 442.593V398.788H231.538Z" fill="#E53C21"/>
<path d="M420.164 697.372V590.991C420.164 587.041 416.961 583.839 413.012 583.839H409.436H395.133H385.299H413.012L420.164 590.991V697.372H449.092V649.992L452.997 643.618L460.449 644.206L479.558 658.104L498.668 644.206L506.12 643.618L510.026 649.992V697.372H538.901V649.992L542.806 643.618L550.256 644.204L569.383 658.102L588.493 644.204L595.945 643.616L599.848 649.988L599.888 697.37L600 830.455H405.86V683.067H298.334H190.416V830.455H0L0.00045092 697.372L0.000611467 649.988L3.90723 643.615L11.3593 644.203L30.4686 658.1L49.5939 644.203L57.0442 643.616L60.949 649.99V697.37H89.8239V649.99L93.7305 643.616L101.183 644.204L120.292 658.102L139.401 644.204L146.853 643.616L150.76 649.99V697.37H176.113V683.067V590.989L183.264 583.837H211.871H201.143H186.84H183.264C179.315 583.837 176.113 587.039 176.113 590.989V697.37H150.76V649.99L146.853 643.616L139.401 644.204L120.292 658.102L101.183 644.204L93.7305 643.616L89.8239 649.99V697.37H60.949V649.99L57.0442 643.616L49.5939 644.203L30.4686 658.1L11.3593 644.203L3.90723 643.615L0.000611467 649.988L0 830.455H190.416V683.067H225.727C233.075 683.067 229.126 683.067 233.075 683.067C237.025 683.067 233.075 683.067 240.031 683.067H290.986C298.334 683.067 294.385 683.067 298.334 683.067C302.284 683.067 298.334 683.067 305.29 683.067H356.245C363.593 683.067 359.644 683.067 363.593 683.067C367.543 683.067 363.593 683.067 370.549 683.067H405.86V697.372V830.455H600L599.848 649.988L595.945 643.616L588.493 644.204L569.383 658.102L550.256 644.204L542.806 643.618L538.901 649.992V697.372H510.026V649.992L506.12 643.618L498.668 644.206L479.558 658.104L460.449 644.206L452.997 643.618L449.092 649.992V697.372H420.164Z" fill="#E53C21"/>
<path d="M201.143 583.837V549.747C201.143 545.797 197.941 542.595 193.992 542.595C190.042 542.595 186.84 545.797 186.84 549.747V583.837H201.143Z" fill="white"/>
<path d="M409.436 583.839V549.749C409.436 545.799 406.234 542.597 402.284 542.597C398.335 542.597 395.133 545.799 395.133 549.749V583.839H409.436Z" fill="white"/>
<path fill-rule="evenodd" clip-rule="evenodd" d="M150.76 649.99L146.853 643.616L139.401 644.204L120.292 658.102L101.183 644.204L93.7305 643.616L89.8239 649.99V697.37H60.949V649.99L57.0442 643.616L49.5939 644.203C51.7698 642.624 54.6484 642.397 57.0442 643.616C59.44 644.839 60.949 647.301 60.949 649.99V697.37H89.8239V649.99C89.8239 647.299 91.3347 644.837 93.7305 643.616C96.1299 642.397 99.0084 642.622 101.183 644.204L120.292 658.102L139.401 644.204C141.577 642.62 144.456 642.395 146.853 643.616C149.251 644.837 150.76 647.299 150.76 649.99Z" fill="#E53C21"/>
<path fill-rule="evenodd" clip-rule="evenodd" d="M588.493 644.204C590.669 642.62 593.545 642.395 595.945 643.616C598.341 644.837 599.85 647.299 599.848 649.988L600 830.455H405.86V764.472V697.372V830.455H600L599.848 649.988L595.945 643.616L588.493 644.204L569.383 658.102L550.256 644.204L542.806 643.618L538.901 649.992V697.372H510.026V649.992L506.12 643.618L498.668 644.206L479.558 658.104L460.449 644.206L452.997 643.618L449.092 649.992C449.092 647.301 450.601 644.839 452.997 643.618C455.398 642.399 458.273 642.624 460.449 644.206L479.558 658.104L498.668 644.206C500.844 642.622 503.72 642.397 506.12 643.618C508.517 644.839 510.026 647.301 510.026 649.992V697.372H538.901V649.992C538.901 647.303 540.41 644.841 542.806 643.618C545.204 642.395 548.08 642.624 550.256 644.204L569.383 658.102L588.493 644.204Z" fill="#E53C21"/>
<path d="M238.606 830.455H251.426V783.8C251.426 769.076 263.362 757.14 278.086 757.14H318.187C332.911 757.14 344.847 769.076 344.847 783.8V830.455H357.909V772.47C357.909 757.746 345.973 745.81 331.249 745.81H265.266C250.542 745.81 238.606 757.746 238.606 772.47V830.455Z" fill="white"/>
<path fill-rule="evenodd" clip-rule="evenodd" d="M204.716 830.455V697.37H391.557V830.455H357.909V772.47C357.909 757.746 345.973 745.81 331.249 745.81H265.266C250.542 745.81 238.606 757.746 238.606 772.47V830.455H204.716Z" fill="#E53C21"/>
<path fill-rule="evenodd" clip-rule="evenodd" d="M211.871 456.895V583.837H183.264L176.113 590.989V683.067V697.37H150.76V649.99L146.853 643.616L139.401 644.204L120.292 658.102L101.183 644.204L93.7305 643.616L89.8239 649.99V697.37H60.949V649.99L57.0442 643.616L49.5939 644.203L30.4686 658.1L11.3593 644.203L3.90723 643.615L0.000611467 649.988L0.00045092 697.372L0 830.455H190.416V683.067H298.334H405.86V830.455H600L599.888 697.37L599.848 649.988L595.945 643.616L588.493 644.204L569.383 658.102L550.256 644.204L542.806 643.618L538.901 649.992V697.372H510.026V649.992L506.12 643.618L498.668 644.206L479.558 658.104L460.449 644.206L452.997 643.618L449.092 649.992V697.372H420.164V590.991L413.012 583.839H385.299V456.895H211.871Z" fill="#E53C21"/>
<path d="M385.299 449.745C385.299 445.795 382.097 442.593 378.148 442.593H365.632L231.538 442.591H219.023C215.073 442.591 211.871 445.794 211.871 449.743V456.895H385.299V449.745Z" fill="white"/>
<path fill-rule="evenodd" clip-rule="evenodd" d="M405.86 830.455V683.067H391.557H290.986H190.416V830.455H204.716V697.37H391.557V830.455H405.86ZM231.538 398.788H365.632V278.999C365.632 275.049 362.43 271.847 358.48 271.847H344.25L252.92 271.845H238.69C234.74 271.845 231.538 275.047 231.538 278.997V398.788ZM331.662 384.484H351.329V286.149H331.662V384.484ZM265.509 384.484V286.149H245.841V384.484H265.509ZM279.812 384.484H317.358V286.149H279.812V384.484Z" fill="white"/>
<path fill-rule="evenodd" clip-rule="evenodd" d="M11.3593 644.203C9.18516 642.62 6.30661 642.395 3.90723 643.615L11.3593 644.203Z" fill="#E53C21"/>
<path d="M3.90723 643.615C1.51141 644.836 0.000611467 647.298 0.000611467 649.988L3.90723 643.615Z" fill="#E53C21"/>
<path d="M216.341 621.375C212.391 621.375 209.189 624.577 209.189 628.527V649.982C209.189 653.931 212.391 657.133 216.341 657.133C220.29 657.133 223.492 653.931 223.492 649.982V628.527C223.492 624.577 220.29 621.375 216.341 621.375Z" fill="white"/>
<path d="M257.91 621.375C253.961 621.375 250.759 624.577 250.759 628.527V649.982C250.759 653.931 253.961 657.133 257.91 657.133C261.86 657.133 265.062 653.931 265.062 649.982V628.527C265.062 624.577 261.86 621.375 257.91 621.375Z" fill="white"/>
<path d="M299.479 621.375C295.53 621.375 292.327 624.577 292.327 628.527V649.982C292.327 653.931 295.53 657.133 299.479 657.133C303.429 657.133 306.631 653.931 306.631 649.982V628.527C306.631 624.577 303.429 621.375 299.479 621.375Z" fill="white"/>
<path d="M341.048 621.375C337.098 621.375 333.896 624.577 333.896 628.527V649.982C333.896 653.931 337.098 657.133 341.048 657.133C344.997 657.133 348.2 653.931 348.2 649.982V628.527C348.2 624.577 344.997 621.375 341.048 621.375Z" fill="white"/>
<path d="M382.617 621.375C378.668 621.375 375.466 624.577 375.466 628.527V649.982C375.466 653.931 378.668 657.133 382.617 657.133C386.567 657.133 389.769 653.931 389.769 649.982V628.527C389.769 624.577 386.567 621.375 382.617 621.375Z" fill="white"/>
<path d="M298.585 469.048C269.995 469.048 246.736 492.309 246.736 520.898C246.736 549.487 269.995 572.748 298.585 572.748C327.176 572.748 350.435 549.487 350.435 520.898C350.435 492.309 327.176 469.048 298.585 469.048ZM298.585 558.444C277.881 558.444 261.039 541.6 261.039 520.898C261.039 500.196 277.881 483.352 298.585 483.352C319.289 483.352 336.132 500.196 336.132 520.898C336.132 541.6 319.289 558.444 298.585 558.444Z" fill="white"/>
<path d="M316.464 513.746H305.737V502.795C305.737 498.846 302.535 495.644 298.585 495.644C294.636 495.644 291.434 498.846 291.434 502.795V520.898C291.434 524.847 294.636 528.05 298.585 528.05H316.464C320.414 528.05 323.616 524.847 323.616 520.898C323.616 516.948 320.414 513.746 316.464 513.746Z" fill="white"/>
</svg>
