<svg width="720" height="720" viewBox="0 0 720 720" fill="none" xmlns="http://www.w3.org/2000/svg">
<path d="M360 0C161.2 0 0 161.2 0 360C0 558.8 161.2 720 360 720C558.8 720 720 558.8 720 360C720 161.2 558.8 0 360 0ZM44.4 387.2H144.8C146.4 423.6 151.48 459.76 160 495.2H73.6C57.48 461.2 47.6 424.64 44.4 387.2ZM387.2 171.2V47.6C425.76 62.24 457.44 90.8 476 127.6C484.2 141.48 491.44 155.92 497.6 170.8L387.2 171.2ZM516 225.2C525.28 260.52 530.8 296.72 532.4 333.2H387.2V225.2H516ZM332.8 47.6V171.2H222.4C228.56 156.32 235.8 141.88 244 128C262.48 91.04 294.2 62.4 332.8 47.6ZM332.8 225.2V333.2H188C189.6 296.72 195.12 260.52 204.4 225.2H332.8ZM144.8 332.8H44.4C47.6 295.36 57.48 258.8 73.6 224.8H160C151.48 260.24 146.4 296.4 144.8 332.8ZM188 387.2H332.8V495.2H204.4C195.12 459.88 189.6 423.68 188 387.2ZM333.2 547.2V670.8C294.64 656.16 262.96 627.6 244.4 590.8C236.2 576.92 228.96 562.48 222.8 547.6L333.2 547.2ZM387.2 670.8V549.2H497.6C491.44 564.08 484.2 578.52 476 592.4C457.44 629.2 425.76 657.76 387.2 672.4V670.8ZM387.2 493.2V385.2H532C530.4 421.68 524.88 457.88 515.6 493.2H387.2ZM575.6 385.2H676C672.8 422.64 662.92 459.2 646.8 493.2H560C568.4 458.4 573.48 422.92 575.2 387.2L575.6 385.2ZM575.6 331.2C573.76 295.44 568.56 260 560 225.2H646.4C662.52 259.2 672.4 295.76 675.6 333.2L575.6 331.2ZM615.6 171.2H544C531.04 134.8 512.28 100.8 488.4 70.4C538.16 92.8 581.4 127.44 614 171.2H615.6ZM231.6 70.4C207.72 100.8 188.96 134.8 176 171.2H106C138.6 127.44 181.84 92.8 231.6 70.4ZM105.6 550.4H176C188.96 586.8 207.72 620.8 231.6 651.2C181.68 628.52 138.4 593.4 106 549.2L105.6 550.4ZM488 651.2C511.88 620.8 530.64 586.8 543.6 550.4H614C581.2 593.6 538 627.72 488.4 649.6L488 651.2Z" fill="white"/>
</svg>
